G04*
G04 #@! TF.GenerationSoftware,Altium Limited,Altium Designer,25.9.0 (10)*
G04*
G04 Layer_Physical_Order=4*
G04 Layer_Color=16711680*
%FSLAX44Y44*%
%MOMM*%
G71*
G04*
G04 #@! TF.SameCoordinates,A8D4251A-1738-4EAF-8D38-4F3D33BA549E*
G04*
G04*
G04 #@! TF.FilePolarity,Positive*
G04*
G01*
G75*
%ADD10C,0.2000*%
%ADD34C,1.7018*%
%ADD35C,3.5560*%
%ADD36C,0.5000*%
D10*
X375500Y135000D02*
X389500Y121000D01*
X303750Y135000D02*
X375500D01*
X389500Y121000D02*
X403500D01*
X349300Y141000D02*
X380500D01*
X343000Y147300D02*
X349300Y141000D01*
X380500D02*
X394500Y127000D01*
X291750Y147000D02*
X303750Y135000D01*
X409700Y127200D02*
X469000D01*
X403500Y121000D02*
X409700Y127200D01*
X146700Y173500D02*
X243500D01*
X278500Y138500D01*
X139500Y166300D02*
X146700Y173500D01*
X102200Y179500D02*
X246000D01*
X284500Y141000D01*
X89000Y166300D02*
X102200Y179500D01*
X260500Y137000D02*
X267000Y130500D01*
X251300Y137000D02*
X260500D01*
X241500Y146800D02*
X251300Y137000D01*
X267000Y117500D02*
X307000Y77500D01*
X395500D01*
X308000Y84000D02*
X360500D01*
X267000Y117500D02*
Y130500D01*
X301000Y99500D02*
X360500D01*
X278500Y122000D02*
X301000Y99500D01*
X272500Y119500D02*
Y135500D01*
Y119500D02*
X308000Y84000D01*
X284500Y124500D02*
Y141000D01*
X303500Y105500D02*
X365050D01*
X278500Y122000D02*
Y138500D01*
X284500Y124500D02*
X303500Y105500D01*
X360500Y99500D02*
X365000Y95000D01*
X365050Y105500D02*
X368950Y101600D01*
X365000Y95000D02*
X400500D01*
X368950Y101600D02*
X394500D01*
X407300Y101800D02*
X469000D01*
X400500Y95000D02*
X407300Y101800D01*
X365400Y88900D02*
X394500D01*
X360500Y84000D02*
X365400Y88900D01*
X253500Y154500D02*
X272500Y135500D01*
X395500Y77500D02*
X407100Y89100D01*
X469000D01*
X198200Y154500D02*
X253500D01*
X190500Y146800D02*
X198200Y154500D01*
D34*
X63500Y12700D02*
D03*
X88900D02*
D03*
X139700D02*
D03*
X165100D02*
D03*
X215900D02*
D03*
X266700D02*
D03*
X317500D02*
D03*
X292100D02*
D03*
X241300D02*
D03*
X190500D02*
D03*
X114300D02*
D03*
X88900Y215900D02*
D03*
X114300D02*
D03*
X139700D02*
D03*
X165100D02*
D03*
X190500D02*
D03*
X215900D02*
D03*
X241300D02*
D03*
X266700D02*
D03*
X292100D02*
D03*
X317500D02*
D03*
X63500D02*
D03*
D35*
X355600Y203200D02*
D03*
Y25400D02*
D03*
X25400Y203200D02*
D03*
Y25400D02*
D03*
D36*
X431800Y155600D02*
D03*
Y73000D02*
D03*
X309500Y91000D02*
D03*
X415000Y174000D02*
D03*
Y184000D02*
D03*
X394500Y114500D02*
D03*
X444500Y184000D02*
D03*
Y174000D02*
D03*
X156500Y100300D02*
D03*
X354200Y91000D02*
D03*
X282500Y93800D02*
D03*
X232000D02*
D03*
X181000Y93800D02*
D03*
X130500Y93800D02*
D03*
X79500Y93800D02*
D03*
X309000Y128300D02*
D03*
Y119300D02*
D03*
X98000Y166300D02*
D03*
X148500D02*
D03*
X250500Y146800D02*
D03*
X300750Y147000D02*
D03*
X469000Y114500D02*
D03*
X352000Y147300D02*
D03*
X207500Y128300D02*
D03*
X343000Y113800D02*
D03*
X258000Y119300D02*
D03*
X207500Y119300D02*
D03*
X258000Y109300D02*
D03*
X207500Y109300D02*
D03*
Y100300D02*
D03*
X199500Y146800D02*
D03*
X156500Y128300D02*
D03*
Y119300D02*
D03*
X106000D02*
D03*
X55000Y119300D02*
D03*
X156500Y109300D02*
D03*
X106000Y109300D02*
D03*
X55000Y109300D02*
D03*
X232000Y135300D02*
D03*
X241500Y146800D02*
D03*
X291750Y147000D02*
D03*
X469000Y127200D02*
D03*
Y89100D02*
D03*
Y101800D02*
D03*
X394500Y127000D02*
D03*
Y101600D02*
D03*
Y88900D02*
D03*
X258000Y128300D02*
D03*
X190500Y146800D02*
D03*
X258000Y100300D02*
D03*
X343000Y147300D02*
D03*
X130500Y135300D02*
D03*
X55000Y128300D02*
D03*
X106000Y128300D02*
D03*
X139500Y166300D02*
D03*
X89000Y166300D02*
D03*
X106000Y100300D02*
D03*
X79500Y135300D02*
D03*
X55000Y100300D02*
D03*
M02*
