M48
;Layer_Color=9474304
;FILE_FORMAT=4:4
METRIC,LZ
;TYPE=PLATED
T01F00S00C0.2500
T02F00S00C1.0160
T03F00S00C2.5400
;TYPE=NON_PLATED
T04F00S00C1.4200
%
T01
X003095Y00091
X00309Y001193
Y001283
X0030075Y00147
X0029175Y00147
X00343Y001473
X00352
X00343Y001138
X003542Y00091
X003945Y000889
Y001016
Y001145
Y00127
X00415Y00174
Y00184
X004445Y00184
Y00174
X00469Y001272
Y001145
Y001018
Y000891
X002825Y000938
X00258Y001003
Y001093
Y001193
Y001283
X002505Y001468
X002415Y001468
X00232Y001353
X002075Y001283
Y001193
Y001093
Y001003
X00232Y000938
X00181Y000938
X001565Y001003
X001565Y001093
Y001193
Y001283
X001305Y001353
X00106Y001283
Y001193
Y001093
Y001003
X001305Y000938
X000795Y000938
X00055Y001003
Y001093
Y001193
Y001283
X000795Y001353
X00089Y001663
X00098Y001663
X001395Y001663
X001485Y001663
X001905Y001468
X001995
T02
X002921Y000127
X003175
Y002159
X002921
X002667
X002413
X002159
X001905
X001651
X001397
X001143
X000889
X000635
Y000127
X000889
X001143
X001397
X001651
X001905
X002159
X002413
X002667
T03
X003556Y000254
Y002032
X000254
Y000254
T04
X004318Y00073
Y001556
M30
