G04*
G04 #@! TF.GenerationSoftware,Altium Limited,Altium Designer,25.9.0 (10)*
G04*
G04 Layer_Color=16777215*
%FSLAX44Y44*%
%MOMM*%
G71*
G04*
G04 #@! TF.SameCoordinates,A8D4251A-1738-4EAF-8D38-4F3D33BA549E*
G04*
G04*
G04 #@! TF.FilePolarity,Positive*
G04*
G01*
G75*
%ADD10C,0.2000*%
%ADD11C,0.1530*%
%ADD12C,0.1500*%
G36*
X28581Y141614D02*
X28607Y141621D01*
X28872Y141627D01*
X28892Y141634D01*
X29054Y141644D01*
X29292Y141670D01*
X29378Y141684D01*
X29511Y141703D01*
X29551Y141710D01*
X29584Y141717D01*
X29623Y141723D01*
X29789Y141756D01*
X29868Y141776D01*
X29901Y141783D01*
X29954Y141796D01*
X29987Y141803D01*
X30024Y141813D01*
X30070Y141826D01*
X30097Y141832D01*
X30143Y141846D01*
X30170Y141852D01*
X30256Y141879D01*
X30477Y141955D01*
X30636Y142015D01*
X30693Y142038D01*
X30832Y142097D01*
X30958Y142157D01*
X31149Y142256D01*
X31222Y142296D01*
X31275Y142329D01*
X31288Y142336D01*
X31342Y142369D01*
X31355Y142375D01*
X31490Y142465D01*
X31570Y142518D01*
X31580Y142528D01*
X31593Y142534D01*
X31676Y142597D01*
X31699Y142614D01*
X31759Y142660D01*
X31772Y142673D01*
X31785Y142680D01*
X31805Y142700D01*
X31818Y142706D01*
X31845Y142733D01*
X31858Y142739D01*
X31884Y142766D01*
X31898Y142773D01*
X31964Y142839D01*
X31977Y142845D01*
X32206Y143074D01*
X32212Y143087D01*
X32259Y143133D01*
X32265Y143147D01*
X32311Y143193D01*
X32318Y143206D01*
X32338Y143226D01*
X32345Y143239D01*
X32364Y143259D01*
X32371Y143272D01*
X32384Y143286D01*
X32391Y143299D01*
X32411Y143319D01*
X32417Y143332D01*
X32437Y143352D01*
X32444Y143365D01*
X32576Y143551D01*
X32603Y143597D01*
X32649Y143670D01*
X32656Y143683D01*
X32689Y143736D01*
X32742Y143835D01*
X32868Y144093D01*
X32887Y144140D01*
X32940Y144272D01*
X32957Y144315D01*
X33026Y144530D01*
X33046Y144597D01*
X33053Y144623D01*
X33066Y144669D01*
X33093Y144775D01*
X33103Y144818D01*
X33109Y144852D01*
X33116Y144878D01*
X33122Y144911D01*
X33129Y144951D01*
X33136Y144984D01*
X33156Y145103D01*
X33166Y145192D01*
X33172Y145219D01*
X33182Y145315D01*
X33189Y145388D01*
X33195Y145474D01*
X33202Y145606D01*
X33205Y145994D01*
X33199Y146013D01*
X33192Y146192D01*
X33185Y146212D01*
X33179Y146331D01*
X33172Y146351D01*
X33162Y146440D01*
X33149Y146527D01*
X33136Y146606D01*
X33103Y146771D01*
X33056Y146957D01*
X33046Y146993D01*
X33020Y147086D01*
X32957Y147268D01*
X32917Y147374D01*
X32904Y147407D01*
X32881Y147463D01*
X32861Y147510D01*
X32821Y147596D01*
X32695Y147841D01*
X32662Y147900D01*
X32629Y147953D01*
X32623Y147967D01*
X32589Y148020D01*
X32583Y148033D01*
X32550Y148079D01*
X32543Y148092D01*
X32510Y148139D01*
X32503Y148152D01*
X32358Y148351D01*
X32311Y148410D01*
X32298Y148423D01*
X32292Y148437D01*
X32272Y148456D01*
X32265Y148470D01*
X32239Y148496D01*
X32232Y148510D01*
X32192Y148549D01*
X32186Y148562D01*
X32146Y148602D01*
X32139Y148615D01*
X32073Y148682D01*
X32067Y148695D01*
X31904Y148857D01*
X31891Y148864D01*
X31805Y148950D01*
X31792Y148956D01*
X31745Y149003D01*
X31732Y149009D01*
X31699Y149043D01*
X31686Y149049D01*
X31653Y149082D01*
X31639Y149089D01*
X31613Y149115D01*
X31600Y149122D01*
X31580Y149142D01*
X31567Y149148D01*
X31547Y149168D01*
X31534Y149175D01*
X31514Y149195D01*
X31500Y149201D01*
X31487Y149215D01*
X31474Y149221D01*
X31461Y149234D01*
X31447Y149241D01*
X31434Y149254D01*
X31421Y149261D01*
X31408Y149274D01*
X31395Y149281D01*
X31381Y149294D01*
X31368Y149301D01*
X31355Y149314D01*
X31342Y149320D01*
X31202Y149420D01*
X31189Y149426D01*
X31143Y149460D01*
X31130Y149466D01*
X31083Y149499D01*
X31070Y149506D01*
X30997Y149552D01*
X30984Y149559D01*
X30944Y149585D01*
X30931Y149592D01*
X30878Y149625D01*
X30865Y149632D01*
X30782Y149688D01*
X30769Y149701D01*
X30762Y149714D01*
X30742Y149761D01*
X30736Y149787D01*
X30742Y149847D01*
X30808Y149973D01*
X30842Y150032D01*
X30921Y150171D01*
X30954Y150231D01*
X31034Y150370D01*
X31067Y150429D01*
X31146Y150569D01*
X31179Y150628D01*
X31259Y150767D01*
X31292Y150827D01*
X31371Y150966D01*
X31404Y151025D01*
X31484Y151164D01*
X31517Y151224D01*
X31596Y151363D01*
X31630Y151423D01*
X31735Y151608D01*
X31765Y151644D01*
X31805Y151671D01*
X31851Y151684D01*
X31931Y151678D01*
X31990Y151644D01*
X32030Y151618D01*
X32043Y151611D01*
X32083Y151585D01*
X32096Y151578D01*
X32136Y151552D01*
X32149Y151545D01*
X32189Y151519D01*
X32202Y151512D01*
X32248Y151479D01*
X32262Y151472D01*
X32308Y151439D01*
X32321Y151433D01*
X32368Y151399D01*
X32381Y151393D01*
X32427Y151360D01*
X32441Y151353D01*
X32454Y151340D01*
X32467Y151333D01*
X32560Y151267D01*
X32573Y151260D01*
X32586Y151247D01*
X32599Y151241D01*
X32613Y151227D01*
X32626Y151221D01*
X32639Y151207D01*
X32652Y151201D01*
X32735Y151138D01*
X32758Y151121D01*
X32818Y151075D01*
X32854Y151045D01*
X32878Y151029D01*
X32914Y150999D01*
X32937Y150982D01*
X32950Y150969D01*
X32964Y150962D01*
X32990Y150936D01*
X33003Y150929D01*
X33023Y150910D01*
X33036Y150903D01*
X33063Y150876D01*
X33076Y150870D01*
X33103Y150843D01*
X33116Y150837D01*
X33156Y150797D01*
X33169Y150790D01*
X33215Y150744D01*
X33228Y150737D01*
X33268Y150698D01*
X33281Y150691D01*
X33361Y150612D01*
X33374Y150605D01*
X33675Y150304D01*
X33682Y150290D01*
X33755Y150218D01*
X33761Y150204D01*
X33801Y150165D01*
X33808Y150151D01*
X33854Y150105D01*
X33861Y150092D01*
X33887Y150065D01*
X33894Y150052D01*
X33920Y150026D01*
X33927Y150012D01*
X33953Y149986D01*
X33960Y149973D01*
X33986Y149946D01*
X33993Y149933D01*
X34013Y149913D01*
X34020Y149900D01*
X34033Y149887D01*
X34039Y149873D01*
X34053Y149860D01*
X34059Y149847D01*
X34079Y149827D01*
X34086Y149814D01*
X34099Y149801D01*
X34106Y149787D01*
X34119Y149774D01*
X34125Y149761D01*
X34139Y149748D01*
X34145Y149734D01*
X34159Y149721D01*
X34165Y149708D01*
X34298Y149522D01*
X34304Y149509D01*
X34337Y149463D01*
X34364Y149417D01*
X34390Y149377D01*
X34397Y149364D01*
X34423Y149324D01*
X34430Y149311D01*
X34476Y149238D01*
X34523Y149152D01*
X34549Y149105D01*
X34589Y149032D01*
X34768Y148668D01*
X34807Y148576D01*
X34834Y148516D01*
X34860Y148450D01*
X34877Y148407D01*
X34904Y148341D01*
X34930Y148268D01*
X34976Y148135D01*
X34986Y148099D01*
X35019Y147993D01*
X35046Y147907D01*
X35059Y147861D01*
X35066Y147834D01*
X35079Y147788D01*
X35085Y147761D01*
X35099Y147715D01*
X35119Y147635D01*
X35129Y147592D01*
X35148Y147513D01*
X35195Y147281D01*
X35234Y147043D01*
X35241Y146990D01*
X35251Y146901D01*
X35258Y146874D01*
X35271Y146728D01*
X35278Y146702D01*
X35287Y146580D01*
X35301Y146394D01*
X35307Y146255D01*
X35314Y145997D01*
X35317Y145855D01*
X35311Y145835D01*
X35304Y145418D01*
X35297Y145398D01*
X35287Y145222D01*
X35274Y145057D01*
X35268Y144997D01*
X35261Y144944D01*
X35241Y144765D01*
X35234Y144712D01*
X35201Y144514D01*
X35198Y144491D01*
Y144484D01*
X35191Y144438D01*
X35185Y144411D01*
X35175Y144348D01*
X35168Y144322D01*
X35155Y144256D01*
X35148Y144229D01*
X35142Y144196D01*
X35135Y144170D01*
X35122Y144103D01*
X35115Y144077D01*
X35102Y144011D01*
X35089Y143958D01*
X35079Y143921D01*
X35072Y143895D01*
X35059Y143848D01*
X35052Y143822D01*
X35039Y143776D01*
X35032Y143749D01*
X35019Y143703D01*
X35013Y143676D01*
X34960Y143511D01*
X34890Y143309D01*
X34870Y143256D01*
X34831Y143157D01*
X34811Y143104D01*
X34758Y142971D01*
X34662Y142763D01*
X34516Y142478D01*
X34470Y142392D01*
X34437Y142339D01*
X34430Y142326D01*
X34397Y142273D01*
X34390Y142260D01*
X34364Y142220D01*
X34357Y142206D01*
X34324Y142154D01*
X34318Y142140D01*
X34274Y142077D01*
X34221Y141998D01*
X34212Y141988D01*
X34205Y141975D01*
X34172Y141928D01*
X34165Y141915D01*
X34152Y141902D01*
X34145Y141889D01*
X34066Y141783D01*
X33973Y141664D01*
X33943Y141627D01*
X33927Y141604D01*
X33897Y141568D01*
X33881Y141551D01*
X33874Y141538D01*
X33828Y141491D01*
X33821Y141478D01*
X33781Y141439D01*
X33775Y141425D01*
X33735Y141385D01*
X33728Y141372D01*
X33563Y141207D01*
X33556Y141194D01*
X33460Y141097D01*
X33447Y141091D01*
X33394Y141038D01*
X33381Y141031D01*
X33328Y140978D01*
X33314Y140972D01*
X33261Y140919D01*
X33248Y140912D01*
X33208Y140872D01*
X33195Y140866D01*
X33175Y140846D01*
X33162Y140839D01*
X33142Y140820D01*
X33129Y140813D01*
X33109Y140793D01*
X33096Y140786D01*
X33076Y140766D01*
X33063Y140760D01*
X33043Y140740D01*
X33030Y140733D01*
X33010Y140714D01*
X32997Y140707D01*
X32977Y140687D01*
X32964Y140680D01*
X32950Y140667D01*
X32937Y140661D01*
X32924Y140647D01*
X32911Y140641D01*
X32679Y140475D01*
X32666Y140469D01*
X32626Y140442D01*
X32613Y140435D01*
X32566Y140402D01*
X32520Y140376D01*
X32480Y140349D01*
X32467Y140343D01*
X32421Y140310D01*
X32335Y140263D01*
X32288Y140237D01*
X32229Y140204D01*
X32136Y140151D01*
X31745Y139959D01*
X31626Y139906D01*
X31580Y139886D01*
X31520Y139860D01*
X31474Y139840D01*
X31431Y139823D01*
X31398Y139810D01*
X31345Y139790D01*
X31312Y139777D01*
X31259Y139757D01*
X31226Y139744D01*
X31173Y139724D01*
X30779Y139595D01*
X30547Y139528D01*
X30521Y139522D01*
X30474Y139509D01*
X30289Y139462D01*
X30246Y139452D01*
X30140Y139426D01*
X30107Y139419D01*
X30080Y139412D01*
X29915Y139380D01*
X29875Y139373D01*
X29709Y139340D01*
X29670Y139333D01*
X29584Y139320D01*
X29544Y139313D01*
X29372Y139287D01*
X29332Y139280D01*
X29272Y139274D01*
X29167Y139260D01*
X29107Y139254D01*
X29001Y139240D01*
X28941Y139234D01*
X28869Y139227D01*
X28551Y139201D01*
X28438Y139194D01*
X28173Y139181D01*
X27889Y139174D01*
X27515Y139171D01*
X27495Y139178D01*
X27137Y139184D01*
X27117Y139191D01*
X26909Y139201D01*
X26836Y139207D01*
X26637Y139227D01*
X26565Y139234D01*
X26505Y139240D01*
X26101Y139300D01*
X26068Y139307D01*
X26028Y139313D01*
X25962Y139326D01*
X25922Y139333D01*
X25889Y139340D01*
X25850Y139346D01*
X25750Y139366D01*
X25697Y139380D01*
X25664Y139386D01*
X25611Y139399D01*
X25578Y139406D01*
X25525Y139419D01*
X25492Y139426D01*
X25386Y139452D01*
X25350Y139462D01*
X25257Y139489D01*
X25231Y139495D01*
X25092Y139535D01*
X24731Y139657D01*
X24697Y139671D01*
X24645Y139691D01*
X24611Y139704D01*
X24558Y139724D01*
X24525Y139737D01*
X24472Y139757D01*
X24406Y139783D01*
X24370Y139800D01*
X24251Y139853D01*
X24204Y139873D01*
X24145Y139899D01*
X23781Y140085D01*
X23688Y140138D01*
X23628Y140171D01*
X23582Y140197D01*
X23529Y140230D01*
X23516Y140237D01*
X23469Y140270D01*
X23423Y140296D01*
X23383Y140323D01*
X23370Y140330D01*
X23324Y140363D01*
X23277Y140389D01*
X22986Y140601D01*
X22950Y140631D01*
X22926Y140647D01*
X22913Y140661D01*
X22900Y140667D01*
X22887Y140680D01*
X22873Y140687D01*
X22854Y140707D01*
X22840Y140714D01*
X22821Y140733D01*
X22807Y140740D01*
X22787Y140760D01*
X22774Y140766D01*
X22741Y140800D01*
X22728Y140806D01*
X22682Y140853D01*
X22668Y140859D01*
X22629Y140899D01*
X22615Y140906D01*
X22569Y140952D01*
X22556Y140958D01*
X22364Y141151D01*
X22350Y141157D01*
X22301Y141207D01*
X22294Y141220D01*
X22235Y141280D01*
X22228Y141293D01*
X22168Y141352D01*
X22162Y141366D01*
X22102Y141425D01*
X22096Y141439D01*
X22069Y141465D01*
X22062Y141478D01*
X22036Y141505D01*
X22029Y141518D01*
X22009Y141538D01*
X22003Y141551D01*
X21983Y141571D01*
X21976Y141584D01*
X21950Y141611D01*
X21943Y141624D01*
X21923Y141644D01*
X21917Y141657D01*
X21897Y141677D01*
X21890Y141690D01*
X21877Y141703D01*
X21871Y141717D01*
X21857Y141730D01*
X21851Y141743D01*
X21755Y141872D01*
X21705Y141942D01*
X21698Y141955D01*
X21665Y142001D01*
X21659Y142015D01*
X21632Y142054D01*
X21625Y142067D01*
X21592Y142114D01*
X21586Y142127D01*
X21553Y142173D01*
X21520Y142233D01*
X21440Y142372D01*
X21407Y142425D01*
X21188Y142869D01*
X21162Y142928D01*
X21142Y142975D01*
X21116Y143034D01*
X21096Y143081D01*
X21079Y143124D01*
X21020Y143282D01*
X21007Y143315D01*
X20937Y143531D01*
X20884Y143696D01*
X20871Y143749D01*
X20858Y143795D01*
X20844Y143848D01*
X20831Y143895D01*
X20818Y143948D01*
X20805Y143994D01*
X20795Y144037D01*
X20781Y144103D01*
X20775Y144130D01*
X20761Y144196D01*
X20755Y144222D01*
X20742Y144289D01*
X20735Y144315D01*
X20708Y144474D01*
X20695Y144560D01*
X20682Y144640D01*
X20672Y144729D01*
X20666Y144755D01*
X20656Y144858D01*
X20649Y144911D01*
X20636Y145030D01*
X20612Y145424D01*
X20606Y145729D01*
X20612Y146166D01*
X20619Y146186D01*
X20626Y146364D01*
X20632Y146384D01*
X20642Y146527D01*
X20662Y146705D01*
X20695Y146930D01*
X20702Y146970D01*
X20715Y147056D01*
X20735Y147156D01*
X20742Y147195D01*
X20748Y147228D01*
X20755Y147255D01*
X20761Y147288D01*
X20768Y147314D01*
X20775Y147347D01*
X20781Y147374D01*
X20788Y147407D01*
X20834Y147592D01*
X20844Y147629D01*
X20871Y147722D01*
X20891Y147788D01*
X20924Y147894D01*
X20940Y147937D01*
X20987Y148069D01*
X21046Y148228D01*
X21069Y148284D01*
X21096Y148351D01*
X21122Y148410D01*
X21155Y148483D01*
X21215Y148609D01*
X21321Y148814D01*
X21354Y148874D01*
X21381Y148920D01*
X21414Y148973D01*
X21420Y148986D01*
X21453Y149039D01*
X21460Y149052D01*
X21486Y149092D01*
X21493Y149105D01*
X21526Y149152D01*
X21553Y149198D01*
X21619Y149291D01*
X21625Y149304D01*
X21721Y149433D01*
X21814Y149552D01*
X21831Y149575D01*
X21851Y149595D01*
X21857Y149608D01*
X21877Y149628D01*
X21884Y149642D01*
X21910Y149668D01*
X21917Y149681D01*
X21957Y149721D01*
X21963Y149734D01*
X22003Y149774D01*
X22009Y149787D01*
X22089Y149867D01*
X22096Y149880D01*
X22297Y150082D01*
X22311Y150089D01*
X22377Y150155D01*
X22390Y150161D01*
X22437Y150208D01*
X22450Y150214D01*
X22490Y150254D01*
X22503Y150261D01*
X22536Y150294D01*
X22549Y150300D01*
X22569Y150320D01*
X22582Y150327D01*
X22602Y150347D01*
X22615Y150353D01*
X22642Y150380D01*
X22655Y150386D01*
X22668Y150400D01*
X22682Y150406D01*
X22701Y150426D01*
X22715Y150433D01*
X22728Y150446D01*
X22741Y150453D01*
X22754Y150466D01*
X22768Y150472D01*
X22781Y150486D01*
X22794Y150492D01*
X22807Y150506D01*
X22821Y150512D01*
X23006Y150645D01*
X23019Y150651D01*
X23066Y150684D01*
X23112Y150711D01*
X23152Y150737D01*
X23165Y150744D01*
X23205Y150771D01*
X23218Y150777D01*
X23271Y150810D01*
X23284Y150817D01*
X23337Y150850D01*
X23423Y150896D01*
X23496Y150936D01*
X23635Y151009D01*
X23827Y151102D01*
X23913Y151141D01*
X24098Y151221D01*
X24231Y151274D01*
X24274Y151290D01*
X24327Y151310D01*
X24400Y151337D01*
X24694Y151433D01*
X24780Y151459D01*
X24966Y151512D01*
X25045Y151532D01*
X25092Y151545D01*
X25134Y151555D01*
X25240Y151581D01*
X25274Y151588D01*
X25300Y151595D01*
X25333Y151601D01*
X25360Y151608D01*
X25558Y151648D01*
X25598Y151654D01*
X25631Y151661D01*
X25671Y151668D01*
X25704Y151674D01*
X25790Y151687D01*
X25869Y151701D01*
X26051Y151724D01*
X26078Y151730D01*
X26286Y151754D01*
X26353Y151760D01*
X26498Y151774D01*
X26591Y151780D01*
X26697Y151787D01*
X26816Y151793D01*
X26982Y151800D01*
X28574Y151803D01*
X28581Y141614D01*
D02*
G37*
G36*
X34844Y135424D02*
X34904Y135390D01*
X34933Y135367D01*
X34940Y135354D01*
X34953Y135341D01*
X34966Y135308D01*
X34980Y135255D01*
X34973Y133308D01*
X34940Y133249D01*
X34897Y133206D01*
X34864Y133192D01*
X34817Y133179D01*
X32543Y133176D01*
X32609Y133136D01*
X32722Y133070D01*
X32795Y133024D01*
X32848Y132990D01*
X32887Y132964D01*
X32940Y132931D01*
X33020Y132878D01*
X33030Y132868D01*
X33043Y132861D01*
X33136Y132795D01*
X33149Y132788D01*
X33162Y132775D01*
X33175Y132769D01*
X33189Y132755D01*
X33202Y132749D01*
X33215Y132736D01*
X33228Y132729D01*
X33242Y132716D01*
X33255Y132709D01*
X33314Y132663D01*
X33351Y132633D01*
X33381Y132610D01*
X33394Y132603D01*
X33414Y132583D01*
X33427Y132577D01*
X33454Y132550D01*
X33467Y132543D01*
X33493Y132517D01*
X33507Y132510D01*
X33533Y132484D01*
X33546Y132477D01*
X33573Y132451D01*
X33586Y132444D01*
X33639Y132391D01*
X33652Y132385D01*
X33705Y132332D01*
X33718Y132325D01*
X33980Y132064D01*
X33986Y132050D01*
X34059Y131977D01*
X34066Y131964D01*
X34099Y131931D01*
X34106Y131918D01*
X34139Y131885D01*
X34145Y131872D01*
X34172Y131845D01*
X34179Y131832D01*
X34198Y131812D01*
X34205Y131799D01*
X34225Y131779D01*
X34232Y131766D01*
X34251Y131746D01*
X34258Y131733D01*
X34278Y131713D01*
X34284Y131699D01*
X34298Y131686D01*
X34304Y131673D01*
X34318Y131660D01*
X34324Y131646D01*
X34337Y131633D01*
X34344Y131620D01*
X34443Y131481D01*
X34450Y131468D01*
X34463Y131454D01*
X34470Y131441D01*
X34562Y131295D01*
X34569Y131282D01*
X34602Y131229D01*
X34668Y131110D01*
X34728Y130998D01*
X34827Y130792D01*
X34847Y130746D01*
X34874Y130686D01*
X34894Y130640D01*
X34933Y130541D01*
X34950Y130498D01*
X34963Y130465D01*
X35003Y130352D01*
X35026Y130276D01*
X35066Y130150D01*
X35092Y130057D01*
X35099Y130031D01*
X35112Y129985D01*
X35152Y129826D01*
X35162Y129783D01*
X35168Y129756D01*
X35201Y129591D01*
X35241Y129352D01*
X35248Y129299D01*
X35258Y129210D01*
X35264Y129184D01*
X35287Y128955D01*
X35301Y128770D01*
X35307Y128631D01*
X35317Y128257D01*
X35311Y128237D01*
X35304Y127912D01*
X35297Y127892D01*
X35287Y127750D01*
X35281Y127671D01*
X35264Y127535D01*
X35258Y127508D01*
X35248Y127432D01*
X35234Y127346D01*
X35208Y127214D01*
X35201Y127174D01*
X35182Y127075D01*
X35135Y126889D01*
X35125Y126853D01*
X35105Y126774D01*
X35019Y126502D01*
X35006Y126469D01*
X34990Y126426D01*
X34976Y126393D01*
X34937Y126287D01*
X34923Y126254D01*
X34904Y126201D01*
X34887Y126164D01*
X34860Y126105D01*
X34827Y126032D01*
X34801Y125972D01*
X34655Y125688D01*
X34629Y125641D01*
X34596Y125588D01*
X34589Y125575D01*
X34562Y125529D01*
X34529Y125476D01*
X34523Y125463D01*
X34490Y125410D01*
X34483Y125396D01*
X34417Y125304D01*
X34410Y125290D01*
X34377Y125244D01*
X34371Y125231D01*
X34337Y125184D01*
X34331Y125171D01*
X34284Y125112D01*
X34221Y125029D01*
X34198Y124999D01*
X34192Y124986D01*
X34188Y124983D01*
X34185Y124979D01*
X34139Y124920D01*
X34109Y124883D01*
X34092Y124867D01*
X34086Y124853D01*
X34059Y124827D01*
X34053Y124814D01*
X34026Y124787D01*
X34020Y124774D01*
X33986Y124741D01*
X33980Y124728D01*
X33953Y124701D01*
X33947Y124688D01*
X33847Y124589D01*
X33841Y124575D01*
X33593Y124327D01*
X33579Y124320D01*
X33500Y124241D01*
X33487Y124234D01*
X33454Y124201D01*
X33440Y124195D01*
X33407Y124162D01*
X33394Y124155D01*
X33361Y124122D01*
X33348Y124115D01*
X33308Y124075D01*
X33295Y124069D01*
X33275Y124049D01*
X33261Y124042D01*
X33242Y124023D01*
X33228Y124016D01*
X33215Y124003D01*
X33202Y123996D01*
X33182Y123976D01*
X33169Y123970D01*
X33156Y123956D01*
X33142Y123950D01*
X33122Y123930D01*
X33109Y123923D01*
X33096Y123910D01*
X33083Y123903D01*
X33063Y123883D01*
X33050Y123877D01*
X33036Y123864D01*
X33023Y123857D01*
X32884Y123758D01*
X32871Y123751D01*
X32858Y123738D01*
X32844Y123731D01*
X32758Y123672D01*
X32745Y123665D01*
X32699Y123632D01*
X32652Y123605D01*
X32580Y123559D01*
X32566Y123553D01*
X32520Y123519D01*
X32434Y123473D01*
X32388Y123447D01*
X32328Y123413D01*
X32282Y123387D01*
X32222Y123354D01*
X31818Y123155D01*
X31759Y123129D01*
X31686Y123096D01*
X31626Y123069D01*
X31580Y123049D01*
X31547Y123036D01*
X31504Y123020D01*
X31305Y122940D01*
X31193Y122900D01*
X31020Y122841D01*
X30924Y122811D01*
X30792Y122771D01*
X30746Y122758D01*
X30613Y122718D01*
X30481Y122685D01*
X30434Y122672D01*
X30249Y122626D01*
X30206Y122616D01*
X30107Y122596D01*
X30080Y122589D01*
X30014Y122576D01*
X29987Y122569D01*
X29888Y122549D01*
X29809Y122536D01*
X29776Y122530D01*
X29498Y122483D01*
X29339Y122463D01*
X29249Y122453D01*
X29223Y122447D01*
X29140Y122437D01*
X28776Y122404D01*
X28581Y122394D01*
X28495Y122387D01*
X28309Y122381D01*
X28144Y122374D01*
X27448Y122381D01*
X27429Y122387D01*
X27220Y122397D01*
X27114Y122404D01*
X27041Y122410D01*
X26843Y122430D01*
X26770Y122437D01*
X26710Y122444D01*
X26528Y122467D01*
X26502Y122473D01*
X26426Y122483D01*
X26300Y122503D01*
X26260Y122510D01*
X26227Y122516D01*
X26187Y122523D01*
X26154Y122530D01*
X26075Y122543D01*
X26042Y122549D01*
X26002Y122556D01*
X25969Y122563D01*
X25942Y122569D01*
X25909Y122576D01*
X25883Y122583D01*
X25850Y122589D01*
X25823Y122596D01*
X25790Y122602D01*
X25737Y122616D01*
X25704Y122622D01*
X25677Y122629D01*
X25644Y122635D01*
X25565Y122655D01*
X25528Y122665D01*
X25502Y122672D01*
X25456Y122685D01*
X25429Y122692D01*
X25383Y122705D01*
X25356Y122712D01*
X25310Y122725D01*
X25284Y122732D01*
X25197Y122758D01*
X25032Y122811D01*
X24870Y122867D01*
X24817Y122887D01*
X24744Y122914D01*
X24691Y122934D01*
X24618Y122960D01*
X24519Y123000D01*
X24370Y123063D01*
X24277Y123102D01*
X23986Y123241D01*
X23873Y123301D01*
X23701Y123394D01*
X23655Y123420D01*
X23602Y123453D01*
X23589Y123460D01*
X23536Y123493D01*
X23522Y123499D01*
X23469Y123533D01*
X23456Y123539D01*
X23403Y123572D01*
X23390Y123579D01*
X23344Y123612D01*
X23330Y123619D01*
X23284Y123652D01*
X23271Y123659D01*
X23258Y123672D01*
X23244Y123678D01*
X23198Y123711D01*
X23185Y123718D01*
X23138Y123751D01*
X23125Y123758D01*
X23042Y123821D01*
X23019Y123837D01*
X22936Y123900D01*
X22913Y123917D01*
X22854Y123963D01*
X22817Y123993D01*
X22794Y124009D01*
X22774Y124029D01*
X22761Y124036D01*
X22734Y124062D01*
X22721Y124069D01*
X22695Y124095D01*
X22682Y124102D01*
X22655Y124129D01*
X22642Y124135D01*
X22615Y124162D01*
X22602Y124168D01*
X22536Y124234D01*
X22523Y124241D01*
X22450Y124314D01*
X22437Y124320D01*
X22162Y124595D01*
X22155Y124608D01*
X22109Y124655D01*
X22102Y124668D01*
X22062Y124708D01*
X22056Y124721D01*
X22016Y124761D01*
X22009Y124774D01*
X21970Y124814D01*
X21963Y124827D01*
X21937Y124853D01*
X21930Y124867D01*
X21910Y124887D01*
X21904Y124900D01*
X21884Y124920D01*
X21877Y124933D01*
X21864Y124946D01*
X21857Y124959D01*
X21837Y124979D01*
X21831Y124993D01*
X21811Y125012D01*
X21804Y125026D01*
X21784Y125045D01*
X21778Y125059D01*
X21765Y125072D01*
X21758Y125085D01*
X21745Y125098D01*
X21738Y125112D01*
X21606Y125297D01*
X21599Y125310D01*
X21586Y125324D01*
X21579Y125337D01*
X21533Y125410D01*
X21526Y125423D01*
X21500Y125463D01*
X21493Y125476D01*
X21467Y125516D01*
X21460Y125529D01*
X21433Y125569D01*
X21427Y125582D01*
X21394Y125635D01*
X21341Y125734D01*
X21275Y125853D01*
X21149Y126111D01*
X21116Y126184D01*
X21096Y126231D01*
X21083Y126264D01*
X21043Y126356D01*
X21030Y126390D01*
X21010Y126436D01*
X20993Y126479D01*
X20954Y126591D01*
X20920Y126684D01*
X20891Y126780D01*
X20871Y126846D01*
X20858Y126893D01*
X20818Y127025D01*
X20785Y127157D01*
X20775Y127201D01*
X20755Y127280D01*
X20748Y127313D01*
X20742Y127340D01*
X20728Y127406D01*
X20722Y127445D01*
X20708Y127512D01*
X20702Y127551D01*
X20695Y127585D01*
X20689Y127624D01*
X20682Y127657D01*
X20672Y127747D01*
X20666Y127773D01*
X20646Y127952D01*
X20639Y127978D01*
X20629Y128114D01*
X20616Y128286D01*
X20609Y128472D01*
X20606Y128892D01*
X20612Y128912D01*
X20619Y129130D01*
X20626Y129150D01*
X20632Y129283D01*
X20639Y129303D01*
X20649Y129405D01*
X20656Y129458D01*
X20682Y129637D01*
X20702Y129756D01*
X20735Y129922D01*
X20748Y129975D01*
X20755Y130008D01*
X20795Y130167D01*
X20805Y130203D01*
X20811Y130230D01*
X20824Y130276D01*
X20844Y130342D01*
X20934Y130604D01*
X20947Y130637D01*
X20987Y130743D01*
X21000Y130776D01*
X21023Y130832D01*
X21043Y130878D01*
X21076Y130951D01*
X21129Y131064D01*
X21235Y131269D01*
X21268Y131329D01*
X21301Y131382D01*
X21334Y131441D01*
X21381Y131514D01*
X21387Y131527D01*
X21414Y131567D01*
X21420Y131580D01*
X21433Y131593D01*
X21440Y131607D01*
X21473Y131653D01*
X21480Y131666D01*
X21513Y131713D01*
X21520Y131726D01*
X21533Y131739D01*
X21539Y131752D01*
X21553Y131766D01*
X21559Y131779D01*
X21622Y131862D01*
X21632Y131872D01*
X21639Y131885D01*
X21652Y131898D01*
X21659Y131911D01*
X21672Y131924D01*
X21679Y131938D01*
X21698Y131958D01*
X21705Y131971D01*
X21732Y131997D01*
X21738Y132010D01*
X21765Y132037D01*
X21771Y132050D01*
X21804Y132083D01*
X21811Y132097D01*
X21857Y132143D01*
X21864Y132156D01*
X21930Y132222D01*
X21937Y132236D01*
X22139Y132438D01*
X22152Y132444D01*
X22218Y132510D01*
X22231Y132517D01*
X22271Y132557D01*
X22284Y132563D01*
X22324Y132603D01*
X22337Y132610D01*
X22357Y132630D01*
X22370Y132636D01*
X22397Y132663D01*
X22410Y132669D01*
X22430Y132689D01*
X22443Y132696D01*
X22463Y132716D01*
X22476Y132722D01*
X22490Y132736D01*
X22503Y132742D01*
X22516Y132755D01*
X22529Y132762D01*
X22549Y132782D01*
X22562Y132788D01*
X22576Y132802D01*
X22589Y132808D01*
X22774Y132941D01*
X22787Y132947D01*
X22827Y132974D01*
X22840Y132980D01*
X22887Y133014D01*
X22920Y133033D01*
X22923Y133037D01*
X14766Y133043D01*
X14713Y133063D01*
X14704Y133073D01*
X14690Y133080D01*
X14661Y133110D01*
X14634Y133169D01*
X14627Y133196D01*
X14634Y135301D01*
X14667Y135361D01*
X14704Y135397D01*
X14750Y135417D01*
X14776Y135424D01*
X14823Y135430D01*
X34844Y135424D01*
D02*
G37*
G36*
X17762Y116978D02*
X17819Y116942D01*
X17825Y116928D01*
X17838Y116915D01*
X17845Y116889D01*
X17852Y116869D01*
X17858Y116842D01*
X17852Y114002D01*
X17819Y113942D01*
X17795Y113919D01*
X17762Y113906D01*
X17736Y113899D01*
X17670Y113893D01*
X14876Y113899D01*
X14816Y113933D01*
X14793Y113956D01*
X14773Y114002D01*
X14766Y114068D01*
X14773Y116882D01*
X14799Y116928D01*
X14816Y116952D01*
X14829Y116958D01*
X14876Y116978D01*
X14902Y116985D01*
X17173D01*
X17762Y116978D01*
D02*
G37*
G36*
X34877Y121189D02*
X34923Y121162D01*
X34953Y121133D01*
X34966Y121100D01*
X34973Y121073D01*
X34980Y121027D01*
X34973Y110241D01*
X34940Y110182D01*
X34917Y110159D01*
X34884Y110146D01*
X34857Y110139D01*
X34811Y110132D01*
X33063Y110139D01*
X33003Y110172D01*
X32980Y110195D01*
X32960Y110241D01*
X32954Y110288D01*
X32950Y114482D01*
X28819D01*
X22963Y114479D01*
X22956Y110798D01*
X22923Y110751D01*
X22893Y110722D01*
X22847Y110702D01*
X22801Y110695D01*
X21046Y110702D01*
X20987Y110735D01*
X20977Y110745D01*
X20970Y110758D01*
X20950Y110804D01*
X20944Y110831D01*
X20950Y116770D01*
X20987Y116826D01*
X21000Y116832D01*
X21020Y116852D01*
X21053Y116866D01*
X21079Y116872D01*
X32954Y116875D01*
X32960Y121086D01*
X33003Y121149D01*
X33023Y121169D01*
X33070Y121189D01*
X33096Y121195D01*
X34877Y121189D01*
D02*
G37*
G36*
X33629Y107348D02*
X33662Y107335D01*
X33672Y107325D01*
X33685Y107318D01*
X33728Y107275D01*
X33735Y107262D01*
X33834Y107163D01*
X33841Y107150D01*
X33933Y107057D01*
X33940Y107044D01*
X34039Y106944D01*
X34046Y106931D01*
X34139Y106838D01*
X34145Y106825D01*
X34188Y106782D01*
X34192Y106779D01*
X34238Y106733D01*
X34245Y106719D01*
X34344Y106620D01*
X34351Y106607D01*
X34443Y106514D01*
X34450Y106501D01*
X34543Y106408D01*
X34549Y106395D01*
X34648Y106295D01*
X34655Y106282D01*
X34748Y106190D01*
X34755Y106176D01*
X34854Y106077D01*
X34860Y106064D01*
X34953Y105971D01*
X34960Y105958D01*
X34999Y105918D01*
X35006Y105905D01*
X35026Y105858D01*
X35032Y105812D01*
X35026Y105753D01*
X34999Y105706D01*
X34956Y105663D01*
X34943Y105657D01*
X34864Y105577D01*
X34850Y105570D01*
X34771Y105491D01*
X34758Y105484D01*
X34678Y105405D01*
X34665Y105398D01*
X34586Y105319D01*
X34572Y105312D01*
X34500Y105239D01*
X34486Y105233D01*
X34407Y105153D01*
X34394Y105147D01*
X34314Y105067D01*
X34301Y105061D01*
X34221Y104981D01*
X34208Y104975D01*
X34129Y104895D01*
X34116Y104889D01*
X34043Y104816D01*
X34030Y104809D01*
X33950Y104730D01*
X33937Y104723D01*
X33857Y104644D01*
X33844Y104637D01*
X33765Y104558D01*
X33751Y104551D01*
X33672Y104472D01*
X33659Y104465D01*
X33586Y104392D01*
X33573Y104385D01*
X33493Y104306D01*
X33480Y104299D01*
X33400Y104220D01*
X33387Y104213D01*
X33308Y104134D01*
X33295Y104127D01*
X33215Y104048D01*
X33202Y104041D01*
X33129Y103968D01*
X33116Y103962D01*
X33036Y103882D01*
X33023Y103876D01*
X32944Y103796D01*
X32931Y103790D01*
X32851Y103710D01*
X32838Y103703D01*
X32758Y103624D01*
X32745Y103617D01*
X32672Y103545D01*
X32659Y103538D01*
X32580Y103458D01*
X32566Y103452D01*
X32487Y103372D01*
X32474Y103366D01*
X32394Y103286D01*
X32381Y103280D01*
X32301Y103200D01*
X32288Y103194D01*
X32215Y103121D01*
X32202Y103114D01*
X32123Y103035D01*
X32109Y103028D01*
X32030Y102949D01*
X32017Y102942D01*
X31937Y102863D01*
X31924Y102856D01*
X31845Y102777D01*
X31831Y102770D01*
X31759Y102697D01*
X31745Y102690D01*
X31666Y102611D01*
X31653Y102604D01*
X31573Y102525D01*
X31560Y102518D01*
X31481Y102439D01*
X31467Y102432D01*
X31395Y102360D01*
X31381Y102353D01*
X31302Y102273D01*
X31288Y102267D01*
X31209Y102187D01*
X31196Y102181D01*
X31116Y102101D01*
X31103Y102095D01*
X31024Y102015D01*
X31010Y102009D01*
X30938Y101936D01*
X30924Y101929D01*
X30845Y101850D01*
X30832Y101843D01*
X30752Y101764D01*
X30739Y101757D01*
X30659Y101678D01*
X30646Y101671D01*
X30567Y101591D01*
X30554Y101585D01*
X30481Y101512D01*
X30468Y101505D01*
X30388Y101426D01*
X30375Y101419D01*
X30295Y101340D01*
X30282Y101333D01*
X30203Y101254D01*
X30189Y101247D01*
X30110Y101168D01*
X30097Y101161D01*
X30024Y101088D01*
X30011Y101082D01*
X29931Y101002D01*
X29918Y100996D01*
X29839Y100916D01*
X29825Y100910D01*
X29746Y100830D01*
X29733Y100823D01*
X29653Y100744D01*
X29640Y100737D01*
X29564Y100661D01*
X29620Y100605D01*
X29633Y100598D01*
X29713Y100519D01*
X29726Y100512D01*
X29806Y100433D01*
X29819Y100426D01*
X29898Y100347D01*
X29911Y100340D01*
X29997Y100254D01*
X30011Y100247D01*
X30090Y100168D01*
X30103Y100161D01*
X30183Y100082D01*
X30196Y100075D01*
X30282Y99989D01*
X30295Y99983D01*
X30375Y99903D01*
X30388Y99896D01*
X30468Y99817D01*
X30481Y99810D01*
X30567Y99724D01*
X30580Y99718D01*
X30659Y99638D01*
X30673Y99632D01*
X30752Y99552D01*
X30766Y99546D01*
X30852Y99460D01*
X30865Y99453D01*
X30944Y99374D01*
X30958Y99367D01*
X31037Y99287D01*
X31050Y99281D01*
X31130Y99201D01*
X31143Y99195D01*
X31229Y99109D01*
X31242Y99102D01*
X31322Y99023D01*
X31335Y99016D01*
X31414Y98937D01*
X31428Y98930D01*
X31514Y98844D01*
X31527Y98837D01*
X31606Y98758D01*
X31620Y98751D01*
X31699Y98672D01*
X31712Y98665D01*
X31798Y98579D01*
X31811Y98572D01*
X31891Y98493D01*
X31904Y98486D01*
X31984Y98407D01*
X31997Y98400D01*
X32083Y98314D01*
X32096Y98308D01*
X32176Y98228D01*
X32189Y98222D01*
X32268Y98142D01*
X32282Y98135D01*
X32361Y98056D01*
X32374Y98049D01*
X32460Y97963D01*
X32474Y97957D01*
X32553Y97877D01*
X32566Y97871D01*
X32646Y97791D01*
X32659Y97785D01*
X32745Y97698D01*
X32758Y97692D01*
X32838Y97612D01*
X32851Y97606D01*
X32931Y97526D01*
X32944Y97520D01*
X33030Y97434D01*
X33043Y97427D01*
X33122Y97347D01*
X33136Y97341D01*
X33215Y97261D01*
X33228Y97255D01*
X33314Y97169D01*
X33328Y97162D01*
X33407Y97083D01*
X33420Y97076D01*
X33500Y96997D01*
X33513Y96990D01*
X33593Y96911D01*
X33606Y96904D01*
X33692Y96818D01*
X33705Y96811D01*
X33784Y96732D01*
X33798Y96725D01*
X33877Y96646D01*
X33891Y96639D01*
X33977Y96553D01*
X33990Y96546D01*
X34069Y96467D01*
X34083Y96460D01*
X34162Y96381D01*
X34175Y96374D01*
X34261Y96288D01*
X34274Y96282D01*
X34354Y96202D01*
X34367Y96195D01*
X34447Y96116D01*
X34460Y96110D01*
X34546Y96023D01*
X34559Y96017D01*
X34639Y95937D01*
X34652Y95931D01*
X34731Y95851D01*
X34745Y95845D01*
X34824Y95765D01*
X34837Y95759D01*
X34923Y95673D01*
X34937Y95666D01*
X35006Y95596D01*
X35026Y95550D01*
X35032Y95504D01*
X35026Y95444D01*
X34993Y95385D01*
X34927Y95318D01*
X34920Y95305D01*
X34827Y95212D01*
X34821Y95199D01*
X34721Y95100D01*
X34715Y95087D01*
X34622Y94994D01*
X34615Y94981D01*
X34523Y94888D01*
X34516Y94875D01*
X34417Y94775D01*
X34410Y94762D01*
X34318Y94669D01*
X34311Y94656D01*
X34212Y94557D01*
X34205Y94544D01*
X34112Y94451D01*
X34106Y94438D01*
X34013Y94345D01*
X34006Y94332D01*
X33907Y94233D01*
X33900Y94219D01*
X33808Y94127D01*
X33801Y94113D01*
X33708Y94021D01*
X33702Y94007D01*
X33679Y93984D01*
X33632Y93964D01*
X33606Y93958D01*
X33573Y93951D01*
X33553Y93958D01*
X33513Y93964D01*
X33467Y93991D01*
X33430Y94021D01*
X33354Y94097D01*
X33341Y94103D01*
X33248Y94196D01*
X33235Y94203D01*
X33136Y94302D01*
X33122Y94309D01*
X33030Y94401D01*
X33017Y94408D01*
X32917Y94507D01*
X32904Y94514D01*
X32811Y94607D01*
X32798Y94613D01*
X32705Y94706D01*
X32692Y94712D01*
X32593Y94812D01*
X32580Y94818D01*
X32487Y94911D01*
X32474Y94918D01*
X32381Y95010D01*
X32368Y95017D01*
X32268Y95116D01*
X32255Y95123D01*
X32162Y95216D01*
X32149Y95222D01*
X32057Y95315D01*
X32043Y95322D01*
X31944Y95421D01*
X31931Y95428D01*
X31838Y95520D01*
X31825Y95527D01*
X31732Y95619D01*
X31719Y95626D01*
X31620Y95725D01*
X31606Y95732D01*
X31514Y95825D01*
X31500Y95831D01*
X31408Y95924D01*
X31395Y95931D01*
X31295Y96030D01*
X31282Y96037D01*
X31189Y96129D01*
X31176Y96136D01*
X31083Y96229D01*
X31070Y96235D01*
X30971Y96335D01*
X30958Y96341D01*
X30865Y96434D01*
X30852Y96440D01*
X30752Y96540D01*
X30739Y96546D01*
X30646Y96639D01*
X30633Y96646D01*
X30540Y96738D01*
X30527Y96745D01*
X30428Y96844D01*
X30415Y96851D01*
X30322Y96944D01*
X30309Y96950D01*
X30216Y97043D01*
X30203Y97050D01*
X30103Y97149D01*
X30090Y97156D01*
X29997Y97248D01*
X29984Y97255D01*
X29892Y97347D01*
X29878Y97354D01*
X29779Y97453D01*
X29766Y97460D01*
X29673Y97553D01*
X29660Y97559D01*
X29567Y97652D01*
X29554Y97659D01*
X29455Y97758D01*
X29441Y97765D01*
X29349Y97857D01*
X29335Y97864D01*
X29243Y97957D01*
X29230Y97963D01*
X29130Y98063D01*
X29117Y98069D01*
X29024Y98162D01*
X29011Y98168D01*
X28912Y98268D01*
X28898Y98274D01*
X28806Y98367D01*
X28793Y98374D01*
X28700Y98467D01*
X28687Y98473D01*
X28587Y98572D01*
X28574Y98579D01*
X28481Y98672D01*
X28468Y98678D01*
X28375Y98771D01*
X28362Y98778D01*
X28263Y98877D01*
X28250Y98883D01*
X28157Y98976D01*
X28144Y98983D01*
X28051Y99075D01*
X28038Y99082D01*
X27965Y99155D01*
X27952Y99148D01*
X27915Y99119D01*
X27839Y99042D01*
X27826Y99036D01*
X27727Y98937D01*
X27713Y98930D01*
X27621Y98837D01*
X27607Y98831D01*
X27515Y98738D01*
X27501Y98731D01*
X27402Y98632D01*
X27389Y98625D01*
X27296Y98533D01*
X27283Y98526D01*
X27184Y98427D01*
X27170Y98420D01*
X27078Y98327D01*
X27064Y98321D01*
X26972Y98228D01*
X26958Y98222D01*
X26859Y98122D01*
X26846Y98116D01*
X26753Y98023D01*
X26740Y98016D01*
X26647Y97924D01*
X26634Y97917D01*
X26535Y97818D01*
X26522Y97811D01*
X26429Y97718D01*
X26416Y97712D01*
X26323Y97619D01*
X26310Y97612D01*
X26210Y97513D01*
X26197Y97506D01*
X26104Y97414D01*
X26091Y97407D01*
X25998Y97314D01*
X25985Y97308D01*
X25886Y97208D01*
X25873Y97202D01*
X25780Y97109D01*
X25767Y97103D01*
X25674Y97010D01*
X25661Y97003D01*
X25561Y96904D01*
X25548Y96897D01*
X25456Y96805D01*
X25442Y96798D01*
X25343Y96699D01*
X25330Y96692D01*
X25237Y96599D01*
X25224Y96593D01*
X25131Y96500D01*
X25118Y96494D01*
X25019Y96394D01*
X25005Y96388D01*
X24913Y96295D01*
X24899Y96288D01*
X24807Y96195D01*
X24794Y96189D01*
X24694Y96090D01*
X24681Y96083D01*
X24588Y95990D01*
X24575Y95984D01*
X24482Y95891D01*
X24469Y95884D01*
X24370Y95785D01*
X24357Y95778D01*
X24264Y95686D01*
X24251Y95679D01*
X24158Y95586D01*
X24145Y95580D01*
X24045Y95480D01*
X24032Y95474D01*
X23939Y95381D01*
X23926Y95375D01*
X23833Y95282D01*
X23820Y95275D01*
X23721Y95176D01*
X23708Y95169D01*
X23615Y95077D01*
X23602Y95070D01*
X23509Y94977D01*
X23496Y94971D01*
X23396Y94871D01*
X23383Y94865D01*
X23291Y94772D01*
X23277Y94765D01*
X23178Y94666D01*
X23165Y94660D01*
X23072Y94567D01*
X23059Y94560D01*
X22966Y94467D01*
X22953Y94461D01*
X22854Y94362D01*
X22840Y94355D01*
X22748Y94262D01*
X22734Y94256D01*
X22642Y94163D01*
X22629Y94156D01*
X22529Y94057D01*
X22516Y94050D01*
X22456Y93991D01*
X22443Y93984D01*
X22384Y93958D01*
X22327Y93954D01*
X22294Y93961D01*
X22261Y93974D01*
X22238Y93991D01*
X22155Y94074D01*
X22148Y94087D01*
X22056Y94179D01*
X22049Y94193D01*
X21950Y94292D01*
X21943Y94305D01*
X21851Y94398D01*
X21844Y94411D01*
X21751Y94504D01*
X21745Y94517D01*
X21645Y94616D01*
X21639Y94630D01*
X21546Y94722D01*
X21539Y94736D01*
X21447Y94828D01*
X21440Y94842D01*
X21341Y94941D01*
X21334Y94954D01*
X21242Y95047D01*
X21235Y95060D01*
X21136Y95159D01*
X21129Y95173D01*
X21036Y95265D01*
X21030Y95279D01*
X20937Y95371D01*
X20930Y95385D01*
X20917Y95398D01*
X20910Y95411D01*
X20897Y95444D01*
X20891Y95471D01*
X20887Y95514D01*
X20894Y95553D01*
X20904Y95576D01*
X20937Y95623D01*
X20947Y95633D01*
X20960Y95639D01*
X21046Y95725D01*
X21059Y95732D01*
X21139Y95812D01*
X21152Y95818D01*
X21232Y95898D01*
X21245Y95904D01*
X21331Y95990D01*
X21344Y95997D01*
X21424Y96076D01*
X21437Y96083D01*
X21516Y96162D01*
X21530Y96169D01*
X21616Y96255D01*
X21629Y96262D01*
X21708Y96341D01*
X21721Y96348D01*
X21801Y96427D01*
X21814Y96434D01*
X21900Y96520D01*
X21913Y96527D01*
X21993Y96606D01*
X22006Y96613D01*
X22086Y96692D01*
X22099Y96699D01*
X22185Y96785D01*
X22198Y96791D01*
X22278Y96871D01*
X22291Y96877D01*
X22370Y96957D01*
X22384Y96964D01*
X22470Y97050D01*
X22483Y97056D01*
X22562Y97136D01*
X22576Y97142D01*
X22655Y97222D01*
X22668Y97228D01*
X22754Y97314D01*
X22768Y97321D01*
X22847Y97401D01*
X22860Y97407D01*
X22940Y97487D01*
X22953Y97493D01*
X23032Y97573D01*
X23046Y97579D01*
X23132Y97665D01*
X23145Y97672D01*
X23224Y97751D01*
X23238Y97758D01*
X23317Y97837D01*
X23330Y97844D01*
X23416Y97930D01*
X23430Y97937D01*
X23509Y98016D01*
X23522Y98023D01*
X23602Y98102D01*
X23615Y98109D01*
X23701Y98195D01*
X23714Y98202D01*
X23794Y98281D01*
X23807Y98288D01*
X23886Y98367D01*
X23900Y98374D01*
X23986Y98460D01*
X23999Y98467D01*
X24079Y98546D01*
X24092Y98553D01*
X24171Y98632D01*
X24184Y98639D01*
X24271Y98725D01*
X24284Y98731D01*
X24363Y98811D01*
X24376Y98817D01*
X24456Y98897D01*
X24469Y98903D01*
X24555Y98989D01*
X24568Y98996D01*
X24648Y99075D01*
X24661Y99082D01*
X24741Y99162D01*
X24754Y99168D01*
X24840Y99254D01*
X24853Y99261D01*
X24933Y99340D01*
X24946Y99347D01*
X25025Y99426D01*
X25038Y99433D01*
X25125Y99519D01*
X25138Y99526D01*
X25217Y99605D01*
X25231Y99612D01*
X25310Y99691D01*
X25323Y99698D01*
X25409Y99784D01*
X25422Y99791D01*
X25502Y99870D01*
X25515Y99877D01*
X25595Y99956D01*
X25608Y99963D01*
X25687Y100042D01*
X25701Y100049D01*
X25787Y100135D01*
X25800Y100141D01*
X25879Y100221D01*
X25893Y100228D01*
X25972Y100307D01*
X25985Y100314D01*
X26071Y100400D01*
X26085Y100406D01*
X26164Y100486D01*
X26177Y100492D01*
X26257Y100572D01*
X26270Y100578D01*
X26353Y100661D01*
X26346Y100674D01*
X26330Y100691D01*
X26316Y100698D01*
X26237Y100777D01*
X26224Y100784D01*
X26144Y100863D01*
X26131Y100870D01*
X26051Y100949D01*
X26038Y100956D01*
X25959Y101035D01*
X25946Y101042D01*
X25873Y101115D01*
X25859Y101121D01*
X25780Y101201D01*
X25767Y101207D01*
X25687Y101287D01*
X25674Y101293D01*
X25595Y101373D01*
X25581Y101380D01*
X25502Y101459D01*
X25489Y101466D01*
X25409Y101545D01*
X25396Y101552D01*
X25323Y101625D01*
X25310Y101631D01*
X25231Y101711D01*
X25217Y101717D01*
X25138Y101797D01*
X25125Y101803D01*
X25045Y101883D01*
X25032Y101889D01*
X24952Y101969D01*
X24939Y101975D01*
X24866Y102048D01*
X24853Y102055D01*
X24774Y102134D01*
X24760Y102141D01*
X24681Y102220D01*
X24668Y102227D01*
X24588Y102306D01*
X24575Y102313D01*
X24496Y102393D01*
X24482Y102399D01*
X24409Y102472D01*
X24396Y102479D01*
X24317Y102558D01*
X24304Y102565D01*
X24224Y102644D01*
X24211Y102651D01*
X24132Y102730D01*
X24118Y102737D01*
X24039Y102816D01*
X24025Y102823D01*
X23953Y102896D01*
X23939Y102902D01*
X23860Y102982D01*
X23847Y102988D01*
X23767Y103068D01*
X23754Y103075D01*
X23675Y103154D01*
X23661Y103161D01*
X23582Y103240D01*
X23569Y103247D01*
X23496Y103320D01*
X23483Y103326D01*
X23403Y103406D01*
X23390Y103412D01*
X23310Y103492D01*
X23297Y103498D01*
X23218Y103578D01*
X23205Y103584D01*
X23125Y103664D01*
X23112Y103670D01*
X23032Y103750D01*
X23019Y103756D01*
X22946Y103829D01*
X22933Y103836D01*
X22854Y103915D01*
X22840Y103922D01*
X22761Y104001D01*
X22748Y104008D01*
X22668Y104087D01*
X22655Y104094D01*
X22576Y104174D01*
X22562Y104180D01*
X22490Y104253D01*
X22476Y104260D01*
X22397Y104339D01*
X22384Y104346D01*
X22304Y104425D01*
X22291Y104432D01*
X22211Y104511D01*
X22198Y104518D01*
X22119Y104597D01*
X22106Y104604D01*
X22033Y104677D01*
X22019Y104683D01*
X21940Y104763D01*
X21927Y104769D01*
X21847Y104849D01*
X21834Y104855D01*
X21755Y104935D01*
X21741Y104942D01*
X21662Y105021D01*
X21649Y105028D01*
X21576Y105100D01*
X21563Y105107D01*
X21483Y105187D01*
X21470Y105193D01*
X21391Y105273D01*
X21377Y105279D01*
X21298Y105359D01*
X21284Y105365D01*
X21205Y105445D01*
X21192Y105451D01*
X21119Y105524D01*
X21106Y105531D01*
X21026Y105610D01*
X21013Y105617D01*
X20910Y105719D01*
X20897Y105753D01*
X20891Y105779D01*
X20884Y105812D01*
X20891Y105832D01*
X20897Y105872D01*
X20930Y105931D01*
X21010Y106011D01*
X21016Y106024D01*
X21116Y106123D01*
X21122Y106137D01*
X21215Y106229D01*
X21222Y106243D01*
X21314Y106335D01*
X21321Y106348D01*
X21420Y106448D01*
X21427Y106461D01*
X21520Y106554D01*
X21526Y106567D01*
X21619Y106660D01*
X21625Y106673D01*
X21725Y106772D01*
X21732Y106785D01*
X21824Y106878D01*
X21831Y106891D01*
X21930Y106991D01*
X21937Y107004D01*
X22029Y107097D01*
X22036Y107110D01*
X22129Y107203D01*
X22135Y107216D01*
X22251Y107332D01*
X22264Y107338D01*
X22297Y107352D01*
X22364Y107358D01*
X22384Y107352D01*
X22410Y107345D01*
X22456Y107318D01*
X22496Y107279D01*
X22509Y107272D01*
X22609Y107173D01*
X22622Y107166D01*
X22715Y107073D01*
X22728Y107067D01*
X22821Y106974D01*
X22834Y106967D01*
X22933Y106868D01*
X22946Y106862D01*
X23039Y106769D01*
X23052Y106762D01*
X23145Y106670D01*
X23158Y106663D01*
X23258Y106564D01*
X23271Y106557D01*
X23363Y106464D01*
X23377Y106458D01*
X23469Y106365D01*
X23483Y106358D01*
X23582Y106259D01*
X23595Y106252D01*
X23688Y106160D01*
X23701Y106153D01*
X23794Y106060D01*
X23807Y106054D01*
X23906Y105955D01*
X23920Y105948D01*
X24012Y105855D01*
X24025Y105849D01*
X24125Y105749D01*
X24138Y105743D01*
X24231Y105650D01*
X24244Y105643D01*
X24337Y105551D01*
X24350Y105544D01*
X24449Y105445D01*
X24462Y105438D01*
X24555Y105345D01*
X24568Y105339D01*
X24661Y105246D01*
X24674Y105239D01*
X24774Y105140D01*
X24787Y105133D01*
X24880Y105041D01*
X24893Y105034D01*
X24985Y104942D01*
X24999Y104935D01*
X25098Y104836D01*
X25111Y104829D01*
X25204Y104736D01*
X25217Y104730D01*
X25310Y104637D01*
X25323Y104630D01*
X25422Y104531D01*
X25436Y104524D01*
X25528Y104432D01*
X25542Y104425D01*
X25634Y104332D01*
X25648Y104326D01*
X25747Y104227D01*
X25760Y104220D01*
X25853Y104127D01*
X25866Y104121D01*
X25965Y104021D01*
X25979Y104015D01*
X26071Y103922D01*
X26085Y103915D01*
X26177Y103823D01*
X26191Y103816D01*
X26290Y103717D01*
X26303Y103710D01*
X26396Y103617D01*
X26409Y103611D01*
X26502Y103518D01*
X26515Y103511D01*
X26614Y103412D01*
X26628Y103406D01*
X26720Y103313D01*
X26733Y103306D01*
X26826Y103214D01*
X26839Y103207D01*
X26939Y103108D01*
X26952Y103101D01*
X27045Y103008D01*
X27058Y103002D01*
X27150Y102909D01*
X27164Y102902D01*
X27263Y102803D01*
X27276Y102796D01*
X27369Y102704D01*
X27382Y102697D01*
X27475Y102604D01*
X27488Y102598D01*
X27587Y102499D01*
X27601Y102492D01*
X27693Y102399D01*
X27707Y102393D01*
X27799Y102300D01*
X27813Y102293D01*
X27912Y102194D01*
X27925Y102187D01*
X27958Y102154D01*
X27971Y102161D01*
X28071Y102260D01*
X28084Y102267D01*
X28177Y102360D01*
X28190Y102366D01*
X28283Y102459D01*
X28296Y102465D01*
X28395Y102565D01*
X28409Y102571D01*
X28501Y102664D01*
X28514Y102671D01*
X28614Y102770D01*
X28627Y102777D01*
X28720Y102869D01*
X28733Y102876D01*
X28826Y102969D01*
X28839Y102975D01*
X28938Y103075D01*
X28951Y103081D01*
X29044Y103174D01*
X29057Y103180D01*
X29150Y103273D01*
X29163Y103280D01*
X29263Y103379D01*
X29276Y103386D01*
X29369Y103478D01*
X29382Y103485D01*
X29474Y103578D01*
X29488Y103584D01*
X29587Y103684D01*
X29600Y103690D01*
X29693Y103783D01*
X29706Y103790D01*
X29799Y103882D01*
X29812Y103889D01*
X29911Y103988D01*
X29925Y103995D01*
X30017Y104087D01*
X30031Y104094D01*
X30123Y104187D01*
X30136Y104193D01*
X30236Y104293D01*
X30249Y104299D01*
X30342Y104392D01*
X30355Y104399D01*
X30448Y104491D01*
X30461Y104498D01*
X30560Y104597D01*
X30573Y104604D01*
X30666Y104697D01*
X30679Y104703D01*
X30779Y104803D01*
X30792Y104809D01*
X30885Y104902D01*
X30898Y104909D01*
X30991Y105001D01*
X31004Y105008D01*
X31103Y105107D01*
X31116Y105114D01*
X31209Y105206D01*
X31222Y105213D01*
X31315Y105306D01*
X31328Y105312D01*
X31428Y105412D01*
X31441Y105418D01*
X31534Y105511D01*
X31547Y105518D01*
X31639Y105610D01*
X31653Y105617D01*
X31752Y105716D01*
X31765Y105723D01*
X31858Y105815D01*
X31871Y105822D01*
X31964Y105915D01*
X31977Y105921D01*
X32076Y106021D01*
X32090Y106027D01*
X32182Y106120D01*
X32196Y106127D01*
X32288Y106219D01*
X32301Y106226D01*
X32401Y106325D01*
X32414Y106332D01*
X32507Y106425D01*
X32520Y106431D01*
X32619Y106531D01*
X32633Y106537D01*
X32725Y106630D01*
X32738Y106636D01*
X32831Y106729D01*
X32844Y106736D01*
X32944Y106835D01*
X32957Y106842D01*
X33050Y106934D01*
X33063Y106941D01*
X33156Y107034D01*
X33169Y107040D01*
X33268Y107140D01*
X33281Y107146D01*
X33374Y107239D01*
X33387Y107246D01*
X33460Y107318D01*
X33473Y107325D01*
X33533Y107352D01*
X33579Y107358D01*
X33629Y107348D01*
D02*
G37*
G36*
X26297Y91031D02*
X26820Y91025D01*
X26839Y91018D01*
X27141Y91008D01*
X27326Y90995D01*
X27611Y90975D01*
X27683Y90968D01*
X28081Y90929D01*
X28187Y90915D01*
X28276Y90906D01*
X28303Y90899D01*
X28438Y90882D01*
X28528Y90872D01*
X28554Y90866D01*
X28624Y90856D01*
X29061Y90783D01*
X29193Y90757D01*
X29220Y90750D01*
X29484Y90697D01*
X29564Y90677D01*
X29597Y90670D01*
X29756Y90631D01*
X29789Y90624D01*
X29948Y90584D01*
X29984Y90575D01*
X30011Y90568D01*
X30289Y90488D01*
X30315Y90482D01*
X30481Y90429D01*
X30802Y90320D01*
X31120Y90200D01*
X31186Y90174D01*
X31537Y90022D01*
X31702Y89942D01*
X31911Y89840D01*
X32202Y89681D01*
X32255Y89648D01*
X32268Y89641D01*
X32341Y89595D01*
X32354Y89588D01*
X32427Y89542D01*
X32441Y89535D01*
X32513Y89489D01*
X32527Y89482D01*
X32589Y89439D01*
X32629Y89412D01*
X32699Y89363D01*
X32712Y89356D01*
X32805Y89290D01*
X32818Y89283D01*
X32831Y89270D01*
X32844Y89264D01*
X32904Y89217D01*
X32987Y89154D01*
X32997Y89144D01*
X33010Y89138D01*
X33023Y89125D01*
X33036Y89118D01*
X33056Y89098D01*
X33070Y89091D01*
X33083Y89078D01*
X33096Y89072D01*
X33116Y89052D01*
X33129Y89045D01*
X33142Y89032D01*
X33156Y89025D01*
X33189Y88992D01*
X33202Y88986D01*
X33242Y88946D01*
X33255Y88939D01*
X33295Y88899D01*
X33308Y88893D01*
X33348Y88853D01*
X33361Y88847D01*
X33400Y88807D01*
X33414Y88800D01*
X33553Y88661D01*
X33566Y88654D01*
X33722Y88499D01*
X33728Y88486D01*
X33781Y88433D01*
X33788Y88419D01*
X33841Y88366D01*
X33847Y88353D01*
X33900Y88300D01*
X33907Y88287D01*
X33947Y88247D01*
X33953Y88234D01*
X33973Y88214D01*
X33980Y88201D01*
X34000Y88181D01*
X34006Y88168D01*
X34026Y88148D01*
X34033Y88135D01*
X34053Y88115D01*
X34059Y88102D01*
X34079Y88082D01*
X34086Y88069D01*
X34106Y88049D01*
X34112Y88035D01*
X34125Y88022D01*
X34132Y88009D01*
X34152Y87989D01*
X34159Y87976D01*
X34172Y87963D01*
X34179Y87949D01*
X34192Y87936D01*
X34198Y87923D01*
X34265Y87830D01*
X34271Y87817D01*
X34284Y87804D01*
X34291Y87790D01*
X34324Y87744D01*
X34331Y87731D01*
X34344Y87718D01*
X34351Y87704D01*
X34384Y87658D01*
X34390Y87645D01*
X34423Y87592D01*
X34430Y87579D01*
X34476Y87506D01*
X34483Y87493D01*
X34516Y87440D01*
X34523Y87426D01*
X34556Y87373D01*
X34562Y87360D01*
X34609Y87274D01*
X34682Y87135D01*
X34788Y86917D01*
X34821Y86844D01*
X34874Y86725D01*
X34894Y86678D01*
X34907Y86645D01*
X34923Y86602D01*
X35023Y86337D01*
X35032Y86301D01*
X35138Y85956D01*
X35172Y85824D01*
X35182Y85781D01*
X35228Y85596D01*
X35234Y85563D01*
X35241Y85523D01*
X35254Y85457D01*
X35261Y85417D01*
X35268Y85384D01*
X35274Y85344D01*
X35287Y85278D01*
X35294Y85238D01*
X35301Y85205D01*
X35317Y85069D01*
X35324Y85043D01*
X35334Y84953D01*
X35340Y84901D01*
X35350Y84811D01*
X35357Y84785D01*
X35373Y84550D01*
X35387Y84377D01*
X35393Y84152D01*
X35397Y83686D01*
X35390Y83666D01*
X35383Y83374D01*
X35377Y83355D01*
X35367Y83199D01*
X35360Y83113D01*
X35354Y83040D01*
X35334Y82881D01*
X35324Y82792D01*
X35317Y82765D01*
X35307Y82676D01*
X35294Y82597D01*
X35281Y82530D01*
X35274Y82491D01*
X35268Y82457D01*
X35261Y82418D01*
X35248Y82352D01*
X35241Y82312D01*
X35228Y82246D01*
X35208Y82166D01*
X35201Y82133D01*
X35135Y81868D01*
X35125Y81832D01*
X35099Y81746D01*
X35066Y81640D01*
X35039Y81554D01*
X35009Y81471D01*
X34890Y81153D01*
X34877Y81120D01*
X34827Y81011D01*
X34774Y80892D01*
X34741Y80819D01*
X34655Y80653D01*
X34582Y80514D01*
X34556Y80468D01*
X34523Y80415D01*
X34516Y80402D01*
X34483Y80349D01*
X34476Y80336D01*
X34430Y80263D01*
X34423Y80249D01*
X34390Y80197D01*
X34384Y80183D01*
X34351Y80137D01*
X34344Y80124D01*
X34331Y80110D01*
X34324Y80097D01*
X34258Y80004D01*
X34251Y79991D01*
X34122Y79816D01*
X34112Y79806D01*
X34106Y79793D01*
X34086Y79773D01*
X34079Y79759D01*
X34059Y79740D01*
X34053Y79726D01*
X34033Y79707D01*
X34026Y79693D01*
X34013Y79680D01*
X34006Y79667D01*
X33986Y79647D01*
X33980Y79634D01*
X33960Y79614D01*
X33953Y79601D01*
X33920Y79567D01*
X33914Y79554D01*
X33861Y79501D01*
X33854Y79488D01*
X33801Y79435D01*
X33795Y79422D01*
X33742Y79369D01*
X33735Y79356D01*
X33440Y79061D01*
X33427Y79054D01*
X33387Y79015D01*
X33374Y79008D01*
X33334Y78968D01*
X33321Y78962D01*
X33281Y78922D01*
X33268Y78915D01*
X33228Y78876D01*
X33215Y78869D01*
X33175Y78829D01*
X33162Y78823D01*
X33142Y78803D01*
X33129Y78796D01*
X33109Y78776D01*
X33096Y78770D01*
X33083Y78756D01*
X33070Y78750D01*
X33050Y78730D01*
X33036Y78723D01*
X33023Y78710D01*
X33010Y78703D01*
X32990Y78684D01*
X32977Y78677D01*
X32964Y78664D01*
X32950Y78657D01*
X32931Y78637D01*
X32917Y78631D01*
X32904Y78617D01*
X32891Y78611D01*
X32871Y78591D01*
X32858Y78584D01*
X32765Y78518D01*
X32752Y78512D01*
X32738Y78498D01*
X32725Y78492D01*
X32679Y78458D01*
X32666Y78452D01*
X32652Y78439D01*
X32639Y78432D01*
X32593Y78399D01*
X32580Y78392D01*
X32566Y78379D01*
X32553Y78372D01*
X32500Y78339D01*
X32487Y78333D01*
X32447Y78306D01*
X32434Y78300D01*
X32361Y78253D01*
X32348Y78247D01*
X32275Y78200D01*
X32262Y78194D01*
X32209Y78161D01*
X32109Y78108D01*
X31891Y77988D01*
X31633Y77863D01*
X31494Y77796D01*
X31262Y77697D01*
X31229Y77684D01*
X31136Y77644D01*
X31103Y77631D01*
X31060Y77614D01*
X30795Y77515D01*
X30441Y77399D01*
X30315Y77359D01*
X30130Y77306D01*
X30103Y77300D01*
X29918Y77247D01*
X29865Y77234D01*
X29822Y77224D01*
X29690Y77191D01*
X29657Y77184D01*
X29498Y77144D01*
X29167Y77078D01*
X29140Y77071D01*
X29041Y77052D01*
X28842Y77018D01*
X28756Y77005D01*
X28597Y76979D01*
X28461Y76962D01*
X28435Y76956D01*
X28352Y76946D01*
X28263Y76936D01*
X28236Y76929D01*
X28101Y76912D01*
X27968Y76899D01*
X27909Y76893D01*
X27644Y76866D01*
X27366Y76846D01*
X27174Y76833D01*
X27048Y76827D01*
X26723Y76813D01*
X26459Y76807D01*
X23728Y76810D01*
X23708Y76817D01*
X23400Y76827D01*
X23274Y76833D01*
X22989Y76853D01*
X22804Y76866D01*
X22341Y76912D01*
X22251Y76922D01*
X22225Y76929D01*
X22089Y76946D01*
X22000Y76956D01*
X21973Y76962D01*
X21890Y76972D01*
X21804Y76985D01*
X21407Y77052D01*
X21175Y77098D01*
X21149Y77105D01*
X20950Y77144D01*
X20871Y77164D01*
X20838Y77171D01*
X20679Y77210D01*
X20646Y77217D01*
X20487Y77257D01*
X20450Y77267D01*
X20311Y77306D01*
X20285Y77313D01*
X20099Y77366D01*
X19775Y77472D01*
X19672Y77508D01*
X19302Y77647D01*
X19268Y77661D01*
X18871Y77833D01*
X18517Y78008D01*
X18371Y78088D01*
X18312Y78121D01*
X18239Y78161D01*
X18186Y78194D01*
X18173Y78200D01*
X18120Y78233D01*
X18107Y78240D01*
X18067Y78267D01*
X18054Y78273D01*
X17981Y78320D01*
X17967Y78326D01*
X17915Y78359D01*
X17901Y78366D01*
X17809Y78432D01*
X17795Y78439D01*
X17703Y78505D01*
X17689Y78512D01*
X17676Y78525D01*
X17663Y78531D01*
X17617Y78564D01*
X17603Y78571D01*
X17590Y78584D01*
X17577Y78591D01*
X17564Y78604D01*
X17550Y78611D01*
X17537Y78624D01*
X17524Y78631D01*
X17504Y78650D01*
X17491Y78657D01*
X17478Y78670D01*
X17464Y78677D01*
X17444Y78697D01*
X17431Y78703D01*
X17418Y78717D01*
X17405Y78723D01*
X17392Y78737D01*
X17378Y78743D01*
X17358Y78763D01*
X17345Y78770D01*
X17332Y78783D01*
X17319Y78790D01*
X17299Y78809D01*
X17286Y78816D01*
X17253Y78849D01*
X17239Y78856D01*
X17206Y78889D01*
X17193Y78896D01*
X17153Y78935D01*
X17140Y78942D01*
X17100Y78981D01*
X17087Y78988D01*
X17047Y79028D01*
X17034Y79035D01*
X16895Y79174D01*
X16882Y79180D01*
X16726Y79336D01*
X16719Y79349D01*
X16667Y79402D01*
X16660Y79415D01*
X16600Y79475D01*
X16594Y79488D01*
X16541Y79541D01*
X16534Y79554D01*
X16494Y79594D01*
X16488Y79607D01*
X16468Y79627D01*
X16461Y79640D01*
X16441Y79660D01*
X16435Y79673D01*
X16415Y79693D01*
X16408Y79707D01*
X16388Y79726D01*
X16382Y79740D01*
X16362Y79759D01*
X16355Y79773D01*
X16336Y79793D01*
X16329Y79806D01*
X16316Y79819D01*
X16309Y79832D01*
X16289Y79852D01*
X16283Y79865D01*
X16269Y79879D01*
X16263Y79892D01*
X16249Y79905D01*
X16243Y79918D01*
X16177Y80011D01*
X16170Y80024D01*
X16071Y80163D01*
X16064Y80177D01*
X16018Y80249D01*
X16011Y80263D01*
X15978Y80316D01*
X15971Y80329D01*
X15925Y80402D01*
X15918Y80415D01*
X15885Y80468D01*
X15879Y80481D01*
X15746Y80733D01*
X15660Y80912D01*
X15607Y81031D01*
X15574Y81103D01*
X15554Y81150D01*
X15541Y81183D01*
X15524Y81226D01*
X15485Y81332D01*
X15472Y81365D01*
X15432Y81471D01*
X15409Y81547D01*
X15375Y81653D01*
X15323Y81825D01*
X15303Y81891D01*
X15293Y81934D01*
X15220Y82226D01*
X15207Y82292D01*
X15200Y82332D01*
X15193Y82365D01*
X15187Y82404D01*
X15174Y82471D01*
X15167Y82510D01*
X15154Y82577D01*
X15141Y82656D01*
X15134Y82709D01*
X15124Y82798D01*
X15117Y82825D01*
X15097Y83004D01*
X15091Y83030D01*
X15081Y83166D01*
X15068Y83338D01*
X15061Y83431D01*
X15054Y83603D01*
X15048Y83874D01*
X15044Y83937D01*
X15051Y83957D01*
X15058Y84381D01*
X15064Y84401D01*
X15074Y84563D01*
X15081Y84649D01*
X15087Y84742D01*
X15094Y84801D01*
X15107Y84907D01*
X15117Y84997D01*
X15124Y85023D01*
X15134Y85112D01*
X15141Y85165D01*
X15147Y85205D01*
X15154Y85238D01*
X15160Y85278D01*
X15174Y85344D01*
X15180Y85384D01*
X15187Y85417D01*
X15193Y85457D01*
X15207Y85523D01*
X15213Y85563D01*
X15220Y85589D01*
X15227Y85622D01*
X15299Y85913D01*
X15306Y85947D01*
X15323Y86003D01*
X15402Y86261D01*
X15445Y86383D01*
X15564Y86701D01*
X15614Y86811D01*
X15693Y86989D01*
X15812Y87221D01*
X15879Y87347D01*
X15912Y87400D01*
X15918Y87413D01*
X15951Y87466D01*
X15958Y87479D01*
X16005Y87552D01*
X16011Y87565D01*
X16044Y87618D01*
X16051Y87632D01*
X16094Y87695D01*
X16120Y87734D01*
X16170Y87804D01*
X16177Y87817D01*
X16243Y87910D01*
X16249Y87923D01*
X16263Y87936D01*
X16269Y87949D01*
X16299Y87986D01*
X16372Y88078D01*
X16388Y88102D01*
X16402Y88115D01*
X16408Y88128D01*
X16428Y88148D01*
X16435Y88161D01*
X16455Y88181D01*
X16461Y88194D01*
X16475Y88208D01*
X16481Y88221D01*
X16501Y88241D01*
X16508Y88254D01*
X16561Y88307D01*
X16567Y88320D01*
X16620Y88373D01*
X16627Y88386D01*
X16680Y88439D01*
X16686Y88453D01*
X16739Y88505D01*
X16746Y88519D01*
X16802Y88575D01*
X16816Y88582D01*
X17034Y88800D01*
X17047Y88807D01*
X17087Y88847D01*
X17100Y88853D01*
X17140Y88893D01*
X17153Y88899D01*
X17193Y88939D01*
X17206Y88946D01*
X17246Y88986D01*
X17259Y88992D01*
X17292Y89025D01*
X17306Y89032D01*
X17325Y89052D01*
X17339Y89058D01*
X17352Y89072D01*
X17365Y89078D01*
X17385Y89098D01*
X17398Y89105D01*
X17411Y89118D01*
X17425Y89125D01*
X17444Y89144D01*
X17458Y89151D01*
X17471Y89164D01*
X17484Y89171D01*
X17504Y89191D01*
X17517Y89197D01*
X17531Y89211D01*
X17544Y89217D01*
X17564Y89237D01*
X17577Y89244D01*
X17590Y89257D01*
X17603Y89264D01*
X17696Y89330D01*
X17709Y89336D01*
X17802Y89403D01*
X17815Y89409D01*
X17829Y89423D01*
X17842Y89429D01*
X17888Y89462D01*
X17901Y89469D01*
X17941Y89495D01*
X17954Y89502D01*
X18027Y89548D01*
X18040Y89555D01*
X18113Y89601D01*
X18126Y89608D01*
X18199Y89654D01*
X18212Y89661D01*
X18259Y89687D01*
X18262Y89691D01*
X18408Y89770D01*
X18464Y89800D01*
X18537Y89840D01*
X18861Y89999D01*
X18961Y90045D01*
X19285Y90184D01*
X19351Y90210D01*
X19394Y90227D01*
X19659Y90326D01*
X19974Y90429D01*
X20139Y90482D01*
X20185Y90495D01*
X20212Y90502D01*
X20490Y90581D01*
X20702Y90634D01*
X20745Y90644D01*
X20904Y90684D01*
X20937Y90690D01*
X20963Y90697D01*
X21228Y90750D01*
X21255Y90757D01*
X21387Y90783D01*
X21864Y90863D01*
X21953Y90872D01*
X21980Y90879D01*
X22062Y90889D01*
X22152Y90899D01*
X22178Y90906D01*
X22261Y90915D01*
X22350Y90925D01*
X22397Y90932D01*
X22632Y90955D01*
X22831Y90975D01*
X23307Y91008D01*
X23618Y91021D01*
X23784Y91028D01*
X24168Y91035D01*
X26277Y91038D01*
X26297Y91031D01*
D02*
G37*
G36*
X75250Y92300D02*
X72750Y97300D01*
X70250Y92300D01*
X75250D01*
D02*
G37*
G36*
X125750Y91800D02*
X123250Y96800D01*
X120750Y91800D01*
X125750D01*
D02*
G37*
G36*
X177250Y90300D02*
X174750Y95300D01*
X172250Y90300D01*
X177250D01*
D02*
G37*
G36*
X228250Y90300D02*
X225750Y95300D01*
X223250Y90300D01*
X228250D01*
D02*
G37*
G36*
X279250Y89800D02*
X276750Y94800D01*
X274250Y89800D01*
X279250D01*
D02*
G37*
G36*
X319869Y99428D02*
X324869Y101928D01*
X319869Y104428D01*
Y99428D01*
D02*
G37*
G36*
X473000Y80500D02*
Y85500D01*
X467000Y83000D01*
X473000Y80500D01*
D02*
G37*
%LPC*%
G36*
X26608Y149387D02*
X26263Y149380D01*
X26244Y149374D01*
X26085Y149367D01*
X26065Y149360D01*
X25949Y149350D01*
X25790Y149331D01*
X25591Y149297D01*
X25426Y149264D01*
X25399Y149258D01*
X25366Y149251D01*
X25207Y149211D01*
X25171Y149201D01*
X25078Y149175D01*
X25012Y149155D01*
X24797Y149079D01*
X24744Y149059D01*
X24611Y149006D01*
X24575Y148989D01*
X24516Y148963D01*
X24204Y148804D01*
X24145Y148771D01*
X24105Y148744D01*
X24092Y148738D01*
X24052Y148711D01*
X24039Y148705D01*
X23999Y148678D01*
X23986Y148672D01*
X23973Y148659D01*
X23959Y148652D01*
X23867Y148586D01*
X23853Y148579D01*
X23840Y148566D01*
X23827Y148559D01*
X23814Y148546D01*
X23800Y148539D01*
X23781Y148519D01*
X23767Y148513D01*
X23754Y148500D01*
X23741Y148493D01*
X23721Y148473D01*
X23708Y148467D01*
X23688Y148447D01*
X23675Y148440D01*
X23635Y148400D01*
X23622Y148394D01*
X23589Y148361D01*
X23575Y148354D01*
X23443Y148222D01*
X23430Y148215D01*
X23420Y148205D01*
X23413Y148192D01*
X23340Y148119D01*
X23334Y148106D01*
X23287Y148059D01*
X23281Y148046D01*
X23254Y148020D01*
X23248Y148006D01*
X23228Y147986D01*
X23221Y147973D01*
X23195Y147947D01*
X23188Y147934D01*
X23168Y147914D01*
X23161Y147900D01*
X23036Y147722D01*
X23029Y147708D01*
X22996Y147662D01*
X22989Y147649D01*
X22956Y147596D01*
X22917Y147523D01*
X22890Y147477D01*
X22778Y147245D01*
X22764Y147212D01*
X22725Y147119D01*
X22711Y147086D01*
X22675Y146983D01*
X22638Y146868D01*
X22625Y146821D01*
X22605Y146755D01*
X22592Y146709D01*
X22566Y146603D01*
X22549Y146527D01*
X22529Y146427D01*
X22509Y146308D01*
X22503Y146255D01*
X22493Y146166D01*
X22486Y146139D01*
X22476Y146017D01*
X22470Y145924D01*
X22463Y145785D01*
X22460Y145490D01*
X22466Y145471D01*
X22473Y145259D01*
X22480Y145239D01*
X22490Y145123D01*
X22503Y145017D01*
X22516Y144931D01*
X22529Y144852D01*
X22556Y144719D01*
X22569Y144666D01*
X22576Y144633D01*
X22589Y144580D01*
X22599Y144544D01*
X22605Y144517D01*
X22632Y144424D01*
X22695Y144242D01*
X22721Y144170D01*
X22748Y144103D01*
X22840Y143891D01*
X22917Y143743D01*
X22996Y143603D01*
X23132Y143395D01*
X23181Y143325D01*
X23185Y143322D01*
X23211Y143282D01*
X23221Y143272D01*
X23228Y143259D01*
X23241Y143246D01*
X23248Y143233D01*
X23268Y143213D01*
X23274Y143200D01*
X23301Y143173D01*
X23307Y143160D01*
X23327Y143140D01*
X23334Y143127D01*
X23354Y143107D01*
X23360Y143094D01*
X23413Y143041D01*
X23420Y143027D01*
X23466Y142981D01*
X23473Y142968D01*
X23648Y142792D01*
X23661Y142786D01*
X23721Y142726D01*
X23734Y142720D01*
X23781Y142673D01*
X23794Y142667D01*
X23820Y142640D01*
X23833Y142633D01*
X23860Y142607D01*
X23873Y142600D01*
X23893Y142581D01*
X23906Y142574D01*
X23926Y142554D01*
X23939Y142548D01*
X23953Y142534D01*
X23966Y142528D01*
X23979Y142514D01*
X23992Y142508D01*
X24006Y142494D01*
X24019Y142488D01*
X24032Y142475D01*
X24045Y142468D01*
X24059Y142455D01*
X24072Y142448D01*
X24165Y142382D01*
X24178Y142375D01*
X24224Y142342D01*
X24237Y142336D01*
X24290Y142303D01*
X24304Y142296D01*
X24343Y142269D01*
X24357Y142263D01*
X24409Y142230D01*
X24496Y142183D01*
X24568Y142144D01*
X24800Y142031D01*
X24919Y141978D01*
X24952Y141965D01*
X24996Y141948D01*
X25095Y141909D01*
X25247Y141856D01*
X25303Y141839D01*
X25436Y141799D01*
X25482Y141786D01*
X25588Y141760D01*
X25634Y141746D01*
X25661Y141740D01*
X25704Y141730D01*
X25770Y141717D01*
X25797Y141710D01*
X25863Y141697D01*
X26022Y141670D01*
X26157Y141654D01*
X26184Y141647D01*
X26270Y141640D01*
X26316Y141634D01*
X26442Y141627D01*
X26469Y141621D01*
X26611Y141617D01*
X26608Y149387D01*
D02*
G37*
G36*
X27429Y133093D02*
X27409Y133086D01*
X27157Y133080D01*
X27137Y133073D01*
X26988Y133063D01*
X26909Y133057D01*
X26843Y133050D01*
X26631Y133024D01*
X26498Y133004D01*
X26339Y132977D01*
X26108Y132931D01*
X25922Y132885D01*
X25889Y132878D01*
X25863Y132871D01*
X25826Y132861D01*
X25780Y132848D01*
X25714Y132828D01*
X25668Y132815D01*
X25366Y132712D01*
X25300Y132686D01*
X25247Y132666D01*
X25148Y132626D01*
X25111Y132610D01*
X25052Y132583D01*
X25005Y132563D01*
X24694Y132404D01*
X24635Y132371D01*
X24588Y132345D01*
X24516Y132298D01*
X24502Y132292D01*
X24462Y132265D01*
X24449Y132259D01*
X24409Y132232D01*
X24396Y132226D01*
X24174Y132064D01*
X24151Y132047D01*
X24138Y132034D01*
X24125Y132027D01*
X24112Y132014D01*
X24098Y132007D01*
X24079Y131987D01*
X24065Y131981D01*
X24039Y131954D01*
X24025Y131948D01*
X23986Y131908D01*
X23973Y131901D01*
X23939Y131868D01*
X23926Y131862D01*
X23820Y131756D01*
X23807Y131749D01*
X23731Y131673D01*
X23724Y131660D01*
X23658Y131593D01*
X23651Y131580D01*
X23598Y131527D01*
X23592Y131514D01*
X23572Y131494D01*
X23565Y131481D01*
X23539Y131454D01*
X23532Y131441D01*
X23506Y131415D01*
X23499Y131401D01*
X23479Y131382D01*
X23473Y131368D01*
X23459Y131355D01*
X23453Y131342D01*
X23390Y131259D01*
X23284Y131100D01*
X23251Y131047D01*
X23211Y130981D01*
X23181Y130925D01*
X23135Y130839D01*
X23049Y130660D01*
X23022Y130600D01*
X23009Y130567D01*
X22989Y130521D01*
X22976Y130488D01*
X22960Y130445D01*
X22940Y130392D01*
X22890Y130236D01*
X22870Y130170D01*
X22857Y130124D01*
X22811Y129938D01*
X22801Y129895D01*
X22781Y129796D01*
X22761Y129677D01*
X22751Y129587D01*
X22744Y129561D01*
X22734Y129458D01*
X22728Y129385D01*
X22721Y129293D01*
X22715Y129140D01*
X22711Y128905D01*
X22718Y128885D01*
X22725Y128654D01*
X22731Y128634D01*
X22741Y128511D01*
X22748Y128452D01*
X22774Y128273D01*
X22781Y128233D01*
X22814Y128068D01*
X22821Y128041D01*
X22827Y128008D01*
X22837Y127972D01*
X22857Y127892D01*
X22883Y127800D01*
X22903Y127733D01*
X22940Y127631D01*
X22966Y127558D01*
X22986Y127505D01*
X23026Y127406D01*
X23059Y127333D01*
X23072Y127300D01*
X23208Y127038D01*
X23241Y126985D01*
X23248Y126972D01*
X23281Y126919D01*
X23287Y126906D01*
X23320Y126860D01*
X23327Y126846D01*
X23360Y126800D01*
X23367Y126787D01*
X23463Y126658D01*
X23479Y126635D01*
X23526Y126575D01*
X23539Y126562D01*
X23545Y126548D01*
X23572Y126522D01*
X23579Y126509D01*
X23612Y126476D01*
X23618Y126462D01*
X23685Y126396D01*
X23691Y126383D01*
X23867Y126207D01*
X23880Y126201D01*
X23953Y126128D01*
X23966Y126121D01*
X23992Y126095D01*
X24006Y126088D01*
X24032Y126062D01*
X24045Y126055D01*
X24079Y126022D01*
X24092Y126015D01*
X24112Y125996D01*
X24125Y125989D01*
X24138Y125976D01*
X24151Y125969D01*
X24165Y125956D01*
X24178Y125949D01*
X24191Y125936D01*
X24204Y125929D01*
X24218Y125916D01*
X24231Y125910D01*
X24244Y125896D01*
X24257Y125890D01*
X24271Y125876D01*
X24284Y125870D01*
X24330Y125837D01*
X24343Y125830D01*
X24390Y125797D01*
X24403Y125790D01*
X24449Y125757D01*
X24462Y125751D01*
X24516Y125717D01*
X24529Y125711D01*
X24582Y125678D01*
X24595Y125671D01*
X24648Y125638D01*
X24813Y125552D01*
X25005Y125459D01*
X25078Y125426D01*
X25111Y125413D01*
X25158Y125393D01*
X25191Y125380D01*
X25237Y125360D01*
X25303Y125333D01*
X25459Y125277D01*
X25615Y125228D01*
X25720Y125195D01*
X25813Y125168D01*
X25840Y125161D01*
X25886Y125148D01*
X25912Y125141D01*
X25959Y125128D01*
X26038Y125108D01*
X26081Y125098D01*
X26114Y125092D01*
X26167Y125079D01*
X26200Y125072D01*
X26227Y125065D01*
X26293Y125052D01*
X26333Y125045D01*
X26399Y125032D01*
X26439Y125026D01*
X26472Y125019D01*
X26551Y125006D01*
X26684Y124986D01*
X26820Y124969D01*
X26846Y124963D01*
X26949Y124953D01*
X27008Y124946D01*
X27074Y124940D01*
X27160Y124933D01*
X27240Y124926D01*
X27326Y124920D01*
X27452Y124913D01*
X27591Y124907D01*
X28230Y124903D01*
X28250Y124910D01*
X28531Y124920D01*
X28610Y124926D01*
X28782Y124940D01*
X28855Y124946D01*
X29094Y124973D01*
X29133Y124979D01*
X29398Y125019D01*
X29438Y125026D01*
X29471Y125032D01*
X29511Y125039D01*
X29544Y125045D01*
X29584Y125052D01*
X29650Y125065D01*
X29676Y125072D01*
X29709Y125079D01*
X29736Y125085D01*
X29769Y125092D01*
X29795Y125098D01*
X29829Y125105D01*
X29855Y125112D01*
X29888Y125118D01*
X29925Y125128D01*
X30031Y125155D01*
X30077Y125168D01*
X30130Y125181D01*
X30216Y125208D01*
X30282Y125228D01*
X30484Y125297D01*
X30597Y125337D01*
X30828Y125429D01*
X31010Y125512D01*
X31255Y125638D01*
X31308Y125671D01*
X31381Y125711D01*
X31428Y125737D01*
X31474Y125771D01*
X31487Y125777D01*
X31623Y125866D01*
X31663Y125893D01*
X31672Y125903D01*
X31686Y125910D01*
X31699Y125923D01*
X31712Y125929D01*
X31818Y126009D01*
X31831Y126022D01*
X31845Y126029D01*
X31865Y126048D01*
X31878Y126055D01*
X31898Y126075D01*
X31911Y126082D01*
X31931Y126102D01*
X31944Y126108D01*
X31984Y126148D01*
X31997Y126154D01*
X32057Y126214D01*
X32070Y126221D01*
X32285Y126436D01*
X32292Y126449D01*
X32345Y126502D01*
X32351Y126515D01*
X32378Y126542D01*
X32384Y126555D01*
X32411Y126581D01*
X32417Y126595D01*
X32437Y126615D01*
X32444Y126628D01*
X32464Y126648D01*
X32470Y126661D01*
X32484Y126674D01*
X32490Y126687D01*
X32503Y126701D01*
X32510Y126714D01*
X32523Y126727D01*
X32530Y126740D01*
X32543Y126754D01*
X32550Y126767D01*
X32616Y126860D01*
X32623Y126873D01*
X32649Y126912D01*
X32656Y126926D01*
X32702Y126999D01*
X32768Y127118D01*
X32901Y127389D01*
X32920Y127436D01*
X32960Y127535D01*
X32983Y127598D01*
X33040Y127773D01*
X33066Y127866D01*
X33073Y127892D01*
X33086Y127939D01*
X33093Y127965D01*
X33103Y128008D01*
X33116Y128061D01*
X33136Y128161D01*
X33156Y128280D01*
X33172Y128415D01*
X33179Y128442D01*
X33192Y128621D01*
X33199Y128667D01*
X33205Y128952D01*
X33199Y129250D01*
X33192Y129270D01*
X33182Y129412D01*
X33175Y129472D01*
X33169Y129524D01*
X33149Y129657D01*
X33136Y129736D01*
X33109Y129869D01*
X33103Y129895D01*
X33096Y129928D01*
X33070Y130034D01*
X33060Y130071D01*
X33053Y130097D01*
X33040Y130143D01*
X33007Y130249D01*
X32990Y130292D01*
X32957Y130385D01*
X32917Y130491D01*
X32894Y130547D01*
X32874Y130594D01*
X32841Y130667D01*
X32709Y130925D01*
X32676Y130978D01*
X32669Y130991D01*
X32623Y131064D01*
X32616Y131077D01*
X32583Y131123D01*
X32576Y131137D01*
X32533Y131200D01*
X32507Y131239D01*
X32497Y131249D01*
X32490Y131262D01*
X32477Y131276D01*
X32470Y131289D01*
X32407Y131372D01*
X32397Y131382D01*
X32391Y131395D01*
X32371Y131415D01*
X32364Y131428D01*
X32338Y131454D01*
X32331Y131468D01*
X32311Y131488D01*
X32305Y131501D01*
X32265Y131540D01*
X32259Y131554D01*
X32192Y131620D01*
X32186Y131633D01*
X32004Y131815D01*
X31990Y131822D01*
X31944Y131868D01*
X31931Y131875D01*
X31891Y131915D01*
X31878Y131921D01*
X31838Y131961D01*
X31825Y131967D01*
X31811Y131981D01*
X31798Y131987D01*
X31778Y132007D01*
X31765Y132014D01*
X31745Y132034D01*
X31732Y132040D01*
X31719Y132054D01*
X31706Y132060D01*
X31686Y132080D01*
X31672Y132087D01*
X31659Y132100D01*
X31646Y132107D01*
X31487Y132219D01*
X31474Y132226D01*
X31428Y132259D01*
X31381Y132285D01*
X31308Y132332D01*
X31295Y132338D01*
X31235Y132371D01*
X31143Y132424D01*
X30818Y132583D01*
X30699Y132636D01*
X30656Y132653D01*
X30557Y132692D01*
X30504Y132712D01*
X30431Y132739D01*
X30236Y132802D01*
X30170Y132822D01*
X30123Y132835D01*
X30057Y132855D01*
X30011Y132868D01*
X29905Y132894D01*
X29862Y132904D01*
X29756Y132931D01*
X29690Y132944D01*
X29660Y132947D01*
X29657Y132951D01*
X29524Y132977D01*
X29286Y133017D01*
X29021Y133050D01*
X28948Y133057D01*
X28869Y133063D01*
X28796Y133070D01*
X28703Y133076D01*
X28577Y133083D01*
X28398Y133090D01*
X27429Y133093D01*
D02*
G37*
G36*
X23973Y88562D02*
X23953Y88555D01*
X23569Y88548D01*
X23549Y88542D01*
X23304Y88535D01*
X23284Y88529D01*
X23102Y88519D01*
X23009Y88512D01*
X22936Y88505D01*
X22857Y88499D01*
X22711Y88486D01*
X22652Y88479D01*
X22585Y88472D01*
X22317Y88443D01*
X22291Y88436D01*
X22208Y88426D01*
X22029Y88400D01*
X21943Y88386D01*
X21904Y88380D01*
X21857Y88373D01*
X21864Y88360D01*
X21880Y88343D01*
X21894Y88337D01*
X21980Y88251D01*
X21993Y88244D01*
X22072Y88165D01*
X22086Y88158D01*
X22172Y88072D01*
X22185Y88065D01*
X22271Y87979D01*
X22284Y87972D01*
X22370Y87886D01*
X22384Y87880D01*
X22470Y87794D01*
X22483Y87787D01*
X22562Y87708D01*
X22576Y87701D01*
X22662Y87615D01*
X22675Y87608D01*
X22761Y87522D01*
X22774Y87516D01*
X22860Y87430D01*
X22873Y87423D01*
X22960Y87337D01*
X22973Y87330D01*
X23059Y87244D01*
X23072Y87238D01*
X23152Y87158D01*
X23165Y87152D01*
X23251Y87065D01*
X23264Y87059D01*
X23350Y86973D01*
X23363Y86966D01*
X23449Y86880D01*
X23463Y86874D01*
X23549Y86787D01*
X23562Y86781D01*
X23642Y86701D01*
X23655Y86695D01*
X23741Y86609D01*
X23754Y86602D01*
X23840Y86516D01*
X23853Y86509D01*
X23939Y86423D01*
X23953Y86417D01*
X24039Y86331D01*
X24052Y86324D01*
X24138Y86238D01*
X24151Y86231D01*
X24231Y86152D01*
X24244Y86145D01*
X24330Y86059D01*
X24343Y86053D01*
X24429Y85967D01*
X24443Y85960D01*
X24529Y85874D01*
X24542Y85867D01*
X24628Y85781D01*
X24641Y85774D01*
X24721Y85695D01*
X24734Y85688D01*
X24820Y85602D01*
X24833Y85596D01*
X24919Y85510D01*
X24933Y85503D01*
X25019Y85417D01*
X25032Y85410D01*
X25118Y85324D01*
X25131Y85318D01*
X25217Y85232D01*
X25231Y85225D01*
X25310Y85146D01*
X25323Y85139D01*
X25409Y85053D01*
X25422Y85046D01*
X25509Y84960D01*
X25522Y84953D01*
X25608Y84867D01*
X25621Y84861D01*
X25707Y84775D01*
X25720Y84768D01*
X25800Y84689D01*
X25813Y84682D01*
X25899Y84596D01*
X25912Y84589D01*
X25998Y84503D01*
X26012Y84497D01*
X26098Y84411D01*
X26111Y84404D01*
X26197Y84318D01*
X26210Y84311D01*
X26297Y84225D01*
X26310Y84219D01*
X26389Y84139D01*
X26402Y84132D01*
X26488Y84046D01*
X26502Y84040D01*
X26588Y83954D01*
X26601Y83947D01*
X26687Y83861D01*
X26700Y83854D01*
X26786Y83768D01*
X26800Y83762D01*
X26879Y83682D01*
X26892Y83676D01*
X26978Y83590D01*
X26992Y83583D01*
X27078Y83497D01*
X27091Y83490D01*
X27177Y83404D01*
X27190Y83398D01*
X27276Y83312D01*
X27290Y83305D01*
X27376Y83219D01*
X27389Y83212D01*
X27468Y83133D01*
X27482Y83126D01*
X27568Y83040D01*
X27581Y83033D01*
X27667Y82947D01*
X27680Y82941D01*
X27766Y82855D01*
X27780Y82848D01*
X27866Y82762D01*
X27879Y82755D01*
X27958Y82676D01*
X27971Y82669D01*
X28058Y82583D01*
X28071Y82577D01*
X28157Y82491D01*
X28170Y82484D01*
X28256Y82398D01*
X28269Y82391D01*
X28356Y82305D01*
X28369Y82298D01*
X28455Y82212D01*
X28468Y82206D01*
X28547Y82126D01*
X28561Y82120D01*
X28647Y82034D01*
X28660Y82027D01*
X28746Y81941D01*
X28759Y81934D01*
X28846Y81848D01*
X28859Y81842D01*
X28945Y81756D01*
X28958Y81749D01*
X29037Y81670D01*
X29051Y81663D01*
X29137Y81577D01*
X29150Y81570D01*
X29236Y81484D01*
X29249Y81478D01*
X29335Y81391D01*
X29349Y81385D01*
X29435Y81299D01*
X29448Y81292D01*
X29534Y81206D01*
X29547Y81200D01*
X29627Y81120D01*
X29640Y81113D01*
X29726Y81027D01*
X29739Y81021D01*
X29825Y80935D01*
X29839Y80928D01*
X29925Y80842D01*
X29938Y80835D01*
X30024Y80749D01*
X30037Y80743D01*
X30123Y80657D01*
X30136Y80650D01*
X30216Y80570D01*
X30229Y80564D01*
X30315Y80478D01*
X30329Y80471D01*
X30415Y80385D01*
X30428Y80379D01*
X30514Y80292D01*
X30527Y80286D01*
X30613Y80200D01*
X30626Y80193D01*
X30706Y80114D01*
X30719Y80107D01*
X30732Y80094D01*
X30759Y80100D01*
X31070Y80259D01*
X31116Y80286D01*
X31176Y80319D01*
X31229Y80352D01*
X31288Y80385D01*
X31497Y80521D01*
X31537Y80547D01*
X31547Y80557D01*
X31560Y80564D01*
X31735Y80693D01*
X31745Y80703D01*
X31759Y80710D01*
X31778Y80729D01*
X31792Y80736D01*
X31805Y80749D01*
X31818Y80756D01*
X31845Y80782D01*
X31858Y80789D01*
X31891Y80822D01*
X31904Y80829D01*
X31937Y80862D01*
X31951Y80869D01*
X32004Y80921D01*
X32017Y80928D01*
X32265Y81176D01*
X32272Y81190D01*
X32318Y81236D01*
X32325Y81249D01*
X32358Y81282D01*
X32361Y81286D01*
X32378Y81309D01*
X32391Y81322D01*
X32397Y81335D01*
X32417Y81355D01*
X32424Y81368D01*
X32450Y81395D01*
X32457Y81408D01*
X32470Y81421D01*
X32477Y81434D01*
X32490Y81448D01*
X32497Y81461D01*
X32510Y81474D01*
X32517Y81488D01*
X32530Y81501D01*
X32536Y81514D01*
X32603Y81607D01*
X32609Y81620D01*
X32643Y81666D01*
X32649Y81679D01*
X32715Y81785D01*
X32722Y81799D01*
X32755Y81852D01*
X32821Y81977D01*
X32907Y82156D01*
X32934Y82216D01*
X32954Y82262D01*
X32980Y82328D01*
X32997Y82371D01*
X33010Y82404D01*
X33073Y82600D01*
X33099Y82686D01*
X33106Y82712D01*
X33119Y82759D01*
X33146Y82865D01*
X33156Y82908D01*
X33162Y82941D01*
X33169Y82967D01*
X33175Y83000D01*
X33182Y83040D01*
X33195Y83106D01*
X33202Y83146D01*
X33225Y83328D01*
X33232Y83355D01*
X33242Y83464D01*
X33248Y83543D01*
X33255Y83656D01*
X33261Y83874D01*
X33265Y83950D01*
X33258Y83970D01*
X33252Y84275D01*
X33245Y84295D01*
X33235Y84437D01*
X33228Y84497D01*
X33212Y84632D01*
X33205Y84659D01*
X33195Y84735D01*
X33182Y84801D01*
X33175Y84828D01*
X33149Y84960D01*
X33122Y85066D01*
X33112Y85102D01*
X33106Y85129D01*
X33093Y85175D01*
X33086Y85202D01*
X33003Y85443D01*
X32983Y85496D01*
X32957Y85563D01*
X32934Y85619D01*
X32914Y85665D01*
X32748Y85990D01*
X32722Y86036D01*
X32689Y86089D01*
X32682Y86102D01*
X32593Y86238D01*
X32543Y86307D01*
X32536Y86321D01*
X32444Y86440D01*
X32414Y86476D01*
X32397Y86499D01*
X32368Y86536D01*
X32351Y86552D01*
X32345Y86566D01*
X32298Y86612D01*
X32292Y86625D01*
X32239Y86678D01*
X32232Y86691D01*
X32017Y86907D01*
X32004Y86913D01*
X31970Y86946D01*
X31957Y86953D01*
X31918Y86993D01*
X31904Y86999D01*
X31871Y87032D01*
X31858Y87039D01*
X31825Y87072D01*
X31811Y87079D01*
X31798Y87092D01*
X31785Y87099D01*
X31765Y87119D01*
X31752Y87125D01*
X31739Y87138D01*
X31725Y87145D01*
X31712Y87158D01*
X31699Y87165D01*
X31679Y87185D01*
X31666Y87191D01*
X31653Y87205D01*
X31639Y87211D01*
X31626Y87224D01*
X31613Y87231D01*
X31520Y87297D01*
X31507Y87304D01*
X31461Y87337D01*
X31447Y87344D01*
X31381Y87390D01*
X31368Y87396D01*
X31315Y87430D01*
X31302Y87436D01*
X31249Y87469D01*
X31235Y87476D01*
X31183Y87509D01*
X31169Y87516D01*
X31096Y87555D01*
X31010Y87602D01*
X30646Y87781D01*
X30613Y87794D01*
X30567Y87814D01*
X30534Y87827D01*
X30441Y87867D01*
X30342Y87906D01*
X30299Y87923D01*
X30246Y87943D01*
X30173Y87969D01*
X30120Y87989D01*
X29984Y88032D01*
X29779Y88098D01*
X29733Y88112D01*
X29706Y88118D01*
X29567Y88158D01*
X29541Y88165D01*
X29448Y88191D01*
X29405Y88201D01*
X29272Y88234D01*
X29239Y88241D01*
X29133Y88267D01*
X28935Y88307D01*
X28908Y88314D01*
X28809Y88333D01*
X28769Y88340D01*
X28736Y88347D01*
X28577Y88373D01*
X28544Y88380D01*
X28465Y88393D01*
X28097Y88443D01*
X28071Y88449D01*
X27968Y88459D01*
X27915Y88466D01*
X27736Y88486D01*
X27664Y88492D01*
X27505Y88505D01*
X27432Y88512D01*
X27352Y88519D01*
X27246Y88525D01*
X27134Y88532D01*
X27015Y88539D01*
X26882Y88545D01*
X26697Y88552D01*
X26479Y88559D01*
X23973Y88562D01*
D02*
G37*
G36*
X19934Y87840D02*
X19848Y87800D01*
X19801Y87781D01*
X19729Y87747D01*
X19616Y87695D01*
X19384Y87575D01*
X19311Y87536D01*
X19265Y87509D01*
X19212Y87476D01*
X19153Y87443D01*
X19113Y87416D01*
X19100Y87410D01*
X19060Y87383D01*
X19047Y87377D01*
X19000Y87344D01*
X18987Y87337D01*
X18941Y87304D01*
X18928Y87297D01*
X18881Y87264D01*
X18868Y87257D01*
X18855Y87244D01*
X18842Y87238D01*
X18828Y87224D01*
X18815Y87218D01*
X18732Y87155D01*
X18709Y87138D01*
X18696Y87125D01*
X18683Y87119D01*
X18669Y87105D01*
X18656Y87099D01*
X18636Y87079D01*
X18623Y87072D01*
X18597Y87046D01*
X18583Y87039D01*
X18557Y87013D01*
X18543Y87006D01*
X18517Y86979D01*
X18504Y86973D01*
X18444Y86913D01*
X18431Y86907D01*
X18169Y86645D01*
X18163Y86632D01*
X18123Y86592D01*
X18117Y86579D01*
X18077Y86539D01*
X18070Y86526D01*
X18050Y86506D01*
X18044Y86493D01*
X18017Y86466D01*
X18011Y86453D01*
X17991Y86433D01*
X17984Y86420D01*
X17971Y86407D01*
X17964Y86393D01*
X17951Y86380D01*
X17944Y86367D01*
X17931Y86354D01*
X17924Y86341D01*
X17911Y86327D01*
X17905Y86314D01*
X17838Y86221D01*
X17832Y86208D01*
X17799Y86162D01*
X17792Y86149D01*
X17746Y86076D01*
X17739Y86062D01*
X17706Y86010D01*
X17666Y85937D01*
X17514Y85625D01*
X17487Y85559D01*
X17468Y85513D01*
X17451Y85470D01*
X17431Y85417D01*
X17362Y85202D01*
X17349Y85155D01*
X17342Y85129D01*
X17329Y85083D01*
X17289Y84924D01*
X17249Y84712D01*
X17243Y84665D01*
X17236Y84639D01*
X17229Y84573D01*
X17223Y84546D01*
X17213Y84457D01*
X17206Y84391D01*
X17199Y84311D01*
X17190Y84116D01*
X17183Y83911D01*
X17190Y83705D01*
X17196Y83546D01*
X17203Y83527D01*
X17213Y83384D01*
X17219Y83331D01*
X17259Y83067D01*
X17279Y82967D01*
X17286Y82941D01*
X17306Y82841D01*
X17315Y82805D01*
X17322Y82779D01*
X17335Y82732D01*
X17342Y82706D01*
X17355Y82659D01*
X17362Y82633D01*
X17458Y82352D01*
X17481Y82295D01*
X17501Y82249D01*
X17514Y82216D01*
X17534Y82169D01*
X17706Y81832D01*
X17739Y81779D01*
X17746Y81766D01*
X17772Y81719D01*
X17805Y81673D01*
X17812Y81660D01*
X17845Y81613D01*
X17852Y81600D01*
X17885Y81554D01*
X17891Y81540D01*
X17905Y81527D01*
X17911Y81514D01*
X17974Y81431D01*
X17984Y81421D01*
X17991Y81408D01*
X18004Y81395D01*
X18011Y81382D01*
X18030Y81362D01*
X18037Y81348D01*
X18057Y81329D01*
X18063Y81315D01*
X18083Y81295D01*
X18090Y81282D01*
X18136Y81236D01*
X18143Y81223D01*
X18196Y81170D01*
X18203Y81157D01*
X18444Y80915D01*
X18457Y80908D01*
X18497Y80869D01*
X18510Y80862D01*
X18543Y80829D01*
X18557Y80822D01*
X18597Y80782D01*
X18610Y80776D01*
X18636Y80749D01*
X18649Y80743D01*
X18663Y80729D01*
X18676Y80723D01*
X18689Y80710D01*
X18702Y80703D01*
X18722Y80683D01*
X18736Y80676D01*
X18749Y80663D01*
X18762Y80657D01*
X18775Y80643D01*
X18788Y80637D01*
X18808Y80617D01*
X18822Y80610D01*
X18835Y80597D01*
X18848Y80590D01*
X18894Y80557D01*
X18908Y80551D01*
X19000Y80484D01*
X19014Y80478D01*
X19060Y80445D01*
X19106Y80418D01*
X19159Y80385D01*
X19173Y80379D01*
X19225Y80345D01*
X19239Y80339D01*
X19278Y80312D01*
X19404Y80246D01*
X19490Y80200D01*
X19749Y80074D01*
X19821Y80041D01*
X19914Y80001D01*
X19947Y79988D01*
X20040Y79948D01*
X20073Y79935D01*
X20116Y79918D01*
X20275Y79859D01*
X20348Y79832D01*
X20444Y79802D01*
X20669Y79730D01*
X20947Y79650D01*
X21159Y79597D01*
X21202Y79587D01*
X21308Y79561D01*
X21440Y79534D01*
X21467Y79528D01*
X21599Y79501D01*
X21625Y79495D01*
X21745Y79475D01*
X21778Y79468D01*
X21897Y79448D01*
X21930Y79442D01*
X22009Y79428D01*
X22099Y79419D01*
X22125Y79412D01*
X22201Y79402D01*
X22384Y79379D01*
X22410Y79372D01*
X22513Y79362D01*
X22572Y79356D01*
X22625Y79349D01*
X22685Y79342D01*
X22751Y79336D01*
X22831Y79329D01*
X22903Y79323D01*
X23062Y79309D01*
X23148Y79303D01*
X23486Y79283D01*
X23658Y79276D01*
X23857Y79269D01*
X24280Y79263D01*
X26177Y79260D01*
X26197Y79266D01*
X26806Y79273D01*
X26826Y79279D01*
X27074Y79289D01*
X27200Y79296D01*
X27293Y79303D01*
X27551Y79323D01*
X27624Y79329D01*
X27690Y79336D01*
X27750Y79342D01*
X27882Y79356D01*
X28001Y79369D01*
X28160Y79389D01*
X28478Y79435D01*
X28637Y79461D01*
X28670Y79468D01*
X28749Y79481D01*
X28849Y79501D01*
X28875Y79508D01*
X28786Y79597D01*
X28773Y79604D01*
X28687Y79690D01*
X28673Y79697D01*
X28587Y79783D01*
X28574Y79789D01*
X28495Y79869D01*
X28481Y79875D01*
X28395Y79961D01*
X28382Y79968D01*
X28296Y80054D01*
X28283Y80061D01*
X28197Y80147D01*
X28183Y80153D01*
X28097Y80239D01*
X28084Y80246D01*
X28005Y80325D01*
X27991Y80332D01*
X27905Y80418D01*
X27892Y80425D01*
X27806Y80511D01*
X27793Y80518D01*
X27707Y80604D01*
X27693Y80610D01*
X27607Y80696D01*
X27594Y80703D01*
X27508Y80789D01*
X27495Y80796D01*
X27415Y80875D01*
X27402Y80882D01*
X27316Y80968D01*
X27303Y80974D01*
X27217Y81060D01*
X27204Y81067D01*
X27117Y81153D01*
X27104Y81160D01*
X27018Y81246D01*
X27005Y81252D01*
X26925Y81332D01*
X26912Y81339D01*
X26826Y81425D01*
X26813Y81431D01*
X26727Y81517D01*
X26714Y81524D01*
X26667Y81570D01*
X26664Y81574D01*
X26628Y81610D01*
X26614Y81617D01*
X26528Y81703D01*
X26515Y81709D01*
X26429Y81795D01*
X26416Y81802D01*
X26336Y81881D01*
X26323Y81888D01*
X26237Y81974D01*
X26224Y81981D01*
X26138Y82067D01*
X26124Y82073D01*
X26038Y82160D01*
X26025Y82166D01*
X25939Y82252D01*
X25926Y82259D01*
X25846Y82338D01*
X25833Y82345D01*
X25747Y82431D01*
X25734Y82438D01*
X25648Y82524D01*
X25634Y82530D01*
X25548Y82616D01*
X25535Y82623D01*
X25449Y82709D01*
X25436Y82716D01*
X25350Y82802D01*
X25336Y82808D01*
X25257Y82888D01*
X25244Y82894D01*
X25158Y82980D01*
X25145Y82987D01*
X25058Y83073D01*
X25045Y83080D01*
X24959Y83166D01*
X24946Y83173D01*
X24860Y83259D01*
X24846Y83265D01*
X24760Y83351D01*
X24747Y83358D01*
X24668Y83437D01*
X24655Y83444D01*
X24568Y83530D01*
X24555Y83537D01*
X24469Y83623D01*
X24456Y83629D01*
X24370Y83715D01*
X24357Y83722D01*
X24271Y83808D01*
X24257Y83815D01*
X24178Y83894D01*
X24165Y83901D01*
X24079Y83987D01*
X24065Y83994D01*
X23979Y84080D01*
X23966Y84086D01*
X23880Y84172D01*
X23867Y84179D01*
X23781Y84265D01*
X23767Y84271D01*
X23681Y84358D01*
X23668Y84364D01*
X23589Y84444D01*
X23575Y84450D01*
X23489Y84536D01*
X23476Y84543D01*
X23390Y84629D01*
X23377Y84636D01*
X23291Y84722D01*
X23277Y84728D01*
X23191Y84814D01*
X23178Y84821D01*
X23099Y84901D01*
X23085Y84907D01*
X22999Y84993D01*
X22986Y85000D01*
X22900Y85086D01*
X22887Y85092D01*
X22801Y85179D01*
X22787Y85185D01*
X22701Y85271D01*
X22688Y85278D01*
X22602Y85364D01*
X22589Y85371D01*
X22509Y85450D01*
X22496Y85457D01*
X22410Y85543D01*
X22397Y85549D01*
X22311Y85635D01*
X22297Y85642D01*
X22211Y85728D01*
X22198Y85735D01*
X22112Y85821D01*
X22099Y85827D01*
X22019Y85907D01*
X22006Y85913D01*
X21920Y85999D01*
X21907Y86006D01*
X21821Y86092D01*
X21808Y86099D01*
X21721Y86185D01*
X21708Y86192D01*
X21622Y86278D01*
X21609Y86284D01*
X21523Y86370D01*
X21510Y86377D01*
X21430Y86456D01*
X21417Y86463D01*
X21331Y86549D01*
X21318Y86556D01*
X21232Y86642D01*
X21218Y86648D01*
X21132Y86734D01*
X21119Y86741D01*
X21033Y86827D01*
X21020Y86834D01*
X20934Y86920D01*
X20920Y86926D01*
X20841Y87006D01*
X20828Y87013D01*
X20742Y87099D01*
X20728Y87105D01*
X20642Y87191D01*
X20629Y87198D01*
X20543Y87284D01*
X20530Y87291D01*
X20444Y87377D01*
X20431Y87383D01*
X20351Y87463D01*
X20338Y87469D01*
X20252Y87555D01*
X20238Y87562D01*
X20152Y87648D01*
X20139Y87655D01*
X20053Y87741D01*
X20040Y87747D01*
X19954Y87833D01*
X19934Y87840D01*
D02*
G37*
%LPD*%
D10*
X371995Y6000D02*
G03*
X381000Y25400I-16395J19400D01*
G01*
Y203200D02*
G03*
X371995Y222600I-25400J0D01*
G01*
X381000Y135586D02*
Y203200D01*
Y25400D02*
Y135586D01*
X403200Y155700D02*
X409450Y161950D01*
X454150D02*
X460400Y155700D01*
Y146400D02*
Y155700D01*
Y66650D02*
Y82200D01*
X403200Y66650D02*
X423946D01*
X439654D02*
X460400D01*
X403200Y146400D02*
Y155700D01*
Y66650D02*
Y82200D01*
X409450Y161950D02*
X423946D01*
X439654D02*
X454150D01*
D11*
X200000Y75000D02*
X205000Y70000D01*
X200000Y75000D02*
Y83000D01*
X82500Y154800D02*
Y160800D01*
X245750Y109132D02*
Y119468D01*
X224250Y109132D02*
Y119468D01*
X184000Y135300D02*
Y141300D01*
X347250Y109382D02*
Y119218D01*
X325750Y109382D02*
Y119218D01*
X285250Y135500D02*
Y141500D01*
X336500Y135800D02*
Y141800D01*
X274750Y109132D02*
Y119468D01*
X296250Y109132D02*
Y119468D01*
X173250Y109132D02*
Y119468D01*
X194750Y109132D02*
Y119468D01*
X235000Y135300D02*
Y141300D01*
X71750Y109132D02*
Y119468D01*
X93250Y109132D02*
Y119468D01*
X133000Y154800D02*
Y160800D01*
X122750Y109132D02*
Y119468D01*
X144250Y109132D02*
Y119468D01*
X289278Y196025D02*
X287866Y194614D01*
Y191791D01*
X289278Y190380D01*
X294922D01*
X296334Y191791D01*
Y194614D01*
X294922Y196025D01*
X296334Y198848D02*
Y201670D01*
Y200259D01*
X287866D01*
X289278Y198848D01*
X263878Y193203D02*
X262466Y191791D01*
Y188969D01*
X263878Y187558D01*
X269522D01*
X270934Y188969D01*
Y191791D01*
X269522Y193203D01*
X270934Y201670D02*
Y196025D01*
X265289Y201670D01*
X263878D01*
X262466Y200259D01*
Y197436D01*
X263878Y196025D01*
X238478Y193203D02*
X237066Y191791D01*
Y188969D01*
X238478Y187558D01*
X244122D01*
X245534Y188969D01*
Y191791D01*
X244122Y193203D01*
X238478Y196025D02*
X237066Y197436D01*
Y200259D01*
X238478Y201670D01*
X239889D01*
X241300Y200259D01*
Y198848D01*
Y200259D01*
X242711Y201670D01*
X244122D01*
X245534Y200259D01*
Y197436D01*
X244122Y196025D01*
X213078Y193203D02*
X211666Y191791D01*
Y188969D01*
X213078Y187558D01*
X218722D01*
X220134Y188969D01*
Y191791D01*
X218722Y193203D01*
X220134Y200259D02*
X211666D01*
X215900Y196025D01*
Y201670D01*
X187678Y193203D02*
X186266Y191791D01*
Y188969D01*
X187678Y187558D01*
X193322D01*
X194734Y188969D01*
Y191791D01*
X193322Y193203D01*
X186266Y201670D02*
Y196025D01*
X190500D01*
X189089Y198848D01*
Y200259D01*
X190500Y201670D01*
X193322D01*
X194734Y200259D01*
Y197436D01*
X193322Y196025D01*
X162278Y193203D02*
X160866Y191791D01*
Y188969D01*
X162278Y187558D01*
X167922D01*
X169334Y188969D01*
Y191791D01*
X167922Y193203D01*
X160866Y201670D02*
X162278Y198848D01*
X165100Y196025D01*
X167922D01*
X169334Y197436D01*
Y200259D01*
X167922Y201670D01*
X166511D01*
X165100Y200259D01*
Y196025D01*
X136878Y193203D02*
X135466Y191791D01*
Y188969D01*
X136878Y187558D01*
X142522D01*
X143934Y188969D01*
Y191791D01*
X142522Y193203D01*
X135466Y196025D02*
Y201670D01*
X136878D01*
X142522Y196025D01*
X143934D01*
X111478Y193203D02*
X110066Y191791D01*
Y188969D01*
X111478Y187558D01*
X117122D01*
X118534Y188969D01*
Y191791D01*
X117122Y193203D01*
X111478Y196025D02*
X110066Y197436D01*
Y200259D01*
X111478Y201670D01*
X112889D01*
X114300Y200259D01*
X115711Y201670D01*
X117122D01*
X118534Y200259D01*
Y197436D01*
X117122Y196025D01*
X115711D01*
X114300Y197436D01*
X112889Y196025D01*
X111478D01*
X114300Y197436D02*
Y200259D01*
X86078Y193203D02*
X84666Y191791D01*
Y188969D01*
X86078Y187558D01*
X91722D01*
X93134Y188969D01*
Y191791D01*
X91722Y193203D01*
Y196025D02*
X93134Y197436D01*
Y200259D01*
X91722Y201670D01*
X86078D01*
X84666Y200259D01*
Y197436D01*
X86078Y196025D01*
X87489D01*
X88900Y197436D01*
Y201670D01*
X314678Y193203D02*
X313266Y191791D01*
Y188969D01*
X314678Y187558D01*
X320322D01*
X321734Y188969D01*
Y191791D01*
X320322Y193203D01*
X314678Y196025D02*
X313266Y197436D01*
Y200259D01*
X314678Y201670D01*
X320322D01*
X321734Y200259D01*
Y197436D01*
X320322Y196025D01*
X314678D01*
X111477Y32575D02*
X110066Y31164D01*
Y28341D01*
X111477Y26930D01*
X117122D01*
X118534Y28341D01*
Y31164D01*
X117122Y32575D01*
X114300D01*
Y29752D01*
X118534Y35397D02*
X110066D01*
X118534Y41042D01*
X110066D01*
Y43865D02*
X118534D01*
Y48098D01*
X117122Y49509D01*
X111477D01*
X110066Y48098D01*
Y43865D01*
X135466Y26930D02*
X143934D01*
Y31164D01*
X142522Y32575D01*
X136878D01*
X135466Y31164D01*
Y26930D01*
X136878Y35397D02*
X135466Y36809D01*
Y39631D01*
X136878Y41042D01*
X142522D01*
X143934Y39631D01*
Y36809D01*
X142522Y35397D01*
X136878D01*
X160866Y26930D02*
X169334D01*
Y31164D01*
X167922Y32575D01*
X162278D01*
X160866Y31164D01*
Y26930D01*
X169334Y35397D02*
Y38220D01*
Y36809D01*
X160866D01*
X162278Y35397D01*
X186266Y26930D02*
X194734D01*
Y31164D01*
X193322Y32575D01*
X187678D01*
X186266Y31164D01*
Y26930D01*
X194734Y41042D02*
Y35397D01*
X189089Y41042D01*
X187678D01*
X186266Y39631D01*
Y36809D01*
X187678Y35397D01*
X211666Y26930D02*
X220134D01*
Y31164D01*
X218722Y32575D01*
X213078D01*
X211666Y31164D01*
Y26930D01*
X213078Y35397D02*
X211666Y36809D01*
Y39631D01*
X213078Y41042D01*
X214489D01*
X215900Y39631D01*
Y38220D01*
Y39631D01*
X217311Y41042D01*
X218722D01*
X220134Y39631D01*
Y36809D01*
X218722Y35397D01*
X237066Y26930D02*
X245534D01*
Y31164D01*
X244122Y32575D01*
X238478D01*
X237066Y31164D01*
Y26930D01*
X245534Y39631D02*
X237066D01*
X241300Y35397D01*
Y41042D01*
X262466Y26930D02*
X270934D01*
Y31164D01*
X269522Y32575D01*
X263878D01*
X262466Y31164D01*
Y26930D01*
Y41042D02*
Y35397D01*
X266700D01*
X265289Y38220D01*
Y39631D01*
X266700Y41042D01*
X269522D01*
X270934Y39631D01*
Y36809D01*
X269522Y35397D01*
X287866Y26930D02*
X296334D01*
Y31164D01*
X294922Y32575D01*
X289278D01*
X287866Y31164D01*
Y26930D01*
Y41042D02*
X289278Y38220D01*
X292100Y35397D01*
X294922D01*
X296334Y36809D01*
Y39631D01*
X294922Y41042D01*
X293511D01*
X292100Y39631D01*
Y35397D01*
X313266Y26930D02*
X321734D01*
Y31164D01*
X320322Y32575D01*
X314678D01*
X313266Y31164D01*
Y26930D01*
Y35397D02*
Y41042D01*
X314678D01*
X320322Y35397D01*
X321734D01*
X60677Y184736D02*
X59266Y183324D01*
Y180502D01*
X60677Y179091D01*
X66322D01*
X67734Y180502D01*
Y183324D01*
X66322Y184736D01*
X63500D01*
Y181913D01*
X67734Y187558D02*
X59266D01*
X67734Y193203D01*
X59266D01*
Y196025D02*
X67734D01*
Y200259D01*
X66322Y201670D01*
X60677D01*
X59266Y200259D01*
Y196025D01*
X466589Y68766D02*
X469411D01*
X468000D01*
Y77234D01*
X466589Y75823D01*
X465178Y149178D02*
X466589Y147766D01*
X469411D01*
X470822Y149178D01*
Y154822D01*
X469411Y156234D01*
X466589D01*
X465178Y154822D01*
Y153411D01*
X466589Y152000D01*
X470822D01*
X397822Y68766D02*
X392178D01*
X397822Y74411D01*
Y75823D01*
X396411Y77234D01*
X393589D01*
X392178Y75823D01*
X385649Y147766D02*
X388472D01*
X387061D01*
Y156234D01*
X385649Y154822D01*
X392706D02*
X394117Y156234D01*
X396939D01*
X398350Y154822D01*
Y149178D01*
X396939Y147766D01*
X394117D01*
X392706Y149178D01*
Y154822D01*
X290444Y74766D02*
Y83234D01*
X294678D01*
X296089Y81822D01*
Y79000D01*
X294678Y77589D01*
X290444D01*
X293266D02*
X296089Y74766D01*
X298911Y76178D02*
X300322Y74766D01*
X303145D01*
X304556Y76178D01*
Y81822D01*
X303145Y83234D01*
X300322D01*
X298911Y81822D01*
Y80411D01*
X300322Y79000D01*
X304556D01*
X207944Y57766D02*
Y66234D01*
X212178D01*
X213589Y64823D01*
Y62000D01*
X212178Y60589D01*
X207944D01*
X210766D02*
X213589Y57766D01*
X222056Y66234D02*
X219234Y64823D01*
X216411Y62000D01*
Y59178D01*
X217822Y57766D01*
X220645D01*
X222056Y59178D01*
Y60589D01*
X220645Y62000D01*
X216411D01*
X393444Y183766D02*
Y192234D01*
X397678D01*
X399089Y190823D01*
Y188000D01*
X397678Y186589D01*
X393444D01*
X396266D02*
X399089Y183766D01*
X401911Y190823D02*
X403322Y192234D01*
X406145D01*
X407556Y190823D01*
Y189411D01*
X406145Y188000D01*
X407556Y186589D01*
Y185178D01*
X406145Y183766D01*
X403322D01*
X401911Y185178D01*
Y186589D01*
X403322Y188000D01*
X401911Y189411D01*
Y190823D01*
X403322Y188000D02*
X406145D01*
X393944Y179234D02*
Y170766D01*
X398178D01*
X399589Y172178D01*
Y177822D01*
X398178Y179234D01*
X393944D01*
X408056D02*
X405234Y177822D01*
X402411Y175000D01*
Y172178D01*
X403823Y170766D01*
X406645D01*
X408056Y172178D01*
Y173589D01*
X406645Y175000D01*
X402411D01*
X340444Y161734D02*
Y153266D01*
X344678D01*
X346089Y154678D01*
Y160322D01*
X344678Y161734D01*
X340444D01*
X348911D02*
X354556D01*
Y160322D01*
X348911Y154678D01*
Y153266D01*
X107944Y169234D02*
Y160766D01*
X112178D01*
X113589Y162178D01*
Y167822D01*
X112178Y169234D01*
X107944D01*
X122056D02*
X116411D01*
Y165000D01*
X119234Y166411D01*
X120645D01*
X122056Y165000D01*
Y162178D01*
X120645Y160766D01*
X117822D01*
X116411Y162178D01*
X187944Y161534D02*
Y153066D01*
X192178D01*
X193589Y154478D01*
Y160123D01*
X192178Y161534D01*
X187944D01*
X200645Y153066D02*
Y161534D01*
X196411Y157300D01*
X202056D01*
X289694Y160734D02*
Y152266D01*
X293928D01*
X295339Y153678D01*
Y159323D01*
X293928Y160734D01*
X289694D01*
X298161Y159323D02*
X299573Y160734D01*
X302395D01*
X303806Y159323D01*
Y157911D01*
X302395Y156500D01*
X300984D01*
X302395D01*
X303806Y155089D01*
Y153678D01*
X302395Y152266D01*
X299573D01*
X298161Y153678D01*
X157944Y169234D02*
Y160766D01*
X162178D01*
X163589Y162178D01*
Y167822D01*
X162178Y169234D01*
X157944D01*
X172056Y160766D02*
X166411D01*
X172056Y166411D01*
Y167822D01*
X170645Y169234D01*
X167822D01*
X166411Y167822D01*
X240855Y160534D02*
Y152066D01*
X245089D01*
X246500Y153478D01*
Y159122D01*
X245089Y160534D01*
X240855D01*
X249322Y152066D02*
X252145D01*
X250734D01*
Y160534D01*
X249322Y159122D01*
X274766Y70944D02*
X281822D01*
X283234Y72355D01*
Y75178D01*
X281822Y76589D01*
X274766D01*
Y85056D02*
X276178Y82234D01*
X279000Y79411D01*
X281822D01*
X283234Y80822D01*
Y83645D01*
X281822Y85056D01*
X280411D01*
X279000Y83645D01*
Y79411D01*
X173266Y70944D02*
X180322D01*
X181734Y72355D01*
Y75178D01*
X180322Y76589D01*
X173266D01*
Y85056D02*
Y79411D01*
X177500D01*
X176089Y82234D01*
Y83645D01*
X177500Y85056D01*
X180322D01*
X181734Y83645D01*
Y80822D01*
X180322Y79411D01*
X122766Y70944D02*
X129822D01*
X131234Y72355D01*
Y75178D01*
X129822Y76589D01*
X122766D01*
X131234Y83645D02*
X122766D01*
X127000Y79411D01*
Y85056D01*
X72266Y70944D02*
X79322D01*
X80734Y72355D01*
Y75178D01*
X79322Y76589D01*
X72266D01*
X73678Y79411D02*
X72266Y80822D01*
Y83645D01*
X73678Y85056D01*
X75089D01*
X76500Y83645D01*
Y82234D01*
Y83645D01*
X77911Y85056D01*
X79322D01*
X80734Y83645D01*
Y80822D01*
X79322Y79411D01*
X230266Y71444D02*
X237322D01*
X238734Y72855D01*
Y75678D01*
X237322Y77089D01*
X230266D01*
X238734Y85556D02*
Y79911D01*
X233089Y85556D01*
X231677D01*
X230266Y84145D01*
Y81322D01*
X231677Y79911D01*
X352766Y108155D02*
X359822D01*
X361234Y109566D01*
Y112389D01*
X359822Y113800D01*
X352766D01*
X361234Y116622D02*
Y119445D01*
Y118034D01*
X352766D01*
X354178Y116622D01*
X195234Y50444D02*
X186766D01*
Y54678D01*
X188178Y56089D01*
X191000D01*
X192411Y54678D01*
Y50444D01*
Y53266D02*
X195234Y56089D01*
X186766Y58911D02*
Y64556D01*
X188178D01*
X193822Y58911D01*
X195234D01*
X156234Y135944D02*
X147766D01*
Y140178D01*
X149178Y141589D01*
X152000D01*
X153411Y140178D01*
Y135944D01*
Y138766D02*
X156234Y141589D01*
X147766Y150056D02*
Y144411D01*
X152000D01*
X150589Y147234D01*
Y148645D01*
X152000Y150056D01*
X154822D01*
X156234Y148645D01*
Y145822D01*
X154822Y144411D01*
X104734Y135944D02*
X96266D01*
Y140178D01*
X97678Y141589D01*
X100500D01*
X101911Y140178D01*
Y135944D01*
Y138766D02*
X104734Y141589D01*
Y148645D02*
X96266D01*
X100500Y144411D01*
Y150056D01*
X144234Y60444D02*
X135766D01*
Y64678D01*
X137178Y66089D01*
X140000D01*
X141411Y64678D01*
Y60444D01*
Y63266D02*
X144234Y66089D01*
X137178Y68911D02*
X135766Y70322D01*
Y73145D01*
X137178Y74556D01*
X138589D01*
X140000Y73145D01*
Y71734D01*
Y73145D01*
X141411Y74556D01*
X142822D01*
X144234Y73145D01*
Y70322D01*
X142822Y68911D01*
X93234Y60444D02*
X84766D01*
Y64678D01*
X86178Y66089D01*
X89000D01*
X90411Y64678D01*
Y60444D01*
Y63266D02*
X93234Y66089D01*
Y74556D02*
Y68911D01*
X87589Y74556D01*
X86178D01*
X84766Y73145D01*
Y70322D01*
X86178Y68911D01*
X335855Y74766D02*
Y83234D01*
X340089D01*
X341500Y81822D01*
Y79000D01*
X340089Y77589D01*
X335855D01*
X338678D02*
X341500Y74766D01*
X344322D02*
X347145D01*
X345734D01*
Y83234D01*
X344322Y81822D01*
X263678Y141975D02*
X262266Y140564D01*
Y137741D01*
X263678Y136330D01*
X269322D01*
X270734Y137741D01*
Y140564D01*
X269322Y141975D01*
X270734Y144797D02*
Y147620D01*
Y146208D01*
X262266D01*
X263678Y144797D01*
X270734Y151853D02*
Y154676D01*
Y153265D01*
X262266D01*
X263678Y151853D01*
X213178Y141975D02*
X211766Y140564D01*
Y137741D01*
X213178Y136330D01*
X218822D01*
X220234Y137741D01*
Y140564D01*
X218822Y141975D01*
X220234Y144797D02*
Y147620D01*
Y146208D01*
X211766D01*
X213178Y144797D01*
Y151853D02*
X211766Y153265D01*
Y156087D01*
X213178Y157498D01*
X218822D01*
X220234Y156087D01*
Y153265D01*
X218822Y151853D01*
X213178D01*
X162678Y141675D02*
X161266Y140264D01*
Y137441D01*
X162678Y136030D01*
X168322D01*
X169734Y137441D01*
Y140264D01*
X168322Y141675D01*
Y144497D02*
X169734Y145908D01*
Y148731D01*
X168322Y150142D01*
X162678D01*
X161266Y148731D01*
Y145908D01*
X162678Y144497D01*
X164089D01*
X165500Y145908D01*
Y150142D01*
X111178Y141675D02*
X109766Y140264D01*
Y137441D01*
X111178Y136030D01*
X116822D01*
X118234Y137441D01*
Y140264D01*
X116822Y141675D01*
X111178Y144497D02*
X109766Y145908D01*
Y148731D01*
X111178Y150142D01*
X112589D01*
X114000Y148731D01*
X115411Y150142D01*
X116822D01*
X118234Y148731D01*
Y145908D01*
X116822Y144497D01*
X115411D01*
X114000Y145908D01*
X112589Y144497D01*
X111178D01*
X114000Y145908D02*
Y148731D01*
X60678Y142175D02*
X59266Y140764D01*
Y137941D01*
X60678Y136530D01*
X66322D01*
X67734Y137941D01*
Y140764D01*
X66322Y142175D01*
X59266Y144997D02*
Y150642D01*
X60678D01*
X66322Y144997D01*
X67734D01*
X315178Y141975D02*
X313766Y140564D01*
Y137741D01*
X315178Y136330D01*
X320822D01*
X322234Y137741D01*
Y140564D01*
X320822Y141975D01*
X313766Y150442D02*
X315178Y147620D01*
X318000Y144797D01*
X320822D01*
X322234Y146208D01*
Y149031D01*
X320822Y150442D01*
X319411D01*
X318000Y149031D01*
Y144797D01*
X263178Y84003D02*
X261766Y82591D01*
Y79769D01*
X263178Y78358D01*
X268822D01*
X270234Y79769D01*
Y82591D01*
X268822Y84003D01*
X261766Y92470D02*
Y86825D01*
X266000D01*
X264589Y89648D01*
Y91059D01*
X266000Y92470D01*
X268822D01*
X270234Y91059D01*
Y88236D01*
X268822Y86825D01*
X213178Y82503D02*
X211766Y81091D01*
Y78269D01*
X213178Y76858D01*
X218822D01*
X220234Y78269D01*
Y81091D01*
X218822Y82503D01*
X220234Y89559D02*
X211766D01*
X216000Y85325D01*
Y90970D01*
X160678Y84003D02*
X159266Y82591D01*
Y79769D01*
X160678Y78358D01*
X166322D01*
X167734Y79769D01*
Y82591D01*
X166322Y84003D01*
X160678Y86825D02*
X159266Y88236D01*
Y91059D01*
X160678Y92470D01*
X162089D01*
X163500Y91059D01*
Y89648D01*
Y91059D01*
X164911Y92470D01*
X166322D01*
X167734Y91059D01*
Y88236D01*
X166322Y86825D01*
X110178Y83803D02*
X108766Y82392D01*
Y79569D01*
X110178Y78158D01*
X115822D01*
X117234Y79569D01*
Y82392D01*
X115822Y83803D01*
X117234Y92270D02*
Y86625D01*
X111589Y92270D01*
X110178D01*
X108766Y90859D01*
Y88036D01*
X110178Y86625D01*
X60177Y86625D02*
X58766Y85214D01*
Y82392D01*
X60177Y80980D01*
X65822D01*
X67234Y82392D01*
Y85214D01*
X65822Y86625D01*
X67234Y89448D02*
Y92270D01*
Y90859D01*
X58766D01*
X60177Y89448D01*
X430589Y56734D02*
X427766D01*
X429178D01*
Y49678D01*
X427766Y48266D01*
X426355D01*
X424944Y49678D01*
X433411Y55322D02*
X434822Y56734D01*
X437645D01*
X439056Y55322D01*
Y53911D01*
X437645Y52500D01*
X436234D01*
X437645D01*
X439056Y51089D01*
Y49678D01*
X437645Y48266D01*
X434822D01*
X433411Y49678D01*
D12*
X421000Y171000D02*
Y177000D01*
M02*
