G04*
G04 #@! TF.GenerationSoftware,Altium Limited,Altium Designer,25.9.0 (10)*
G04*
G04 Layer_Color=2752767*
%FSLAX44Y44*%
%MOMM*%
G71*
G04*
G04 #@! TF.SameCoordinates,BC283E87-7A94-4346-B581-373BCE07BC23*
G04*
G04*
G04 #@! TF.FilePolarity,Positive*
G04*
G01*
G75*
%ADD37C,0.1270*%
%ADD38C,0.1693*%
D37*
X63500Y7620D02*
X58420Y17780D01*
X68580D01*
X63500Y7620D01*
X88900D02*
X83820Y17780D01*
X93980D01*
X88900Y7620D01*
X139700D02*
X134620Y17780D01*
X144780D01*
X139700Y7620D01*
X165100D02*
X160020Y17780D01*
X170180D01*
X165100Y7620D01*
X215900D02*
X210820Y17780D01*
X220980D01*
X215900Y7620D01*
X266700D02*
X261620Y17780D01*
X271780D01*
X266700Y7620D01*
X317500D02*
X312420Y17780D01*
X322580D01*
X317500Y7620D01*
X292100D02*
X287020Y17780D01*
X297180D01*
X292100Y7620D01*
X241300D02*
X236220Y17780D01*
X246380D01*
X241300Y7620D01*
X190500D02*
X185420Y17780D01*
X195580D01*
X190500Y7620D01*
X114300D02*
X109220Y17780D01*
X119380D01*
X114300Y7620D01*
X88900Y210820D02*
X83820Y220980D01*
X93980D01*
X88900Y210820D01*
X114300D02*
X109220Y220980D01*
X119380D01*
X114300Y210820D01*
X139700D02*
X134620Y220980D01*
X144780D01*
X139700Y210820D01*
X165100D02*
X160020Y220980D01*
X170180D01*
X165100Y210820D01*
X190500D02*
X185420Y220980D01*
X195580D01*
X190500Y210820D01*
X215900D02*
X210820Y220980D01*
X220980D01*
X215900Y210820D01*
X241300D02*
X236220Y220980D01*
X246380D01*
X241300Y210820D01*
X266700D02*
X261620Y220980D01*
X271780D01*
X266700Y210820D01*
X292100D02*
X287020Y220980D01*
X297180D01*
X292100Y210820D01*
X317500D02*
X312420Y220980D01*
X322580D01*
X317500Y210820D01*
X63500D02*
X58420Y220980D01*
X68580D01*
X63500Y210820D01*
X426720Y150520D02*
Y160680D01*
X436880D01*
Y150520D01*
X426720D01*
Y67920D02*
Y78080D01*
X436880D01*
Y67920D01*
X426720D01*
X309500Y85920D02*
X312040Y88460D01*
X314580D01*
X312040Y91000D01*
X314580Y93540D01*
X312040D01*
X309500Y96080D01*
X306960Y93540D01*
X304420D01*
X306960Y91000D01*
X304420Y88460D01*
X306960D01*
X309500Y85920D01*
X415000Y168920D02*
X417540Y171460D01*
X420080D01*
X417540Y174000D01*
X420080Y176540D01*
X417540D01*
X415000Y179080D01*
X412460Y176540D01*
X409920D01*
X412460Y174000D01*
X409920Y171460D01*
X412460D01*
X415000Y168920D01*
Y178920D02*
X417540Y181460D01*
X420080D01*
X417540Y184000D01*
X420080Y186540D01*
X417540D01*
X415000Y189080D01*
X412460Y186540D01*
X409920D01*
X412460Y184000D01*
X409920Y181460D01*
X412460D01*
X415000Y178920D01*
X394500Y109420D02*
X397040Y111960D01*
X399580D01*
X397040Y114500D01*
X399580Y117040D01*
X397040D01*
X394500Y119580D01*
X391960Y117040D01*
X389420D01*
X391960Y114500D01*
X389420Y111960D01*
X391960D01*
X394500Y109420D01*
X444500Y178920D02*
X447040Y181460D01*
X449580D01*
X447040Y184000D01*
X449580Y186540D01*
X447040D01*
X444500Y189080D01*
X441960Y186540D01*
X439420D01*
X441960Y184000D01*
X439420Y181460D01*
X441960D01*
X444500Y178920D01*
Y168920D02*
X447040Y171460D01*
X449580D01*
X447040Y174000D01*
X449580Y176540D01*
X447040D01*
X444500Y179080D01*
X441960Y176540D01*
X439420D01*
X441960Y174000D01*
X439420Y171460D01*
X441960D01*
X444500Y168920D01*
X156500Y95220D02*
X159040Y97760D01*
X161580D01*
X159040Y100300D01*
X161580Y102840D01*
X159040D01*
X156500Y105380D01*
X153960Y102840D01*
X151420D01*
X153960Y100300D01*
X151420Y97760D01*
X153960D01*
X156500Y95220D01*
X354200Y85920D02*
X356740Y88460D01*
X359280D01*
X356740Y91000D01*
X359280Y93540D01*
X356740D01*
X354200Y96080D01*
X351660Y93540D01*
X349120D01*
X351660Y91000D01*
X349120Y88460D01*
X351660D01*
X354200Y85920D01*
X282500Y88720D02*
X285040Y91260D01*
X287580D01*
X285040Y93800D01*
X287580Y96340D01*
X285040D01*
X282500Y98880D01*
X279960Y96340D01*
X277420D01*
X279960Y93800D01*
X277420Y91260D01*
X279960D01*
X282500Y88720D01*
X232000D02*
X234540Y91260D01*
X237080D01*
X234540Y93800D01*
X237080Y96340D01*
X234540D01*
X232000Y98880D01*
X229460Y96340D01*
X226920D01*
X229460Y93800D01*
X226920Y91260D01*
X229460D01*
X232000Y88720D01*
X181000Y88720D02*
X183540Y91260D01*
X186080D01*
X183540Y93800D01*
X186080Y96340D01*
X183540D01*
X181000Y98880D01*
X178460Y96340D01*
X175920D01*
X178460Y93800D01*
X175920Y91260D01*
X178460D01*
X181000Y88720D01*
X130500Y88720D02*
X133040Y91260D01*
X135580D01*
X133040Y93800D01*
X135580Y96340D01*
X133040D01*
X130500Y98880D01*
X127960Y96340D01*
X125420D01*
X127960Y93800D01*
X125420Y91260D01*
X127960D01*
X130500Y88720D01*
X79500Y88720D02*
X82040Y91260D01*
X84580D01*
X82040Y93800D01*
X84580Y96340D01*
X82040D01*
X79500Y98880D01*
X76960Y96340D01*
X74420D01*
X76960Y93800D01*
X74420Y91260D01*
X76960D01*
X79500Y88720D01*
X309000Y123220D02*
X311540Y125760D01*
X314080D01*
X311540Y128300D01*
X314080Y130840D01*
X311540D01*
X309000Y133380D01*
X306460Y130840D01*
X303920D01*
X306460Y128300D01*
X303920Y125760D01*
X306460D01*
X309000Y123220D01*
Y114220D02*
X311540Y116760D01*
X314080D01*
X311540Y119300D01*
X314080Y121840D01*
X311540D01*
X309000Y124380D01*
X306460Y121840D01*
X303920D01*
X306460Y119300D01*
X303920Y116760D01*
X306460D01*
X309000Y114220D01*
X98000Y161220D02*
X100540Y163760D01*
X103080D01*
X100540Y166300D01*
X103080Y168840D01*
X100540D01*
X98000Y171380D01*
X95460Y168840D01*
X92920D01*
X95460Y166300D01*
X92920Y163760D01*
X95460D01*
X98000Y161220D01*
X148500D02*
X151040Y163760D01*
X153580D01*
X151040Y166300D01*
X153580Y168840D01*
X151040D01*
X148500Y171380D01*
X145960Y168840D01*
X143420D01*
X145960Y166300D01*
X143420Y163760D01*
X145960D01*
X148500Y161220D01*
X250500Y141720D02*
X253040Y144260D01*
X255580D01*
X253040Y146800D01*
X255580Y149340D01*
X253040D01*
X250500Y151880D01*
X247960Y149340D01*
X245420D01*
X247960Y146800D01*
X245420Y144260D01*
X247960D01*
X250500Y141720D01*
X300750Y141920D02*
X303290Y144460D01*
X305830D01*
X303290Y147000D01*
X305830Y149540D01*
X303290D01*
X300750Y152080D01*
X298210Y149540D01*
X295670D01*
X298210Y147000D01*
X295670Y144460D01*
X298210D01*
X300750Y141920D01*
X469000Y109420D02*
X471540Y111960D01*
X474080D01*
X471540Y114500D01*
X474080Y117040D01*
X471540D01*
X469000Y119580D01*
X466460Y117040D01*
X463920D01*
X466460Y114500D01*
X463920Y111960D01*
X466460D01*
X469000Y109420D01*
X352000Y142220D02*
X354540Y144760D01*
X357080D01*
X354540Y147300D01*
X357080Y149840D01*
X354540D01*
X352000Y152380D01*
X349460Y149840D01*
X346920D01*
X349460Y147300D01*
X346920Y144760D01*
X349460D01*
X352000Y142220D01*
X207500Y123220D02*
X210040Y125760D01*
X212580D01*
X210040Y128300D01*
X212580Y130840D01*
X210040D01*
X207500Y133380D01*
X204960Y130840D01*
X202420D01*
X204960Y128300D01*
X202420Y125760D01*
X204960D01*
X207500Y123220D01*
X343000Y108720D02*
X345540Y111260D01*
X348080D01*
X345540Y113800D01*
X348080Y116340D01*
X345540D01*
X343000Y118880D01*
X340460Y116340D01*
X337920D01*
X340460Y113800D01*
X337920Y111260D01*
X340460D01*
X343000Y108720D01*
X258000Y114220D02*
X260540Y116760D01*
X263080D01*
X260540Y119300D01*
X263080Y121840D01*
X260540D01*
X258000Y124380D01*
X255460Y121840D01*
X252920D01*
X255460Y119300D01*
X252920Y116760D01*
X255460D01*
X258000Y114220D01*
X207500Y114220D02*
X210040Y116760D01*
X212580D01*
X210040Y119300D01*
X212580Y121840D01*
X210040D01*
X207500Y124380D01*
X204960Y121840D01*
X202420D01*
X204960Y119300D01*
X202420Y116760D01*
X204960D01*
X207500Y114220D01*
X258000Y104220D02*
X260540Y106760D01*
X263080D01*
X260540Y109300D01*
X263080Y111840D01*
X260540D01*
X258000Y114380D01*
X255460Y111840D01*
X252920D01*
X255460Y109300D01*
X252920Y106760D01*
X255460D01*
X258000Y104220D01*
X207500Y104220D02*
X210040Y106760D01*
X212580D01*
X210040Y109300D01*
X212580Y111840D01*
X210040D01*
X207500Y114380D01*
X204960Y111840D01*
X202420D01*
X204960Y109300D01*
X202420Y106760D01*
X204960D01*
X207500Y104220D01*
Y95220D02*
X210040Y97760D01*
X212580D01*
X210040Y100300D01*
X212580Y102840D01*
X210040D01*
X207500Y105380D01*
X204960Y102840D01*
X202420D01*
X204960Y100300D01*
X202420Y97760D01*
X204960D01*
X207500Y95220D01*
X199500Y141720D02*
X202040Y144260D01*
X204580D01*
X202040Y146800D01*
X204580Y149340D01*
X202040D01*
X199500Y151880D01*
X196960Y149340D01*
X194420D01*
X196960Y146800D01*
X194420Y144260D01*
X196960D01*
X199500Y141720D01*
X156500Y123220D02*
X159040Y125760D01*
X161580D01*
X159040Y128300D01*
X161580Y130840D01*
X159040D01*
X156500Y133380D01*
X153960Y130840D01*
X151420D01*
X153960Y128300D01*
X151420Y125760D01*
X153960D01*
X156500Y123220D01*
Y114220D02*
X159040Y116760D01*
X161580D01*
X159040Y119300D01*
X161580Y121840D01*
X159040D01*
X156500Y124380D01*
X153960Y121840D01*
X151420D01*
X153960Y119300D01*
X151420Y116760D01*
X153960D01*
X156500Y114220D01*
X106000D02*
X108540Y116760D01*
X111080D01*
X108540Y119300D01*
X111080Y121840D01*
X108540D01*
X106000Y124380D01*
X103460Y121840D01*
X100920D01*
X103460Y119300D01*
X100920Y116760D01*
X103460D01*
X106000Y114220D01*
X55000Y114220D02*
X57540Y116760D01*
X60080D01*
X57540Y119300D01*
X60080Y121840D01*
X57540D01*
X55000Y124380D01*
X52460Y121840D01*
X49920D01*
X52460Y119300D01*
X49920Y116760D01*
X52460D01*
X55000Y114220D01*
X156500Y104220D02*
X159040Y106760D01*
X161580D01*
X159040Y109300D01*
X161580Y111840D01*
X159040D01*
X156500Y114380D01*
X153960Y111840D01*
X151420D01*
X153960Y109300D01*
X151420Y106760D01*
X153960D01*
X156500Y104220D01*
X106000Y104220D02*
X108540Y106760D01*
X111080D01*
X108540Y109300D01*
X111080Y111840D01*
X108540D01*
X106000Y114380D01*
X103460Y111840D01*
X100920D01*
X103460Y109300D01*
X100920Y106760D01*
X103460D01*
X106000Y104220D01*
X55000Y104220D02*
X57540Y106760D01*
X60080D01*
X57540Y109300D01*
X60080Y111840D01*
X57540D01*
X55000Y114380D01*
X52460Y111840D01*
X49920D01*
X52460Y109300D01*
X49920Y106760D01*
X52460D01*
X55000Y104220D01*
X232000Y130220D02*
X234540Y132760D01*
X237080D01*
X234540Y135300D01*
X237080Y137840D01*
X234540D01*
X232000Y140380D01*
X229460Y137840D01*
X226920D01*
X229460Y135300D01*
X226920Y132760D01*
X229460D01*
X232000Y130220D01*
X241500Y141720D02*
X244040Y144260D01*
X246580D01*
X244040Y146800D01*
X246580Y149340D01*
X244040D01*
X241500Y151880D01*
X238960Y149340D01*
X236420D01*
X238960Y146800D01*
X236420Y144260D01*
X238960D01*
X241500Y141720D01*
X291750Y141920D02*
X294290Y144460D01*
X296830D01*
X294290Y147000D01*
X296830Y149540D01*
X294290D01*
X291750Y152080D01*
X289210Y149540D01*
X286670D01*
X289210Y147000D01*
X286670Y144460D01*
X289210D01*
X291750Y141920D01*
X469000Y122120D02*
X471540Y124660D01*
X474080D01*
X471540Y127200D01*
X474080Y129740D01*
X471540D01*
X469000Y132280D01*
X466460Y129740D01*
X463920D01*
X466460Y127200D01*
X463920Y124660D01*
X466460D01*
X469000Y122120D01*
Y84020D02*
X471540Y86560D01*
X474080D01*
X471540Y89100D01*
X474080Y91640D01*
X471540D01*
X469000Y94180D01*
X466460Y91640D01*
X463920D01*
X466460Y89100D01*
X463920Y86560D01*
X466460D01*
X469000Y84020D01*
Y96720D02*
X471540Y99260D01*
X474080D01*
X471540Y101800D01*
X474080Y104340D01*
X471540D01*
X469000Y106880D01*
X466460Y104340D01*
X463920D01*
X466460Y101800D01*
X463920Y99260D01*
X466460D01*
X469000Y96720D01*
X394500Y121920D02*
X397040Y124460D01*
X399580D01*
X397040Y127000D01*
X399580Y129540D01*
X397040D01*
X394500Y132080D01*
X391960Y129540D01*
X389420D01*
X391960Y127000D01*
X389420Y124460D01*
X391960D01*
X394500Y121920D01*
Y96520D02*
X397040Y99060D01*
X399580D01*
X397040Y101600D01*
X399580Y104140D01*
X397040D01*
X394500Y106680D01*
X391960Y104140D01*
X389420D01*
X391960Y101600D01*
X389420Y99060D01*
X391960D01*
X394500Y96520D01*
Y83820D02*
X397040Y86360D01*
X399580D01*
X397040Y88900D01*
X399580Y91440D01*
X397040D01*
X394500Y93980D01*
X391960Y91440D01*
X389420D01*
X391960Y88900D01*
X389420Y86360D01*
X391960D01*
X394500Y83820D01*
X258000Y123220D02*
X260540Y125760D01*
X263080D01*
X260540Y128300D01*
X263080Y130840D01*
X260540D01*
X258000Y133380D01*
X255460Y130840D01*
X252920D01*
X255460Y128300D01*
X252920Y125760D01*
X255460D01*
X258000Y123220D01*
X190500Y141720D02*
X193040Y144260D01*
X195580D01*
X193040Y146800D01*
X195580Y149340D01*
X193040D01*
X190500Y151880D01*
X187960Y149340D01*
X185420D01*
X187960Y146800D01*
X185420Y144260D01*
X187960D01*
X190500Y141720D01*
X258000Y95220D02*
X260540Y97760D01*
X263080D01*
X260540Y100300D01*
X263080Y102840D01*
X260540D01*
X258000Y105380D01*
X255460Y102840D01*
X252920D01*
X255460Y100300D01*
X252920Y97760D01*
X255460D01*
X258000Y95220D01*
X343000Y142220D02*
X345540Y144760D01*
X348080D01*
X345540Y147300D01*
X348080Y149840D01*
X345540D01*
X343000Y152380D01*
X340460Y149840D01*
X337920D01*
X340460Y147300D01*
X337920Y144760D01*
X340460D01*
X343000Y142220D01*
X130500Y130220D02*
X133040Y132760D01*
X135580D01*
X133040Y135300D01*
X135580Y137840D01*
X133040D01*
X130500Y140380D01*
X127960Y137840D01*
X125420D01*
X127960Y135300D01*
X125420Y132760D01*
X127960D01*
X130500Y130220D01*
X55000Y123220D02*
X57540Y125760D01*
X60080D01*
X57540Y128300D01*
X60080Y130840D01*
X57540D01*
X55000Y133380D01*
X52460Y130840D01*
X49920D01*
X52460Y128300D01*
X49920Y125760D01*
X52460D01*
X55000Y123220D01*
X106000Y123220D02*
X108540Y125760D01*
X111080D01*
X108540Y128300D01*
X111080Y130840D01*
X108540D01*
X106000Y133380D01*
X103460Y130840D01*
X100920D01*
X103460Y128300D01*
X100920Y125760D01*
X103460D01*
X106000Y123220D01*
X139500Y161220D02*
X142040Y163760D01*
X144580D01*
X142040Y166300D01*
X144580Y168840D01*
X142040D01*
X139500Y171380D01*
X136960Y168840D01*
X134420D01*
X136960Y166300D01*
X134420Y163760D01*
X136960D01*
X139500Y161220D01*
X89000Y161220D02*
X91540Y163760D01*
X94080D01*
X91540Y166300D01*
X94080Y168840D01*
X91540D01*
X89000Y171380D01*
X86460Y168840D01*
X83920D01*
X86460Y166300D01*
X83920Y163760D01*
X86460D01*
X89000Y161220D01*
X106000Y95220D02*
X108540Y97760D01*
X111080D01*
X108540Y100300D01*
X111080Y102840D01*
X108540D01*
X106000Y105380D01*
X103460Y102840D01*
X100920D01*
X103460Y100300D01*
X100920Y97760D01*
X103460D01*
X106000Y95220D01*
X79500Y130220D02*
X82040Y132760D01*
X84580D01*
X82040Y135300D01*
X84580Y137840D01*
X82040D01*
X79500Y140380D01*
X76960Y137840D01*
X74420D01*
X76960Y135300D01*
X74420Y132760D01*
X76960D01*
X79500Y130220D01*
X55000Y95220D02*
X57540Y97760D01*
X60080D01*
X57540Y100300D01*
X60080Y102840D01*
X57540D01*
X55000Y105380D01*
X52460Y102840D01*
X49920D01*
X52460Y100300D01*
X49920Y97760D01*
X52460D01*
X55000Y95220D01*
D38*
X360680Y203200D02*
G03*
X360680Y203200I-5080J0D01*
G01*
Y25400D02*
G03*
X360680Y25400I-5080J0D01*
G01*
X30480Y203200D02*
G03*
X30480Y203200I-5080J0D01*
G01*
Y25400D02*
G03*
X30480Y25400I-5080J0D01*
G01*
M02*
