G04*
G04 #@! TF.GenerationSoftware,Altium Limited,Altium Designer,25.9.0 (10)*
G04*
G04 Layer_Physical_Order=1*
G04 Layer_Color=255*
%FSLAX44Y44*%
%MOMM*%
G71*
G04*
G04 #@! TF.SameCoordinates,BC283E87-7A94-4346-B581-373BCE07BC23*
G04*
G04*
G04 #@! TF.FilePolarity,Positive*
G04*
G01*
G75*
%ADD10C,0.2000*%
G04:AMPARAMS|DCode=13|XSize=0.55mm|YSize=0.6mm|CornerRadius=0.1375mm|HoleSize=0mm|Usage=FLASHONLY|Rotation=180.000|XOffset=0mm|YOffset=0mm|HoleType=Round|Shape=RoundedRectangle|*
%AMROUNDEDRECTD13*
21,1,0.5500,0.3250,0,0,180.0*
21,1,0.2750,0.6000,0,0,180.0*
1,1,0.2750,-0.1375,0.1625*
1,1,0.2750,0.1375,0.1625*
1,1,0.2750,0.1375,-0.1625*
1,1,0.2750,-0.1375,-0.1625*
%
%ADD13ROUNDEDRECTD13*%
G04:AMPARAMS|DCode=14|XSize=0.6mm|YSize=0.55mm|CornerRadius=0.1375mm|HoleSize=0mm|Usage=FLASHONLY|Rotation=180.000|XOffset=0mm|YOffset=0mm|HoleType=Round|Shape=RoundedRectangle|*
%AMROUNDEDRECTD14*
21,1,0.6000,0.2750,0,0,180.0*
21,1,0.3250,0.5500,0,0,180.0*
1,1,0.2750,-0.1625,0.1375*
1,1,0.2750,0.1625,0.1375*
1,1,0.2750,0.1625,-0.1375*
1,1,0.2750,-0.1625,-0.1375*
%
%ADD14ROUNDEDRECTD14*%
G04:AMPARAMS|DCode=15|XSize=0.9mm|YSize=0.4mm|CornerRadius=0.1mm|HoleSize=0mm|Usage=FLASHONLY|Rotation=90.000|XOffset=0mm|YOffset=0mm|HoleType=Round|Shape=RoundedRectangle|*
%AMROUNDEDRECTD15*
21,1,0.9000,0.2000,0,0,90.0*
21,1,0.7000,0.4000,0,0,90.0*
1,1,0.2000,0.1000,0.3500*
1,1,0.2000,0.1000,-0.3500*
1,1,0.2000,-0.1000,-0.3500*
1,1,0.2000,-0.1000,0.3500*
%
%ADD15ROUNDEDRECTD15*%
G04:AMPARAMS|DCode=16|XSize=0.55mm|YSize=0.6mm|CornerRadius=0.1375mm|HoleSize=0mm|Usage=FLASHONLY|Rotation=90.000|XOffset=0mm|YOffset=0mm|HoleType=Round|Shape=RoundedRectangle|*
%AMROUNDEDRECTD16*
21,1,0.5500,0.3250,0,0,90.0*
21,1,0.2750,0.6000,0,0,90.0*
1,1,0.2750,0.1625,0.1375*
1,1,0.2750,0.1625,-0.1375*
1,1,0.2750,-0.1625,-0.1375*
1,1,0.2750,-0.1625,0.1375*
%
%ADD16ROUNDEDRECTD16*%
G04:AMPARAMS|DCode=17|XSize=0.95mm|YSize=0.4mm|CornerRadius=0.1mm|HoleSize=0mm|Usage=FLASHONLY|Rotation=90.000|XOffset=0mm|YOffset=0mm|HoleType=Round|Shape=RoundedRectangle|*
%AMROUNDEDRECTD17*
21,1,0.9500,0.2000,0,0,90.0*
21,1,0.7500,0.4000,0,0,90.0*
1,1,0.2000,0.1000,0.3750*
1,1,0.2000,0.1000,-0.3750*
1,1,0.2000,-0.1000,-0.3750*
1,1,0.2000,-0.1000,0.3750*
%
%ADD17ROUNDEDRECTD17*%
G04:AMPARAMS|DCode=18|XSize=0.74mm|YSize=2.92mm|CornerRadius=0.185mm|HoleSize=0mm|Usage=FLASHONLY|Rotation=90.000|XOffset=0mm|YOffset=0mm|HoleType=Round|Shape=RoundedRectangle|*
%AMROUNDEDRECTD18*
21,1,0.7400,2.5500,0,0,90.0*
21,1,0.3700,2.9200,0,0,90.0*
1,1,0.3700,1.2750,0.1850*
1,1,0.3700,1.2750,-0.1850*
1,1,0.3700,-1.2750,-0.1850*
1,1,0.3700,-1.2750,0.1850*
%
%ADD18ROUNDEDRECTD18*%
%ADD29C,0.2500*%
%ADD30C,0.4000*%
%ADD31C,0.2540*%
%ADD32C,0.5000*%
%ADD33C,0.3000*%
%ADD34C,1.7018*%
%ADD35C,3.5560*%
%ADD36C,0.5000*%
D10*
X190750Y146300D02*
Y146550D01*
Y138300D02*
Y146300D01*
X336500Y103300D02*
X336700Y103100D01*
Y91000D02*
Y103100D01*
X317500Y71800D02*
X336700Y91000D01*
X317500Y12700D02*
Y71800D01*
X292000Y91300D02*
X292100Y91200D01*
Y12700D02*
Y91200D01*
X190500Y12700D02*
Y72500D01*
Y81500D02*
Y91000D01*
X190500Y91000D02*
X190500Y91000D01*
X190500Y91000D02*
Y103300D01*
X241300Y12700D02*
X241500Y12900D01*
Y103300D01*
X89000Y82300D02*
X139700Y31600D01*
Y12700D02*
Y31600D01*
X140000Y82300D02*
X165100Y57200D01*
Y12700D02*
Y57200D01*
X89000Y91300D02*
Y103300D01*
X140000Y91300D02*
Y103300D01*
X292000Y91300D02*
Y103300D01*
Y125300D02*
Y137800D01*
Y138500D02*
Y146750D01*
X291750Y138250D02*
X292000Y138500D01*
X241500Y146800D02*
X241750Y146550D01*
Y138300D02*
Y146550D01*
Y138300D02*
X242000Y138050D01*
X241500Y125300D02*
Y137800D01*
X190500Y146050D02*
X190750Y146300D01*
X190500Y125300D02*
Y137800D01*
X139500Y166300D02*
X139750Y166050D01*
Y157800D02*
Y166050D01*
Y157800D02*
X140000Y157550D01*
Y146300D02*
Y157550D01*
Y125300D02*
Y137300D01*
X89000Y166300D02*
X89250Y166050D01*
Y157800D02*
Y166050D01*
X89000Y157550D02*
X89250Y157800D01*
X89000Y146300D02*
Y157550D01*
X89000Y137300D02*
X89000Y137300D01*
X89000Y125300D02*
Y137300D01*
D13*
X89250Y157800D02*
D03*
X97750D02*
D03*
X190500Y91000D02*
D03*
X199500D02*
D03*
X190750Y138300D02*
D03*
X199250D02*
D03*
X301000Y91000D02*
D03*
X292000D02*
D03*
X427750Y174000D02*
D03*
X436250D02*
D03*
X436500Y184000D02*
D03*
X427500D02*
D03*
X351750Y138800D02*
D03*
X300500Y138500D02*
D03*
X250250Y138300D02*
D03*
X148250Y157800D02*
D03*
X292000Y138500D02*
D03*
X343250Y138800D02*
D03*
X241750Y138300D02*
D03*
X336700Y91000D02*
D03*
X345700D02*
D03*
X139750Y157800D02*
D03*
D14*
X216000Y100300D02*
D03*
Y109300D02*
D03*
X318000Y119300D02*
D03*
X266500Y119300D02*
D03*
Y109300D02*
D03*
X216000Y119300D02*
D03*
X165000Y119300D02*
D03*
X114500Y119300D02*
D03*
X63500Y119300D02*
D03*
X165000Y109300D02*
D03*
X114500Y109300D02*
D03*
X63500Y109300D02*
D03*
X266500Y128300D02*
D03*
Y100300D02*
D03*
X318000Y128300D02*
D03*
X165000Y100300D02*
D03*
Y128300D02*
D03*
X216000Y128300D02*
D03*
X63500Y100300D02*
D03*
Y128300D02*
D03*
X114500Y100300D02*
D03*
Y128300D02*
D03*
D15*
X228500Y103300D02*
D03*
X241500D02*
D03*
Y125300D02*
D03*
X235000D02*
D03*
X228500D02*
D03*
X235000Y103300D02*
D03*
X285500Y125300D02*
D03*
Y103300D02*
D03*
X184000Y125300D02*
D03*
Y103300D02*
D03*
X133500Y103300D02*
D03*
X82500Y103300D02*
D03*
X279000Y125300D02*
D03*
X292000D02*
D03*
Y103300D02*
D03*
X279000D02*
D03*
X177500Y125300D02*
D03*
X190500D02*
D03*
Y103300D02*
D03*
X177500D02*
D03*
X76000Y125300D02*
D03*
X82500D02*
D03*
X89000D02*
D03*
Y103300D02*
D03*
X76000D02*
D03*
X127000Y125300D02*
D03*
X133500D02*
D03*
X140000D02*
D03*
Y103300D02*
D03*
X127000D02*
D03*
D16*
X190500Y72500D02*
D03*
Y81500D02*
D03*
X89000Y137300D02*
D03*
Y146300D02*
D03*
X89000Y82300D02*
D03*
Y91300D02*
D03*
X140000Y146300D02*
D03*
Y137300D02*
D03*
Y82300D02*
D03*
Y91300D02*
D03*
D17*
X330000Y103300D02*
D03*
X336500D02*
D03*
X343000Y125300D02*
D03*
X330000D02*
D03*
X343000Y103300D02*
D03*
D18*
X448950Y114300D02*
D03*
X414650Y127000D02*
D03*
X448950Y101600D02*
D03*
X414650D02*
D03*
Y88900D02*
D03*
X448950D02*
D03*
Y127000D02*
D03*
X414650Y139700D02*
D03*
X448950D02*
D03*
X414650Y114300D02*
D03*
D29*
X207500Y99000D02*
Y100300D01*
X199500Y91000D02*
X207500Y99000D01*
X343000Y147300D02*
X343250Y147050D01*
Y138800D02*
Y147050D01*
X343000Y125300D02*
Y138550D01*
X301000Y91000D02*
X309500D01*
X345700D02*
X354200D01*
X232000Y135300D02*
X235000Y132300D01*
Y125300D02*
Y132300D01*
X394500Y88900D02*
X414650D01*
X394500Y127000D02*
X414650D01*
X394500Y101600D02*
X414650D01*
X133500Y125300D02*
Y132300D01*
X130500Y135300D02*
X133500Y132300D01*
X82500Y125300D02*
Y132300D01*
X79500Y135300D02*
X82500Y132300D01*
D30*
X415000Y174000D02*
X415000Y174000D01*
X427750D01*
X415000Y184000D02*
X427500D01*
X436500D02*
X444500D01*
X436250Y174000D02*
X444500D01*
X156500Y128300D02*
X165000D01*
X170000D01*
X173000Y125300D02*
X177500D01*
X170000Y128300D02*
X173000Y125300D01*
X156500Y100300D02*
X165000D01*
X170000D01*
X173000Y103300D01*
X177500D01*
X224000Y103300D02*
X228500D01*
X221000Y100300D02*
X224000Y103300D01*
X216000Y100300D02*
X221000D01*
X221000Y128300D02*
X224000Y125300D01*
X228500D01*
X216000Y128300D02*
X221000D01*
X309000Y128300D02*
X322500D01*
X325500Y125300D02*
X330000D01*
X322500Y128300D02*
X325500Y125300D01*
X309000Y119300D02*
X317500D01*
X317500Y119300D01*
X266500D02*
X266500Y119300D01*
X258000Y119300D02*
X266500D01*
Y109300D02*
X266500Y109300D01*
X207500Y119300D02*
X216000D01*
X258000Y109300D02*
X266500D01*
X207500Y109300D02*
X216000D01*
X165000Y119300D02*
X165000Y119300D01*
X156500Y119300D02*
X165000D01*
X106000D02*
X114500D01*
X55000Y119300D02*
X63500D01*
X165000Y109300D02*
X165000Y109300D01*
X156500Y109300D02*
X165000D01*
X55000Y109300D02*
X63500D01*
X106000Y109300D02*
X114500D01*
X271500Y128300D02*
X274500Y125300D01*
X271500Y100300D02*
X274500Y103300D01*
X279000D01*
X274500Y125300D02*
X279000D01*
X258000Y128300D02*
X271500D01*
X258000Y100300D02*
X271500D01*
X207500Y128300D02*
X216000D01*
X207500Y100300D02*
X216000D01*
X114500D02*
X119500D01*
X122500Y103300D01*
X122500Y125300D02*
X127000D01*
X114500Y128300D02*
X119500D01*
X122500Y125300D01*
X122500Y103300D02*
X127000D01*
X106000Y128300D02*
X114500D01*
X106000Y100300D02*
X114500D01*
X63500Y128300D02*
X68500D01*
X63500Y100300D02*
X68500D01*
X55000D02*
X63500D01*
X55000Y128300D02*
X63500D01*
X68500Y100300D02*
X71500Y103300D01*
X76000D01*
X71500Y125300D02*
X76000D01*
X68500Y128300D02*
X71500Y125300D01*
D31*
X444500Y184000D02*
X444500Y184000D01*
X351750Y147050D02*
X352000Y147300D01*
X351750Y138800D02*
Y147050D01*
X97750Y157800D02*
Y166050D01*
X98000Y166300D01*
X148250Y157800D02*
Y166050D01*
X148500Y166300D01*
X250250Y138300D02*
Y146550D01*
X250500Y146800D01*
X300500Y138500D02*
Y146750D01*
X199250Y146550D02*
X199500Y146800D01*
X199250Y138300D02*
Y146550D01*
X448950Y88900D02*
X468800D01*
X448950Y101600D02*
X468800D01*
X448950Y127000D02*
X468800D01*
X469000Y127200D01*
X468800Y88900D02*
X469000Y89100D01*
X468800Y101600D02*
X469000Y101800D01*
D32*
X394500Y114500D02*
X414450D01*
X414650Y114300D01*
X449150Y114500D02*
X469000D01*
D33*
X184000Y103300D02*
Y125300D01*
X285500Y103300D02*
Y125300D01*
X282500Y93800D02*
X285500Y96800D01*
Y103300D01*
X232000Y93800D02*
X235000Y96800D01*
Y103300D01*
X181000Y93800D02*
X184000Y96800D01*
Y103300D01*
X130500Y93800D02*
X133500Y96800D01*
Y103300D01*
X82500Y96800D02*
Y103300D01*
X79500Y93800D02*
X82500Y96800D01*
X343000Y113800D02*
X343000Y113800D01*
Y103300D02*
Y113800D01*
D34*
X63500Y12700D02*
D03*
X88900D02*
D03*
X139700D02*
D03*
X165100D02*
D03*
X215900D02*
D03*
X266700D02*
D03*
X317500D02*
D03*
X292100D02*
D03*
X241300D02*
D03*
X190500D02*
D03*
X114300D02*
D03*
X88900Y215900D02*
D03*
X114300D02*
D03*
X139700D02*
D03*
X165100D02*
D03*
X190500D02*
D03*
X215900D02*
D03*
X241300D02*
D03*
X266700D02*
D03*
X292100D02*
D03*
X317500D02*
D03*
X63500D02*
D03*
D35*
X355600Y203200D02*
D03*
Y25400D02*
D03*
X25400Y203200D02*
D03*
Y25400D02*
D03*
D36*
X431800Y155600D02*
D03*
Y73000D02*
D03*
X309500Y91000D02*
D03*
X415000Y174000D02*
D03*
Y184000D02*
D03*
X394500Y114500D02*
D03*
X444500Y184000D02*
D03*
Y174000D02*
D03*
X156500Y100300D02*
D03*
X354200Y91000D02*
D03*
X282500Y93800D02*
D03*
X232000D02*
D03*
X181000Y93800D02*
D03*
X130500Y93800D02*
D03*
X79500Y93800D02*
D03*
X309000Y128300D02*
D03*
Y119300D02*
D03*
X98000Y166300D02*
D03*
X148500D02*
D03*
X250500Y146800D02*
D03*
X300750Y147000D02*
D03*
X469000Y114500D02*
D03*
X352000Y147300D02*
D03*
X207500Y128300D02*
D03*
X343000Y113800D02*
D03*
X258000Y119300D02*
D03*
X207500Y119300D02*
D03*
X258000Y109300D02*
D03*
X207500Y109300D02*
D03*
Y100300D02*
D03*
X199500Y146800D02*
D03*
X156500Y128300D02*
D03*
Y119300D02*
D03*
X106000D02*
D03*
X55000Y119300D02*
D03*
X156500Y109300D02*
D03*
X106000Y109300D02*
D03*
X55000Y109300D02*
D03*
X232000Y135300D02*
D03*
X241500Y146800D02*
D03*
X291750Y147000D02*
D03*
X469000Y127200D02*
D03*
Y89100D02*
D03*
Y101800D02*
D03*
X394500Y127000D02*
D03*
Y101600D02*
D03*
Y88900D02*
D03*
X258000Y128300D02*
D03*
X190500Y146800D02*
D03*
X258000Y100300D02*
D03*
X343000Y147300D02*
D03*
X130500Y135300D02*
D03*
X55000Y128300D02*
D03*
X106000Y128300D02*
D03*
X139500Y166300D02*
D03*
X89000Y166300D02*
D03*
X106000Y100300D02*
D03*
X79500Y135300D02*
D03*
X55000Y100300D02*
D03*
M02*
