G04*
G04 #@! TF.GenerationSoftware,Altium Limited,Altium Designer,25.9.0 (10)*
G04*
G04 Layer_Physical_Order=1*
G04 Layer_Color=255*
%FSLAX44Y44*%
%MOMM*%
G71*
G04*
G04 #@! TF.SameCoordinates,A69B8269-B679-459B-B5DD-CBE35428100B*
G04*
G04*
G04 #@! TF.FilePolarity,Positive*
G04*
G01*
G75*
%ADD11C,0.2540*%
G04:AMPARAMS|DCode=12|XSize=0.95mm|YSize=0.4mm|CornerRadius=0.1mm|HoleSize=0mm|Usage=FLASHONLY|Rotation=90.000|XOffset=0mm|YOffset=0mm|HoleType=Round|Shape=RoundedRectangle|*
%AMROUNDEDRECTD12*
21,1,0.9500,0.2000,0,0,90.0*
21,1,0.7500,0.4000,0,0,90.0*
1,1,0.2000,0.1000,0.3750*
1,1,0.2000,0.1000,-0.3750*
1,1,0.2000,-0.1000,-0.3750*
1,1,0.2000,-0.1000,0.3750*
%
%ADD12ROUNDEDRECTD12*%
G04:AMPARAMS|DCode=13|XSize=0.55mm|YSize=0.6mm|CornerRadius=0.1375mm|HoleSize=0mm|Usage=FLASHONLY|Rotation=270.000|XOffset=0mm|YOffset=0mm|HoleType=Round|Shape=RoundedRectangle|*
%AMROUNDEDRECTD13*
21,1,0.5500,0.3250,0,0,270.0*
21,1,0.2750,0.6000,0,0,270.0*
1,1,0.2750,-0.1625,-0.1375*
1,1,0.2750,-0.1625,0.1375*
1,1,0.2750,0.1625,0.1375*
1,1,0.2750,0.1625,-0.1375*
%
%ADD13ROUNDEDRECTD13*%
G04:AMPARAMS|DCode=14|XSize=0.6mm|YSize=0.55mm|CornerRadius=0.1375mm|HoleSize=0mm|Usage=FLASHONLY|Rotation=90.000|XOffset=0mm|YOffset=0mm|HoleType=Round|Shape=RoundedRectangle|*
%AMROUNDEDRECTD14*
21,1,0.6000,0.2750,0,0,90.0*
21,1,0.3250,0.5500,0,0,90.0*
1,1,0.2750,0.1375,0.1625*
1,1,0.2750,0.1375,-0.1625*
1,1,0.2750,-0.1375,-0.1625*
1,1,0.2750,-0.1375,0.1625*
%
%ADD14ROUNDEDRECTD14*%
G04:AMPARAMS|DCode=15|XSize=0.74mm|YSize=2.92mm|CornerRadius=0.185mm|HoleSize=0mm|Usage=FLASHONLY|Rotation=90.000|XOffset=0mm|YOffset=0mm|HoleType=Round|Shape=RoundedRectangle|*
%AMROUNDEDRECTD15*
21,1,0.7400,2.5500,0,0,90.0*
21,1,0.3700,2.9200,0,0,90.0*
1,1,0.3700,1.2750,0.1850*
1,1,0.3700,1.2750,-0.1850*
1,1,0.3700,-1.2750,-0.1850*
1,1,0.3700,-1.2750,0.1850*
%
%ADD15ROUNDEDRECTD15*%
G04:AMPARAMS|DCode=16|XSize=0.55mm|YSize=0.6mm|CornerRadius=0.1375mm|HoleSize=0mm|Usage=FLASHONLY|Rotation=180.000|XOffset=0mm|YOffset=0mm|HoleType=Round|Shape=RoundedRectangle|*
%AMROUNDEDRECTD16*
21,1,0.5500,0.3250,0,0,180.0*
21,1,0.2750,0.6000,0,0,180.0*
1,1,0.2750,-0.1375,0.1625*
1,1,0.2750,0.1375,0.1625*
1,1,0.2750,0.1375,-0.1625*
1,1,0.2750,-0.1375,-0.1625*
%
%ADD16ROUNDEDRECTD16*%
%ADD26C,0.5000*%
%ADD27C,1.7018*%
%ADD28C,3.5560*%
%ADD29C,0.5000*%
%ADD30C,0.5080*%
G36*
X52151Y223421D02*
X53617Y220881D01*
X53204Y220165D01*
X52451Y217355D01*
Y214445D01*
X53204Y211635D01*
X54659Y209116D01*
X54789Y208985D01*
X62602Y216798D01*
X63500Y215900D01*
X64398Y216798D01*
X72211Y208985D01*
X72341Y209116D01*
X73796Y211635D01*
X74549Y214445D01*
Y217355D01*
X73796Y220165D01*
X73383Y220881D01*
X74849Y223421D01*
X77551D01*
X79017Y220881D01*
X78604Y220165D01*
X77851Y217355D01*
Y214445D01*
X78604Y211635D01*
X80059Y209116D01*
X82116Y207059D01*
X84635Y205604D01*
X87445Y204851D01*
X90355D01*
X93165Y205604D01*
X95684Y207059D01*
X97741Y209116D01*
X99196Y211635D01*
X99949Y214445D01*
Y217355D01*
X99196Y220165D01*
X98783Y220881D01*
X100249Y223421D01*
X102951D01*
X104417Y220881D01*
X104004Y220165D01*
X103251Y217355D01*
Y214445D01*
X104004Y211635D01*
X105459Y209116D01*
X107516Y207059D01*
X110035Y205604D01*
X112845Y204851D01*
X115755D01*
X118565Y205604D01*
X121084Y207059D01*
X123141Y209116D01*
X124596Y211635D01*
X125349Y214445D01*
Y217355D01*
X124596Y220165D01*
X124183Y220881D01*
X125649Y223421D01*
X128351D01*
X129817Y220881D01*
X129404Y220165D01*
X128651Y217355D01*
Y214445D01*
X129404Y211635D01*
X130859Y209116D01*
X132916Y207059D01*
X135435Y205604D01*
X138245Y204851D01*
X141155D01*
X143965Y205604D01*
X146484Y207059D01*
X148541Y209116D01*
X149996Y211635D01*
X150749Y214445D01*
Y217355D01*
X149996Y220165D01*
X149583Y220881D01*
X151049Y223421D01*
X153751D01*
X155217Y220881D01*
X154804Y220165D01*
X154051Y217355D01*
Y214445D01*
X154804Y211635D01*
X156259Y209116D01*
X158316Y207059D01*
X160835Y205604D01*
X163645Y204851D01*
X166555D01*
X169365Y205604D01*
X171884Y207059D01*
X173941Y209116D01*
X175396Y211635D01*
X176149Y214445D01*
Y217355D01*
X175396Y220165D01*
X174983Y220881D01*
X176449Y223421D01*
X179151D01*
X180617Y220881D01*
X180204Y220165D01*
X179451Y217355D01*
Y214445D01*
X180204Y211635D01*
X181659Y209116D01*
X183716Y207059D01*
X186235Y205604D01*
X189045Y204851D01*
X191955D01*
X194765Y205604D01*
X197284Y207059D01*
X199341Y209116D01*
X200796Y211635D01*
X201549Y214445D01*
Y217355D01*
X200796Y220165D01*
X200383Y220881D01*
X201849Y223421D01*
X204551D01*
X206017Y220881D01*
X205604Y220165D01*
X204851Y217355D01*
Y214445D01*
X205604Y211635D01*
X207059Y209116D01*
X209116Y207059D01*
X211635Y205604D01*
X214445Y204851D01*
X217355D01*
X220165Y205604D01*
X222684Y207059D01*
X224741Y209116D01*
X226196Y211635D01*
X226949Y214445D01*
Y217355D01*
X226196Y220165D01*
X225783Y220881D01*
X227249Y223421D01*
X229951D01*
X231417Y220881D01*
X231004Y220165D01*
X230251Y217355D01*
Y214445D01*
X231004Y211635D01*
X232459Y209116D01*
X234516Y207059D01*
X237035Y205604D01*
X239845Y204851D01*
X242755D01*
X245565Y205604D01*
X248084Y207059D01*
X250141Y209116D01*
X251596Y211635D01*
X252349Y214445D01*
Y217355D01*
X251596Y220165D01*
X251183Y220881D01*
X252649Y223421D01*
X255351Y223421D01*
X256817Y220881D01*
X256404Y220165D01*
X255651Y217355D01*
Y214445D01*
X256404Y211635D01*
X257859Y209116D01*
X259916Y207059D01*
X262435Y205604D01*
X265245Y204851D01*
X268155D01*
X270965Y205604D01*
X273484Y207059D01*
X275541Y209116D01*
X276996Y211635D01*
X277749Y214445D01*
Y217355D01*
X276996Y220165D01*
X276583Y220881D01*
X278049Y223421D01*
X280751D01*
X282217Y220881D01*
X281804Y220165D01*
X281051Y217355D01*
Y214445D01*
X281804Y211635D01*
X283259Y209116D01*
X285316Y207059D01*
X287835Y205604D01*
X290645Y204851D01*
X293555D01*
X296365Y205604D01*
X298884Y207059D01*
X300941Y209116D01*
X302396Y211635D01*
X303149Y214445D01*
Y217355D01*
X302396Y220165D01*
X301983Y220881D01*
X303449Y223421D01*
X306151D01*
X307617Y220881D01*
X307204Y220165D01*
X306451Y217355D01*
Y214445D01*
X307204Y211635D01*
X308659Y209116D01*
X310716Y207059D01*
X313235Y205604D01*
X316045Y204851D01*
X318955D01*
X321765Y205604D01*
X324284Y207059D01*
X326341Y209116D01*
X327796Y211635D01*
X328549Y214445D01*
Y217355D01*
X327796Y220165D01*
X327383Y220881D01*
X328849Y223421D01*
X344869D01*
X345171Y222816D01*
X345486Y220881D01*
X342647Y218984D01*
X342130Y218466D01*
X355600Y204996D01*
X369070Y218466D01*
X368553Y218984D01*
X365714Y220881D01*
X366029Y222816D01*
X366331Y223421D01*
X482600D01*
X484591D01*
X488498Y222644D01*
X492178Y221119D01*
X495490Y218906D01*
X498306Y216090D01*
X500519Y212778D01*
X502043Y209098D01*
X502821Y205191D01*
X502821Y203200D01*
X502821Y25400D01*
Y23409D01*
X502043Y19502D01*
X500519Y15822D01*
X498306Y12510D01*
X495490Y9694D01*
X492178Y7481D01*
X488498Y5957D01*
X484591Y5179D01*
X482600Y5179D01*
X366331D01*
X366029Y5784D01*
X365714Y7719D01*
X368553Y9616D01*
X369070Y10134D01*
X355600Y23604D01*
X342130Y10134D01*
X342647Y9616D01*
X345486Y7719D01*
X345171Y5784D01*
X344869Y5179D01*
X328849D01*
X327383Y7719D01*
X327796Y8435D01*
X328549Y11245D01*
Y14155D01*
X327796Y16965D01*
X326341Y19484D01*
X324284Y21541D01*
X321765Y22996D01*
X318955Y23749D01*
X316045D01*
X313235Y22996D01*
X310716Y21541D01*
X308659Y19484D01*
X307204Y16965D01*
X306451Y14155D01*
Y11245D01*
X307204Y8435D01*
X307617Y7719D01*
X306151Y5179D01*
X303449D01*
X301983Y7719D01*
X302396Y8435D01*
X303149Y11245D01*
Y14155D01*
X302396Y16965D01*
X300941Y19484D01*
X298884Y21541D01*
X296365Y22996D01*
X293555Y23749D01*
X290645D01*
X287835Y22996D01*
X285316Y21541D01*
X283259Y19484D01*
X281804Y16965D01*
X281051Y14155D01*
Y11245D01*
X281804Y8435D01*
X282217Y7719D01*
X280751Y5179D01*
X278049D01*
X276583Y7719D01*
X276996Y8435D01*
X277749Y11245D01*
Y14155D01*
X276996Y16965D01*
X275541Y19484D01*
X273484Y21541D01*
X270965Y22996D01*
X268155Y23749D01*
X265245D01*
X262435Y22996D01*
X259916Y21541D01*
X257859Y19484D01*
X256404Y16965D01*
X255651Y14155D01*
Y11245D01*
X256404Y8435D01*
X256817Y7719D01*
X255351Y5179D01*
X252649D01*
X251183Y7719D01*
X251596Y8435D01*
X252349Y11245D01*
Y14155D01*
X251596Y16965D01*
X250141Y19484D01*
X248084Y21541D01*
X245565Y22996D01*
X242755Y23749D01*
X239845D01*
X237035Y22996D01*
X234516Y21541D01*
X232459Y19484D01*
X231004Y16965D01*
X230251Y14155D01*
Y11245D01*
X231004Y8435D01*
X231417Y7719D01*
X229951Y5179D01*
X227249D01*
X225783Y7719D01*
X226196Y8435D01*
X226949Y11245D01*
Y14155D01*
X226196Y16965D01*
X224741Y19484D01*
X222684Y21541D01*
X220165Y22996D01*
X217355Y23749D01*
X214445D01*
X211635Y22996D01*
X209116Y21541D01*
X207059Y19484D01*
X205604Y16965D01*
X204851Y14155D01*
Y11245D01*
X205604Y8435D01*
X206017Y7719D01*
X204551Y5179D01*
X201849D01*
X200383Y7719D01*
X200796Y8435D01*
X201549Y11245D01*
Y14155D01*
X200796Y16965D01*
X199341Y19484D01*
X197284Y21541D01*
X194765Y22996D01*
X191955Y23749D01*
X189045D01*
X186235Y22996D01*
X183716Y21541D01*
X181659Y19484D01*
X180204Y16965D01*
X179451Y14155D01*
Y11245D01*
X180204Y8435D01*
X180617Y7719D01*
X179151Y5179D01*
X176449D01*
X174983Y7719D01*
X175396Y8435D01*
X176149Y11245D01*
Y14155D01*
X175396Y16965D01*
X173941Y19484D01*
X171884Y21541D01*
X169365Y22996D01*
X168985Y23098D01*
Y36491D01*
X217509Y85015D01*
X331286D01*
X331662Y84452D01*
X332957Y83587D01*
X334485Y83283D01*
X337235D01*
X338763Y83587D01*
X340057Y84452D01*
X340662D01*
X341958Y83587D01*
X343485Y83283D01*
X346235D01*
X347762Y83587D01*
X349058Y84452D01*
X349434Y85015D01*
X397980D01*
X398735Y83885D01*
X400187Y82915D01*
X401900Y82574D01*
X424240D01*
X425201Y80034D01*
X424086Y78919D01*
X422817Y76721D01*
X422160Y74269D01*
Y71731D01*
X422817Y69279D01*
X424086Y67081D01*
X425881Y65286D01*
X428079Y64017D01*
X430531Y63360D01*
X433069D01*
X435521Y64017D01*
X437719Y65286D01*
X439514Y67081D01*
X440783Y69279D01*
X441440Y71731D01*
Y74269D01*
X440783Y76721D01*
X439514Y78919D01*
X438399Y80034D01*
X439361Y82574D01*
X461700D01*
X463413Y82915D01*
X464865Y83885D01*
X465620Y85015D01*
X469140D01*
X469562Y84593D01*
X471429Y83820D01*
X473451D01*
X475318Y84593D01*
X476747Y86022D01*
X477520Y87889D01*
Y89910D01*
X476747Y91778D01*
X475318Y93207D01*
X473451Y93980D01*
X471429D01*
X469562Y93207D01*
X469140Y92785D01*
X465620D01*
X465043Y93649D01*
X464865Y94236D01*
Y95488D01*
X466666Y97557D01*
X469244Y97612D01*
X469562Y97293D01*
X471429Y96520D01*
X473451D01*
X475318Y97293D01*
X476747Y98722D01*
X477520Y100590D01*
Y102611D01*
X476747Y104478D01*
X475318Y105907D01*
X473451Y106680D01*
X471429D01*
X469562Y105907D01*
X469140Y105485D01*
X465620D01*
X464865Y106615D01*
X463413Y107585D01*
X461700Y107926D01*
X436200D01*
X434487Y107585D01*
X433105Y106662D01*
X431358Y106992D01*
X430743Y109551D01*
X431535Y110737D01*
X431876Y112450D01*
Y116150D01*
X431535Y117863D01*
X430743Y119049D01*
X431358Y121608D01*
X433105Y121938D01*
X434487Y121015D01*
X436200Y120674D01*
X461700D01*
X463413Y121015D01*
X464865Y121985D01*
X465620Y123115D01*
X469140D01*
X469562Y122693D01*
X471429Y121920D01*
X473451D01*
X475318Y122693D01*
X476747Y124122D01*
X477520Y125990D01*
Y128011D01*
X476747Y129878D01*
X475318Y131307D01*
X473451Y132080D01*
X471429D01*
X469562Y131307D01*
X469244Y130988D01*
X466666Y131043D01*
X464865Y133112D01*
Y134685D01*
X465043Y134951D01*
X465835Y136137D01*
X466176Y137850D01*
Y141550D01*
X465835Y143263D01*
X464865Y144715D01*
X463413Y145685D01*
X461700Y146026D01*
X439361D01*
X438399Y148566D01*
X439514Y149681D01*
X440783Y151879D01*
X441440Y154331D01*
Y156869D01*
X440783Y159321D01*
X439514Y161519D01*
X437719Y163314D01*
X435521Y164583D01*
X433069Y165240D01*
X430531D01*
X428079Y164583D01*
X425881Y163314D01*
X424086Y161519D01*
X422817Y159321D01*
X422160Y156869D01*
Y154331D01*
X422817Y151879D01*
X424086Y149681D01*
X425201Y148566D01*
X424240Y146026D01*
X401900D01*
X400187Y145685D01*
X398735Y144715D01*
X397765Y143263D01*
X397424Y141550D01*
Y137850D01*
X397765Y136137D01*
X398557Y134951D01*
X398735Y134685D01*
Y133112D01*
X396934Y131043D01*
X394356Y130988D01*
X394038Y131307D01*
X392170Y132080D01*
X390149D01*
X388282Y131307D01*
X386853Y129878D01*
X386080Y128011D01*
Y125990D01*
X386853Y124122D01*
X388282Y122693D01*
X390149Y121920D01*
X392170D01*
X394038Y122693D01*
X394356Y123012D01*
X396934Y122957D01*
X398735Y120888D01*
Y119315D01*
X398557Y119049D01*
X397765Y117863D01*
X397424Y116150D01*
Y112450D01*
X397765Y110737D01*
X398557Y109551D01*
X398735Y109285D01*
Y107712D01*
X396796Y105485D01*
X349434D01*
X349058Y106048D01*
X347762Y106913D01*
X346235Y107217D01*
X343485D01*
X341958Y106913D01*
X340662Y106048D01*
X340057D01*
X338763Y106913D01*
X337235Y107217D01*
X334485D01*
X332957Y106913D01*
X331662Y106048D01*
X331286Y105485D01*
X203200D01*
X201713Y105189D01*
X200453Y104347D01*
X136953Y40847D01*
X136111Y39587D01*
X135815Y38100D01*
Y23098D01*
X135435Y22996D01*
X132916Y21541D01*
X130859Y19484D01*
X129404Y16965D01*
X128651Y14155D01*
Y11245D01*
X129404Y8435D01*
X129817Y7719D01*
X128351Y5179D01*
X125649D01*
X124183Y7719D01*
X124596Y8435D01*
X125349Y11245D01*
Y14155D01*
X124596Y16965D01*
X123141Y19484D01*
X123011Y19615D01*
X115198Y11802D01*
X114300Y12700D01*
X113402Y11802D01*
X105589Y19615D01*
X105459Y19484D01*
X104004Y16965D01*
X103251Y14155D01*
Y11245D01*
X104004Y8435D01*
X104417Y7719D01*
X102951Y5179D01*
X100249D01*
X98783Y7719D01*
X99196Y8435D01*
X99949Y11245D01*
Y14155D01*
X99196Y16965D01*
X97741Y19484D01*
X95684Y21541D01*
X93165Y22996D01*
X90355Y23749D01*
X87445D01*
X84635Y22996D01*
X82116Y21541D01*
X80059Y19484D01*
X78604Y16965D01*
X77851Y14155D01*
Y11245D01*
X78604Y8435D01*
X79017Y7719D01*
X77551Y5179D01*
X74849D01*
X73383Y7719D01*
X73796Y8435D01*
X74549Y11245D01*
Y14155D01*
X73796Y16965D01*
X73710Y17114D01*
Y71317D01*
X142043Y139650D01*
X312193D01*
X314423Y137845D01*
Y135095D01*
X314727Y133567D01*
X315592Y132273D01*
X316155Y131896D01*
Y129030D01*
X315733Y128608D01*
X314960Y126741D01*
Y124719D01*
X315733Y122852D01*
X317162Y121423D01*
X319030Y120650D01*
X321050D01*
X322918Y121423D01*
X324347Y122852D01*
X325120Y124719D01*
Y126741D01*
X324347Y128608D01*
X323925Y129030D01*
Y131896D01*
X324488Y132273D01*
X324697Y132585D01*
X327390D01*
X327690Y132403D01*
X329278Y130045D01*
X329251Y129910D01*
Y122410D01*
X329525Y121029D01*
X330308Y119858D01*
X331479Y119075D01*
X332860Y118801D01*
X334860D01*
X336241Y119075D01*
X337110Y119656D01*
X337979Y119075D01*
X339360Y118801D01*
X341360D01*
X342741Y119075D01*
X343912Y119858D01*
X344695Y121029D01*
X344969Y122410D01*
Y129910D01*
X344695Y131291D01*
X344245Y131965D01*
Y133350D01*
X343949Y134837D01*
X343107Y136097D01*
X339987Y139217D01*
X339702Y139407D01*
X338805Y140950D01*
X338943Y142519D01*
X339140Y143510D01*
Y165100D01*
X338943Y166091D01*
X338381Y166931D01*
X337111Y168201D01*
X336271Y168763D01*
X335280Y168960D01*
X135890D01*
X134899Y168763D01*
X134059Y168201D01*
X54049Y88191D01*
X53487Y87351D01*
X53290Y86360D01*
X53290Y17114D01*
X53204Y16965D01*
X52451Y14155D01*
Y11245D01*
X53204Y8435D01*
X53617Y7719D01*
X52151Y5179D01*
X36131D01*
X35829Y5784D01*
X35514Y7719D01*
X38353Y9616D01*
X38870Y10134D01*
X24502Y24502D01*
X10134Y38870D01*
X9616Y38353D01*
X7719Y35514D01*
X5784Y35829D01*
X5179Y36131D01*
Y192469D01*
X5784Y192771D01*
X7719Y193086D01*
X9616Y190247D01*
X10134Y189730D01*
X24502Y204098D01*
X38870Y218466D01*
X38353Y218984D01*
X35514Y220881D01*
X35829Y222816D01*
X36131Y223421D01*
X52151D01*
D02*
G37*
G36*
X336550Y165100D02*
Y143510D01*
X335280Y142240D01*
X140970D01*
X71120Y72390D01*
Y10160D01*
X55880D01*
X55880Y86360D01*
X135890Y166370D01*
X335280D01*
X336550Y165100D01*
D02*
G37*
%LPC*%
G36*
X63500Y214104D02*
X56585Y207189D01*
X56716Y207059D01*
X59235Y205604D01*
X62045Y204851D01*
X64955D01*
X67765Y205604D01*
X70284Y207059D01*
X70415Y207189D01*
X63500Y214104D01*
D02*
G37*
G36*
X340334Y216670D02*
X339816Y216153D01*
X337593Y212825D01*
X336061Y209127D01*
X335280Y205201D01*
Y201199D01*
X336061Y197273D01*
X337593Y193575D01*
X339816Y190247D01*
X340334Y189730D01*
X353804Y203200D01*
X340334Y216670D01*
D02*
G37*
G36*
X370866Y216670D02*
X357396Y203200D01*
X370866Y189730D01*
X371384Y190247D01*
X373607Y193575D01*
X375139Y197273D01*
X375920Y201199D01*
Y205201D01*
X375139Y209127D01*
X373607Y212825D01*
X371384Y216153D01*
X370866Y216670D01*
D02*
G37*
G36*
X40666D02*
X27196Y203200D01*
X40666Y189730D01*
X41184Y190247D01*
X43407Y193575D01*
X44939Y197273D01*
X45720Y201199D01*
Y205201D01*
X44939Y209127D01*
X43407Y212825D01*
X41184Y216153D01*
X40666Y216670D01*
D02*
G37*
G36*
X355600Y201404D02*
X342130Y187934D01*
X342647Y187416D01*
X345975Y185193D01*
X349673Y183661D01*
X353599Y182880D01*
X357601D01*
X361527Y183661D01*
X365225Y185193D01*
X368553Y187416D01*
X369070Y187934D01*
X355600Y201404D01*
D02*
G37*
G36*
X25400D02*
X11930Y187934D01*
X12447Y187416D01*
X15775Y185193D01*
X19473Y183661D01*
X23399Y182880D01*
X27401D01*
X31327Y183661D01*
X35025Y185193D01*
X38353Y187416D01*
X38870Y187934D01*
X25400Y201404D01*
D02*
G37*
G36*
X347860Y155519D02*
X345860D01*
X344479Y155245D01*
X343308Y154462D01*
X342525Y153291D01*
X342251Y151910D01*
Y144410D01*
X342525Y143029D01*
X343308Y141858D01*
X344479Y141075D01*
X345860Y140801D01*
X347860D01*
X349241Y141075D01*
X350412Y141858D01*
X351195Y143029D01*
X351443Y144275D01*
X360350D01*
X361612Y143013D01*
X363479Y142240D01*
X365500D01*
X367368Y143013D01*
X368797Y144442D01*
X369570Y146309D01*
Y148330D01*
X368797Y150198D01*
X367368Y151627D01*
X365500Y152400D01*
X363479D01*
X362622Y152045D01*
X351443D01*
X351195Y153291D01*
X350412Y154462D01*
X349241Y155245D01*
X347860Y155519D01*
D02*
G37*
G36*
X27401Y45720D02*
X23399D01*
X19473Y44939D01*
X15775Y43407D01*
X12447Y41184D01*
X11930Y40666D01*
X25400Y27196D01*
X38870Y40666D01*
X38353Y41184D01*
X35025Y43407D01*
X31327Y44939D01*
X27401Y45720D01*
D02*
G37*
G36*
X357601D02*
X353599D01*
X349673Y44939D01*
X345975Y43407D01*
X342647Y41184D01*
X342130Y40666D01*
X355600Y27196D01*
X369070Y40666D01*
X368553Y41184D01*
X365225Y43407D01*
X361527Y44939D01*
X357601Y45720D01*
D02*
G37*
G36*
X115755Y23749D02*
X112845D01*
X110035Y22996D01*
X107516Y21541D01*
X107385Y21411D01*
X114300Y14496D01*
X121215Y21411D01*
X121084Y21541D01*
X118565Y22996D01*
X115755Y23749D01*
D02*
G37*
G36*
X340334Y38870D02*
X339816Y38353D01*
X337593Y35025D01*
X336061Y31327D01*
X335280Y27401D01*
Y23399D01*
X336061Y19473D01*
X337593Y15775D01*
X339816Y12447D01*
X340334Y11930D01*
X353804Y25400D01*
X340334Y38870D01*
D02*
G37*
G36*
X40666Y38870D02*
X27196Y25400D01*
X40666Y11930D01*
X41184Y12447D01*
X43407Y15775D01*
X44939Y19473D01*
X45720Y23399D01*
Y27401D01*
X44939Y31327D01*
X43407Y35025D01*
X41184Y38353D01*
X40666Y38870D01*
D02*
G37*
G36*
X370866D02*
X357396Y25400D01*
X370866Y11930D01*
X371384Y12447D01*
X373607Y15775D01*
X375139Y19473D01*
X375920Y23399D01*
Y27401D01*
X375139Y31327D01*
X373607Y35025D01*
X371384Y38353D01*
X370866Y38870D01*
D02*
G37*
%LPD*%
D11*
X346860Y148160D02*
X363650D01*
X364490Y147320D01*
X448950Y88900D02*
X472440D01*
X448950Y101600D02*
X472440D01*
X448950Y127000D02*
X472440D01*
X391160D02*
X414650D01*
X320040Y125730D02*
Y136470D01*
X215900Y88900D02*
X335860D01*
X165100Y38100D02*
X215900Y88900D01*
X165100Y12700D02*
Y38100D01*
X203200Y101600D02*
X335860D01*
X139700Y38100D02*
X203200Y101600D01*
X139700Y12700D02*
Y38100D01*
X344860Y88900D02*
X414650D01*
X344860Y101600D02*
X414650D01*
X340360Y126160D02*
Y133350D01*
X337240Y136470D02*
X340360Y133350D01*
X320040Y136470D02*
X337240D01*
D12*
X340360Y126160D02*
D03*
X346860D02*
D03*
Y148160D02*
D03*
X333860D02*
D03*
Y126160D02*
D03*
D13*
X320040Y136470D02*
D03*
Y145470D02*
D03*
D14*
X342320Y162560D02*
D03*
X333320D02*
D03*
D15*
X448950Y114300D02*
D03*
X414650Y127000D02*
D03*
X448950D02*
D03*
Y101600D02*
D03*
X414650Y88900D02*
D03*
Y101600D02*
D03*
X448950Y88900D02*
D03*
X414650Y114300D02*
D03*
X448950Y139700D02*
D03*
X414650D02*
D03*
D16*
X344860Y88900D02*
D03*
Y101600D02*
D03*
X335860Y88900D02*
D03*
Y101600D02*
D03*
D26*
X449350Y114300D02*
X472440D01*
D27*
X317500Y12700D02*
D03*
X114300D02*
D03*
X63500Y215900D02*
D03*
Y12700D02*
D03*
X292100D02*
D03*
X190500D02*
D03*
X241300D02*
D03*
X88900Y215900D02*
D03*
X114300D02*
D03*
X139700D02*
D03*
X165100D02*
D03*
X190500D02*
D03*
X215900D02*
D03*
X241300D02*
D03*
X266700D02*
D03*
X292100D02*
D03*
X317500D02*
D03*
X88900Y12700D02*
D03*
X139700D02*
D03*
X165100D02*
D03*
X215900D02*
D03*
X266700D02*
D03*
D28*
X25400Y25400D02*
D03*
Y203200D02*
D03*
X355600Y25400D02*
D03*
Y203200D02*
D03*
D29*
X431800Y73000D02*
D03*
Y155600D02*
D03*
D30*
X482600Y203200D02*
D03*
X266700Y114300D02*
D03*
X165100D02*
D03*
X364490Y147320D02*
D03*
X472440Y88900D02*
D03*
Y101600D02*
D03*
Y114300D02*
D03*
Y127000D02*
D03*
X391160D02*
D03*
X320040Y125730D02*
D03*
X76200Y165100D02*
D03*
X431800Y203200D02*
D03*
X482600Y160020D02*
D03*
Y25400D02*
D03*
X101600Y63500D02*
D03*
X266700Y190500D02*
D03*
X165100D02*
D03*
X25400Y114300D02*
D03*
X391160Y139700D02*
D03*
X346710Y115570D02*
D03*
X350520Y162560D02*
D03*
M02*
