G04*
G04 #@! TF.GenerationSoftware,Altium Limited,Altium Designer,25.9.0 (10)*
G04*
G04 Layer_Color=128*
%FSLAX44Y44*%
%MOMM*%
G71*
G04*
G04 #@! TF.SameCoordinates,A69B8269-B679-459B-B5DD-CBE35428100B*
G04*
G04*
G04 #@! TF.FilePolarity,Positive*
G04*
G01*
G75*
%ADD32C,0.1270*%
D32*
X312420Y12700D02*
X322580D01*
X317500Y7620D02*
Y17780D01*
X12700Y25400D02*
X38100D01*
X25400Y12700D02*
Y38100D01*
X12700Y203200D02*
X38100D01*
X25400Y190500D02*
Y215900D01*
X342900Y25400D02*
X368300D01*
X355600Y12700D02*
Y38100D01*
X342900Y203200D02*
X368300D01*
X355600Y190500D02*
Y215900D01*
X109220Y12700D02*
X119380D01*
X114300Y7620D02*
Y17780D01*
X58420Y215900D02*
X68580D01*
X63500Y210820D02*
Y220980D01*
X58420Y12700D02*
X68580D01*
X63500Y7620D02*
Y17780D01*
X287020Y12700D02*
X297180D01*
X292100Y7620D02*
Y17780D01*
X185420Y12700D02*
X195580D01*
X190500Y7620D02*
Y17780D01*
X236220Y12700D02*
X246380D01*
X241300Y7620D02*
Y17780D01*
X83820Y215900D02*
X93980D01*
X88900Y210820D02*
Y220980D01*
X109220Y215900D02*
X119380D01*
X114300Y210820D02*
Y220980D01*
X134620Y215900D02*
X144780D01*
X139700Y210820D02*
Y220980D01*
X160020Y215900D02*
X170180D01*
X165100Y210820D02*
Y220980D01*
X185420Y215900D02*
X195580D01*
X190500Y210820D02*
Y220980D01*
X210820Y215900D02*
X220980D01*
X215900Y210820D02*
Y220980D01*
X236220Y215900D02*
X246380D01*
X241300Y210820D02*
Y220980D01*
X261620Y215900D02*
X271780D01*
X266700Y210820D02*
Y220980D01*
X287020Y215900D02*
X297180D01*
X292100Y210820D02*
Y220980D01*
X312420Y215900D02*
X322580D01*
X317500Y210820D02*
Y220980D01*
X83820Y12700D02*
X93980D01*
X88900Y7620D02*
Y17780D01*
X134620Y12700D02*
X144780D01*
X139700Y7620D02*
Y17780D01*
X160020Y12700D02*
X170180D01*
X165100Y7620D02*
Y17780D01*
X210820Y12700D02*
X220980D01*
X215900Y7620D02*
Y17780D01*
X261620Y12700D02*
X271780D01*
X266700Y7620D02*
Y17780D01*
X424700Y73000D02*
X438900D01*
X431800Y65900D02*
Y80100D01*
X424700Y155600D02*
X438900D01*
X431800Y148500D02*
Y162700D01*
X481330Y203200D02*
X483870D01*
X482600Y201930D02*
Y204470D01*
X265430Y114300D02*
X267970D01*
X266700Y113030D02*
Y115570D01*
X163830Y114300D02*
X166370D01*
X165100Y113030D02*
Y115570D01*
X363220Y147320D02*
X365760D01*
X364490Y146050D02*
Y148590D01*
X471170Y88900D02*
X473710D01*
X472440Y87630D02*
Y90170D01*
X471170Y101600D02*
X473710D01*
X472440Y100330D02*
Y102870D01*
X471170Y114300D02*
X473710D01*
X472440Y113030D02*
Y115570D01*
X471170Y127000D02*
X473710D01*
X472440Y125730D02*
Y128270D01*
X389890Y127000D02*
X392430D01*
X391160Y125730D02*
Y128270D01*
X318770Y125730D02*
X321310D01*
X320040Y124460D02*
Y127000D01*
X74930Y165100D02*
X77470D01*
X76200Y163830D02*
Y166370D01*
X430530Y203200D02*
X433070D01*
X431800Y201930D02*
Y204470D01*
X481330Y160020D02*
X483870D01*
X482600Y158750D02*
Y161290D01*
X481330Y25400D02*
X483870D01*
X482600Y24130D02*
Y26670D01*
X100330Y63500D02*
X102870D01*
X101600Y62230D02*
Y64770D01*
X265430Y190500D02*
X267970D01*
X266700Y189230D02*
Y191770D01*
X163830Y190500D02*
X166370D01*
X165100Y189230D02*
Y191770D01*
X24130Y114300D02*
X26670D01*
X25400Y113030D02*
Y115570D01*
X389890Y139700D02*
X392430D01*
X391160Y138430D02*
Y140970D01*
X345440Y115570D02*
X347980D01*
X346710Y114300D02*
Y116840D01*
X349250Y162560D02*
X351790D01*
X350520Y161290D02*
Y163830D01*
M02*
