G04*
G04 #@! TF.GenerationSoftware,Altium Limited,Altium Designer,25.9.0 (10)*
G04*
G04 Layer_Physical_Order=3*
G04 Layer_Color=16440176*
%FSLAX44Y44*%
%MOMM*%
G71*
G04*
G04 #@! TF.SameCoordinates,A8D4251A-1738-4EAF-8D38-4F3D33BA549E*
G04*
G04*
G04 #@! TF.FilePolarity,Positive*
G04*
G01*
G75*
%ADD34C,1.7018*%
%ADD35C,3.5560*%
%ADD36C,0.5000*%
G36*
X463122Y222722D02*
X466817Y221192D01*
X470142Y218970D01*
X472970Y216142D01*
X475191Y212817D01*
X476722Y209122D01*
X477502Y205200D01*
X477502Y203200D01*
X477502Y25400D01*
Y23400D01*
X476722Y19478D01*
X475191Y15783D01*
X472970Y12458D01*
X470142Y9630D01*
X466817Y7408D01*
X463122Y5878D01*
X459199Y5098D01*
X457200Y5098D01*
X362899D01*
X362646Y6368D01*
X365206Y7428D01*
X368528Y9647D01*
X371353Y12472D01*
X373572Y15794D01*
X375101Y19484D01*
X375880Y23403D01*
Y27397D01*
X375101Y31316D01*
X373572Y35006D01*
X371353Y38328D01*
X368528Y41153D01*
X365206Y43372D01*
X361516Y44901D01*
X357597Y45680D01*
X353603D01*
X349684Y44901D01*
X345994Y43372D01*
X342672Y41153D01*
X339847Y38328D01*
X337628Y35006D01*
X336099Y31316D01*
X335320Y27397D01*
Y23403D01*
X336099Y19484D01*
X337628Y15794D01*
X339847Y12472D01*
X342672Y9647D01*
X345994Y7428D01*
X348554Y6368D01*
X348301Y5098D01*
X327139D01*
X326556Y6368D01*
X327759Y8451D01*
X328509Y11251D01*
Y14149D01*
X327759Y16949D01*
X326309Y19460D01*
X324260Y21509D01*
X321749Y22959D01*
X318949Y23709D01*
X316051D01*
X313251Y22959D01*
X310740Y21509D01*
X308691Y19460D01*
X307241Y16949D01*
X306491Y14149D01*
Y11251D01*
X307241Y8451D01*
X308444Y6368D01*
X307861Y5098D01*
X301739D01*
X301156Y6368D01*
X302359Y8451D01*
X303109Y11251D01*
Y14149D01*
X302359Y16949D01*
X300909Y19460D01*
X298860Y21509D01*
X296349Y22959D01*
X293549Y23709D01*
X290651D01*
X287851Y22959D01*
X285340Y21509D01*
X283291Y19460D01*
X281841Y16949D01*
X281091Y14149D01*
Y11251D01*
X281841Y8451D01*
X283044Y6368D01*
X282461Y5098D01*
X276339D01*
X275756Y6368D01*
X276959Y8451D01*
X277709Y11251D01*
Y14149D01*
X276959Y16949D01*
X275509Y19460D01*
X273460Y21509D01*
X270949Y22959D01*
X268149Y23709D01*
X265251D01*
X262451Y22959D01*
X259940Y21509D01*
X257891Y19460D01*
X256441Y16949D01*
X255691Y14149D01*
Y11251D01*
X256441Y8451D01*
X257644Y6368D01*
X257061Y5098D01*
X250939D01*
X250356Y6368D01*
X251559Y8451D01*
X252309Y11251D01*
Y14149D01*
X251559Y16949D01*
X250109Y19460D01*
X248060Y21509D01*
X245549Y22959D01*
X242749Y23709D01*
X239851D01*
X237051Y22959D01*
X234540Y21509D01*
X232491Y19460D01*
X231041Y16949D01*
X230291Y14149D01*
Y11251D01*
X231041Y8451D01*
X232244Y6368D01*
X231661Y5098D01*
X225539D01*
X224956Y6368D01*
X226159Y8451D01*
X226909Y11251D01*
Y14149D01*
X226159Y16949D01*
X224709Y19460D01*
X222660Y21509D01*
X220149Y22959D01*
X217349Y23709D01*
X214451D01*
X211651Y22959D01*
X209140Y21509D01*
X207091Y19460D01*
X205641Y16949D01*
X204891Y14149D01*
Y11251D01*
X205641Y8451D01*
X206844Y6368D01*
X206261Y5098D01*
X200139D01*
X199556Y6368D01*
X200759Y8451D01*
X201509Y11251D01*
Y14149D01*
X200759Y16949D01*
X199309Y19460D01*
X197260Y21509D01*
X194749Y22959D01*
X191949Y23709D01*
X189051D01*
X186251Y22959D01*
X183740Y21509D01*
X181691Y19460D01*
X180241Y16949D01*
X179491Y14149D01*
Y11251D01*
X180241Y8451D01*
X181444Y6368D01*
X180861Y5098D01*
X174739D01*
X174156Y6368D01*
X175359Y8451D01*
X176109Y11251D01*
Y14149D01*
X175359Y16949D01*
X173909Y19460D01*
X171860Y21509D01*
X169349Y22959D01*
X166549Y23709D01*
X163651D01*
X160851Y22959D01*
X158340Y21509D01*
X156291Y19460D01*
X154841Y16949D01*
X154091Y14149D01*
Y11251D01*
X154841Y8451D01*
X156044Y6368D01*
X155461Y5098D01*
X149339D01*
X148756Y6368D01*
X149959Y8451D01*
X150709Y11251D01*
Y14149D01*
X149959Y16949D01*
X148509Y19460D01*
X146460Y21509D01*
X143949Y22959D01*
X141149Y23709D01*
X138251D01*
X135451Y22959D01*
X132940Y21509D01*
X130891Y19460D01*
X129441Y16949D01*
X128691Y14149D01*
Y11251D01*
X129441Y8451D01*
X130644Y6368D01*
X130061Y5098D01*
X123939D01*
X123356Y6368D01*
X124559Y8451D01*
X125309Y11251D01*
Y14149D01*
X124559Y16949D01*
X123109Y19460D01*
X121060Y21509D01*
X118549Y22959D01*
X115749Y23709D01*
X112851D01*
X110051Y22959D01*
X107540Y21509D01*
X105491Y19460D01*
X104041Y16949D01*
X103291Y14149D01*
Y11251D01*
X104041Y8451D01*
X105244Y6368D01*
X104661Y5098D01*
X98539D01*
X97956Y6368D01*
X99159Y8451D01*
X99909Y11251D01*
Y14149D01*
X99159Y16949D01*
X97709Y19460D01*
X95660Y21509D01*
X93149Y22959D01*
X90349Y23709D01*
X87451D01*
X84651Y22959D01*
X82140Y21509D01*
X80091Y19460D01*
X78641Y16949D01*
X77891Y14149D01*
Y11251D01*
X78641Y8451D01*
X79844Y6368D01*
X79261Y5098D01*
X72385D01*
X72237Y5455D01*
X71979Y6368D01*
X73293Y8644D01*
X74009Y11316D01*
Y11700D01*
X52991D01*
Y11316D01*
X53707Y8644D01*
X55021Y6368D01*
X54763Y5455D01*
X54615Y5098D01*
X32699D01*
X32446Y6368D01*
X35006Y7428D01*
X38328Y9647D01*
X41153Y12472D01*
X43372Y15794D01*
X44901Y19484D01*
X45680Y23403D01*
Y27397D01*
X44901Y31316D01*
X43372Y35006D01*
X41153Y38328D01*
X38328Y41153D01*
X35006Y43372D01*
X31316Y44901D01*
X27397Y45680D01*
X23403D01*
X19484Y44901D01*
X15794Y43372D01*
X12472Y41153D01*
X9647Y38328D01*
X7428Y35006D01*
X6368Y32446D01*
X5098Y32699D01*
Y122451D01*
X49518Y122451D01*
X50367Y121181D01*
X50000Y120295D01*
Y118306D01*
X50761Y116468D01*
X52168Y115061D01*
X52346Y114987D01*
Y113613D01*
X52168Y113539D01*
X50761Y112132D01*
X50000Y110295D01*
Y108305D01*
X50761Y106468D01*
X52168Y105061D01*
X54005Y104300D01*
X55995D01*
X57832Y105061D01*
X59239Y106468D01*
X60000Y108305D01*
Y110295D01*
X59239Y112132D01*
X57832Y113539D01*
X57654Y113613D01*
Y114987D01*
X57832Y115061D01*
X59239Y116468D01*
X60000Y118306D01*
Y120295D01*
X59239Y122132D01*
X59802Y123198D01*
X75056Y138451D01*
X83944D01*
X99198Y123198D01*
X100025Y122645D01*
X100555Y122540D01*
X101248Y121594D01*
X101367Y121181D01*
X101000Y120295D01*
Y118305D01*
X101761Y116468D01*
X103168Y115061D01*
X103346Y114987D01*
Y113613D01*
X103168Y113539D01*
X101761Y112132D01*
X101000Y110295D01*
Y108305D01*
X101761Y106468D01*
X103168Y105061D01*
X105005Y104300D01*
X106994D01*
X108832Y105061D01*
X110239Y106468D01*
X111000Y108305D01*
Y110295D01*
X110239Y112132D01*
X108832Y113539D01*
X108654Y113613D01*
Y114987D01*
X108832Y115061D01*
X110239Y116468D01*
X111000Y118305D01*
Y120295D01*
X110556Y121366D01*
X110491Y122404D01*
X111103Y123064D01*
X111302Y123198D01*
X126556Y138451D01*
X134444D01*
X149698Y123198D01*
X150525Y122645D01*
X151055Y122540D01*
X151748Y121594D01*
X151867Y121181D01*
X151500Y120295D01*
Y118305D01*
X152261Y116468D01*
X153668Y115061D01*
X153972Y114935D01*
Y113665D01*
X153668Y113539D01*
X152261Y112132D01*
X151500Y110295D01*
Y108305D01*
X152261Y106468D01*
X153668Y105061D01*
X155505Y104300D01*
X157494D01*
X159332Y105061D01*
X160739Y106468D01*
X161500Y108305D01*
Y110295D01*
X160739Y112132D01*
X159332Y113539D01*
X159028Y113665D01*
Y114935D01*
X159332Y115061D01*
X160739Y116468D01*
X161500Y118305D01*
Y120295D01*
X161133Y121181D01*
X161981Y122451D01*
X202019D01*
X202867Y121181D01*
X202500Y120295D01*
Y118305D01*
X203261Y116468D01*
X204668Y115061D01*
X204846Y114987D01*
Y113613D01*
X204668Y113539D01*
X203261Y112132D01*
X202500Y110295D01*
Y108305D01*
X203261Y106468D01*
X204668Y105061D01*
X206505Y104300D01*
X208495D01*
X210332Y105061D01*
X211739Y106468D01*
X212500Y108305D01*
Y110295D01*
X211739Y112132D01*
X210332Y113539D01*
X210154Y113613D01*
Y114987D01*
X210332Y115061D01*
X211739Y116468D01*
X212500Y118305D01*
Y120295D01*
X212056Y121366D01*
X211991Y122404D01*
X212603Y123064D01*
X212802Y123198D01*
X228056Y138451D01*
X236444D01*
X250698Y124198D01*
X251525Y123645D01*
X252500Y123451D01*
X253421D01*
X253907Y122278D01*
X253761Y122132D01*
X253000Y120295D01*
Y118306D01*
X253761Y116468D01*
X255168Y115061D01*
X255346Y114987D01*
Y113613D01*
X255168Y113539D01*
X253761Y112132D01*
X253000Y110295D01*
Y108305D01*
X253761Y106468D01*
X255168Y105061D01*
X257005Y104300D01*
X258995D01*
X260832Y105061D01*
X262239Y106468D01*
X263000Y108305D01*
Y110295D01*
X262239Y112132D01*
X260832Y113539D01*
X260654Y113613D01*
Y114987D01*
X260832Y115061D01*
X262239Y116468D01*
X263000Y118306D01*
Y120295D01*
X262239Y122132D01*
X262093Y122278D01*
X262579Y123451D01*
X295000D01*
X295975Y123645D01*
X296802Y124198D01*
X305556Y132951D01*
X357944D01*
X381698Y109198D01*
X382524Y108645D01*
X383500Y108451D01*
X403500Y108451D01*
X404476Y108645D01*
X405302Y109198D01*
X415802Y119698D01*
X416355Y120525D01*
X416549Y121500D01*
Y156944D01*
X431302Y171698D01*
X431855Y172525D01*
X432049Y173500D01*
Y223502D01*
X433319Y223502D01*
X457200D01*
X459200Y223502D01*
X463122Y222722D01*
D02*
G37*
G36*
X53861Y223502D02*
X54444Y222232D01*
X53241Y220149D01*
X52491Y217349D01*
Y214451D01*
X53241Y211651D01*
X54691Y209140D01*
X56740Y207091D01*
X59251Y205641D01*
X62051Y204891D01*
X64949D01*
X67749Y205641D01*
X70260Y207091D01*
X72309Y209140D01*
X73759Y211651D01*
X74509Y214451D01*
Y217349D01*
X73759Y220149D01*
X72556Y222232D01*
X73139Y223502D01*
X79261D01*
X79844Y222232D01*
X78641Y220149D01*
X77891Y217349D01*
Y214451D01*
X78641Y211651D01*
X80091Y209140D01*
X82140Y207091D01*
X84651Y205641D01*
X87451Y204891D01*
X90349D01*
X93149Y205641D01*
X95660Y207091D01*
X97709Y209140D01*
X99159Y211651D01*
X99909Y214451D01*
Y217349D01*
X99159Y220149D01*
X97956Y222232D01*
X98539Y223502D01*
X104661D01*
X105244Y222232D01*
X104041Y220149D01*
X103291Y217349D01*
Y214451D01*
X104041Y211651D01*
X105491Y209140D01*
X107540Y207091D01*
X110051Y205641D01*
X112851Y204891D01*
X115749D01*
X118549Y205641D01*
X121060Y207091D01*
X123109Y209140D01*
X124559Y211651D01*
X125309Y214451D01*
Y217349D01*
X124559Y220149D01*
X123356Y222232D01*
X123939Y223502D01*
X130061D01*
X130644Y222232D01*
X129441Y220149D01*
X128691Y217349D01*
Y214451D01*
X129441Y211651D01*
X130891Y209140D01*
X132940Y207091D01*
X135451Y205641D01*
X138251Y204891D01*
X141149D01*
X143949Y205641D01*
X146460Y207091D01*
X148509Y209140D01*
X149959Y211651D01*
X150709Y214451D01*
Y217349D01*
X149959Y220149D01*
X148756Y222232D01*
X149339Y223502D01*
X155461D01*
X156044Y222232D01*
X154841Y220149D01*
X154091Y217349D01*
Y214451D01*
X154841Y211651D01*
X156291Y209140D01*
X158340Y207091D01*
X160851Y205641D01*
X163651Y204891D01*
X166549D01*
X169349Y205641D01*
X171860Y207091D01*
X173909Y209140D01*
X175359Y211651D01*
X176109Y214451D01*
Y217349D01*
X175359Y220149D01*
X174156Y222232D01*
X174739Y223502D01*
X180861D01*
X181444Y222232D01*
X180241Y220149D01*
X179491Y217349D01*
Y214451D01*
X180241Y211651D01*
X181691Y209140D01*
X183740Y207091D01*
X186251Y205641D01*
X189051Y204891D01*
X191949D01*
X194749Y205641D01*
X197260Y207091D01*
X199309Y209140D01*
X200759Y211651D01*
X201509Y214451D01*
Y217349D01*
X200759Y220149D01*
X199556Y222232D01*
X200139Y223502D01*
X206261D01*
X206844Y222232D01*
X205641Y220149D01*
X204891Y217349D01*
Y214451D01*
X205641Y211651D01*
X207091Y209140D01*
X209140Y207091D01*
X211651Y205641D01*
X214451Y204891D01*
X217349D01*
X220149Y205641D01*
X222660Y207091D01*
X224709Y209140D01*
X226159Y211651D01*
X226909Y214451D01*
Y217349D01*
X226159Y220149D01*
X224956Y222232D01*
X225539Y223502D01*
X231661D01*
X232244Y222232D01*
X231041Y220149D01*
X230291Y217349D01*
Y214451D01*
X231041Y211651D01*
X232491Y209140D01*
X234540Y207091D01*
X237051Y205641D01*
X239851Y204891D01*
X242749D01*
X245549Y205641D01*
X248060Y207091D01*
X250109Y209140D01*
X251559Y211651D01*
X252309Y214451D01*
Y217349D01*
X251559Y220149D01*
X250356Y222232D01*
X250939Y223502D01*
X257061D01*
X257644Y222232D01*
X256441Y220149D01*
X255691Y217349D01*
Y214451D01*
X256441Y211651D01*
X257891Y209140D01*
X259940Y207091D01*
X262451Y205641D01*
X265251Y204891D01*
X268149D01*
X270949Y205641D01*
X273460Y207091D01*
X275509Y209140D01*
X276959Y211651D01*
X277709Y214451D01*
Y217349D01*
X276959Y220149D01*
X275756Y222232D01*
X276339Y223502D01*
X282461D01*
X283044Y222232D01*
X281841Y220149D01*
X281091Y217349D01*
Y214451D01*
X281841Y211651D01*
X283291Y209140D01*
X285340Y207091D01*
X287851Y205641D01*
X290651Y204891D01*
X293549D01*
X296349Y205641D01*
X298860Y207091D01*
X300909Y209140D01*
X302359Y211651D01*
X303109Y214451D01*
Y217349D01*
X302359Y220149D01*
X301156Y222232D01*
X301739Y223502D01*
X307861D01*
X308444Y222232D01*
X307241Y220149D01*
X306491Y217349D01*
Y214451D01*
X307241Y211651D01*
X308691Y209140D01*
X310740Y207091D01*
X313251Y205641D01*
X316051Y204891D01*
X318949D01*
X321749Y205641D01*
X324260Y207091D01*
X326309Y209140D01*
X327759Y211651D01*
X328509Y214451D01*
Y217349D01*
X327759Y220149D01*
X326556Y222232D01*
X327139Y223502D01*
X348301D01*
X348553Y222232D01*
X345994Y221172D01*
X342672Y218953D01*
X339847Y216128D01*
X337628Y212806D01*
X336099Y209116D01*
X335320Y205197D01*
Y201203D01*
X336099Y197285D01*
X337628Y193594D01*
X339847Y190272D01*
X342672Y187447D01*
X345994Y185228D01*
X349684Y183699D01*
X353603Y182920D01*
X357597D01*
X361516Y183699D01*
X365206Y185228D01*
X368528Y187447D01*
X371353Y190272D01*
X373572Y193594D01*
X375101Y197285D01*
X375880Y201203D01*
Y205197D01*
X375101Y209116D01*
X373572Y212806D01*
X371353Y216128D01*
X368528Y218953D01*
X365206Y221172D01*
X362647Y222232D01*
X362899Y223502D01*
X429500D01*
Y173500D01*
X414000Y158000D01*
Y121500D01*
X403500Y111000D01*
X383500Y111000D01*
X359000Y135500D01*
X304500D01*
X295000Y126000D01*
X252500D01*
X237500Y141000D01*
X227000D01*
X211000Y125000D01*
X151500D01*
X135500Y141000D01*
X125500D01*
X109500Y125000D01*
X101000D01*
X85000Y141000D01*
X74000D01*
X58000Y125000D01*
X5098Y125000D01*
Y195901D01*
X6368Y196154D01*
X7428Y193594D01*
X9647Y190272D01*
X12472Y187447D01*
X15794Y185228D01*
X19484Y183699D01*
X23403Y182920D01*
X27397D01*
X31316Y183699D01*
X35006Y185228D01*
X38328Y187447D01*
X41153Y190272D01*
X43372Y193594D01*
X44901Y197285D01*
X45680Y201203D01*
Y205197D01*
X44901Y209116D01*
X43372Y212806D01*
X41153Y216128D01*
X38328Y218953D01*
X35006Y221172D01*
X32446Y222232D01*
X32699Y223502D01*
X53861D01*
D02*
G37*
%LPC*%
G36*
X445495Y189000D02*
X443505D01*
X441668Y188239D01*
X440261Y186832D01*
X439500Y184995D01*
Y183006D01*
X440261Y181168D01*
X441668Y179761D01*
X441846Y179687D01*
Y178313D01*
X441668Y178239D01*
X440261Y176832D01*
X439500Y174995D01*
Y173005D01*
X440261Y171168D01*
X441668Y169761D01*
X443505Y169000D01*
X445495D01*
X447332Y169761D01*
X448739Y171168D01*
X449500Y173005D01*
Y174995D01*
X448739Y176832D01*
X447332Y178239D01*
X447154Y178313D01*
Y179687D01*
X447332Y179761D01*
X448739Y181168D01*
X449500Y183006D01*
Y184995D01*
X448739Y186832D01*
X447332Y188239D01*
X445495Y189000D01*
D02*
G37*
G36*
X433064Y165200D02*
X430536D01*
X428094Y164546D01*
X425905Y163282D01*
X424118Y161495D01*
X422854Y159305D01*
X422200Y156864D01*
Y154336D01*
X422854Y151895D01*
X424118Y149705D01*
X425905Y147918D01*
X428094Y146654D01*
X430536Y146000D01*
X433064D01*
X435505Y146654D01*
X437695Y147918D01*
X439482Y149705D01*
X440746Y151895D01*
X441400Y154336D01*
Y156864D01*
X440746Y159305D01*
X439482Y161495D01*
X437695Y163282D01*
X435505Y164546D01*
X433064Y165200D01*
D02*
G37*
G36*
X469995Y132200D02*
X468005D01*
X466168Y131439D01*
X464761Y130032D01*
X464000Y128195D01*
Y126205D01*
X464761Y124368D01*
X466168Y122961D01*
X468005Y122200D01*
X469995D01*
X471832Y122961D01*
X473239Y124368D01*
X474000Y126205D01*
Y128195D01*
X473239Y130032D01*
X471832Y131439D01*
X469995Y132200D01*
D02*
G37*
G36*
X309995Y124300D02*
X308006D01*
X306168Y123539D01*
X304761Y122132D01*
X304000Y120295D01*
Y118306D01*
X304761Y116468D01*
X306168Y115061D01*
X308006Y114300D01*
X309995D01*
X311832Y115061D01*
X313239Y116468D01*
X314000Y118306D01*
Y120295D01*
X313239Y122132D01*
X311832Y123539D01*
X309995Y124300D01*
D02*
G37*
G36*
X469995Y119500D02*
X468005D01*
X466168Y118739D01*
X464761Y117332D01*
X464000Y115495D01*
Y113505D01*
X464761Y111668D01*
X466168Y110261D01*
X468005Y109500D01*
X469995D01*
X471832Y110261D01*
X473239Y111668D01*
X474000Y113505D01*
Y115495D01*
X473239Y117332D01*
X471832Y118739D01*
X469995Y119500D01*
D02*
G37*
G36*
X343995Y118800D02*
X342005D01*
X340168Y118039D01*
X338761Y116632D01*
X338000Y114795D01*
Y112805D01*
X338761Y110968D01*
X340168Y109561D01*
X342005Y108800D01*
X343995D01*
X345832Y109561D01*
X347239Y110968D01*
X348000Y112805D01*
Y114795D01*
X347239Y116632D01*
X345832Y118039D01*
X343995Y118800D01*
D02*
G37*
G36*
X469995Y106800D02*
X468005D01*
X466168Y106039D01*
X464761Y104632D01*
X464000Y102795D01*
Y100805D01*
X464761Y98968D01*
X466168Y97561D01*
X468005Y96800D01*
X469995D01*
X471832Y97561D01*
X473239Y98968D01*
X474000Y100805D01*
Y102795D01*
X473239Y104632D01*
X471832Y106039D01*
X469995Y106800D01*
D02*
G37*
G36*
X395495Y106600D02*
X393505D01*
X391668Y105839D01*
X390261Y104432D01*
X389500Y102595D01*
Y100605D01*
X390261Y98768D01*
X391668Y97361D01*
X393505Y96600D01*
X395495D01*
X397332Y97361D01*
X398739Y98768D01*
X399500Y100605D01*
Y102595D01*
X398739Y104432D01*
X397332Y105839D01*
X395495Y106600D01*
D02*
G37*
G36*
X181995Y98800D02*
X180005D01*
X178168Y98039D01*
X176761Y96632D01*
X176000Y94795D01*
Y92806D01*
X176761Y90968D01*
X178168Y89561D01*
X180005Y88800D01*
X181995D01*
X183832Y89561D01*
X185239Y90968D01*
X186000Y92806D01*
Y94795D01*
X185239Y96632D01*
X183832Y98039D01*
X181995Y98800D01*
D02*
G37*
G36*
X80495D02*
X78505D01*
X76668Y98039D01*
X75261Y96632D01*
X74500Y94795D01*
Y92806D01*
X75261Y90968D01*
X76668Y89561D01*
X78505Y88800D01*
X80495D01*
X82332Y89561D01*
X83739Y90968D01*
X84500Y92806D01*
Y94795D01*
X83739Y96632D01*
X82332Y98039D01*
X80495Y98800D01*
D02*
G37*
G36*
X283495Y98800D02*
X281506D01*
X279668Y98039D01*
X278261Y96632D01*
X277500Y94795D01*
Y92805D01*
X278261Y90968D01*
X279668Y89561D01*
X281506Y88800D01*
X283495D01*
X285332Y89561D01*
X286739Y90968D01*
X287500Y92805D01*
Y94795D01*
X286739Y96632D01*
X285332Y98039D01*
X283495Y98800D01*
D02*
G37*
G36*
X232995D02*
X231005D01*
X229168Y98039D01*
X227761Y96632D01*
X227000Y94795D01*
Y92805D01*
X227761Y90968D01*
X229168Y89561D01*
X231005Y88800D01*
X232995D01*
X234832Y89561D01*
X236239Y90968D01*
X237000Y92805D01*
Y94795D01*
X236239Y96632D01*
X234832Y98039D01*
X232995Y98800D01*
D02*
G37*
G36*
X131495D02*
X129505D01*
X127668Y98039D01*
X126261Y96632D01*
X125500Y94795D01*
Y92805D01*
X126261Y90968D01*
X127668Y89561D01*
X129505Y88800D01*
X131495D01*
X133332Y89561D01*
X134739Y90968D01*
X135500Y92805D01*
Y94795D01*
X134739Y96632D01*
X133332Y98039D01*
X131495Y98800D01*
D02*
G37*
G36*
X310495Y96000D02*
X308505D01*
X306668Y95239D01*
X305261Y93832D01*
X304500Y91995D01*
Y90005D01*
X305261Y88168D01*
X306668Y86761D01*
X308505Y86000D01*
X310495D01*
X312332Y86761D01*
X313739Y88168D01*
X314500Y90005D01*
Y91995D01*
X313739Y93832D01*
X312332Y95239D01*
X310495Y96000D01*
D02*
G37*
G36*
X469995Y94100D02*
X468005D01*
X466168Y93339D01*
X464761Y91932D01*
X464000Y90095D01*
Y88105D01*
X464761Y86268D01*
X466168Y84861D01*
X468005Y84100D01*
X469995D01*
X471832Y84861D01*
X473239Y86268D01*
X474000Y88105D01*
Y90095D01*
X473239Y91932D01*
X471832Y93339D01*
X469995Y94100D01*
D02*
G37*
G36*
X395495Y93900D02*
X393505D01*
X391668Y93139D01*
X390261Y91732D01*
X389500Y89895D01*
Y87905D01*
X390261Y86068D01*
X391668Y84661D01*
X393505Y83900D01*
X395495D01*
X397332Y84661D01*
X398739Y86068D01*
X399500Y87905D01*
Y89895D01*
X398739Y91732D01*
X397332Y93139D01*
X395495Y93900D01*
D02*
G37*
G36*
X433064Y82600D02*
X430536D01*
X428094Y81946D01*
X425905Y80682D01*
X424118Y78895D01*
X422854Y76705D01*
X422200Y74264D01*
Y71736D01*
X422854Y69295D01*
X424118Y67105D01*
X425905Y65318D01*
X428094Y64054D01*
X430536Y63400D01*
X433064D01*
X435505Y64054D01*
X437695Y65318D01*
X439482Y67105D01*
X440746Y69295D01*
X441400Y71736D01*
Y74264D01*
X440746Y76705D01*
X439482Y78895D01*
X437695Y80682D01*
X435505Y81946D01*
X433064Y82600D01*
D02*
G37*
G36*
X64883Y23209D02*
X64500D01*
Y13700D01*
X74009D01*
Y14083D01*
X73293Y16756D01*
X71909Y19153D01*
X69953Y21109D01*
X67556Y22493D01*
X64883Y23209D01*
D02*
G37*
G36*
X62500D02*
X62116D01*
X59444Y22493D01*
X57047Y21109D01*
X55091Y19153D01*
X53707Y16756D01*
X52991Y14083D01*
Y13700D01*
X62500D01*
Y23209D01*
D02*
G37*
G36*
X98995Y171300D02*
X97005D01*
X95168Y170539D01*
X94330Y169701D01*
X93500Y169268D01*
X92670Y169701D01*
X91832Y170539D01*
X89995Y171300D01*
X88005D01*
X86168Y170539D01*
X84761Y169132D01*
X84000Y167295D01*
Y165305D01*
X84761Y163468D01*
X86168Y162061D01*
X88005Y161300D01*
X89995D01*
X91832Y162061D01*
X92670Y162899D01*
X93500Y163332D01*
X94330Y162899D01*
X95168Y162061D01*
X97005Y161300D01*
X98995D01*
X100832Y162061D01*
X102239Y163468D01*
X103000Y165306D01*
Y167295D01*
X102239Y169132D01*
X100832Y170539D01*
X98995Y171300D01*
D02*
G37*
G36*
X149495D02*
X147505D01*
X145668Y170539D01*
X144830Y169701D01*
X144000Y169268D01*
X143170Y169701D01*
X142332Y170539D01*
X140495Y171300D01*
X138505D01*
X136668Y170539D01*
X135261Y169132D01*
X134500Y167295D01*
Y165305D01*
X135261Y163468D01*
X136668Y162061D01*
X138505Y161300D01*
X140495D01*
X142332Y162061D01*
X143170Y162899D01*
X144000Y163332D01*
X144830Y162899D01*
X145668Y162061D01*
X147505Y161300D01*
X149495D01*
X151332Y162061D01*
X152739Y163468D01*
X153500Y165306D01*
Y167295D01*
X152739Y169132D01*
X151332Y170539D01*
X149495Y171300D01*
D02*
G37*
G36*
X352994Y152300D02*
X351005D01*
X349168Y151539D01*
X348330Y150701D01*
X347500Y150268D01*
X346670Y150701D01*
X345832Y151539D01*
X343995Y152300D01*
X342005D01*
X340168Y151539D01*
X338761Y150132D01*
X338000Y148295D01*
Y146305D01*
X338761Y144468D01*
X340168Y143061D01*
X342005Y142300D01*
X343995D01*
X345832Y143061D01*
X346670Y143899D01*
X347500Y144332D01*
X348330Y143899D01*
X349168Y143061D01*
X351005Y142300D01*
X352994D01*
X354832Y143061D01*
X356239Y144468D01*
X357000Y146305D01*
Y148295D01*
X356239Y150132D01*
X354832Y151539D01*
X352994Y152300D01*
D02*
G37*
G36*
X301745Y152000D02*
X299755D01*
X297918Y151239D01*
X297080Y150401D01*
X296250Y149969D01*
X295420Y150401D01*
X294582Y151239D01*
X292745Y152000D01*
X290755D01*
X288918Y151239D01*
X287511Y149832D01*
X286750Y147995D01*
Y146005D01*
X287511Y144168D01*
X288918Y142761D01*
X290755Y142000D01*
X292745D01*
X294582Y142761D01*
X295420Y143599D01*
X296250Y144032D01*
X297080Y143599D01*
X297918Y142761D01*
X299755Y142000D01*
X301745D01*
X303582Y142761D01*
X304989Y144168D01*
X305750Y146005D01*
Y147995D01*
X304989Y149832D01*
X303582Y151239D01*
X301745Y152000D01*
D02*
G37*
G36*
X251495Y151800D02*
X249505D01*
X247668Y151039D01*
X246830Y150201D01*
X246000Y149768D01*
X245170Y150201D01*
X244332Y151039D01*
X242495Y151800D01*
X240505D01*
X238668Y151039D01*
X237261Y149632D01*
X236500Y147795D01*
Y145805D01*
X237261Y143968D01*
X238668Y142561D01*
X240505Y141800D01*
X242495D01*
X244332Y142561D01*
X245170Y143399D01*
X246000Y143832D01*
X246830Y143399D01*
X247668Y142561D01*
X249505Y141800D01*
X251495D01*
X253332Y142561D01*
X254739Y143968D01*
X255500Y145806D01*
Y147795D01*
X254739Y149632D01*
X253332Y151039D01*
X251495Y151800D01*
D02*
G37*
G36*
X200494Y151800D02*
X198505D01*
X196668Y151039D01*
X195830Y150201D01*
X195000Y149768D01*
X194170Y150201D01*
X193332Y151039D01*
X191495Y151800D01*
X189505D01*
X187668Y151039D01*
X186261Y149632D01*
X185500Y147795D01*
Y145805D01*
X186261Y143968D01*
X187668Y142561D01*
X189505Y141800D01*
X191495D01*
X193332Y142561D01*
X194170Y143399D01*
X195000Y143832D01*
X195830Y143399D01*
X196668Y142561D01*
X198505Y141800D01*
X200494D01*
X202332Y142561D01*
X203739Y143968D01*
X204500Y145805D01*
Y147795D01*
X203739Y149632D01*
X202332Y151039D01*
X200494Y151800D01*
D02*
G37*
G36*
X395495Y132000D02*
X393505D01*
X391668Y131239D01*
X390261Y129832D01*
X389500Y127995D01*
Y126005D01*
X390261Y124168D01*
X391668Y122761D01*
X393505Y122000D01*
X395495D01*
X397332Y122761D01*
X398739Y124168D01*
X399500Y126005D01*
Y127995D01*
X398739Y129832D01*
X397332Y131239D01*
X395495Y132000D01*
D02*
G37*
%LPD*%
D34*
X63500Y12700D02*
D03*
X88900D02*
D03*
X139700D02*
D03*
X165100D02*
D03*
X215900D02*
D03*
X266700D02*
D03*
X317500D02*
D03*
X292100D02*
D03*
X241300D02*
D03*
X190500D02*
D03*
X114300D02*
D03*
X88900Y215900D02*
D03*
X114300D02*
D03*
X139700D02*
D03*
X165100D02*
D03*
X190500D02*
D03*
X215900D02*
D03*
X241300D02*
D03*
X266700D02*
D03*
X292100D02*
D03*
X317500D02*
D03*
X63500D02*
D03*
D35*
X355600Y203200D02*
D03*
Y25400D02*
D03*
X25400Y203200D02*
D03*
Y25400D02*
D03*
D36*
X431800Y155600D02*
D03*
Y73000D02*
D03*
X309500Y91000D02*
D03*
X415000Y174000D02*
D03*
Y184000D02*
D03*
X394500Y114500D02*
D03*
X444500Y184000D02*
D03*
Y174000D02*
D03*
X156500Y100300D02*
D03*
X354200Y91000D02*
D03*
X282500Y93800D02*
D03*
X232000D02*
D03*
X181000Y93800D02*
D03*
X130500Y93800D02*
D03*
X79500Y93800D02*
D03*
X309000Y128300D02*
D03*
Y119300D02*
D03*
X98000Y166300D02*
D03*
X148500D02*
D03*
X250500Y146800D02*
D03*
X300750Y147000D02*
D03*
X469000Y114500D02*
D03*
X352000Y147300D02*
D03*
X207500Y128300D02*
D03*
X343000Y113800D02*
D03*
X258000Y119300D02*
D03*
X207500Y119300D02*
D03*
X258000Y109300D02*
D03*
X207500Y109300D02*
D03*
Y100300D02*
D03*
X199500Y146800D02*
D03*
X156500Y128300D02*
D03*
Y119300D02*
D03*
X106000D02*
D03*
X55000Y119300D02*
D03*
X156500Y109300D02*
D03*
X106000Y109300D02*
D03*
X55000Y109300D02*
D03*
X232000Y135300D02*
D03*
X241500Y146800D02*
D03*
X291750Y147000D02*
D03*
X469000Y127200D02*
D03*
Y89100D02*
D03*
Y101800D02*
D03*
X394500Y127000D02*
D03*
Y101600D02*
D03*
Y88900D02*
D03*
X258000Y128300D02*
D03*
X190500Y146800D02*
D03*
X258000Y100300D02*
D03*
X343000Y147300D02*
D03*
X130500Y135300D02*
D03*
X55000Y128300D02*
D03*
X106000Y128300D02*
D03*
X139500Y166300D02*
D03*
X89000Y166300D02*
D03*
X106000Y100300D02*
D03*
X79500Y135300D02*
D03*
X55000Y100300D02*
D03*
M02*
