G04*
G04 #@! TF.GenerationSoftware,Altium Limited,Altium Designer,25.9.0 (10)*
G04*
G04 Layer_Color=794757*
%FSLAX44Y44*%
%MOMM*%
G71*
G04*
G04 #@! TF.SameCoordinates,A8D4251A-1738-4EAF-8D38-4F3D33BA549E*
G04*
G04*
G04 #@! TF.FilePolarity,Negative*
G04*
G01*
G75*
G04:AMPARAMS|DCode=19|XSize=0.65mm|YSize=0.7mm|CornerRadius=0.1875mm|HoleSize=0mm|Usage=FLASHONLY|Rotation=180.000|XOffset=0mm|YOffset=0mm|HoleType=Round|Shape=RoundedRectangle|*
%AMROUNDEDRECTD19*
21,1,0.6500,0.3250,0,0,180.0*
21,1,0.2750,0.7000,0,0,180.0*
1,1,0.3750,-0.1375,0.1625*
1,1,0.3750,0.1375,0.1625*
1,1,0.3750,0.1375,-0.1625*
1,1,0.3750,-0.1375,-0.1625*
%
%ADD19ROUNDEDRECTD19*%
G04:AMPARAMS|DCode=20|XSize=0.7mm|YSize=0.65mm|CornerRadius=0.1875mm|HoleSize=0mm|Usage=FLASHONLY|Rotation=180.000|XOffset=0mm|YOffset=0mm|HoleType=Round|Shape=RoundedRectangle|*
%AMROUNDEDRECTD20*
21,1,0.7000,0.2750,0,0,180.0*
21,1,0.3250,0.6500,0,0,180.0*
1,1,0.3750,-0.1625,0.1375*
1,1,0.3750,0.1625,0.1375*
1,1,0.3750,0.1625,-0.1375*
1,1,0.3750,-0.1625,-0.1375*
%
%ADD20ROUNDEDRECTD20*%
G04:AMPARAMS|DCode=21|XSize=1mm|YSize=0.5mm|CornerRadius=0.15mm|HoleSize=0mm|Usage=FLASHONLY|Rotation=90.000|XOffset=0mm|YOffset=0mm|HoleType=Round|Shape=RoundedRectangle|*
%AMROUNDEDRECTD21*
21,1,1.0000,0.2000,0,0,90.0*
21,1,0.7000,0.5000,0,0,90.0*
1,1,0.3000,0.1000,0.3500*
1,1,0.3000,0.1000,-0.3500*
1,1,0.3000,-0.1000,-0.3500*
1,1,0.3000,-0.1000,0.3500*
%
%ADD21ROUNDEDRECTD21*%
G04:AMPARAMS|DCode=22|XSize=0.65mm|YSize=0.7mm|CornerRadius=0.1875mm|HoleSize=0mm|Usage=FLASHONLY|Rotation=90.000|XOffset=0mm|YOffset=0mm|HoleType=Round|Shape=RoundedRectangle|*
%AMROUNDEDRECTD22*
21,1,0.6500,0.3250,0,0,90.0*
21,1,0.2750,0.7000,0,0,90.0*
1,1,0.3750,0.1625,0.1375*
1,1,0.3750,0.1625,-0.1375*
1,1,0.3750,-0.1625,-0.1375*
1,1,0.3750,-0.1625,0.1375*
%
%ADD22ROUNDEDRECTD22*%
G04:AMPARAMS|DCode=23|XSize=1.05mm|YSize=0.5mm|CornerRadius=0.15mm|HoleSize=0mm|Usage=FLASHONLY|Rotation=90.000|XOffset=0mm|YOffset=0mm|HoleType=Round|Shape=RoundedRectangle|*
%AMROUNDEDRECTD23*
21,1,1.0500,0.2000,0,0,90.0*
21,1,0.7500,0.5000,0,0,90.0*
1,1,0.3000,0.1000,0.3750*
1,1,0.3000,0.1000,-0.3750*
1,1,0.3000,-0.1000,-0.3750*
1,1,0.3000,-0.1000,0.3750*
%
%ADD23ROUNDEDRECTD23*%
G04:AMPARAMS|DCode=24|XSize=0.84mm|YSize=3.02mm|CornerRadius=0.235mm|HoleSize=0mm|Usage=FLASHONLY|Rotation=90.000|XOffset=0mm|YOffset=0mm|HoleType=Round|Shape=RoundedRectangle|*
%AMROUNDEDRECTD24*
21,1,0.8400,2.5500,0,0,90.0*
21,1,0.3700,3.0200,0,0,90.0*
1,1,0.4700,1.2750,0.1850*
1,1,0.4700,1.2750,-0.1850*
1,1,0.4700,-1.2750,-0.1850*
1,1,0.4700,-1.2750,0.1850*
%
%ADD24ROUNDEDRECTD24*%
%ADD25C,1.8018*%
%ADD26C,3.6560*%
%ADD27C,1.5200*%
%ADD28C,0.6000*%
D19*
X89250Y157800D02*
D03*
X97750D02*
D03*
X190500Y91000D02*
D03*
X199500D02*
D03*
X190750Y138300D02*
D03*
X199250D02*
D03*
X301000Y91000D02*
D03*
X292000D02*
D03*
X427750Y174000D02*
D03*
X436250D02*
D03*
X436500Y184000D02*
D03*
X427500D02*
D03*
X351750Y138800D02*
D03*
X300500Y138500D02*
D03*
X250250Y138300D02*
D03*
X148250Y157800D02*
D03*
X292000Y138500D02*
D03*
X343250Y138800D02*
D03*
X241750Y138300D02*
D03*
X336700Y91000D02*
D03*
X345700D02*
D03*
X139750Y157800D02*
D03*
D20*
X216000Y100300D02*
D03*
Y109300D02*
D03*
X318000Y119300D02*
D03*
X266500Y119300D02*
D03*
Y109300D02*
D03*
X216000Y119300D02*
D03*
X165000Y119300D02*
D03*
X114500Y119300D02*
D03*
X63500Y119300D02*
D03*
X165000Y109300D02*
D03*
X114500Y109300D02*
D03*
X63500Y109300D02*
D03*
X266500Y128300D02*
D03*
Y100300D02*
D03*
X318000Y128300D02*
D03*
X165000Y100300D02*
D03*
Y128300D02*
D03*
X216000Y128300D02*
D03*
X63500Y100300D02*
D03*
Y128300D02*
D03*
X114500Y100300D02*
D03*
Y128300D02*
D03*
D21*
X228500Y103300D02*
D03*
X241500D02*
D03*
Y125300D02*
D03*
X235000D02*
D03*
X228500D02*
D03*
X235000Y103300D02*
D03*
X285500Y125300D02*
D03*
Y103300D02*
D03*
X184000Y125300D02*
D03*
Y103300D02*
D03*
X133500Y103300D02*
D03*
X82500Y103300D02*
D03*
X279000Y125300D02*
D03*
X292000D02*
D03*
Y103300D02*
D03*
X279000D02*
D03*
X177500Y125300D02*
D03*
X190500D02*
D03*
Y103300D02*
D03*
X177500D02*
D03*
X76000Y125300D02*
D03*
X82500D02*
D03*
X89000D02*
D03*
Y103300D02*
D03*
X76000D02*
D03*
X127000Y125300D02*
D03*
X133500D02*
D03*
X140000D02*
D03*
Y103300D02*
D03*
X127000D02*
D03*
D22*
X190500Y72500D02*
D03*
Y81500D02*
D03*
X89000Y137300D02*
D03*
Y146300D02*
D03*
X89000Y82300D02*
D03*
Y91300D02*
D03*
X140000Y146300D02*
D03*
Y137300D02*
D03*
Y82300D02*
D03*
Y91300D02*
D03*
D23*
X330000Y103300D02*
D03*
X336500D02*
D03*
X343000Y125300D02*
D03*
X330000D02*
D03*
X343000Y103300D02*
D03*
D24*
X448950Y114300D02*
D03*
X414650Y127000D02*
D03*
X448950Y101600D02*
D03*
X414650D02*
D03*
Y88900D02*
D03*
X448950D02*
D03*
Y127000D02*
D03*
X414650Y139700D02*
D03*
X448950D02*
D03*
X414650Y114300D02*
D03*
D25*
X63500Y12700D02*
D03*
X88900D02*
D03*
X139700D02*
D03*
X165100D02*
D03*
X215900D02*
D03*
X266700D02*
D03*
X317500D02*
D03*
X292100D02*
D03*
X241300D02*
D03*
X190500D02*
D03*
X114300D02*
D03*
X88900Y215900D02*
D03*
X114300D02*
D03*
X139700D02*
D03*
X165100D02*
D03*
X190500D02*
D03*
X215900D02*
D03*
X241300D02*
D03*
X266700D02*
D03*
X292100D02*
D03*
X317500D02*
D03*
X63500D02*
D03*
D26*
X355600Y203200D02*
D03*
Y25400D02*
D03*
X25400Y203200D02*
D03*
Y25400D02*
D03*
D27*
X431800Y155600D02*
D03*
Y73000D02*
D03*
D28*
X309500Y91000D02*
D03*
X415000Y174000D02*
D03*
Y184000D02*
D03*
X394500Y114500D02*
D03*
X444500Y184000D02*
D03*
Y174000D02*
D03*
X156500Y100300D02*
D03*
X354200Y91000D02*
D03*
X282500Y93800D02*
D03*
X232000D02*
D03*
X181000Y93800D02*
D03*
X130500Y93800D02*
D03*
X79500Y93800D02*
D03*
X309000Y128300D02*
D03*
Y119300D02*
D03*
X98000Y166300D02*
D03*
X148500D02*
D03*
X250500Y146800D02*
D03*
X300750Y147000D02*
D03*
X469000Y114500D02*
D03*
X352000Y147300D02*
D03*
X207500Y128300D02*
D03*
X343000Y113800D02*
D03*
X258000Y119300D02*
D03*
X207500Y119300D02*
D03*
X258000Y109300D02*
D03*
X207500Y109300D02*
D03*
Y100300D02*
D03*
X199500Y146800D02*
D03*
X156500Y128300D02*
D03*
Y119300D02*
D03*
X106000D02*
D03*
X55000Y119300D02*
D03*
X156500Y109300D02*
D03*
X106000Y109300D02*
D03*
X55000Y109300D02*
D03*
X232000Y135300D02*
D03*
X241500Y146800D02*
D03*
X291750Y147000D02*
D03*
X469000Y127200D02*
D03*
Y89100D02*
D03*
Y101800D02*
D03*
X394500Y127000D02*
D03*
Y101600D02*
D03*
Y88900D02*
D03*
X258000Y128300D02*
D03*
X190500Y146800D02*
D03*
X258000Y100300D02*
D03*
X343000Y147300D02*
D03*
X130500Y135300D02*
D03*
X55000Y128300D02*
D03*
X106000Y128300D02*
D03*
X139500Y166300D02*
D03*
X89000Y166300D02*
D03*
X106000Y100300D02*
D03*
X79500Y135300D02*
D03*
X55000Y100300D02*
D03*
M02*
