G04*
G04 #@! TF.GenerationSoftware,Altium Limited,Altium Designer,25.9.0 (10)*
G04*
G04 Layer_Physical_Order=2*
G04 Layer_Color=36540*
%FSLAX44Y44*%
%MOMM*%
G71*
G04*
G04 #@! TF.SameCoordinates,A8D4251A-1738-4EAF-8D38-4F3D33BA549E*
G04*
G04*
G04 #@! TF.FilePolarity,Positive*
G04*
G01*
G75*
%ADD34C,1.7018*%
%ADD35C,3.5560*%
%ADD36C,0.5000*%
G36*
X54615Y223502D02*
X54763Y223145D01*
X55021Y222232D01*
X53707Y219956D01*
X52991Y217283D01*
Y216900D01*
X74009D01*
Y217283D01*
X73293Y219956D01*
X71979Y222232D01*
X72237Y223145D01*
X72385Y223502D01*
X79261D01*
X79844Y222232D01*
X78641Y220149D01*
X77891Y217349D01*
Y214451D01*
X78641Y211651D01*
X80091Y209140D01*
X82140Y207091D01*
X84651Y205641D01*
X87451Y204891D01*
X90349D01*
X93149Y205641D01*
X95660Y207091D01*
X97709Y209140D01*
X99159Y211651D01*
X99909Y214451D01*
Y217349D01*
X99159Y220149D01*
X97956Y222232D01*
X98539Y223502D01*
X104661D01*
X105244Y222232D01*
X104041Y220149D01*
X103291Y217349D01*
Y214451D01*
X104041Y211651D01*
X105491Y209140D01*
X107540Y207091D01*
X110051Y205641D01*
X112851Y204891D01*
X115749D01*
X118549Y205641D01*
X121060Y207091D01*
X123109Y209140D01*
X124559Y211651D01*
X125309Y214451D01*
Y217349D01*
X124559Y220149D01*
X123356Y222232D01*
X123939Y223502D01*
X130061D01*
X130644Y222232D01*
X129441Y220149D01*
X128691Y217349D01*
Y214451D01*
X129441Y211651D01*
X130891Y209140D01*
X132940Y207091D01*
X135451Y205641D01*
X138251Y204891D01*
X141149D01*
X143949Y205641D01*
X146460Y207091D01*
X148509Y209140D01*
X149959Y211651D01*
X150709Y214451D01*
Y217349D01*
X149959Y220149D01*
X148756Y222232D01*
X149339Y223502D01*
X155461D01*
X156044Y222232D01*
X154841Y220149D01*
X154091Y217349D01*
Y214451D01*
X154841Y211651D01*
X156291Y209140D01*
X158340Y207091D01*
X160851Y205641D01*
X163651Y204891D01*
X166549D01*
X169349Y205641D01*
X171860Y207091D01*
X173909Y209140D01*
X175359Y211651D01*
X176109Y214451D01*
Y217349D01*
X175359Y220149D01*
X174156Y222232D01*
X174739Y223502D01*
X180861D01*
X181444Y222232D01*
X180241Y220149D01*
X179491Y217349D01*
Y214451D01*
X180241Y211651D01*
X181691Y209140D01*
X183740Y207091D01*
X186251Y205641D01*
X189051Y204891D01*
X191949D01*
X194749Y205641D01*
X197260Y207091D01*
X199309Y209140D01*
X200759Y211651D01*
X201509Y214451D01*
Y217349D01*
X200759Y220149D01*
X199556Y222232D01*
X200139Y223502D01*
X206261D01*
X206844Y222232D01*
X205641Y220149D01*
X204891Y217349D01*
Y214451D01*
X205641Y211651D01*
X207091Y209140D01*
X209140Y207091D01*
X211651Y205641D01*
X214451Y204891D01*
X217349D01*
X220149Y205641D01*
X222660Y207091D01*
X224709Y209140D01*
X226159Y211651D01*
X226909Y214451D01*
Y217349D01*
X226159Y220149D01*
X224956Y222232D01*
X225539Y223502D01*
X231661D01*
X232244Y222232D01*
X231041Y220149D01*
X230291Y217349D01*
Y214451D01*
X231041Y211651D01*
X232491Y209140D01*
X234540Y207091D01*
X237051Y205641D01*
X239851Y204891D01*
X242749D01*
X245549Y205641D01*
X248060Y207091D01*
X250109Y209140D01*
X251559Y211651D01*
X252309Y214451D01*
Y217349D01*
X251559Y220149D01*
X250356Y222232D01*
X250939Y223502D01*
X257061D01*
X257644Y222232D01*
X256441Y220149D01*
X255691Y217349D01*
Y214451D01*
X256441Y211651D01*
X257891Y209140D01*
X259940Y207091D01*
X262451Y205641D01*
X265251Y204891D01*
X268149D01*
X270949Y205641D01*
X273460Y207091D01*
X275509Y209140D01*
X276959Y211651D01*
X277709Y214451D01*
Y217349D01*
X276959Y220149D01*
X275756Y222232D01*
X276339Y223502D01*
X282461D01*
X283044Y222232D01*
X281841Y220149D01*
X281091Y217349D01*
Y214451D01*
X281841Y211651D01*
X283291Y209140D01*
X285340Y207091D01*
X287851Y205641D01*
X290651Y204891D01*
X293549D01*
X296349Y205641D01*
X298860Y207091D01*
X300909Y209140D01*
X302359Y211651D01*
X303109Y214451D01*
Y217349D01*
X302359Y220149D01*
X301156Y222232D01*
X301739Y223502D01*
X307861D01*
X308444Y222232D01*
X307241Y220149D01*
X306491Y217349D01*
Y214451D01*
X307241Y211651D01*
X308691Y209140D01*
X310740Y207091D01*
X313251Y205641D01*
X316051Y204891D01*
X318949D01*
X321749Y205641D01*
X324260Y207091D01*
X326309Y209140D01*
X327759Y211651D01*
X328509Y214451D01*
Y217349D01*
X327759Y220149D01*
X326556Y222232D01*
X327139Y223502D01*
X349767Y223502D01*
X349892Y222232D01*
X349830Y222220D01*
X346231Y220729D01*
X342991Y218564D01*
X340236Y215809D01*
X338071Y212569D01*
X336580Y208970D01*
X335820Y205148D01*
Y204200D01*
X355600D01*
X375380D01*
Y205148D01*
X374620Y208970D01*
X373129Y212569D01*
X370964Y215809D01*
X368209Y218564D01*
X364969Y220729D01*
X361370Y222220D01*
X361308Y222232D01*
X361433Y223502D01*
X457200D01*
X459200Y223502D01*
X463122Y222722D01*
X466817Y221192D01*
X470142Y218970D01*
X472970Y216142D01*
X475191Y212817D01*
X476722Y209122D01*
X477502Y205200D01*
X477502Y203200D01*
X477502Y25400D01*
Y23400D01*
X476722Y19478D01*
X475191Y15783D01*
X472970Y12458D01*
X470142Y9630D01*
X466817Y7408D01*
X463122Y5878D01*
X459199Y5098D01*
X457200Y5098D01*
X361433D01*
X361308Y6368D01*
X361370Y6380D01*
X364969Y7871D01*
X368209Y10036D01*
X370964Y12791D01*
X373129Y16031D01*
X374620Y19630D01*
X375380Y23452D01*
Y24400D01*
X355600D01*
X335820D01*
Y23452D01*
X336580Y19630D01*
X338071Y16031D01*
X340236Y12791D01*
X342991Y10036D01*
X346231Y7871D01*
X349830Y6380D01*
X349892Y6368D01*
X349767Y5098D01*
X327139D01*
X326556Y6368D01*
X327759Y8451D01*
X328509Y11251D01*
Y14149D01*
X327759Y16949D01*
X326309Y19460D01*
X324260Y21509D01*
X321749Y22959D01*
X318949Y23709D01*
X316051D01*
X313251Y22959D01*
X310740Y21509D01*
X308691Y19460D01*
X307241Y16949D01*
X306491Y14149D01*
Y11251D01*
X307241Y8451D01*
X308444Y6368D01*
X307861Y5098D01*
X301739D01*
X301156Y6368D01*
X302359Y8451D01*
X303109Y11251D01*
Y14149D01*
X302359Y16949D01*
X300909Y19460D01*
X298860Y21509D01*
X296349Y22959D01*
X293549Y23709D01*
X290651D01*
X287851Y22959D01*
X285340Y21509D01*
X283291Y19460D01*
X281841Y16949D01*
X281091Y14149D01*
Y11251D01*
X281841Y8451D01*
X283044Y6368D01*
X282461Y5098D01*
X276339D01*
X275756Y6368D01*
X276959Y8451D01*
X277709Y11251D01*
Y14149D01*
X276959Y16949D01*
X275509Y19460D01*
X273460Y21509D01*
X270949Y22959D01*
X268149Y23709D01*
X265251D01*
X262451Y22959D01*
X259940Y21509D01*
X257891Y19460D01*
X256441Y16949D01*
X255691Y14149D01*
Y11251D01*
X256441Y8451D01*
X257644Y6368D01*
X257061Y5098D01*
X250939D01*
X250356Y6368D01*
X251559Y8451D01*
X252309Y11251D01*
Y14149D01*
X251559Y16949D01*
X250109Y19460D01*
X248060Y21509D01*
X245549Y22959D01*
X242749Y23709D01*
X239851D01*
X237051Y22959D01*
X234540Y21509D01*
X232491Y19460D01*
X231041Y16949D01*
X230291Y14149D01*
Y11251D01*
X231041Y8451D01*
X232244Y6368D01*
X231661Y5098D01*
X225539D01*
X224956Y6368D01*
X226159Y8451D01*
X226909Y11251D01*
Y14149D01*
X226159Y16949D01*
X224709Y19460D01*
X222660Y21509D01*
X220149Y22959D01*
X217349Y23709D01*
X214451D01*
X211651Y22959D01*
X209140Y21509D01*
X207091Y19460D01*
X205641Y16949D01*
X204891Y14149D01*
Y11251D01*
X205641Y8451D01*
X206844Y6368D01*
X206261Y5098D01*
X200139D01*
X199556Y6368D01*
X200759Y8451D01*
X201509Y11251D01*
Y14149D01*
X200759Y16949D01*
X199309Y19460D01*
X197260Y21509D01*
X194749Y22959D01*
X191949Y23709D01*
X189051D01*
X186251Y22959D01*
X183740Y21509D01*
X181691Y19460D01*
X180241Y16949D01*
X179491Y14149D01*
Y11251D01*
X180241Y8451D01*
X181444Y6368D01*
X180861Y5098D01*
X174739D01*
X174156Y6368D01*
X175359Y8451D01*
X176109Y11251D01*
Y14149D01*
X175359Y16949D01*
X173909Y19460D01*
X171860Y21509D01*
X169349Y22959D01*
X166549Y23709D01*
X163651D01*
X160851Y22959D01*
X158340Y21509D01*
X156291Y19460D01*
X154841Y16949D01*
X154091Y14149D01*
Y11251D01*
X154841Y8451D01*
X156044Y6368D01*
X155461Y5098D01*
X149339D01*
X148756Y6368D01*
X149959Y8451D01*
X150709Y11251D01*
Y14149D01*
X149959Y16949D01*
X148509Y19460D01*
X146460Y21509D01*
X143949Y22959D01*
X141149Y23709D01*
X138251D01*
X135451Y22959D01*
X132940Y21509D01*
X130891Y19460D01*
X129441Y16949D01*
X128691Y14149D01*
Y11251D01*
X129441Y8451D01*
X130644Y6368D01*
X130061Y5098D01*
X123185D01*
X123037Y5455D01*
X122779Y6368D01*
X124093Y8644D01*
X124809Y11316D01*
Y11700D01*
X103791D01*
Y11316D01*
X104507Y8644D01*
X105821Y6368D01*
X105563Y5455D01*
X105415Y5098D01*
X98539D01*
X97956Y6368D01*
X99159Y8451D01*
X99909Y11251D01*
Y14149D01*
X99159Y16949D01*
X97709Y19460D01*
X95660Y21509D01*
X93149Y22959D01*
X90349Y23709D01*
X87451D01*
X84651Y22959D01*
X82140Y21509D01*
X80091Y19460D01*
X78641Y16949D01*
X77891Y14149D01*
Y11251D01*
X78641Y8451D01*
X79844Y6368D01*
X79261Y5098D01*
X73139D01*
X72556Y6368D01*
X73759Y8451D01*
X74509Y11251D01*
Y14149D01*
X73759Y16949D01*
X72309Y19460D01*
X70260Y21509D01*
X67749Y22959D01*
X64949Y23709D01*
X62051D01*
X59251Y22959D01*
X56740Y21509D01*
X54691Y19460D01*
X53241Y16949D01*
X52491Y14149D01*
Y11251D01*
X53241Y8451D01*
X54444Y6368D01*
X53861Y5098D01*
X31233D01*
X31108Y6368D01*
X31170Y6380D01*
X34769Y7871D01*
X38009Y10036D01*
X40764Y12791D01*
X42929Y16031D01*
X44420Y19630D01*
X45180Y23452D01*
Y24400D01*
X25400D01*
Y25400D01*
X24400D01*
Y45180D01*
X23452D01*
X19630Y44420D01*
X16031Y42929D01*
X12791Y40764D01*
X10036Y38009D01*
X7871Y34769D01*
X6380Y31170D01*
X6368Y31108D01*
X5098Y31233D01*
Y197367D01*
X6368Y197492D01*
X6380Y197430D01*
X7871Y193831D01*
X10036Y190591D01*
X12791Y187836D01*
X16031Y185671D01*
X19630Y184180D01*
X23452Y183420D01*
X24400D01*
Y203200D01*
X25400D01*
Y204200D01*
X45180D01*
Y205148D01*
X44420Y208970D01*
X42929Y212569D01*
X40764Y215809D01*
X38009Y218564D01*
X34769Y220729D01*
X31170Y222220D01*
X31108Y222232D01*
X31233Y223502D01*
X54615D01*
D02*
G37*
%LPC*%
G36*
X74009Y214900D02*
X64500D01*
Y205391D01*
X64883D01*
X67556Y206107D01*
X69953Y207491D01*
X71909Y209447D01*
X73293Y211844D01*
X74009Y214517D01*
Y214900D01*
D02*
G37*
G36*
X62500D02*
X52991D01*
Y214517D01*
X53707Y211844D01*
X55091Y209447D01*
X57047Y207491D01*
X59444Y206107D01*
X62116Y205391D01*
X62500D01*
Y214900D01*
D02*
G37*
G36*
X375380Y202200D02*
X356600D01*
Y183420D01*
X357548D01*
X361370Y184180D01*
X364969Y185671D01*
X368209Y187836D01*
X370964Y190591D01*
X373129Y193831D01*
X374620Y197430D01*
X375380Y201252D01*
Y202200D01*
D02*
G37*
G36*
X354600D02*
X335820D01*
Y201252D01*
X336580Y197430D01*
X338071Y193831D01*
X340236Y190591D01*
X342991Y187836D01*
X346231Y185671D01*
X349830Y184180D01*
X353652Y183420D01*
X354600D01*
Y202200D01*
D02*
G37*
G36*
X45180D02*
X26400D01*
Y183420D01*
X27348D01*
X31170Y184180D01*
X34769Y185671D01*
X38009Y187836D01*
X40764Y190591D01*
X42929Y193831D01*
X44420Y197430D01*
X45180Y201252D01*
Y202200D01*
D02*
G37*
G36*
X415995Y189000D02*
X414005D01*
X412168Y188239D01*
X410761Y186832D01*
X410000Y184995D01*
Y183005D01*
X410761Y181168D01*
X412168Y179761D01*
X412346Y179687D01*
Y178313D01*
X412168Y178239D01*
X410761Y176832D01*
X410000Y174995D01*
Y173005D01*
X410761Y171168D01*
X412168Y169761D01*
X414005Y169000D01*
X415995D01*
X417832Y169761D01*
X419239Y171168D01*
X420000Y173005D01*
Y174995D01*
X419239Y176832D01*
X417832Y178239D01*
X417654Y178313D01*
Y179687D01*
X417832Y179761D01*
X419239Y181168D01*
X420000Y183005D01*
Y184995D01*
X419239Y186832D01*
X417832Y188239D01*
X415995Y189000D01*
D02*
G37*
G36*
X89995Y171300D02*
X88005D01*
X86168Y170539D01*
X84761Y169132D01*
X84000Y167295D01*
Y165305D01*
X84761Y163468D01*
X86168Y162061D01*
X88005Y161300D01*
X89995D01*
X91832Y162061D01*
X93239Y163468D01*
X94000Y165305D01*
Y167295D01*
X93239Y169132D01*
X91832Y170539D01*
X89995Y171300D01*
D02*
G37*
G36*
X140495Y171300D02*
X138505D01*
X136668Y170539D01*
X135261Y169132D01*
X134500Y167295D01*
Y165305D01*
X135261Y163468D01*
X136668Y162061D01*
X138505Y161300D01*
X140495D01*
X142332Y162061D01*
X143739Y163468D01*
X144500Y165305D01*
Y167295D01*
X143739Y169132D01*
X142332Y170539D01*
X140495Y171300D01*
D02*
G37*
G36*
X433064Y165200D02*
X430536D01*
X428094Y164546D01*
X425905Y163282D01*
X424118Y161495D01*
X422854Y159305D01*
X422200Y156864D01*
Y154336D01*
X422854Y151895D01*
X424118Y149705D01*
X425905Y147918D01*
X428094Y146654D01*
X430536Y146000D01*
X433064D01*
X435505Y146654D01*
X437695Y147918D01*
X439482Y149705D01*
X440746Y151895D01*
X441400Y154336D01*
Y156864D01*
X440746Y159305D01*
X439482Y161495D01*
X437695Y163282D01*
X435505Y164546D01*
X433064Y165200D01*
D02*
G37*
G36*
X343995Y152300D02*
X342005D01*
X340168Y151539D01*
X338761Y150132D01*
X338000Y148295D01*
Y146305D01*
X338761Y144468D01*
X340168Y143061D01*
X342005Y142300D01*
X343995D01*
X345832Y143061D01*
X347239Y144468D01*
X348000Y146305D01*
Y148295D01*
X347239Y150132D01*
X345832Y151539D01*
X343995Y152300D01*
D02*
G37*
G36*
X292745Y152000D02*
X290755D01*
X288918Y151239D01*
X287511Y149832D01*
X286750Y147995D01*
Y146005D01*
X287511Y144168D01*
X288918Y142761D01*
X290755Y142000D01*
X292745D01*
X294582Y142761D01*
X295989Y144168D01*
X296750Y146005D01*
Y147995D01*
X295989Y149832D01*
X294582Y151239D01*
X292745Y152000D01*
D02*
G37*
G36*
X191495Y151800D02*
X189505D01*
X187668Y151039D01*
X186261Y149632D01*
X185500Y147795D01*
Y145805D01*
X186261Y143968D01*
X187668Y142561D01*
X189505Y141800D01*
X191495D01*
X193332Y142561D01*
X194739Y143968D01*
X195500Y145805D01*
Y147795D01*
X194739Y149632D01*
X193332Y151039D01*
X191495Y151800D01*
D02*
G37*
G36*
X242495Y151800D02*
X240505D01*
X238668Y151039D01*
X237261Y149632D01*
X236500Y147795D01*
Y145805D01*
X237261Y143968D01*
X238668Y142561D01*
X240505Y141800D01*
X242495D01*
X244332Y142561D01*
X245739Y143968D01*
X246500Y145805D01*
Y147795D01*
X245739Y149632D01*
X244332Y151039D01*
X242495Y151800D01*
D02*
G37*
G36*
X80495Y140300D02*
X78505D01*
X76668Y139539D01*
X75261Y138132D01*
X74500Y136295D01*
Y134305D01*
X75261Y132468D01*
X76668Y131061D01*
X78505Y130300D01*
X80495D01*
X82332Y131061D01*
X83739Y132468D01*
X84500Y134305D01*
Y136295D01*
X83739Y138132D01*
X82332Y139539D01*
X80495Y140300D01*
D02*
G37*
G36*
X232995Y140300D02*
X231005D01*
X229168Y139539D01*
X227761Y138132D01*
X227000Y136294D01*
Y134305D01*
X227761Y132468D01*
X229168Y131061D01*
X231005Y130300D01*
X232995D01*
X234832Y131061D01*
X236239Y132468D01*
X237000Y134305D01*
Y136294D01*
X236239Y138132D01*
X234832Y139539D01*
X232995Y140300D01*
D02*
G37*
G36*
X131495D02*
X129505D01*
X127668Y139539D01*
X126261Y138132D01*
X125500Y136294D01*
Y134305D01*
X126261Y132468D01*
X127668Y131061D01*
X129505Y130300D01*
X131495D01*
X133332Y131061D01*
X134739Y132468D01*
X135500Y134305D01*
Y136294D01*
X134739Y138132D01*
X133332Y139539D01*
X131495Y140300D01*
D02*
G37*
G36*
X309995Y133300D02*
X308006D01*
X306168Y132539D01*
X304761Y131132D01*
X304000Y129295D01*
Y127305D01*
X304761Y125468D01*
X306168Y124061D01*
X308006Y123300D01*
X309995D01*
X311832Y124061D01*
X313239Y125468D01*
X314000Y127305D01*
Y129295D01*
X313239Y131132D01*
X311832Y132539D01*
X309995Y133300D01*
D02*
G37*
G36*
X258995Y133300D02*
X257005D01*
X255168Y132539D01*
X253761Y131132D01*
X253000Y129295D01*
Y127305D01*
X253761Y125468D01*
X255168Y124061D01*
X257005Y123300D01*
X258995D01*
X260832Y124061D01*
X262239Y125468D01*
X263000Y127305D01*
Y129295D01*
X262239Y131132D01*
X260832Y132539D01*
X258995Y133300D01*
D02*
G37*
G36*
X55995D02*
X54005D01*
X52168Y132539D01*
X50761Y131132D01*
X50000Y129295D01*
Y127305D01*
X50761Y125468D01*
X52168Y124061D01*
X54005Y123300D01*
X55995D01*
X57832Y124061D01*
X59239Y125468D01*
X60000Y127305D01*
Y129295D01*
X59239Y131132D01*
X57832Y132539D01*
X55995Y133300D01*
D02*
G37*
G36*
X208495Y133300D02*
X206505D01*
X204668Y132539D01*
X203261Y131132D01*
X202500Y129295D01*
Y127305D01*
X203261Y125468D01*
X204668Y124061D01*
X206505Y123300D01*
X208495D01*
X210332Y124061D01*
X211739Y125468D01*
X212500Y127305D01*
Y129295D01*
X211739Y131132D01*
X210332Y132539D01*
X208495Y133300D01*
D02*
G37*
G36*
X157494D02*
X155505D01*
X153668Y132539D01*
X152261Y131132D01*
X151500Y129295D01*
Y127305D01*
X152261Y125468D01*
X153668Y124061D01*
X155505Y123300D01*
X157494D01*
X159332Y124061D01*
X160739Y125468D01*
X161500Y127305D01*
Y129295D01*
X160739Y131132D01*
X159332Y132539D01*
X157494Y133300D01*
D02*
G37*
G36*
X106994D02*
X105005D01*
X103168Y132539D01*
X101761Y131132D01*
X101000Y129295D01*
Y127305D01*
X101761Y125468D01*
X103168Y124061D01*
X105005Y123300D01*
X106994D01*
X108832Y124061D01*
X110239Y125468D01*
X111000Y127305D01*
Y129295D01*
X110239Y131132D01*
X108832Y132539D01*
X106994Y133300D01*
D02*
G37*
G36*
X469995Y132200D02*
X468005D01*
X466168Y131439D01*
X464761Y130032D01*
X464000Y128195D01*
Y126205D01*
X464761Y124368D01*
X466168Y122961D01*
X468005Y122200D01*
X469995D01*
X471832Y122961D01*
X473239Y124368D01*
X474000Y126205D01*
Y128195D01*
X473239Y130032D01*
X471832Y131439D01*
X469995Y132200D01*
D02*
G37*
G36*
X395495Y132000D02*
X393505D01*
X391668Y131239D01*
X390261Y129832D01*
X389500Y127995D01*
Y126005D01*
X390261Y124168D01*
X391668Y122761D01*
X393505Y122000D01*
X395495D01*
X397332Y122761D01*
X398739Y124168D01*
X399500Y126005D01*
Y127995D01*
X398739Y129832D01*
X397332Y131239D01*
X395495Y132000D01*
D02*
G37*
G36*
Y119500D02*
X393505D01*
X391668Y118739D01*
X390261Y117332D01*
X389500Y115495D01*
Y113505D01*
X390261Y111668D01*
X391668Y110261D01*
X393505Y109500D01*
X395495D01*
X397332Y110261D01*
X398739Y111668D01*
X399500Y113505D01*
Y115495D01*
X398739Y117332D01*
X397332Y118739D01*
X395495Y119500D01*
D02*
G37*
G36*
X469995Y106800D02*
X468005D01*
X466168Y106039D01*
X464761Y104632D01*
X464000Y102795D01*
Y100805D01*
X464761Y98968D01*
X466168Y97561D01*
X468005Y96800D01*
X469995D01*
X471832Y97561D01*
X473239Y98968D01*
X474000Y100805D01*
Y102795D01*
X473239Y104632D01*
X471832Y106039D01*
X469995Y106800D01*
D02*
G37*
G36*
X395495Y106600D02*
X393505D01*
X391668Y105839D01*
X390261Y104432D01*
X389500Y102595D01*
Y100605D01*
X390261Y98768D01*
X391668Y97361D01*
X393505Y96600D01*
X395495D01*
X397332Y97361D01*
X398739Y98768D01*
X399500Y100605D01*
Y102595D01*
X398739Y104432D01*
X397332Y105839D01*
X395495Y106600D01*
D02*
G37*
G36*
X258995Y105300D02*
X257005D01*
X255168Y104539D01*
X253761Y103132D01*
X253000Y101295D01*
Y99305D01*
X253761Y97468D01*
X255168Y96061D01*
X257005Y95300D01*
X258995D01*
X260832Y96061D01*
X262239Y97468D01*
X263000Y99305D01*
Y101295D01*
X262239Y103132D01*
X260832Y104539D01*
X258995Y105300D01*
D02*
G37*
G36*
X157495D02*
X155505D01*
X153668Y104539D01*
X152261Y103132D01*
X151500Y101295D01*
Y99305D01*
X152261Y97468D01*
X153668Y96061D01*
X155505Y95300D01*
X157495D01*
X159332Y96061D01*
X160739Y97468D01*
X161500Y99305D01*
Y101295D01*
X160739Y103132D01*
X159332Y104539D01*
X157495Y105300D01*
D02*
G37*
G36*
X55995D02*
X54005D01*
X52168Y104539D01*
X50761Y103132D01*
X50000Y101295D01*
Y99305D01*
X50761Y97468D01*
X52168Y96061D01*
X54005Y95300D01*
X55995D01*
X57832Y96061D01*
X59239Y97468D01*
X60000Y99305D01*
Y101295D01*
X59239Y103132D01*
X57832Y104539D01*
X55995Y105300D01*
D02*
G37*
G36*
X208495Y105300D02*
X206505D01*
X204668Y104539D01*
X203261Y103132D01*
X202500Y101294D01*
Y99305D01*
X203261Y97468D01*
X204668Y96061D01*
X206505Y95300D01*
X208495D01*
X210332Y96061D01*
X211739Y97468D01*
X212500Y99305D01*
Y101294D01*
X211739Y103132D01*
X210332Y104539D01*
X208495Y105300D01*
D02*
G37*
G36*
X106994D02*
X105005D01*
X103168Y104539D01*
X101761Y103132D01*
X101000Y101294D01*
Y99305D01*
X101761Y97468D01*
X103168Y96061D01*
X105005Y95300D01*
X106994D01*
X108832Y96061D01*
X110239Y97468D01*
X111000Y99305D01*
Y101294D01*
X110239Y103132D01*
X108832Y104539D01*
X106994Y105300D01*
D02*
G37*
G36*
X355195Y96000D02*
X353205D01*
X351368Y95239D01*
X349961Y93832D01*
X349200Y91995D01*
Y90005D01*
X349961Y88168D01*
X351368Y86761D01*
X353205Y86000D01*
X355195D01*
X357032Y86761D01*
X358439Y88168D01*
X359200Y90005D01*
Y91995D01*
X358439Y93832D01*
X357032Y95239D01*
X355195Y96000D01*
D02*
G37*
G36*
X469995Y94100D02*
X468005D01*
X466168Y93339D01*
X464761Y91932D01*
X464000Y90095D01*
Y88105D01*
X464761Y86268D01*
X466168Y84861D01*
X468005Y84100D01*
X469995D01*
X471832Y84861D01*
X473239Y86268D01*
X474000Y88105D01*
Y90095D01*
X473239Y91932D01*
X471832Y93339D01*
X469995Y94100D01*
D02*
G37*
G36*
X395495Y93900D02*
X393505D01*
X391668Y93139D01*
X390261Y91732D01*
X389500Y89895D01*
Y87905D01*
X390261Y86068D01*
X391668Y84661D01*
X393505Y83900D01*
X395495D01*
X397332Y84661D01*
X398739Y86068D01*
X399500Y87905D01*
Y89895D01*
X398739Y91732D01*
X397332Y93139D01*
X395495Y93900D01*
D02*
G37*
G36*
X433064Y82600D02*
X430536D01*
X428094Y81946D01*
X425905Y80682D01*
X424118Y78895D01*
X422854Y76705D01*
X422200Y74264D01*
Y71736D01*
X422854Y69295D01*
X424118Y67105D01*
X425905Y65318D01*
X428094Y64054D01*
X430536Y63400D01*
X433064D01*
X435505Y64054D01*
X437695Y65318D01*
X439482Y67105D01*
X440746Y69295D01*
X441400Y71736D01*
Y74264D01*
X440746Y76705D01*
X439482Y78895D01*
X437695Y80682D01*
X435505Y81946D01*
X433064Y82600D01*
D02*
G37*
G36*
X27348Y45180D02*
X26400D01*
Y26400D01*
X45180D01*
Y27348D01*
X44420Y31170D01*
X42929Y34769D01*
X40764Y38009D01*
X38009Y40764D01*
X34769Y42929D01*
X31170Y44420D01*
X27348Y45180D01*
D02*
G37*
G36*
X357548D02*
X356600D01*
Y26400D01*
X375380D01*
Y27348D01*
X374620Y31170D01*
X373129Y34769D01*
X370964Y38009D01*
X368209Y40764D01*
X364969Y42929D01*
X361370Y44420D01*
X357548Y45180D01*
D02*
G37*
G36*
X354600D02*
X353652D01*
X349830Y44420D01*
X346231Y42929D01*
X342991Y40764D01*
X340236Y38009D01*
X338071Y34769D01*
X336580Y31170D01*
X335820Y27348D01*
Y26400D01*
X354600D01*
Y45180D01*
D02*
G37*
G36*
X115683Y23209D02*
X115300D01*
Y13700D01*
X124809D01*
Y14083D01*
X124093Y16756D01*
X122709Y19153D01*
X120753Y21109D01*
X118356Y22493D01*
X115683Y23209D01*
D02*
G37*
G36*
X113300D02*
X112916D01*
X110244Y22493D01*
X107847Y21109D01*
X105891Y19153D01*
X104507Y16756D01*
X103791Y14083D01*
Y13700D01*
X113300D01*
Y23209D01*
D02*
G37*
%LPD*%
D34*
X63500Y12700D02*
D03*
X88900D02*
D03*
X139700D02*
D03*
X165100D02*
D03*
X215900D02*
D03*
X266700D02*
D03*
X317500D02*
D03*
X292100D02*
D03*
X241300D02*
D03*
X190500D02*
D03*
X114300D02*
D03*
X88900Y215900D02*
D03*
X114300D02*
D03*
X139700D02*
D03*
X165100D02*
D03*
X190500D02*
D03*
X215900D02*
D03*
X241300D02*
D03*
X266700D02*
D03*
X292100D02*
D03*
X317500D02*
D03*
X63500D02*
D03*
D35*
X355600Y203200D02*
D03*
Y25400D02*
D03*
X25400Y203200D02*
D03*
Y25400D02*
D03*
D36*
X431800Y155600D02*
D03*
Y73000D02*
D03*
X309500Y91000D02*
D03*
X415000Y174000D02*
D03*
Y184000D02*
D03*
X394500Y114500D02*
D03*
X444500Y184000D02*
D03*
Y174000D02*
D03*
X156500Y100300D02*
D03*
X354200Y91000D02*
D03*
X282500Y93800D02*
D03*
X232000D02*
D03*
X181000Y93800D02*
D03*
X130500Y93800D02*
D03*
X79500Y93800D02*
D03*
X309000Y128300D02*
D03*
Y119300D02*
D03*
X98000Y166300D02*
D03*
X148500D02*
D03*
X250500Y146800D02*
D03*
X300750Y147000D02*
D03*
X469000Y114500D02*
D03*
X352000Y147300D02*
D03*
X207500Y128300D02*
D03*
X343000Y113800D02*
D03*
X258000Y119300D02*
D03*
X207500Y119300D02*
D03*
X258000Y109300D02*
D03*
X207500Y109300D02*
D03*
Y100300D02*
D03*
X199500Y146800D02*
D03*
X156500Y128300D02*
D03*
Y119300D02*
D03*
X106000D02*
D03*
X55000Y119300D02*
D03*
X156500Y109300D02*
D03*
X106000Y109300D02*
D03*
X55000Y109300D02*
D03*
X232000Y135300D02*
D03*
X241500Y146800D02*
D03*
X291750Y147000D02*
D03*
X469000Y127200D02*
D03*
Y89100D02*
D03*
Y101800D02*
D03*
X394500Y127000D02*
D03*
Y101600D02*
D03*
Y88900D02*
D03*
X258000Y128300D02*
D03*
X190500Y146800D02*
D03*
X258000Y100300D02*
D03*
X343000Y147300D02*
D03*
X130500Y135300D02*
D03*
X55000Y128300D02*
D03*
X106000Y128300D02*
D03*
X139500Y166300D02*
D03*
X89000Y166300D02*
D03*
X106000Y100300D02*
D03*
X79500Y135300D02*
D03*
X55000Y100300D02*
D03*
M02*
