G04*
G04 #@! TF.GenerationSoftware,Altium Limited,Altium Designer,25.9.0 (10)*
G04*
G04 Layer_Physical_Order=2*
G04 Layer_Color=16711680*
%FSLAX44Y44*%
%MOMM*%
G71*
G04*
G04 #@! TF.SameCoordinates,A69B8269-B679-459B-B5DD-CBE35428100B*
G04*
G04*
G04 #@! TF.FilePolarity,Positive*
G04*
G01*
G75*
%ADD11C,0.2540*%
%ADD27C,1.7018*%
%ADD28C,3.5560*%
%ADD29C,0.5000*%
%ADD30C,0.5080*%
G36*
X52151Y223421D02*
X53617Y220881D01*
X53204Y220165D01*
X52451Y217355D01*
Y214445D01*
X53204Y211635D01*
X54659Y209116D01*
X54789Y208985D01*
X62602Y216798D01*
X63500Y215900D01*
X64398Y216798D01*
X72211Y208985D01*
X72341Y209116D01*
X73796Y211635D01*
X74549Y214445D01*
Y217355D01*
X73796Y220165D01*
X73383Y220881D01*
X74849Y223421D01*
X77551D01*
X79017Y220881D01*
X78604Y220165D01*
X77851Y217355D01*
Y214445D01*
X78604Y211635D01*
X80059Y209116D01*
X82116Y207059D01*
X84635Y205604D01*
X87445Y204851D01*
X90355D01*
X93165Y205604D01*
X95684Y207059D01*
X97741Y209116D01*
X99196Y211635D01*
X99949Y214445D01*
Y217355D01*
X99196Y220165D01*
X98783Y220881D01*
X100249Y223421D01*
X102951D01*
X104417Y220881D01*
X104004Y220165D01*
X103251Y217355D01*
Y214445D01*
X104004Y211635D01*
X105459Y209116D01*
X107516Y207059D01*
X110035Y205604D01*
X112845Y204851D01*
X115755D01*
X118565Y205604D01*
X121084Y207059D01*
X123141Y209116D01*
X124596Y211635D01*
X125349Y214445D01*
Y217355D01*
X124596Y220165D01*
X124183Y220881D01*
X125649Y223421D01*
X128351D01*
X129817Y220881D01*
X129404Y220165D01*
X128651Y217355D01*
Y214445D01*
X129404Y211635D01*
X130859Y209116D01*
X132916Y207059D01*
X135435Y205604D01*
X138245Y204851D01*
X141155D01*
X143965Y205604D01*
X146484Y207059D01*
X148541Y209116D01*
X149996Y211635D01*
X150749Y214445D01*
Y217355D01*
X149996Y220165D01*
X149583Y220881D01*
X151049Y223421D01*
X153751D01*
X155217Y220881D01*
X154804Y220165D01*
X154051Y217355D01*
Y214445D01*
X154804Y211635D01*
X156259Y209116D01*
X158316Y207059D01*
X160835Y205604D01*
X163645Y204851D01*
X166555D01*
X169365Y205604D01*
X171884Y207059D01*
X173941Y209116D01*
X175396Y211635D01*
X176149Y214445D01*
Y217355D01*
X175396Y220165D01*
X174983Y220881D01*
X176449Y223421D01*
X179151D01*
X180617Y220881D01*
X180204Y220165D01*
X179451Y217355D01*
Y214445D01*
X180204Y211635D01*
X181659Y209116D01*
X183716Y207059D01*
X186235Y205604D01*
X189045Y204851D01*
X191955D01*
X194765Y205604D01*
X197284Y207059D01*
X199341Y209116D01*
X200796Y211635D01*
X201549Y214445D01*
Y217355D01*
X200796Y220165D01*
X200383Y220881D01*
X201849Y223421D01*
X204551D01*
X206017Y220881D01*
X205604Y220165D01*
X204851Y217355D01*
Y214445D01*
X205604Y211635D01*
X207059Y209116D01*
X209116Y207059D01*
X211635Y205604D01*
X214445Y204851D01*
X217355D01*
X220165Y205604D01*
X222684Y207059D01*
X224741Y209116D01*
X226196Y211635D01*
X226949Y214445D01*
Y217355D01*
X226196Y220165D01*
X225783Y220881D01*
X227249Y223421D01*
X229951D01*
X231417Y220881D01*
X231004Y220165D01*
X230251Y217355D01*
Y214445D01*
X231004Y211635D01*
X232459Y209116D01*
X234516Y207059D01*
X237035Y205604D01*
X239845Y204851D01*
X242755D01*
X245565Y205604D01*
X248084Y207059D01*
X250141Y209116D01*
X251596Y211635D01*
X252349Y214445D01*
Y217355D01*
X251596Y220165D01*
X251183Y220881D01*
X252649Y223421D01*
X255351Y223421D01*
X256817Y220881D01*
X256404Y220165D01*
X255651Y217355D01*
Y214445D01*
X256404Y211635D01*
X257859Y209116D01*
X259916Y207059D01*
X262435Y205604D01*
X265245Y204851D01*
X268155D01*
X270965Y205604D01*
X273484Y207059D01*
X275541Y209116D01*
X276996Y211635D01*
X277749Y214445D01*
Y217355D01*
X276996Y220165D01*
X276583Y220881D01*
X278049Y223421D01*
X280751D01*
X282217Y220881D01*
X281804Y220165D01*
X281051Y217355D01*
Y214445D01*
X281804Y211635D01*
X283259Y209116D01*
X285316Y207059D01*
X287835Y205604D01*
X290645Y204851D01*
X293555D01*
X296365Y205604D01*
X298884Y207059D01*
X300941Y209116D01*
X302396Y211635D01*
X303149Y214445D01*
Y217355D01*
X302396Y220165D01*
X301983Y220881D01*
X303449Y223421D01*
X306151D01*
X307617Y220881D01*
X307204Y220165D01*
X306451Y217355D01*
Y214445D01*
X307204Y211635D01*
X308659Y209116D01*
X310716Y207059D01*
X313235Y205604D01*
X316045Y204851D01*
X318955D01*
X321765Y205604D01*
X324284Y207059D01*
X326341Y209116D01*
X327796Y211635D01*
X328549Y214445D01*
Y217355D01*
X327796Y220165D01*
X327383Y220881D01*
X328849Y223421D01*
X344869D01*
X345171Y222816D01*
X345486Y220881D01*
X342647Y218984D01*
X342130Y218466D01*
X355600Y204996D01*
X369070Y218466D01*
X368553Y218984D01*
X365714Y220881D01*
X366029Y222816D01*
X366331Y223421D01*
X482600D01*
X484591D01*
X488498Y222644D01*
X492178Y221119D01*
X495490Y218906D01*
X498306Y216090D01*
X500519Y212778D01*
X502043Y209098D01*
X502821Y205191D01*
X502821Y203200D01*
X502821Y25400D01*
Y23409D01*
X502043Y19502D01*
X500519Y15822D01*
X498306Y12510D01*
X495490Y9694D01*
X492178Y7481D01*
X488498Y5957D01*
X484591Y5179D01*
X482600Y5179D01*
X366331D01*
X366029Y5784D01*
X365714Y7719D01*
X368553Y9616D01*
X369070Y10134D01*
X355600Y23604D01*
X342130Y10134D01*
X342647Y9616D01*
X345486Y7719D01*
X345171Y5784D01*
X344869Y5179D01*
X328849D01*
X327383Y7719D01*
X327796Y8435D01*
X328549Y11245D01*
Y14155D01*
X327796Y16965D01*
X326341Y19484D01*
X324284Y21541D01*
X321765Y22996D01*
X321385Y23098D01*
Y36491D01*
X336889Y51995D01*
X376851D01*
X398573Y30273D01*
X399833Y29431D01*
X401320Y29135D01*
X457200D01*
X458687Y29431D01*
X459947Y30273D01*
X490427Y60753D01*
X491269Y62013D01*
X491565Y63500D01*
Y134620D01*
X491269Y136107D01*
X490427Y137367D01*
X452327Y175467D01*
X451067Y176309D01*
X449580Y176605D01*
X347980D01*
X346493Y176309D01*
X345233Y175467D01*
X337613Y167847D01*
X336771Y166587D01*
X336475Y165100D01*
Y147659D01*
X319626Y130810D01*
X319030D01*
X317162Y130037D01*
X315733Y128608D01*
X314960Y126741D01*
Y124719D01*
X315733Y122852D01*
X317162Y121423D01*
X319030Y120650D01*
X321050D01*
X322918Y121423D01*
X324347Y122852D01*
X325120Y124719D01*
Y125316D01*
X343107Y143303D01*
X343949Y144563D01*
X344245Y146050D01*
Y163491D01*
X349589Y168835D01*
X447971D01*
X483795Y133011D01*
Y124731D01*
X481255Y123678D01*
X477520Y127414D01*
Y128011D01*
X476747Y129878D01*
X475318Y131307D01*
X473451Y132080D01*
X471429D01*
X469562Y131307D01*
X468133Y129878D01*
X467360Y128011D01*
Y125990D01*
X468133Y124122D01*
X469562Y122693D01*
X471429Y121920D01*
X472026D01*
X476175Y117771D01*
Y108301D01*
X473635Y106603D01*
X473451Y106680D01*
X471429D01*
X469562Y105907D01*
X468133Y104478D01*
X467360Y102611D01*
Y102014D01*
X462073Y96727D01*
X461231Y95467D01*
X460935Y93980D01*
Y77809D01*
X442891Y59765D01*
X415629D01*
X393907Y81487D01*
X392647Y82329D01*
X391160Y82625D01*
X231140D01*
X229653Y82329D01*
X228393Y81487D01*
X187753Y40847D01*
X186911Y39587D01*
X186615Y38100D01*
Y23098D01*
X186235Y22996D01*
X183716Y21541D01*
X181659Y19484D01*
X180204Y16965D01*
X179451Y14155D01*
Y11245D01*
X180204Y8435D01*
X180617Y7719D01*
X179151Y5179D01*
X176449D01*
X174983Y7719D01*
X175396Y8435D01*
X176149Y11245D01*
Y14155D01*
X175396Y16965D01*
X173941Y19484D01*
X171884Y21541D01*
X169365Y22996D01*
X166555Y23749D01*
X163645D01*
X160835Y22996D01*
X158316Y21541D01*
X156259Y19484D01*
X154804Y16965D01*
X154051Y14155D01*
Y11245D01*
X154804Y8435D01*
X155217Y7719D01*
X153751Y5179D01*
X151049D01*
X149583Y7719D01*
X149996Y8435D01*
X150749Y11245D01*
Y14155D01*
X149996Y16965D01*
X148541Y19484D01*
X146484Y21541D01*
X143965Y22996D01*
X141155Y23749D01*
X138245D01*
X135435Y22996D01*
X132916Y21541D01*
X130859Y19484D01*
X129404Y16965D01*
X128651Y14155D01*
Y11245D01*
X129404Y8435D01*
X129817Y7719D01*
X128351Y5179D01*
X125649D01*
X124183Y7719D01*
X124596Y8435D01*
X125349Y11245D01*
Y14155D01*
X124596Y16965D01*
X123141Y19484D01*
X123011Y19615D01*
X115198Y11802D01*
X114300Y12700D01*
X113402Y11802D01*
X105589Y19615D01*
X105459Y19484D01*
X104004Y16965D01*
X103251Y14155D01*
Y11245D01*
X104004Y8435D01*
X104417Y7719D01*
X102951Y5179D01*
X100249D01*
X98783Y7719D01*
X99196Y8435D01*
X99949Y11245D01*
Y14155D01*
X99196Y16965D01*
X97741Y19484D01*
X95684Y21541D01*
X93165Y22996D01*
X90355Y23749D01*
X87445D01*
X84635Y22996D01*
X82116Y21541D01*
X80059Y19484D01*
X78604Y16965D01*
X77851Y14155D01*
Y11245D01*
X78604Y8435D01*
X79017Y7719D01*
X77551Y5179D01*
X74849D01*
X73383Y7719D01*
X73796Y8435D01*
X74549Y11245D01*
Y14155D01*
X73796Y16965D01*
X72341Y19484D01*
X70284Y21541D01*
X67765Y22996D01*
X64955Y23749D01*
X62045D01*
X59235Y22996D01*
X56716Y21541D01*
X54659Y19484D01*
X53204Y16965D01*
X52451Y14155D01*
Y11245D01*
X53204Y8435D01*
X53617Y7719D01*
X52151Y5179D01*
X36131D01*
X35829Y5784D01*
X35514Y7719D01*
X38353Y9616D01*
X38870Y10134D01*
X24502Y24502D01*
X10134Y38870D01*
X9616Y38353D01*
X7719Y35514D01*
X5784Y35829D01*
X5179Y36131D01*
Y192469D01*
X5784Y192771D01*
X7719Y193086D01*
X9616Y190247D01*
X10134Y189730D01*
X24502Y204098D01*
X38870Y218466D01*
X38353Y218984D01*
X35514Y220881D01*
X35829Y222816D01*
X36131Y223421D01*
X52151D01*
D02*
G37*
%LPC*%
G36*
X63500Y214104D02*
X56585Y207189D01*
X56716Y207059D01*
X59235Y205604D01*
X62045Y204851D01*
X64955D01*
X67765Y205604D01*
X70284Y207059D01*
X70415Y207189D01*
X63500Y214104D01*
D02*
G37*
G36*
X340334Y216670D02*
X339816Y216153D01*
X337593Y212825D01*
X336061Y209127D01*
X335280Y205201D01*
Y201199D01*
X336061Y197273D01*
X337593Y193575D01*
X339816Y190247D01*
X340334Y189730D01*
X353804Y203200D01*
X340334Y216670D01*
D02*
G37*
G36*
X40666Y216670D02*
X27196Y203200D01*
X40666Y189730D01*
X41184Y190247D01*
X43407Y193575D01*
X44939Y197273D01*
X45720Y201199D01*
Y205201D01*
X44939Y209127D01*
X43407Y212825D01*
X41184Y216153D01*
X40666Y216670D01*
D02*
G37*
G36*
X370866D02*
X357396Y203200D01*
X370866Y189730D01*
X371384Y190247D01*
X373607Y193575D01*
X375139Y197273D01*
X375920Y201199D01*
Y205201D01*
X375139Y209127D01*
X373607Y212825D01*
X371384Y216153D01*
X370866Y216670D01*
D02*
G37*
G36*
X355600Y201404D02*
X342130Y187934D01*
X342647Y187416D01*
X345975Y185193D01*
X349673Y183661D01*
X353599Y182880D01*
X357601D01*
X361527Y183661D01*
X365225Y185193D01*
X368553Y187416D01*
X369070Y187934D01*
X355600Y201404D01*
D02*
G37*
G36*
X25400D02*
X11930Y187934D01*
X12447Y187416D01*
X15775Y185193D01*
X19473Y183661D01*
X23399Y182880D01*
X27401D01*
X31327Y183661D01*
X35025Y185193D01*
X38353Y187416D01*
X38870Y187934D01*
X25400Y201404D01*
D02*
G37*
G36*
X433069Y165240D02*
X430531D01*
X428079Y164583D01*
X425881Y163314D01*
X424086Y161519D01*
X422817Y159321D01*
X422160Y156869D01*
Y154331D01*
X422817Y151879D01*
X424086Y149681D01*
X425881Y147886D01*
X428079Y146617D01*
X430531Y145960D01*
X433069D01*
X435521Y146617D01*
X437719Y147886D01*
X439514Y149681D01*
X440783Y151879D01*
X441440Y154331D01*
Y156869D01*
X440783Y159321D01*
X439514Y161519D01*
X437719Y163314D01*
X435521Y164583D01*
X433069Y165240D01*
D02*
G37*
G36*
X365500Y152400D02*
X363479D01*
X361612Y151627D01*
X360183Y150198D01*
X359410Y148330D01*
Y146309D01*
X360183Y144442D01*
X361612Y143013D01*
X363479Y142240D01*
X364076D01*
X382063Y124253D01*
X383323Y123411D01*
X384810Y123115D01*
X387860D01*
X388282Y122693D01*
X390149Y121920D01*
X392170D01*
X394038Y122693D01*
X395467Y124122D01*
X396240Y125990D01*
Y128011D01*
X395467Y129878D01*
X394038Y131307D01*
X392170Y132080D01*
X390149D01*
X388282Y131307D01*
X387860Y130885D01*
X386419D01*
X369570Y147734D01*
Y148330D01*
X368797Y150198D01*
X367368Y151627D01*
X365500Y152400D01*
D02*
G37*
G36*
X433069Y82640D02*
X430531D01*
X428079Y81983D01*
X425881Y80714D01*
X424086Y78919D01*
X422817Y76721D01*
X422160Y74269D01*
Y71731D01*
X422817Y69279D01*
X424086Y67081D01*
X425881Y65286D01*
X428079Y64017D01*
X430531Y63360D01*
X433069D01*
X435521Y64017D01*
X437719Y65286D01*
X439514Y67081D01*
X440783Y69279D01*
X441440Y71731D01*
Y74269D01*
X440783Y76721D01*
X439514Y78919D01*
X437719Y80714D01*
X435521Y81983D01*
X433069Y82640D01*
D02*
G37*
G36*
X27401Y45720D02*
X23399D01*
X19473Y44939D01*
X15775Y43407D01*
X12447Y41184D01*
X11930Y40666D01*
X25400Y27196D01*
X38870Y40666D01*
X38353Y41184D01*
X35025Y43407D01*
X31327Y44939D01*
X27401Y45720D01*
D02*
G37*
G36*
X357601D02*
X353599D01*
X349673Y44939D01*
X345975Y43407D01*
X342647Y41184D01*
X342130Y40666D01*
X355600Y27196D01*
X369070Y40666D01*
X368553Y41184D01*
X365225Y43407D01*
X361527Y44939D01*
X357601Y45720D01*
D02*
G37*
G36*
X115755Y23749D02*
X112845D01*
X110035Y22996D01*
X107516Y21541D01*
X107385Y21411D01*
X114300Y14496D01*
X121215Y21411D01*
X121084Y21541D01*
X118565Y22996D01*
X115755Y23749D01*
D02*
G37*
G36*
X340334Y38870D02*
X339816Y38353D01*
X337593Y35025D01*
X336061Y31327D01*
X335280Y27401D01*
Y23399D01*
X336061Y19473D01*
X337593Y15775D01*
X339816Y12447D01*
X340334Y11930D01*
X353804Y25400D01*
X340334Y38870D01*
D02*
G37*
G36*
X40666Y38870D02*
X27196Y25400D01*
X40666Y11930D01*
X41184Y12447D01*
X43407Y15775D01*
X44939Y19473D01*
X45720Y23399D01*
Y27401D01*
X44939Y31327D01*
X43407Y35025D01*
X41184Y38353D01*
X40666Y38870D01*
D02*
G37*
G36*
X370866D02*
X357396Y25400D01*
X370866Y11930D01*
X371384Y12447D01*
X373607Y15775D01*
X375139Y19473D01*
X375920Y23399D01*
Y27401D01*
X375139Y31327D01*
X373607Y35025D01*
X371384Y38353D01*
X370866Y38870D01*
D02*
G37*
%LPD*%
D11*
X340360Y165100D02*
X347980Y172720D01*
X340360Y146050D02*
Y165100D01*
X320040Y125730D02*
X340360Y146050D01*
X487680Y63500D02*
Y134620D01*
X449580Y172720D02*
X487680Y134620D01*
X347980Y172720D02*
X449580D01*
X241300Y38100D02*
X274320Y71120D01*
X386080D01*
X190500Y38100D02*
X231140Y78740D01*
X391160D01*
X364490Y147320D02*
X384810Y127000D01*
X391160D01*
X464820Y93980D02*
X472440Y101600D01*
X464820Y76200D02*
Y93980D01*
X444500Y55880D02*
X464820Y76200D01*
X457200Y33020D02*
X487680Y63500D01*
X454660Y40640D02*
X480060Y66040D01*
X472440Y127000D02*
X480060Y119380D01*
Y66040D02*
Y119380D01*
X472440Y71120D02*
Y88900D01*
X449580Y48260D02*
X472440Y71120D01*
X190500Y12700D02*
Y38100D01*
X241300Y12700D02*
Y38100D01*
X292100Y12700D02*
Y38100D01*
X317500Y63500D01*
X381000D01*
X335280Y55880D02*
X378460D01*
X317500Y38100D02*
X335280Y55880D01*
X317500Y12700D02*
Y38100D01*
X401320Y33020D02*
X457200D01*
X378460Y55880D02*
X401320Y33020D01*
X381000Y63500D02*
X403860Y40640D01*
X454660D01*
X414020Y55880D02*
X444500D01*
X391160Y78740D02*
X414020Y55880D01*
X408940Y48260D02*
X449580D01*
X386080Y71120D02*
X408940Y48260D01*
D27*
X317500Y12700D02*
D03*
X114300D02*
D03*
X63500Y215900D02*
D03*
Y12700D02*
D03*
X292100D02*
D03*
X190500D02*
D03*
X241300D02*
D03*
X88900Y215900D02*
D03*
X114300D02*
D03*
X139700D02*
D03*
X165100D02*
D03*
X190500D02*
D03*
X215900D02*
D03*
X241300D02*
D03*
X266700D02*
D03*
X292100D02*
D03*
X317500D02*
D03*
X88900Y12700D02*
D03*
X139700D02*
D03*
X165100D02*
D03*
X215900D02*
D03*
X266700D02*
D03*
D28*
X25400Y25400D02*
D03*
Y203200D02*
D03*
X355600Y25400D02*
D03*
Y203200D02*
D03*
D29*
X431800Y73000D02*
D03*
Y155600D02*
D03*
D30*
X482600Y203200D02*
D03*
X266700Y114300D02*
D03*
X165100D02*
D03*
X364490Y147320D02*
D03*
X472440Y88900D02*
D03*
Y101600D02*
D03*
Y114300D02*
D03*
Y127000D02*
D03*
X391160D02*
D03*
X320040Y125730D02*
D03*
X76200Y165100D02*
D03*
X431800Y203200D02*
D03*
X482600Y160020D02*
D03*
Y25400D02*
D03*
X101600Y63500D02*
D03*
X266700Y190500D02*
D03*
X165100D02*
D03*
X25400Y114300D02*
D03*
X391160Y139700D02*
D03*
X346710Y115570D02*
D03*
X350520Y162560D02*
D03*
M02*
