M48
;Layer_Color=9474304
;FILE_FORMAT=4:4
METRIC,LZ
;TYPE=PLATED
T01F00S00C0.2540
T02F00S00C1.0160
T03F00S00C2.5400
;TYPE=NON_PLATED
T04F00S00C1.4200
%
T01
X0032004Y0012573
X0034671Y0011557
X0036449Y0014732
X0035052Y0016256
X0039116Y001397
Y00127
X0047244
Y001143
Y001016
Y000889
X004826Y000254
Y0016002
Y002032
X004318
X002667Y001905
Y001143
X001651
Y001905
X000762Y001651
X000254Y001143
X001016Y000635
T02
X002921Y000127
X003175
Y002159
X002921
X002667
X002413
X002159
X001905
X001651
X001397
X001143
X000889
X000635
Y000127
X000889
X001143
X001397
X001651
X001905
X002159
X002413
X002667
T03
X003556Y000254
Y002032
X000254
Y000254
T04
X004318Y00073
Y001556
M30
