G04*
G04 #@! TF.GenerationSoftware,Altium Limited,Altium Designer,25.9.0 (10)*
G04*
G04 Layer_Color=794757*
%FSLAX44Y44*%
%MOMM*%
G71*
G04*
G04 #@! TF.SameCoordinates,A69B8269-B679-459B-B5DD-CBE35428100B*
G04*
G04*
G04 #@! TF.FilePolarity,Negative*
G04*
G01*
G75*
G04:AMPARAMS|DCode=17|XSize=1.05mm|YSize=0.5mm|CornerRadius=0.15mm|HoleSize=0mm|Usage=FLASHONLY|Rotation=90.000|XOffset=0mm|YOffset=0mm|HoleType=Round|Shape=RoundedRectangle|*
%AMROUNDEDRECTD17*
21,1,1.0500,0.2000,0,0,90.0*
21,1,0.7500,0.5000,0,0,90.0*
1,1,0.3000,0.1000,0.3750*
1,1,0.3000,0.1000,-0.3750*
1,1,0.3000,-0.1000,-0.3750*
1,1,0.3000,-0.1000,0.3750*
%
%ADD17ROUNDEDRECTD17*%
G04:AMPARAMS|DCode=18|XSize=0.65mm|YSize=0.7mm|CornerRadius=0.1875mm|HoleSize=0mm|Usage=FLASHONLY|Rotation=270.000|XOffset=0mm|YOffset=0mm|HoleType=Round|Shape=RoundedRectangle|*
%AMROUNDEDRECTD18*
21,1,0.6500,0.3250,0,0,270.0*
21,1,0.2750,0.7000,0,0,270.0*
1,1,0.3750,-0.1625,-0.1375*
1,1,0.3750,-0.1625,0.1375*
1,1,0.3750,0.1625,0.1375*
1,1,0.3750,0.1625,-0.1375*
%
%ADD18ROUNDEDRECTD18*%
G04:AMPARAMS|DCode=19|XSize=0.7mm|YSize=0.65mm|CornerRadius=0.1875mm|HoleSize=0mm|Usage=FLASHONLY|Rotation=90.000|XOffset=0mm|YOffset=0mm|HoleType=Round|Shape=RoundedRectangle|*
%AMROUNDEDRECTD19*
21,1,0.7000,0.2750,0,0,90.0*
21,1,0.3250,0.6500,0,0,90.0*
1,1,0.3750,0.1375,0.1625*
1,1,0.3750,0.1375,-0.1625*
1,1,0.3750,-0.1375,-0.1625*
1,1,0.3750,-0.1375,0.1625*
%
%ADD19ROUNDEDRECTD19*%
G04:AMPARAMS|DCode=20|XSize=0.84mm|YSize=3.02mm|CornerRadius=0.235mm|HoleSize=0mm|Usage=FLASHONLY|Rotation=90.000|XOffset=0mm|YOffset=0mm|HoleType=Round|Shape=RoundedRectangle|*
%AMROUNDEDRECTD20*
21,1,0.8400,2.5500,0,0,90.0*
21,1,0.3700,3.0200,0,0,90.0*
1,1,0.4700,1.2750,0.1850*
1,1,0.4700,1.2750,-0.1850*
1,1,0.4700,-1.2750,-0.1850*
1,1,0.4700,-1.2750,0.1850*
%
%ADD20ROUNDEDRECTD20*%
G04:AMPARAMS|DCode=21|XSize=0.65mm|YSize=0.7mm|CornerRadius=0.1875mm|HoleSize=0mm|Usage=FLASHONLY|Rotation=180.000|XOffset=0mm|YOffset=0mm|HoleType=Round|Shape=RoundedRectangle|*
%AMROUNDEDRECTD21*
21,1,0.6500,0.3250,0,0,180.0*
21,1,0.2750,0.7000,0,0,180.0*
1,1,0.3750,-0.1375,0.1625*
1,1,0.3750,0.1375,0.1625*
1,1,0.3750,0.1375,-0.1625*
1,1,0.3750,-0.1375,-0.1625*
%
%ADD21ROUNDEDRECTD21*%
%ADD22C,1.8018*%
%ADD23C,3.6560*%
%ADD24C,1.5200*%
%ADD25C,0.6080*%
D17*
X340360Y126160D02*
D03*
X346860D02*
D03*
Y148160D02*
D03*
X333860D02*
D03*
Y126160D02*
D03*
D18*
X320040Y136470D02*
D03*
Y145470D02*
D03*
D19*
X342320Y162560D02*
D03*
X333320D02*
D03*
D20*
X448950Y114300D02*
D03*
X414650Y127000D02*
D03*
X448950D02*
D03*
Y101600D02*
D03*
X414650Y88900D02*
D03*
Y101600D02*
D03*
X448950Y88900D02*
D03*
X414650Y114300D02*
D03*
X448950Y139700D02*
D03*
X414650D02*
D03*
D21*
X344860Y88900D02*
D03*
Y101600D02*
D03*
X335860Y88900D02*
D03*
Y101600D02*
D03*
D22*
X317500Y12700D02*
D03*
X114300D02*
D03*
X63500Y215900D02*
D03*
Y12700D02*
D03*
X292100D02*
D03*
X190500D02*
D03*
X241300D02*
D03*
X88900Y215900D02*
D03*
X114300D02*
D03*
X139700D02*
D03*
X165100D02*
D03*
X190500D02*
D03*
X215900D02*
D03*
X241300D02*
D03*
X266700D02*
D03*
X292100D02*
D03*
X317500D02*
D03*
X88900Y12700D02*
D03*
X139700D02*
D03*
X165100D02*
D03*
X215900D02*
D03*
X266700D02*
D03*
D23*
X25400Y25400D02*
D03*
Y203200D02*
D03*
X355600Y25400D02*
D03*
Y203200D02*
D03*
D24*
X431800Y73000D02*
D03*
Y155600D02*
D03*
D25*
X482600Y203200D02*
D03*
X266700Y114300D02*
D03*
X165100D02*
D03*
X364490Y147320D02*
D03*
X472440Y88900D02*
D03*
Y101600D02*
D03*
Y114300D02*
D03*
Y127000D02*
D03*
X391160D02*
D03*
X320040Y125730D02*
D03*
X76200Y165100D02*
D03*
X431800Y203200D02*
D03*
X482600Y160020D02*
D03*
Y25400D02*
D03*
X101600Y63500D02*
D03*
X266700Y190500D02*
D03*
X165100D02*
D03*
X25400Y114300D02*
D03*
X391160Y139700D02*
D03*
X346710Y115570D02*
D03*
X350520Y162560D02*
D03*
M02*
