G04*
G04 #@! TF.GenerationSoftware,Altium Limited,Altium Designer,25.9.0 (10)*
G04*
G04 Layer_Color=128*
%FSLAX44Y44*%
%MOMM*%
G71*
G04*
G04 #@! TF.SameCoordinates,BC283E87-7A94-4346-B581-373BCE07BC23*
G04*
G04*
G04 #@! TF.FilePolarity,Positive*
G04*
G01*
G75*
%ADD37C,0.1270*%
D37*
X58420Y12700D02*
X68580D01*
X63500Y7620D02*
Y17780D01*
X83820Y12700D02*
X93980D01*
X88900Y7620D02*
Y17780D01*
X134620Y12700D02*
X144780D01*
X139700Y7620D02*
Y17780D01*
X160020Y12700D02*
X170180D01*
X165100Y7620D02*
Y17780D01*
X210820Y12700D02*
X220980D01*
X215900Y7620D02*
Y17780D01*
X261620Y12700D02*
X271780D01*
X266700Y7620D02*
Y17780D01*
X312420Y12700D02*
X322580D01*
X317500Y7620D02*
Y17780D01*
X287020Y12700D02*
X297180D01*
X292100Y7620D02*
Y17780D01*
X236220Y12700D02*
X246380D01*
X241300Y7620D02*
Y17780D01*
X185420Y12700D02*
X195580D01*
X190500Y7620D02*
Y17780D01*
X109220Y12700D02*
X119380D01*
X114300Y7620D02*
Y17780D01*
X83820Y215900D02*
X93980D01*
X88900Y210820D02*
Y220980D01*
X109220Y215900D02*
X119380D01*
X114300Y210820D02*
Y220980D01*
X134620Y215900D02*
X144780D01*
X139700Y210820D02*
Y220980D01*
X160020Y215900D02*
X170180D01*
X165100Y210820D02*
Y220980D01*
X185420Y215900D02*
X195580D01*
X190500Y210820D02*
Y220980D01*
X210820Y215900D02*
X220980D01*
X215900Y210820D02*
Y220980D01*
X236220Y215900D02*
X246380D01*
X241300Y210820D02*
Y220980D01*
X261620Y215900D02*
X271780D01*
X266700Y210820D02*
Y220980D01*
X287020Y215900D02*
X297180D01*
X292100Y210820D02*
Y220980D01*
X312420Y215900D02*
X322580D01*
X317500Y210820D02*
Y220980D01*
X58420Y215900D02*
X68580D01*
X63500Y210820D02*
Y220980D01*
X342900Y203200D02*
X368300D01*
X355600Y190500D02*
Y215900D01*
X342900Y25400D02*
X368300D01*
X355600Y12700D02*
Y38100D01*
X12700Y203200D02*
X38100D01*
X25400Y190500D02*
Y215900D01*
X12700Y25400D02*
X38100D01*
X25400Y12700D02*
Y38100D01*
X424700Y155600D02*
X438900D01*
X431800Y148500D02*
Y162700D01*
X424700Y73000D02*
X438900D01*
X431800Y65900D02*
Y80100D01*
X308250Y91000D02*
X310750D01*
X309500Y89750D02*
Y92250D01*
X413750Y174000D02*
X416250D01*
X415000Y172750D02*
Y175250D01*
X413750Y184000D02*
X416250D01*
X415000Y182750D02*
Y185250D01*
X393250Y114500D02*
X395750D01*
X394500Y113250D02*
Y115750D01*
X443250Y184000D02*
X445750D01*
X444500Y182750D02*
Y185250D01*
X443250Y174000D02*
X445750D01*
X444500Y172750D02*
Y175250D01*
X155250Y100300D02*
X157750D01*
X156500Y99050D02*
Y101550D01*
X352950Y91000D02*
X355450D01*
X354200Y89750D02*
Y92250D01*
X281250Y93800D02*
X283750D01*
X282500Y92550D02*
Y95050D01*
X230750Y93800D02*
X233250D01*
X232000Y92550D02*
Y95050D01*
X179750Y93800D02*
X182250D01*
X181000Y92550D02*
Y95050D01*
X129250Y93800D02*
X131750D01*
X130500Y92550D02*
Y95050D01*
X78250Y93800D02*
X80750D01*
X79500Y92550D02*
Y95050D01*
X307750Y128300D02*
X310250D01*
X309000Y127050D02*
Y129550D01*
X307750Y119300D02*
X310250D01*
X309000Y118050D02*
Y120550D01*
X96750Y166300D02*
X99250D01*
X98000Y165050D02*
Y167550D01*
X147250Y166300D02*
X149750D01*
X148500Y165050D02*
Y167550D01*
X249250Y146800D02*
X251750D01*
X250500Y145550D02*
Y148050D01*
X299500Y147000D02*
X302000D01*
X300750Y145750D02*
Y148250D01*
X467750Y114500D02*
X470250D01*
X469000Y113250D02*
Y115750D01*
X350750Y147300D02*
X353250D01*
X352000Y146050D02*
Y148550D01*
X206250Y128300D02*
X208750D01*
X207500Y127050D02*
Y129550D01*
X341750Y113800D02*
X344250D01*
X343000Y112550D02*
Y115050D01*
X256750Y119300D02*
X259250D01*
X258000Y118050D02*
Y120550D01*
X206250Y119300D02*
X208750D01*
X207500Y118050D02*
Y120550D01*
X256750Y109300D02*
X259250D01*
X258000Y108050D02*
Y110550D01*
X206250Y109300D02*
X208750D01*
X207500Y108050D02*
Y110550D01*
X206250Y100300D02*
X208750D01*
X207500Y99050D02*
Y101550D01*
X198250Y146800D02*
X200750D01*
X199500Y145550D02*
Y148050D01*
X155250Y128300D02*
X157750D01*
X156500Y127050D02*
Y129550D01*
X155250Y119300D02*
X157750D01*
X156500Y118050D02*
Y120550D01*
X104750Y119300D02*
X107250D01*
X106000Y118050D02*
Y120550D01*
X53750Y119300D02*
X56250D01*
X55000Y118050D02*
Y120550D01*
X155250Y109300D02*
X157750D01*
X156500Y108050D02*
Y110550D01*
X104750Y109300D02*
X107250D01*
X106000Y108050D02*
Y110550D01*
X53750Y109300D02*
X56250D01*
X55000Y108050D02*
Y110550D01*
X230750Y135300D02*
X233250D01*
X232000Y134050D02*
Y136550D01*
X240250Y146800D02*
X242750D01*
X241500Y145550D02*
Y148050D01*
X290500Y147000D02*
X293000D01*
X291750Y145750D02*
Y148250D01*
X467750Y127200D02*
X470250D01*
X469000Y125950D02*
Y128450D01*
X467750Y89100D02*
X470250D01*
X469000Y87850D02*
Y90350D01*
X467750Y101800D02*
X470250D01*
X469000Y100550D02*
Y103050D01*
X393250Y127000D02*
X395750D01*
X394500Y125750D02*
Y128250D01*
X393250Y101600D02*
X395750D01*
X394500Y100350D02*
Y102850D01*
X393250Y88900D02*
X395750D01*
X394500Y87650D02*
Y90150D01*
X256750Y128300D02*
X259250D01*
X258000Y127050D02*
Y129550D01*
X189250Y146800D02*
X191750D01*
X190500Y145550D02*
Y148050D01*
X256750Y100300D02*
X259250D01*
X258000Y99050D02*
Y101550D01*
X341750Y147300D02*
X344250D01*
X343000Y146050D02*
Y148550D01*
X129250Y135300D02*
X131750D01*
X130500Y134050D02*
Y136550D01*
X53750Y128300D02*
X56250D01*
X55000Y127050D02*
Y129550D01*
X104750Y128300D02*
X107250D01*
X106000Y127050D02*
Y129550D01*
X138250Y166300D02*
X140750D01*
X139500Y165050D02*
Y167550D01*
X87750Y166300D02*
X90250D01*
X89000Y165050D02*
Y167550D01*
X104750Y100300D02*
X107250D01*
X106000Y99050D02*
Y101550D01*
X78250Y135300D02*
X80750D01*
X79500Y134050D02*
Y136550D01*
X53750Y100300D02*
X56250D01*
X55000Y99050D02*
Y101550D01*
M02*
