G04*
G04 #@! TF.GenerationSoftware,Altium Limited,Altium Designer,25.9.0 (10)*
G04*
G04 Layer_Color=16777215*
%FSLAX44Y44*%
%MOMM*%
G71*
G04*
G04 #@! TF.SameCoordinates,BC283E87-7A94-4346-B581-373BCE07BC23*
G04*
G04*
G04 #@! TF.FilePolarity,Positive*
G04*
G01*
G75*
%ADD11C,0.1530*%
G36*
X26723Y151787D02*
X27048Y151774D01*
X27174Y151767D01*
X27366Y151754D01*
X27644Y151734D01*
X27909Y151707D01*
X27968Y151701D01*
X28101Y151687D01*
X28236Y151671D01*
X28263Y151664D01*
X28352Y151654D01*
X28435Y151644D01*
X28461Y151638D01*
X28597Y151621D01*
X28756Y151595D01*
X28842Y151581D01*
X29041Y151548D01*
X29140Y151529D01*
X29167Y151522D01*
X29498Y151456D01*
X29657Y151416D01*
X29690Y151409D01*
X29822Y151376D01*
X29865Y151366D01*
X29918Y151353D01*
X30103Y151300D01*
X30130Y151293D01*
X30315Y151241D01*
X30441Y151201D01*
X30795Y151085D01*
X31060Y150986D01*
X31103Y150969D01*
X31136Y150956D01*
X31229Y150916D01*
X31262Y150903D01*
X31494Y150804D01*
X31633Y150737D01*
X31891Y150612D01*
X32109Y150492D01*
X32209Y150439D01*
X32262Y150406D01*
X32275Y150400D01*
X32348Y150353D01*
X32361Y150347D01*
X32434Y150300D01*
X32447Y150294D01*
X32487Y150267D01*
X32500Y150261D01*
X32553Y150228D01*
X32566Y150221D01*
X32580Y150208D01*
X32593Y150201D01*
X32639Y150168D01*
X32652Y150161D01*
X32666Y150148D01*
X32679Y150141D01*
X32725Y150108D01*
X32738Y150102D01*
X32752Y150089D01*
X32765Y150082D01*
X32858Y150016D01*
X32871Y150009D01*
X32891Y149989D01*
X32904Y149983D01*
X32917Y149969D01*
X32931Y149963D01*
X32950Y149943D01*
X32964Y149936D01*
X32977Y149923D01*
X32990Y149916D01*
X33010Y149896D01*
X33023Y149890D01*
X33036Y149877D01*
X33050Y149870D01*
X33070Y149850D01*
X33083Y149844D01*
X33096Y149830D01*
X33109Y149824D01*
X33129Y149804D01*
X33142Y149797D01*
X33162Y149777D01*
X33175Y149771D01*
X33215Y149731D01*
X33228Y149724D01*
X33268Y149685D01*
X33281Y149678D01*
X33321Y149638D01*
X33334Y149632D01*
X33374Y149592D01*
X33387Y149585D01*
X33427Y149546D01*
X33440Y149539D01*
X33735Y149244D01*
X33742Y149231D01*
X33795Y149178D01*
X33801Y149165D01*
X33854Y149112D01*
X33861Y149099D01*
X33914Y149046D01*
X33920Y149032D01*
X33953Y148999D01*
X33960Y148986D01*
X33980Y148966D01*
X33986Y148953D01*
X34006Y148933D01*
X34013Y148920D01*
X34026Y148907D01*
X34033Y148893D01*
X34053Y148874D01*
X34059Y148860D01*
X34079Y148841D01*
X34086Y148827D01*
X34106Y148807D01*
X34112Y148794D01*
X34122Y148784D01*
X34251Y148609D01*
X34258Y148596D01*
X34324Y148503D01*
X34331Y148490D01*
X34344Y148476D01*
X34351Y148463D01*
X34384Y148417D01*
X34390Y148404D01*
X34423Y148351D01*
X34430Y148337D01*
X34476Y148265D01*
X34483Y148251D01*
X34516Y148198D01*
X34523Y148185D01*
X34556Y148132D01*
X34582Y148086D01*
X34655Y147947D01*
X34741Y147781D01*
X34774Y147708D01*
X34827Y147589D01*
X34877Y147480D01*
X34890Y147447D01*
X35009Y147129D01*
X35039Y147046D01*
X35066Y146960D01*
X35099Y146854D01*
X35125Y146768D01*
X35135Y146732D01*
X35201Y146467D01*
X35208Y146434D01*
X35228Y146354D01*
X35241Y146288D01*
X35248Y146249D01*
X35261Y146182D01*
X35268Y146143D01*
X35274Y146110D01*
X35281Y146070D01*
X35294Y146004D01*
X35307Y145924D01*
X35317Y145835D01*
X35324Y145808D01*
X35334Y145719D01*
X35354Y145560D01*
X35360Y145487D01*
X35367Y145401D01*
X35377Y145246D01*
X35383Y145226D01*
X35390Y144934D01*
X35397Y144914D01*
X35393Y144448D01*
X35387Y144222D01*
X35373Y144050D01*
X35357Y143815D01*
X35350Y143789D01*
X35340Y143700D01*
X35334Y143646D01*
X35324Y143557D01*
X35317Y143531D01*
X35301Y143395D01*
X35294Y143362D01*
X35287Y143322D01*
X35274Y143256D01*
X35268Y143216D01*
X35261Y143183D01*
X35254Y143143D01*
X35241Y143077D01*
X35234Y143037D01*
X35228Y143004D01*
X35182Y142819D01*
X35172Y142776D01*
X35138Y142643D01*
X35032Y142299D01*
X35023Y142263D01*
X34923Y141998D01*
X34907Y141955D01*
X34894Y141922D01*
X34874Y141875D01*
X34821Y141756D01*
X34788Y141684D01*
X34682Y141465D01*
X34609Y141326D01*
X34562Y141240D01*
X34556Y141227D01*
X34523Y141174D01*
X34516Y141160D01*
X34483Y141108D01*
X34476Y141094D01*
X34430Y141021D01*
X34423Y141008D01*
X34390Y140955D01*
X34384Y140942D01*
X34351Y140896D01*
X34344Y140882D01*
X34331Y140869D01*
X34324Y140856D01*
X34291Y140809D01*
X34284Y140796D01*
X34271Y140783D01*
X34265Y140770D01*
X34198Y140677D01*
X34192Y140664D01*
X34179Y140651D01*
X34172Y140637D01*
X34159Y140624D01*
X34152Y140611D01*
X34132Y140591D01*
X34125Y140578D01*
X34112Y140565D01*
X34106Y140551D01*
X34086Y140532D01*
X34079Y140518D01*
X34059Y140498D01*
X34053Y140485D01*
X34033Y140465D01*
X34026Y140452D01*
X34006Y140432D01*
X34000Y140419D01*
X33980Y140399D01*
X33973Y140386D01*
X33953Y140366D01*
X33947Y140353D01*
X33907Y140313D01*
X33900Y140300D01*
X33847Y140247D01*
X33841Y140233D01*
X33788Y140181D01*
X33781Y140167D01*
X33728Y140114D01*
X33722Y140101D01*
X33566Y139945D01*
X33553Y139939D01*
X33414Y139800D01*
X33400Y139793D01*
X33361Y139754D01*
X33348Y139747D01*
X33308Y139707D01*
X33295Y139701D01*
X33255Y139661D01*
X33242Y139654D01*
X33202Y139614D01*
X33189Y139608D01*
X33156Y139575D01*
X33142Y139568D01*
X33129Y139555D01*
X33116Y139548D01*
X33096Y139528D01*
X33083Y139522D01*
X33070Y139509D01*
X33056Y139502D01*
X33036Y139482D01*
X33023Y139475D01*
X33010Y139462D01*
X32997Y139456D01*
X32987Y139446D01*
X32904Y139383D01*
X32844Y139336D01*
X32831Y139330D01*
X32818Y139317D01*
X32805Y139310D01*
X32712Y139244D01*
X32699Y139237D01*
X32629Y139187D01*
X32589Y139161D01*
X32527Y139118D01*
X32513Y139111D01*
X32441Y139065D01*
X32427Y139058D01*
X32354Y139012D01*
X32341Y139005D01*
X32268Y138959D01*
X32255Y138952D01*
X32202Y138919D01*
X31911Y138760D01*
X31702Y138658D01*
X31537Y138578D01*
X31186Y138426D01*
X31120Y138400D01*
X30802Y138280D01*
X30481Y138171D01*
X30315Y138118D01*
X30289Y138112D01*
X30011Y138032D01*
X29984Y138026D01*
X29948Y138016D01*
X29789Y137976D01*
X29756Y137969D01*
X29597Y137929D01*
X29564Y137923D01*
X29484Y137903D01*
X29220Y137850D01*
X29193Y137843D01*
X29061Y137817D01*
X28624Y137744D01*
X28554Y137734D01*
X28528Y137728D01*
X28438Y137718D01*
X28303Y137701D01*
X28276Y137695D01*
X28187Y137684D01*
X28081Y137671D01*
X27683Y137632D01*
X27611Y137625D01*
X27326Y137605D01*
X27141Y137592D01*
X26839Y137582D01*
X26820Y137575D01*
X26297Y137569D01*
X26277Y137562D01*
X24168Y137565D01*
X23784Y137572D01*
X23618Y137579D01*
X23307Y137592D01*
X22831Y137625D01*
X22632Y137645D01*
X22397Y137668D01*
X22350Y137675D01*
X22261Y137684D01*
X22178Y137695D01*
X22152Y137701D01*
X22062Y137711D01*
X21980Y137721D01*
X21953Y137728D01*
X21864Y137738D01*
X21387Y137817D01*
X21255Y137843D01*
X21228Y137850D01*
X20963Y137903D01*
X20937Y137910D01*
X20904Y137916D01*
X20745Y137956D01*
X20702Y137966D01*
X20490Y138019D01*
X20212Y138098D01*
X20185Y138105D01*
X20139Y138118D01*
X19974Y138171D01*
X19659Y138274D01*
X19394Y138373D01*
X19351Y138390D01*
X19285Y138416D01*
X18961Y138555D01*
X18861Y138602D01*
X18537Y138760D01*
X18464Y138800D01*
X18408Y138830D01*
X18262Y138909D01*
X18259Y138913D01*
X18212Y138939D01*
X18199Y138946D01*
X18126Y138992D01*
X18113Y138999D01*
X18040Y139045D01*
X18027Y139052D01*
X17954Y139098D01*
X17941Y139105D01*
X17901Y139131D01*
X17888Y139138D01*
X17842Y139171D01*
X17829Y139178D01*
X17815Y139191D01*
X17802Y139197D01*
X17709Y139264D01*
X17696Y139270D01*
X17603Y139336D01*
X17590Y139343D01*
X17577Y139356D01*
X17564Y139363D01*
X17544Y139383D01*
X17531Y139389D01*
X17517Y139403D01*
X17504Y139409D01*
X17484Y139429D01*
X17471Y139436D01*
X17458Y139449D01*
X17444Y139456D01*
X17425Y139475D01*
X17411Y139482D01*
X17398Y139495D01*
X17385Y139502D01*
X17365Y139522D01*
X17352Y139528D01*
X17339Y139542D01*
X17325Y139548D01*
X17306Y139568D01*
X17292Y139575D01*
X17259Y139608D01*
X17246Y139614D01*
X17206Y139654D01*
X17193Y139661D01*
X17153Y139701D01*
X17140Y139707D01*
X17100Y139747D01*
X17087Y139754D01*
X17047Y139793D01*
X17034Y139800D01*
X16816Y140018D01*
X16802Y140025D01*
X16746Y140081D01*
X16739Y140094D01*
X16686Y140147D01*
X16680Y140161D01*
X16627Y140214D01*
X16620Y140227D01*
X16567Y140280D01*
X16561Y140293D01*
X16508Y140346D01*
X16501Y140359D01*
X16481Y140379D01*
X16475Y140392D01*
X16461Y140406D01*
X16455Y140419D01*
X16435Y140439D01*
X16428Y140452D01*
X16408Y140472D01*
X16402Y140485D01*
X16388Y140498D01*
X16372Y140521D01*
X16299Y140614D01*
X16269Y140651D01*
X16263Y140664D01*
X16249Y140677D01*
X16243Y140690D01*
X16177Y140783D01*
X16170Y140796D01*
X16120Y140866D01*
X16094Y140906D01*
X16051Y140968D01*
X16044Y140982D01*
X16011Y141035D01*
X16005Y141048D01*
X15958Y141121D01*
X15951Y141134D01*
X15918Y141187D01*
X15912Y141200D01*
X15879Y141253D01*
X15812Y141379D01*
X15693Y141611D01*
X15614Y141789D01*
X15564Y141899D01*
X15445Y142217D01*
X15402Y142339D01*
X15323Y142597D01*
X15306Y142653D01*
X15299Y142687D01*
X15227Y142978D01*
X15220Y143011D01*
X15213Y143037D01*
X15207Y143077D01*
X15193Y143143D01*
X15187Y143183D01*
X15180Y143216D01*
X15174Y143256D01*
X15160Y143322D01*
X15154Y143362D01*
X15147Y143395D01*
X15141Y143435D01*
X15134Y143488D01*
X15124Y143577D01*
X15117Y143603D01*
X15107Y143693D01*
X15094Y143799D01*
X15087Y143858D01*
X15081Y143951D01*
X15074Y144037D01*
X15064Y144199D01*
X15058Y144219D01*
X15051Y144643D01*
X15044Y144663D01*
X15048Y144726D01*
X15054Y144997D01*
X15061Y145169D01*
X15068Y145262D01*
X15081Y145434D01*
X15091Y145570D01*
X15097Y145596D01*
X15117Y145775D01*
X15124Y145802D01*
X15134Y145891D01*
X15141Y145944D01*
X15154Y146023D01*
X15167Y146090D01*
X15174Y146129D01*
X15187Y146195D01*
X15193Y146235D01*
X15200Y146268D01*
X15207Y146308D01*
X15220Y146374D01*
X15293Y146666D01*
X15303Y146709D01*
X15323Y146775D01*
X15375Y146947D01*
X15409Y147053D01*
X15432Y147129D01*
X15472Y147235D01*
X15485Y147268D01*
X15524Y147374D01*
X15541Y147417D01*
X15554Y147450D01*
X15574Y147497D01*
X15607Y147569D01*
X15660Y147689D01*
X15746Y147867D01*
X15879Y148119D01*
X15885Y148132D01*
X15918Y148185D01*
X15925Y148198D01*
X15971Y148271D01*
X15978Y148284D01*
X16011Y148337D01*
X16018Y148351D01*
X16064Y148423D01*
X16071Y148437D01*
X16170Y148576D01*
X16177Y148589D01*
X16243Y148682D01*
X16249Y148695D01*
X16263Y148708D01*
X16269Y148721D01*
X16283Y148735D01*
X16289Y148748D01*
X16309Y148768D01*
X16316Y148781D01*
X16329Y148794D01*
X16336Y148807D01*
X16355Y148827D01*
X16362Y148841D01*
X16382Y148860D01*
X16388Y148874D01*
X16408Y148893D01*
X16415Y148907D01*
X16435Y148927D01*
X16441Y148940D01*
X16461Y148960D01*
X16468Y148973D01*
X16488Y148993D01*
X16494Y149006D01*
X16534Y149046D01*
X16541Y149059D01*
X16594Y149112D01*
X16600Y149125D01*
X16660Y149185D01*
X16667Y149198D01*
X16719Y149251D01*
X16726Y149264D01*
X16882Y149420D01*
X16895Y149426D01*
X17034Y149565D01*
X17047Y149572D01*
X17087Y149612D01*
X17100Y149619D01*
X17140Y149658D01*
X17153Y149665D01*
X17193Y149705D01*
X17206Y149711D01*
X17239Y149744D01*
X17253Y149751D01*
X17286Y149784D01*
X17299Y149791D01*
X17319Y149810D01*
X17332Y149817D01*
X17345Y149830D01*
X17358Y149837D01*
X17378Y149857D01*
X17392Y149863D01*
X17405Y149877D01*
X17418Y149883D01*
X17431Y149896D01*
X17444Y149903D01*
X17464Y149923D01*
X17478Y149930D01*
X17491Y149943D01*
X17504Y149950D01*
X17524Y149969D01*
X17537Y149976D01*
X17550Y149989D01*
X17564Y149996D01*
X17577Y150009D01*
X17590Y150016D01*
X17603Y150029D01*
X17617Y150036D01*
X17663Y150069D01*
X17676Y150075D01*
X17689Y150089D01*
X17703Y150095D01*
X17795Y150161D01*
X17809Y150168D01*
X17901Y150234D01*
X17915Y150241D01*
X17967Y150274D01*
X17981Y150281D01*
X18054Y150327D01*
X18067Y150333D01*
X18107Y150360D01*
X18120Y150367D01*
X18173Y150400D01*
X18186Y150406D01*
X18239Y150439D01*
X18312Y150479D01*
X18371Y150512D01*
X18517Y150592D01*
X18871Y150767D01*
X19268Y150939D01*
X19302Y150953D01*
X19672Y151092D01*
X19775Y151128D01*
X20099Y151234D01*
X20285Y151287D01*
X20311Y151293D01*
X20450Y151333D01*
X20487Y151343D01*
X20646Y151383D01*
X20679Y151390D01*
X20838Y151429D01*
X20871Y151436D01*
X20950Y151456D01*
X21149Y151496D01*
X21175Y151502D01*
X21407Y151548D01*
X21804Y151615D01*
X21890Y151628D01*
X21973Y151638D01*
X22000Y151644D01*
X22089Y151654D01*
X22225Y151671D01*
X22251Y151678D01*
X22341Y151687D01*
X22804Y151734D01*
X22989Y151747D01*
X23274Y151767D01*
X23400Y151774D01*
X23708Y151783D01*
X23728Y151790D01*
X26459Y151793D01*
X26723Y151787D01*
D02*
G37*
G36*
X33606Y134642D02*
X33632Y134636D01*
X33679Y134616D01*
X33702Y134593D01*
X33708Y134579D01*
X33801Y134487D01*
X33808Y134473D01*
X33900Y134381D01*
X33907Y134368D01*
X34006Y134268D01*
X34013Y134255D01*
X34106Y134162D01*
X34112Y134149D01*
X34205Y134056D01*
X34212Y134043D01*
X34311Y133944D01*
X34318Y133931D01*
X34410Y133838D01*
X34417Y133825D01*
X34516Y133725D01*
X34523Y133712D01*
X34615Y133619D01*
X34622Y133606D01*
X34715Y133513D01*
X34721Y133500D01*
X34821Y133401D01*
X34827Y133388D01*
X34920Y133295D01*
X34927Y133282D01*
X34993Y133216D01*
X35026Y133156D01*
X35032Y133096D01*
X35026Y133050D01*
X35006Y133004D01*
X34937Y132934D01*
X34923Y132928D01*
X34837Y132841D01*
X34824Y132835D01*
X34745Y132755D01*
X34731Y132749D01*
X34652Y132669D01*
X34639Y132663D01*
X34559Y132583D01*
X34546Y132577D01*
X34460Y132491D01*
X34447Y132484D01*
X34367Y132404D01*
X34354Y132398D01*
X34274Y132318D01*
X34261Y132312D01*
X34175Y132226D01*
X34162Y132219D01*
X34083Y132140D01*
X34069Y132133D01*
X33990Y132054D01*
X33977Y132047D01*
X33891Y131961D01*
X33877Y131954D01*
X33798Y131875D01*
X33784Y131868D01*
X33705Y131789D01*
X33692Y131782D01*
X33606Y131696D01*
X33593Y131689D01*
X33513Y131610D01*
X33500Y131603D01*
X33420Y131524D01*
X33407Y131517D01*
X33328Y131438D01*
X33314Y131431D01*
X33228Y131345D01*
X33215Y131339D01*
X33136Y131259D01*
X33122Y131252D01*
X33043Y131173D01*
X33030Y131166D01*
X32944Y131080D01*
X32931Y131074D01*
X32851Y130994D01*
X32838Y130988D01*
X32758Y130908D01*
X32745Y130902D01*
X32659Y130815D01*
X32646Y130809D01*
X32566Y130729D01*
X32553Y130723D01*
X32474Y130643D01*
X32460Y130637D01*
X32374Y130551D01*
X32361Y130544D01*
X32282Y130465D01*
X32268Y130458D01*
X32189Y130379D01*
X32176Y130372D01*
X32096Y130292D01*
X32083Y130286D01*
X31997Y130200D01*
X31984Y130193D01*
X31904Y130114D01*
X31891Y130107D01*
X31811Y130028D01*
X31798Y130021D01*
X31712Y129935D01*
X31699Y129928D01*
X31620Y129849D01*
X31606Y129842D01*
X31527Y129763D01*
X31514Y129756D01*
X31428Y129670D01*
X31414Y129663D01*
X31335Y129584D01*
X31322Y129577D01*
X31242Y129498D01*
X31229Y129491D01*
X31143Y129405D01*
X31130Y129399D01*
X31050Y129319D01*
X31037Y129313D01*
X30958Y129233D01*
X30944Y129227D01*
X30865Y129147D01*
X30852Y129140D01*
X30766Y129054D01*
X30752Y129048D01*
X30673Y128968D01*
X30659Y128962D01*
X30580Y128882D01*
X30567Y128876D01*
X30481Y128790D01*
X30468Y128783D01*
X30388Y128703D01*
X30375Y128697D01*
X30295Y128617D01*
X30282Y128611D01*
X30196Y128525D01*
X30183Y128518D01*
X30103Y128439D01*
X30090Y128432D01*
X30011Y128353D01*
X29997Y128346D01*
X29911Y128260D01*
X29898Y128253D01*
X29819Y128174D01*
X29806Y128167D01*
X29726Y128088D01*
X29713Y128081D01*
X29633Y128002D01*
X29620Y127995D01*
X29564Y127939D01*
X29640Y127863D01*
X29653Y127856D01*
X29733Y127777D01*
X29746Y127770D01*
X29825Y127690D01*
X29839Y127684D01*
X29918Y127604D01*
X29931Y127598D01*
X30011Y127518D01*
X30024Y127512D01*
X30097Y127439D01*
X30110Y127432D01*
X30189Y127353D01*
X30203Y127346D01*
X30282Y127267D01*
X30295Y127260D01*
X30375Y127181D01*
X30388Y127174D01*
X30468Y127095D01*
X30481Y127088D01*
X30554Y127015D01*
X30567Y127009D01*
X30646Y126929D01*
X30659Y126923D01*
X30739Y126843D01*
X30752Y126836D01*
X30832Y126757D01*
X30845Y126750D01*
X30924Y126671D01*
X30938Y126664D01*
X31010Y126591D01*
X31024Y126585D01*
X31103Y126505D01*
X31116Y126499D01*
X31196Y126419D01*
X31209Y126413D01*
X31288Y126333D01*
X31302Y126327D01*
X31381Y126247D01*
X31395Y126241D01*
X31467Y126168D01*
X31481Y126161D01*
X31560Y126082D01*
X31573Y126075D01*
X31653Y125996D01*
X31666Y125989D01*
X31745Y125910D01*
X31759Y125903D01*
X31831Y125830D01*
X31845Y125823D01*
X31924Y125744D01*
X31937Y125737D01*
X32017Y125658D01*
X32030Y125651D01*
X32109Y125572D01*
X32123Y125565D01*
X32202Y125486D01*
X32215Y125479D01*
X32288Y125406D01*
X32301Y125400D01*
X32381Y125320D01*
X32394Y125314D01*
X32474Y125234D01*
X32487Y125228D01*
X32566Y125148D01*
X32580Y125141D01*
X32659Y125062D01*
X32672Y125055D01*
X32745Y124983D01*
X32758Y124976D01*
X32838Y124896D01*
X32851Y124890D01*
X32931Y124810D01*
X32944Y124804D01*
X33023Y124724D01*
X33036Y124718D01*
X33116Y124638D01*
X33129Y124632D01*
X33202Y124559D01*
X33215Y124552D01*
X33295Y124473D01*
X33308Y124466D01*
X33387Y124387D01*
X33400Y124380D01*
X33480Y124301D01*
X33493Y124294D01*
X33573Y124215D01*
X33586Y124208D01*
X33659Y124135D01*
X33672Y124129D01*
X33751Y124049D01*
X33765Y124042D01*
X33844Y123963D01*
X33857Y123956D01*
X33937Y123877D01*
X33950Y123870D01*
X34030Y123791D01*
X34043Y123784D01*
X34116Y123711D01*
X34129Y123705D01*
X34208Y123625D01*
X34221Y123619D01*
X34301Y123539D01*
X34314Y123533D01*
X34394Y123453D01*
X34407Y123447D01*
X34486Y123367D01*
X34500Y123361D01*
X34572Y123288D01*
X34586Y123281D01*
X34665Y123202D01*
X34678Y123195D01*
X34758Y123116D01*
X34771Y123109D01*
X34850Y123029D01*
X34864Y123023D01*
X34943Y122943D01*
X34956Y122937D01*
X34999Y122894D01*
X35026Y122847D01*
X35032Y122788D01*
X35026Y122741D01*
X35006Y122695D01*
X34999Y122682D01*
X34960Y122642D01*
X34953Y122629D01*
X34860Y122536D01*
X34854Y122523D01*
X34755Y122424D01*
X34748Y122410D01*
X34655Y122318D01*
X34648Y122304D01*
X34549Y122205D01*
X34543Y122192D01*
X34450Y122099D01*
X34443Y122086D01*
X34351Y121993D01*
X34344Y121980D01*
X34245Y121881D01*
X34238Y121868D01*
X34192Y121821D01*
X34188Y121818D01*
X34145Y121775D01*
X34139Y121762D01*
X34046Y121669D01*
X34039Y121656D01*
X33940Y121556D01*
X33933Y121543D01*
X33841Y121450D01*
X33834Y121437D01*
X33735Y121338D01*
X33728Y121325D01*
X33685Y121282D01*
X33672Y121275D01*
X33662Y121265D01*
X33629Y121252D01*
X33579Y121242D01*
X33533Y121249D01*
X33473Y121275D01*
X33460Y121282D01*
X33387Y121354D01*
X33374Y121361D01*
X33281Y121454D01*
X33268Y121460D01*
X33169Y121560D01*
X33156Y121566D01*
X33063Y121659D01*
X33050Y121666D01*
X32957Y121758D01*
X32944Y121765D01*
X32844Y121864D01*
X32831Y121871D01*
X32738Y121964D01*
X32725Y121970D01*
X32633Y122063D01*
X32619Y122070D01*
X32520Y122169D01*
X32507Y122175D01*
X32414Y122268D01*
X32401Y122275D01*
X32301Y122374D01*
X32288Y122381D01*
X32196Y122473D01*
X32182Y122480D01*
X32090Y122573D01*
X32076Y122579D01*
X31977Y122679D01*
X31964Y122685D01*
X31871Y122778D01*
X31858Y122785D01*
X31765Y122877D01*
X31752Y122884D01*
X31653Y122983D01*
X31639Y122990D01*
X31547Y123082D01*
X31534Y123089D01*
X31441Y123182D01*
X31428Y123188D01*
X31328Y123288D01*
X31315Y123294D01*
X31222Y123387D01*
X31209Y123394D01*
X31116Y123486D01*
X31103Y123493D01*
X31004Y123592D01*
X30991Y123599D01*
X30898Y123692D01*
X30885Y123698D01*
X30792Y123791D01*
X30779Y123798D01*
X30679Y123897D01*
X30666Y123903D01*
X30573Y123996D01*
X30560Y124003D01*
X30461Y124102D01*
X30448Y124109D01*
X30355Y124201D01*
X30342Y124208D01*
X30249Y124301D01*
X30236Y124307D01*
X30136Y124407D01*
X30123Y124413D01*
X30031Y124506D01*
X30017Y124513D01*
X29925Y124605D01*
X29911Y124612D01*
X29812Y124711D01*
X29799Y124718D01*
X29706Y124810D01*
X29693Y124817D01*
X29600Y124910D01*
X29587Y124916D01*
X29488Y125016D01*
X29474Y125022D01*
X29382Y125115D01*
X29369Y125122D01*
X29276Y125214D01*
X29263Y125221D01*
X29163Y125320D01*
X29150Y125327D01*
X29057Y125420D01*
X29044Y125426D01*
X28951Y125519D01*
X28938Y125526D01*
X28839Y125625D01*
X28826Y125631D01*
X28733Y125724D01*
X28720Y125731D01*
X28627Y125823D01*
X28614Y125830D01*
X28514Y125929D01*
X28501Y125936D01*
X28409Y126029D01*
X28395Y126035D01*
X28296Y126135D01*
X28283Y126141D01*
X28190Y126234D01*
X28177Y126241D01*
X28084Y126333D01*
X28071Y126340D01*
X27971Y126439D01*
X27958Y126446D01*
X27925Y126413D01*
X27912Y126406D01*
X27813Y126307D01*
X27799Y126300D01*
X27707Y126207D01*
X27693Y126201D01*
X27601Y126108D01*
X27587Y126102D01*
X27488Y126002D01*
X27475Y125996D01*
X27382Y125903D01*
X27369Y125896D01*
X27276Y125804D01*
X27263Y125797D01*
X27164Y125698D01*
X27150Y125691D01*
X27058Y125598D01*
X27045Y125592D01*
X26952Y125499D01*
X26939Y125492D01*
X26839Y125393D01*
X26826Y125386D01*
X26733Y125294D01*
X26720Y125287D01*
X26628Y125195D01*
X26614Y125188D01*
X26515Y125089D01*
X26502Y125082D01*
X26409Y124989D01*
X26396Y124983D01*
X26303Y124890D01*
X26290Y124883D01*
X26191Y124784D01*
X26177Y124777D01*
X26085Y124685D01*
X26071Y124678D01*
X25979Y124585D01*
X25965Y124579D01*
X25866Y124479D01*
X25853Y124473D01*
X25760Y124380D01*
X25747Y124374D01*
X25648Y124274D01*
X25634Y124268D01*
X25542Y124175D01*
X25528Y124168D01*
X25436Y124075D01*
X25422Y124069D01*
X25323Y123970D01*
X25310Y123963D01*
X25217Y123870D01*
X25204Y123864D01*
X25111Y123771D01*
X25098Y123764D01*
X24999Y123665D01*
X24985Y123659D01*
X24893Y123566D01*
X24880Y123559D01*
X24787Y123467D01*
X24774Y123460D01*
X24674Y123361D01*
X24661Y123354D01*
X24568Y123261D01*
X24555Y123255D01*
X24462Y123162D01*
X24449Y123155D01*
X24350Y123056D01*
X24337Y123049D01*
X24244Y122957D01*
X24231Y122950D01*
X24138Y122857D01*
X24125Y122851D01*
X24025Y122751D01*
X24012Y122745D01*
X23920Y122652D01*
X23906Y122646D01*
X23807Y122546D01*
X23794Y122540D01*
X23701Y122447D01*
X23688Y122440D01*
X23595Y122347D01*
X23582Y122341D01*
X23483Y122242D01*
X23469Y122235D01*
X23377Y122142D01*
X23363Y122136D01*
X23271Y122043D01*
X23258Y122036D01*
X23158Y121937D01*
X23145Y121930D01*
X23052Y121838D01*
X23039Y121831D01*
X22946Y121738D01*
X22933Y121732D01*
X22834Y121632D01*
X22821Y121626D01*
X22728Y121533D01*
X22715Y121527D01*
X22622Y121434D01*
X22609Y121427D01*
X22509Y121328D01*
X22496Y121321D01*
X22456Y121282D01*
X22410Y121255D01*
X22384Y121249D01*
X22364Y121242D01*
X22297Y121249D01*
X22264Y121262D01*
X22251Y121268D01*
X22135Y121384D01*
X22129Y121397D01*
X22036Y121490D01*
X22029Y121503D01*
X21937Y121596D01*
X21930Y121609D01*
X21831Y121709D01*
X21824Y121722D01*
X21732Y121815D01*
X21725Y121828D01*
X21625Y121927D01*
X21619Y121940D01*
X21526Y122033D01*
X21520Y122046D01*
X21427Y122139D01*
X21420Y122152D01*
X21321Y122252D01*
X21314Y122265D01*
X21222Y122358D01*
X21215Y122371D01*
X21122Y122463D01*
X21116Y122477D01*
X21016Y122576D01*
X21010Y122589D01*
X20930Y122669D01*
X20897Y122728D01*
X20891Y122768D01*
X20884Y122788D01*
X20891Y122821D01*
X20897Y122847D01*
X20910Y122880D01*
X21013Y122983D01*
X21026Y122990D01*
X21106Y123069D01*
X21119Y123076D01*
X21192Y123149D01*
X21205Y123155D01*
X21284Y123235D01*
X21298Y123241D01*
X21377Y123321D01*
X21391Y123327D01*
X21470Y123407D01*
X21483Y123413D01*
X21563Y123493D01*
X21576Y123499D01*
X21649Y123572D01*
X21662Y123579D01*
X21741Y123659D01*
X21755Y123665D01*
X21834Y123744D01*
X21847Y123751D01*
X21927Y123831D01*
X21940Y123837D01*
X22019Y123917D01*
X22033Y123923D01*
X22106Y123996D01*
X22119Y124003D01*
X22198Y124082D01*
X22211Y124089D01*
X22291Y124168D01*
X22304Y124175D01*
X22384Y124254D01*
X22397Y124261D01*
X22476Y124340D01*
X22490Y124347D01*
X22562Y124420D01*
X22576Y124426D01*
X22655Y124506D01*
X22668Y124513D01*
X22748Y124592D01*
X22761Y124599D01*
X22840Y124678D01*
X22854Y124685D01*
X22933Y124764D01*
X22946Y124771D01*
X23019Y124844D01*
X23032Y124850D01*
X23112Y124930D01*
X23125Y124936D01*
X23205Y125016D01*
X23218Y125022D01*
X23297Y125102D01*
X23310Y125108D01*
X23390Y125188D01*
X23403Y125195D01*
X23483Y125274D01*
X23496Y125281D01*
X23569Y125353D01*
X23582Y125360D01*
X23661Y125439D01*
X23675Y125446D01*
X23754Y125526D01*
X23767Y125532D01*
X23847Y125612D01*
X23860Y125618D01*
X23939Y125698D01*
X23953Y125704D01*
X24025Y125777D01*
X24039Y125784D01*
X24118Y125863D01*
X24132Y125870D01*
X24211Y125949D01*
X24224Y125956D01*
X24304Y126035D01*
X24317Y126042D01*
X24396Y126121D01*
X24409Y126128D01*
X24482Y126201D01*
X24496Y126207D01*
X24575Y126287D01*
X24588Y126293D01*
X24668Y126373D01*
X24681Y126380D01*
X24760Y126459D01*
X24774Y126466D01*
X24853Y126545D01*
X24866Y126552D01*
X24939Y126625D01*
X24952Y126631D01*
X25032Y126711D01*
X25045Y126717D01*
X25125Y126797D01*
X25138Y126803D01*
X25217Y126883D01*
X25231Y126889D01*
X25310Y126969D01*
X25323Y126975D01*
X25396Y127048D01*
X25409Y127055D01*
X25489Y127134D01*
X25502Y127141D01*
X25581Y127220D01*
X25595Y127227D01*
X25674Y127306D01*
X25687Y127313D01*
X25767Y127393D01*
X25780Y127399D01*
X25859Y127479D01*
X25873Y127485D01*
X25946Y127558D01*
X25959Y127565D01*
X26038Y127644D01*
X26051Y127651D01*
X26131Y127730D01*
X26144Y127737D01*
X26224Y127816D01*
X26237Y127823D01*
X26316Y127902D01*
X26330Y127909D01*
X26346Y127926D01*
X26353Y127939D01*
X26270Y128021D01*
X26257Y128028D01*
X26177Y128108D01*
X26164Y128114D01*
X26085Y128194D01*
X26071Y128200D01*
X25985Y128286D01*
X25972Y128293D01*
X25893Y128372D01*
X25879Y128379D01*
X25800Y128458D01*
X25787Y128465D01*
X25701Y128551D01*
X25687Y128558D01*
X25608Y128637D01*
X25595Y128644D01*
X25515Y128723D01*
X25502Y128730D01*
X25422Y128809D01*
X25409Y128816D01*
X25323Y128902D01*
X25310Y128909D01*
X25231Y128988D01*
X25217Y128995D01*
X25138Y129074D01*
X25125Y129081D01*
X25038Y129167D01*
X25025Y129174D01*
X24946Y129253D01*
X24933Y129260D01*
X24853Y129339D01*
X24840Y129346D01*
X24754Y129432D01*
X24741Y129438D01*
X24661Y129518D01*
X24648Y129524D01*
X24568Y129604D01*
X24555Y129611D01*
X24469Y129697D01*
X24456Y129703D01*
X24376Y129783D01*
X24363Y129789D01*
X24284Y129869D01*
X24271Y129875D01*
X24184Y129961D01*
X24171Y129968D01*
X24092Y130048D01*
X24079Y130054D01*
X23999Y130133D01*
X23986Y130140D01*
X23900Y130226D01*
X23886Y130233D01*
X23807Y130312D01*
X23794Y130319D01*
X23714Y130398D01*
X23701Y130405D01*
X23615Y130491D01*
X23602Y130498D01*
X23522Y130577D01*
X23509Y130584D01*
X23430Y130663D01*
X23416Y130670D01*
X23330Y130756D01*
X23317Y130763D01*
X23238Y130842D01*
X23224Y130849D01*
X23145Y130928D01*
X23132Y130935D01*
X23046Y131021D01*
X23032Y131027D01*
X22953Y131107D01*
X22940Y131113D01*
X22860Y131193D01*
X22847Y131200D01*
X22768Y131279D01*
X22754Y131286D01*
X22668Y131372D01*
X22655Y131378D01*
X22576Y131458D01*
X22562Y131464D01*
X22483Y131544D01*
X22470Y131550D01*
X22384Y131636D01*
X22370Y131643D01*
X22291Y131722D01*
X22278Y131729D01*
X22198Y131809D01*
X22185Y131815D01*
X22099Y131901D01*
X22086Y131908D01*
X22006Y131987D01*
X21993Y131994D01*
X21913Y132073D01*
X21900Y132080D01*
X21814Y132166D01*
X21801Y132173D01*
X21721Y132252D01*
X21708Y132259D01*
X21629Y132338D01*
X21616Y132345D01*
X21530Y132431D01*
X21516Y132438D01*
X21437Y132517D01*
X21424Y132524D01*
X21344Y132603D01*
X21331Y132610D01*
X21245Y132696D01*
X21232Y132702D01*
X21152Y132782D01*
X21139Y132788D01*
X21059Y132868D01*
X21046Y132875D01*
X20960Y132961D01*
X20947Y132967D01*
X20937Y132977D01*
X20904Y133024D01*
X20894Y133047D01*
X20887Y133086D01*
X20891Y133130D01*
X20897Y133156D01*
X20910Y133189D01*
X20917Y133202D01*
X20930Y133216D01*
X20937Y133229D01*
X21030Y133322D01*
X21036Y133335D01*
X21129Y133427D01*
X21136Y133441D01*
X21235Y133540D01*
X21242Y133553D01*
X21334Y133646D01*
X21341Y133659D01*
X21440Y133758D01*
X21447Y133772D01*
X21539Y133864D01*
X21546Y133878D01*
X21639Y133970D01*
X21645Y133983D01*
X21745Y134083D01*
X21751Y134096D01*
X21844Y134189D01*
X21851Y134202D01*
X21943Y134295D01*
X21950Y134308D01*
X22049Y134407D01*
X22056Y134420D01*
X22148Y134513D01*
X22155Y134526D01*
X22238Y134609D01*
X22261Y134626D01*
X22294Y134639D01*
X22327Y134646D01*
X22384Y134642D01*
X22443Y134616D01*
X22456Y134609D01*
X22516Y134550D01*
X22529Y134543D01*
X22629Y134444D01*
X22642Y134437D01*
X22734Y134344D01*
X22748Y134338D01*
X22840Y134245D01*
X22854Y134238D01*
X22953Y134139D01*
X22966Y134132D01*
X23059Y134040D01*
X23072Y134033D01*
X23165Y133940D01*
X23178Y133934D01*
X23277Y133835D01*
X23291Y133828D01*
X23383Y133735D01*
X23396Y133729D01*
X23496Y133629D01*
X23509Y133623D01*
X23602Y133530D01*
X23615Y133523D01*
X23708Y133431D01*
X23721Y133424D01*
X23820Y133325D01*
X23833Y133318D01*
X23926Y133225D01*
X23939Y133219D01*
X24032Y133126D01*
X24045Y133119D01*
X24145Y133020D01*
X24158Y133014D01*
X24251Y132921D01*
X24264Y132914D01*
X24357Y132822D01*
X24370Y132815D01*
X24469Y132716D01*
X24482Y132709D01*
X24575Y132616D01*
X24588Y132610D01*
X24681Y132517D01*
X24694Y132510D01*
X24794Y132411D01*
X24807Y132404D01*
X24899Y132312D01*
X24913Y132305D01*
X25005Y132212D01*
X25019Y132206D01*
X25118Y132107D01*
X25131Y132100D01*
X25224Y132007D01*
X25237Y132001D01*
X25330Y131908D01*
X25343Y131901D01*
X25442Y131802D01*
X25456Y131795D01*
X25548Y131703D01*
X25561Y131696D01*
X25661Y131597D01*
X25674Y131590D01*
X25767Y131497D01*
X25780Y131491D01*
X25873Y131398D01*
X25886Y131391D01*
X25985Y131292D01*
X25998Y131286D01*
X26091Y131193D01*
X26104Y131186D01*
X26197Y131094D01*
X26210Y131087D01*
X26310Y130988D01*
X26323Y130981D01*
X26416Y130888D01*
X26429Y130882D01*
X26522Y130789D01*
X26535Y130782D01*
X26634Y130683D01*
X26647Y130676D01*
X26740Y130584D01*
X26753Y130577D01*
X26846Y130484D01*
X26859Y130478D01*
X26958Y130379D01*
X26972Y130372D01*
X27064Y130279D01*
X27078Y130273D01*
X27170Y130180D01*
X27184Y130173D01*
X27283Y130074D01*
X27296Y130067D01*
X27389Y129975D01*
X27402Y129968D01*
X27501Y129869D01*
X27515Y129862D01*
X27607Y129769D01*
X27621Y129763D01*
X27713Y129670D01*
X27727Y129663D01*
X27826Y129564D01*
X27839Y129558D01*
X27915Y129481D01*
X27952Y129452D01*
X27965Y129445D01*
X28038Y129518D01*
X28051Y129524D01*
X28144Y129617D01*
X28157Y129624D01*
X28250Y129717D01*
X28263Y129723D01*
X28362Y129822D01*
X28375Y129829D01*
X28468Y129922D01*
X28481Y129928D01*
X28574Y130021D01*
X28587Y130028D01*
X28687Y130127D01*
X28700Y130133D01*
X28793Y130226D01*
X28806Y130233D01*
X28898Y130325D01*
X28912Y130332D01*
X29011Y130431D01*
X29024Y130438D01*
X29117Y130531D01*
X29130Y130537D01*
X29230Y130637D01*
X29243Y130643D01*
X29335Y130736D01*
X29349Y130743D01*
X29441Y130835D01*
X29455Y130842D01*
X29554Y130941D01*
X29567Y130948D01*
X29660Y131041D01*
X29673Y131047D01*
X29766Y131140D01*
X29779Y131146D01*
X29878Y131246D01*
X29892Y131252D01*
X29984Y131345D01*
X29997Y131352D01*
X30090Y131445D01*
X30103Y131451D01*
X30203Y131550D01*
X30216Y131557D01*
X30309Y131650D01*
X30322Y131656D01*
X30415Y131749D01*
X30428Y131756D01*
X30527Y131855D01*
X30540Y131862D01*
X30633Y131954D01*
X30646Y131961D01*
X30739Y132054D01*
X30752Y132060D01*
X30852Y132160D01*
X30865Y132166D01*
X30958Y132259D01*
X30971Y132265D01*
X31070Y132365D01*
X31083Y132371D01*
X31176Y132464D01*
X31189Y132471D01*
X31282Y132563D01*
X31295Y132570D01*
X31395Y132669D01*
X31408Y132676D01*
X31500Y132769D01*
X31514Y132775D01*
X31606Y132868D01*
X31620Y132875D01*
X31719Y132974D01*
X31732Y132980D01*
X31825Y133073D01*
X31838Y133080D01*
X31931Y133173D01*
X31944Y133179D01*
X32043Y133278D01*
X32057Y133285D01*
X32149Y133378D01*
X32162Y133384D01*
X32255Y133477D01*
X32268Y133484D01*
X32368Y133583D01*
X32381Y133590D01*
X32474Y133682D01*
X32487Y133689D01*
X32580Y133782D01*
X32593Y133788D01*
X32692Y133888D01*
X32705Y133894D01*
X32798Y133987D01*
X32811Y133994D01*
X32904Y134086D01*
X32917Y134093D01*
X33017Y134192D01*
X33030Y134199D01*
X33122Y134291D01*
X33136Y134298D01*
X33235Y134397D01*
X33248Y134404D01*
X33341Y134497D01*
X33354Y134503D01*
X33430Y134579D01*
X33467Y134609D01*
X33513Y134636D01*
X33553Y134642D01*
X33573Y134649D01*
X33606Y134642D01*
D02*
G37*
G36*
X34857Y118461D02*
X34884Y118455D01*
X34917Y118441D01*
X34940Y118418D01*
X34973Y118358D01*
X34980Y107573D01*
X34973Y107527D01*
X34966Y107500D01*
X34953Y107467D01*
X34923Y107438D01*
X34877Y107411D01*
X33096Y107404D01*
X33070Y107411D01*
X33023Y107431D01*
X33003Y107451D01*
X32960Y107514D01*
X32954Y111725D01*
X21079Y111728D01*
X21053Y111734D01*
X21020Y111748D01*
X21000Y111768D01*
X20987Y111774D01*
X20950Y111831D01*
X20944Y117769D01*
X20950Y117796D01*
X20970Y117842D01*
X20977Y117855D01*
X20987Y117865D01*
X21046Y117898D01*
X22801Y117905D01*
X22847Y117898D01*
X22893Y117879D01*
X22923Y117849D01*
X22956Y117802D01*
X22963Y114121D01*
X28819Y114118D01*
X32950D01*
X32954Y118312D01*
X32960Y118358D01*
X32980Y118405D01*
X33003Y118428D01*
X33063Y118461D01*
X34811Y118468D01*
X34857Y118461D01*
D02*
G37*
G36*
X17736Y114701D02*
X17762Y114694D01*
X17795Y114681D01*
X17819Y114657D01*
X17852Y114598D01*
X17858Y111758D01*
X17852Y111731D01*
X17845Y111711D01*
X17838Y111685D01*
X17825Y111672D01*
X17819Y111658D01*
X17762Y111622D01*
X17173Y111615D01*
X14902D01*
X14876Y111622D01*
X14829Y111642D01*
X14816Y111648D01*
X14799Y111672D01*
X14773Y111718D01*
X14766Y114532D01*
X14773Y114598D01*
X14793Y114644D01*
X14816Y114668D01*
X14876Y114701D01*
X17670Y114707D01*
X17736Y114701D01*
D02*
G37*
G36*
X28309Y106219D02*
X28495Y106213D01*
X28581Y106206D01*
X28776Y106196D01*
X29140Y106163D01*
X29223Y106153D01*
X29249Y106146D01*
X29339Y106137D01*
X29498Y106117D01*
X29776Y106070D01*
X29809Y106064D01*
X29888Y106051D01*
X29987Y106031D01*
X30014Y106024D01*
X30080Y106011D01*
X30107Y106004D01*
X30206Y105984D01*
X30249Y105974D01*
X30434Y105928D01*
X30481Y105915D01*
X30613Y105882D01*
X30746Y105842D01*
X30792Y105829D01*
X30924Y105789D01*
X31020Y105759D01*
X31193Y105700D01*
X31305Y105660D01*
X31504Y105581D01*
X31547Y105564D01*
X31580Y105551D01*
X31626Y105531D01*
X31686Y105504D01*
X31759Y105471D01*
X31818Y105445D01*
X32222Y105246D01*
X32282Y105213D01*
X32328Y105187D01*
X32388Y105153D01*
X32434Y105127D01*
X32520Y105081D01*
X32566Y105048D01*
X32580Y105041D01*
X32652Y104994D01*
X32699Y104968D01*
X32745Y104935D01*
X32758Y104928D01*
X32844Y104869D01*
X32858Y104862D01*
X32871Y104849D01*
X32884Y104842D01*
X33023Y104743D01*
X33036Y104736D01*
X33050Y104723D01*
X33063Y104717D01*
X33083Y104697D01*
X33096Y104690D01*
X33109Y104677D01*
X33122Y104670D01*
X33142Y104650D01*
X33156Y104644D01*
X33169Y104630D01*
X33182Y104624D01*
X33202Y104604D01*
X33215Y104597D01*
X33228Y104584D01*
X33242Y104577D01*
X33261Y104558D01*
X33275Y104551D01*
X33295Y104531D01*
X33308Y104524D01*
X33348Y104485D01*
X33361Y104478D01*
X33394Y104445D01*
X33407Y104438D01*
X33440Y104405D01*
X33454Y104399D01*
X33487Y104366D01*
X33500Y104359D01*
X33579Y104279D01*
X33593Y104273D01*
X33841Y104025D01*
X33847Y104011D01*
X33947Y103912D01*
X33953Y103899D01*
X33980Y103872D01*
X33986Y103859D01*
X34020Y103826D01*
X34026Y103813D01*
X34053Y103786D01*
X34059Y103773D01*
X34086Y103747D01*
X34092Y103733D01*
X34109Y103717D01*
X34139Y103680D01*
X34185Y103621D01*
X34188Y103617D01*
X34192Y103614D01*
X34198Y103601D01*
X34221Y103571D01*
X34284Y103488D01*
X34331Y103429D01*
X34337Y103415D01*
X34371Y103369D01*
X34377Y103356D01*
X34410Y103309D01*
X34417Y103296D01*
X34483Y103204D01*
X34490Y103190D01*
X34523Y103137D01*
X34529Y103124D01*
X34562Y103071D01*
X34589Y103025D01*
X34596Y103012D01*
X34629Y102959D01*
X34655Y102912D01*
X34801Y102628D01*
X34827Y102568D01*
X34860Y102495D01*
X34887Y102436D01*
X34904Y102399D01*
X34923Y102346D01*
X34937Y102313D01*
X34976Y102207D01*
X34990Y102174D01*
X35006Y102131D01*
X35019Y102098D01*
X35105Y101826D01*
X35125Y101747D01*
X35135Y101711D01*
X35182Y101525D01*
X35201Y101426D01*
X35208Y101386D01*
X35234Y101254D01*
X35248Y101168D01*
X35258Y101092D01*
X35264Y101065D01*
X35281Y100929D01*
X35287Y100850D01*
X35297Y100708D01*
X35304Y100688D01*
X35311Y100363D01*
X35317Y100343D01*
X35307Y99969D01*
X35301Y99830D01*
X35287Y99645D01*
X35264Y99417D01*
X35258Y99390D01*
X35248Y99301D01*
X35241Y99248D01*
X35201Y99009D01*
X35168Y98844D01*
X35162Y98817D01*
X35152Y98774D01*
X35112Y98615D01*
X35099Y98569D01*
X35092Y98543D01*
X35066Y98450D01*
X35026Y98324D01*
X35003Y98248D01*
X34963Y98135D01*
X34950Y98102D01*
X34933Y98059D01*
X34894Y97960D01*
X34874Y97914D01*
X34847Y97854D01*
X34827Y97808D01*
X34728Y97602D01*
X34668Y97490D01*
X34602Y97371D01*
X34569Y97318D01*
X34562Y97304D01*
X34470Y97159D01*
X34463Y97146D01*
X34450Y97132D01*
X34443Y97119D01*
X34344Y96980D01*
X34337Y96967D01*
X34324Y96954D01*
X34318Y96940D01*
X34304Y96927D01*
X34298Y96914D01*
X34284Y96901D01*
X34278Y96887D01*
X34258Y96868D01*
X34251Y96854D01*
X34232Y96834D01*
X34225Y96821D01*
X34205Y96801D01*
X34198Y96788D01*
X34179Y96768D01*
X34172Y96755D01*
X34145Y96728D01*
X34139Y96715D01*
X34106Y96682D01*
X34099Y96669D01*
X34066Y96636D01*
X34059Y96623D01*
X33986Y96550D01*
X33980Y96537D01*
X33718Y96275D01*
X33705Y96268D01*
X33652Y96215D01*
X33639Y96209D01*
X33586Y96156D01*
X33573Y96149D01*
X33546Y96123D01*
X33533Y96116D01*
X33507Y96090D01*
X33493Y96083D01*
X33467Y96056D01*
X33454Y96050D01*
X33427Y96023D01*
X33414Y96017D01*
X33394Y95997D01*
X33381Y95990D01*
X33351Y95967D01*
X33314Y95937D01*
X33255Y95891D01*
X33242Y95884D01*
X33228Y95871D01*
X33215Y95864D01*
X33202Y95851D01*
X33189Y95845D01*
X33175Y95831D01*
X33162Y95825D01*
X33149Y95812D01*
X33136Y95805D01*
X33043Y95739D01*
X33030Y95732D01*
X33020Y95722D01*
X32940Y95669D01*
X32887Y95636D01*
X32848Y95610D01*
X32795Y95576D01*
X32722Y95530D01*
X32609Y95464D01*
X32543Y95424D01*
X34817Y95421D01*
X34864Y95408D01*
X34897Y95394D01*
X34940Y95351D01*
X34973Y95292D01*
X34980Y93345D01*
X34966Y93292D01*
X34953Y93259D01*
X34940Y93246D01*
X34933Y93233D01*
X34904Y93210D01*
X34844Y93176D01*
X14823Y93170D01*
X14776Y93176D01*
X14750Y93183D01*
X14704Y93203D01*
X14667Y93239D01*
X14634Y93299D01*
X14627Y95404D01*
X14634Y95431D01*
X14661Y95490D01*
X14690Y95520D01*
X14704Y95527D01*
X14713Y95537D01*
X14766Y95557D01*
X22923Y95563D01*
X22920Y95567D01*
X22887Y95586D01*
X22840Y95619D01*
X22827Y95626D01*
X22787Y95653D01*
X22774Y95659D01*
X22589Y95792D01*
X22576Y95798D01*
X22562Y95812D01*
X22549Y95818D01*
X22529Y95838D01*
X22516Y95845D01*
X22503Y95858D01*
X22490Y95864D01*
X22476Y95878D01*
X22463Y95884D01*
X22443Y95904D01*
X22430Y95911D01*
X22410Y95931D01*
X22397Y95937D01*
X22370Y95964D01*
X22357Y95970D01*
X22337Y95990D01*
X22324Y95997D01*
X22284Y96037D01*
X22271Y96043D01*
X22231Y96083D01*
X22218Y96090D01*
X22152Y96156D01*
X22139Y96162D01*
X21937Y96364D01*
X21930Y96378D01*
X21864Y96444D01*
X21857Y96457D01*
X21811Y96503D01*
X21804Y96517D01*
X21771Y96550D01*
X21765Y96563D01*
X21738Y96589D01*
X21732Y96603D01*
X21705Y96629D01*
X21698Y96642D01*
X21679Y96662D01*
X21672Y96676D01*
X21659Y96689D01*
X21652Y96702D01*
X21639Y96715D01*
X21632Y96728D01*
X21622Y96738D01*
X21559Y96821D01*
X21553Y96834D01*
X21539Y96848D01*
X21533Y96861D01*
X21520Y96874D01*
X21513Y96887D01*
X21480Y96934D01*
X21473Y96947D01*
X21440Y96993D01*
X21433Y97007D01*
X21420Y97020D01*
X21414Y97033D01*
X21387Y97073D01*
X21381Y97086D01*
X21334Y97159D01*
X21301Y97218D01*
X21268Y97271D01*
X21235Y97331D01*
X21129Y97536D01*
X21076Y97649D01*
X21043Y97722D01*
X21023Y97768D01*
X21000Y97824D01*
X20987Y97857D01*
X20947Y97963D01*
X20934Y97996D01*
X20844Y98258D01*
X20824Y98324D01*
X20811Y98370D01*
X20805Y98397D01*
X20795Y98433D01*
X20755Y98592D01*
X20748Y98625D01*
X20735Y98678D01*
X20702Y98844D01*
X20682Y98963D01*
X20656Y99142D01*
X20649Y99195D01*
X20639Y99297D01*
X20632Y99317D01*
X20626Y99450D01*
X20619Y99469D01*
X20612Y99688D01*
X20606Y99708D01*
X20609Y100128D01*
X20616Y100314D01*
X20629Y100486D01*
X20639Y100622D01*
X20646Y100648D01*
X20666Y100827D01*
X20672Y100853D01*
X20682Y100943D01*
X20689Y100976D01*
X20695Y101015D01*
X20702Y101048D01*
X20708Y101088D01*
X20722Y101154D01*
X20728Y101194D01*
X20742Y101260D01*
X20748Y101287D01*
X20755Y101320D01*
X20775Y101399D01*
X20785Y101442D01*
X20818Y101575D01*
X20858Y101707D01*
X20871Y101754D01*
X20891Y101820D01*
X20920Y101916D01*
X20954Y102009D01*
X20993Y102121D01*
X21010Y102164D01*
X21030Y102211D01*
X21043Y102244D01*
X21083Y102336D01*
X21096Y102369D01*
X21116Y102416D01*
X21149Y102489D01*
X21275Y102747D01*
X21341Y102866D01*
X21394Y102965D01*
X21427Y103018D01*
X21433Y103032D01*
X21460Y103071D01*
X21467Y103084D01*
X21493Y103124D01*
X21500Y103137D01*
X21526Y103177D01*
X21533Y103190D01*
X21579Y103263D01*
X21586Y103276D01*
X21599Y103290D01*
X21606Y103303D01*
X21738Y103488D01*
X21745Y103502D01*
X21758Y103515D01*
X21765Y103528D01*
X21778Y103541D01*
X21784Y103554D01*
X21804Y103574D01*
X21811Y103588D01*
X21831Y103608D01*
X21837Y103621D01*
X21857Y103641D01*
X21864Y103654D01*
X21877Y103667D01*
X21884Y103680D01*
X21904Y103700D01*
X21910Y103713D01*
X21930Y103733D01*
X21937Y103747D01*
X21963Y103773D01*
X21970Y103786D01*
X22009Y103826D01*
X22016Y103839D01*
X22056Y103879D01*
X22062Y103892D01*
X22102Y103932D01*
X22109Y103945D01*
X22155Y103991D01*
X22162Y104005D01*
X22437Y104279D01*
X22450Y104286D01*
X22523Y104359D01*
X22536Y104366D01*
X22602Y104432D01*
X22615Y104438D01*
X22642Y104465D01*
X22655Y104472D01*
X22682Y104498D01*
X22695Y104505D01*
X22721Y104531D01*
X22734Y104538D01*
X22761Y104564D01*
X22774Y104571D01*
X22794Y104591D01*
X22817Y104607D01*
X22854Y104637D01*
X22913Y104683D01*
X22936Y104700D01*
X23019Y104763D01*
X23042Y104779D01*
X23125Y104842D01*
X23138Y104849D01*
X23185Y104882D01*
X23198Y104889D01*
X23244Y104922D01*
X23258Y104928D01*
X23271Y104942D01*
X23284Y104948D01*
X23330Y104981D01*
X23344Y104988D01*
X23390Y105021D01*
X23403Y105028D01*
X23456Y105061D01*
X23469Y105067D01*
X23522Y105100D01*
X23536Y105107D01*
X23589Y105140D01*
X23602Y105147D01*
X23655Y105180D01*
X23701Y105206D01*
X23873Y105299D01*
X23986Y105359D01*
X24277Y105498D01*
X24370Y105537D01*
X24519Y105600D01*
X24618Y105640D01*
X24691Y105667D01*
X24744Y105686D01*
X24817Y105713D01*
X24870Y105733D01*
X25032Y105789D01*
X25197Y105842D01*
X25284Y105869D01*
X25310Y105875D01*
X25356Y105888D01*
X25383Y105895D01*
X25429Y105908D01*
X25456Y105915D01*
X25502Y105928D01*
X25528Y105935D01*
X25565Y105945D01*
X25644Y105964D01*
X25677Y105971D01*
X25704Y105978D01*
X25737Y105984D01*
X25790Y105998D01*
X25823Y106004D01*
X25850Y106011D01*
X25883Y106017D01*
X25909Y106024D01*
X25942Y106031D01*
X25969Y106037D01*
X26002Y106044D01*
X26042Y106051D01*
X26075Y106057D01*
X26154Y106070D01*
X26187Y106077D01*
X26227Y106084D01*
X26260Y106090D01*
X26300Y106097D01*
X26426Y106117D01*
X26502Y106127D01*
X26528Y106133D01*
X26710Y106157D01*
X26770Y106163D01*
X26843Y106170D01*
X27041Y106190D01*
X27114Y106196D01*
X27220Y106203D01*
X27429Y106213D01*
X27448Y106219D01*
X28144Y106226D01*
X28309Y106219D01*
D02*
G37*
G36*
X27889Y89426D02*
X28173Y89419D01*
X28438Y89406D01*
X28551Y89399D01*
X28869Y89373D01*
X28941Y89366D01*
X29001Y89360D01*
X29107Y89346D01*
X29167Y89340D01*
X29272Y89326D01*
X29332Y89320D01*
X29372Y89313D01*
X29544Y89287D01*
X29584Y89280D01*
X29670Y89267D01*
X29709Y89260D01*
X29875Y89227D01*
X29915Y89221D01*
X30080Y89187D01*
X30107Y89181D01*
X30140Y89174D01*
X30246Y89148D01*
X30289Y89138D01*
X30474Y89091D01*
X30521Y89078D01*
X30547Y89072D01*
X30779Y89005D01*
X31173Y88876D01*
X31226Y88856D01*
X31259Y88843D01*
X31312Y88823D01*
X31345Y88810D01*
X31398Y88790D01*
X31431Y88777D01*
X31474Y88760D01*
X31520Y88741D01*
X31580Y88714D01*
X31626Y88694D01*
X31745Y88641D01*
X32136Y88449D01*
X32229Y88396D01*
X32288Y88363D01*
X32335Y88337D01*
X32421Y88290D01*
X32467Y88257D01*
X32480Y88251D01*
X32520Y88224D01*
X32566Y88198D01*
X32613Y88165D01*
X32626Y88158D01*
X32666Y88131D01*
X32679Y88125D01*
X32911Y87959D01*
X32924Y87953D01*
X32937Y87939D01*
X32950Y87933D01*
X32964Y87920D01*
X32977Y87913D01*
X32997Y87893D01*
X33010Y87886D01*
X33030Y87867D01*
X33043Y87860D01*
X33063Y87840D01*
X33076Y87833D01*
X33096Y87814D01*
X33109Y87807D01*
X33129Y87787D01*
X33142Y87781D01*
X33162Y87761D01*
X33175Y87754D01*
X33195Y87734D01*
X33208Y87728D01*
X33248Y87688D01*
X33261Y87681D01*
X33314Y87628D01*
X33328Y87622D01*
X33381Y87569D01*
X33394Y87562D01*
X33447Y87509D01*
X33460Y87502D01*
X33556Y87407D01*
X33563Y87393D01*
X33728Y87228D01*
X33735Y87214D01*
X33775Y87175D01*
X33781Y87162D01*
X33821Y87122D01*
X33828Y87108D01*
X33874Y87062D01*
X33881Y87049D01*
X33897Y87032D01*
X33927Y86996D01*
X33943Y86973D01*
X33973Y86936D01*
X34066Y86817D01*
X34145Y86711D01*
X34152Y86698D01*
X34165Y86685D01*
X34172Y86672D01*
X34205Y86625D01*
X34212Y86612D01*
X34221Y86602D01*
X34274Y86523D01*
X34318Y86460D01*
X34324Y86447D01*
X34357Y86393D01*
X34364Y86380D01*
X34390Y86341D01*
X34397Y86327D01*
X34430Y86274D01*
X34437Y86261D01*
X34470Y86208D01*
X34516Y86122D01*
X34662Y85837D01*
X34758Y85629D01*
X34811Y85496D01*
X34831Y85443D01*
X34870Y85344D01*
X34890Y85291D01*
X34960Y85089D01*
X35013Y84924D01*
X35019Y84897D01*
X35032Y84851D01*
X35039Y84824D01*
X35052Y84778D01*
X35059Y84752D01*
X35072Y84705D01*
X35079Y84679D01*
X35089Y84642D01*
X35102Y84589D01*
X35115Y84523D01*
X35122Y84497D01*
X35135Y84430D01*
X35142Y84404D01*
X35148Y84371D01*
X35155Y84344D01*
X35168Y84278D01*
X35175Y84252D01*
X35185Y84189D01*
X35191Y84162D01*
X35198Y84116D01*
Y84109D01*
X35201Y84086D01*
X35234Y83888D01*
X35241Y83835D01*
X35261Y83656D01*
X35268Y83603D01*
X35274Y83543D01*
X35287Y83378D01*
X35297Y83202D01*
X35304Y83182D01*
X35311Y82765D01*
X35317Y82746D01*
X35314Y82603D01*
X35307Y82345D01*
X35301Y82206D01*
X35287Y82021D01*
X35278Y81898D01*
X35271Y81872D01*
X35258Y81726D01*
X35251Y81699D01*
X35241Y81610D01*
X35234Y81557D01*
X35195Y81319D01*
X35148Y81087D01*
X35129Y81007D01*
X35119Y80964D01*
X35099Y80885D01*
X35085Y80839D01*
X35079Y80812D01*
X35066Y80766D01*
X35059Y80739D01*
X35046Y80693D01*
X35019Y80607D01*
X34986Y80501D01*
X34976Y80465D01*
X34930Y80332D01*
X34904Y80259D01*
X34877Y80193D01*
X34860Y80150D01*
X34834Y80084D01*
X34807Y80024D01*
X34768Y79932D01*
X34589Y79567D01*
X34549Y79495D01*
X34523Y79448D01*
X34476Y79362D01*
X34430Y79289D01*
X34423Y79276D01*
X34397Y79236D01*
X34390Y79223D01*
X34364Y79184D01*
X34337Y79137D01*
X34304Y79091D01*
X34298Y79078D01*
X34165Y78892D01*
X34159Y78879D01*
X34145Y78866D01*
X34139Y78852D01*
X34125Y78839D01*
X34119Y78826D01*
X34106Y78813D01*
X34099Y78800D01*
X34086Y78786D01*
X34079Y78773D01*
X34059Y78753D01*
X34053Y78740D01*
X34039Y78727D01*
X34033Y78713D01*
X34020Y78700D01*
X34013Y78687D01*
X33993Y78667D01*
X33986Y78654D01*
X33960Y78627D01*
X33953Y78614D01*
X33927Y78588D01*
X33920Y78574D01*
X33894Y78548D01*
X33887Y78535D01*
X33861Y78508D01*
X33854Y78495D01*
X33808Y78449D01*
X33801Y78435D01*
X33761Y78396D01*
X33755Y78382D01*
X33682Y78309D01*
X33675Y78296D01*
X33374Y77995D01*
X33361Y77988D01*
X33281Y77909D01*
X33268Y77902D01*
X33228Y77863D01*
X33215Y77856D01*
X33169Y77810D01*
X33156Y77803D01*
X33116Y77763D01*
X33103Y77757D01*
X33076Y77730D01*
X33063Y77724D01*
X33036Y77697D01*
X33023Y77691D01*
X33003Y77671D01*
X32990Y77664D01*
X32964Y77638D01*
X32950Y77631D01*
X32937Y77618D01*
X32914Y77601D01*
X32878Y77571D01*
X32854Y77555D01*
X32818Y77525D01*
X32758Y77479D01*
X32735Y77462D01*
X32652Y77399D01*
X32639Y77393D01*
X32626Y77379D01*
X32613Y77373D01*
X32599Y77359D01*
X32586Y77353D01*
X32573Y77340D01*
X32560Y77333D01*
X32467Y77267D01*
X32454Y77260D01*
X32441Y77247D01*
X32427Y77240D01*
X32381Y77207D01*
X32368Y77201D01*
X32321Y77168D01*
X32308Y77161D01*
X32262Y77128D01*
X32248Y77121D01*
X32202Y77088D01*
X32189Y77081D01*
X32149Y77055D01*
X32136Y77048D01*
X32096Y77022D01*
X32083Y77015D01*
X32043Y76989D01*
X32030Y76982D01*
X31990Y76956D01*
X31931Y76922D01*
X31851Y76916D01*
X31805Y76929D01*
X31765Y76956D01*
X31735Y76992D01*
X31630Y77177D01*
X31596Y77237D01*
X31517Y77376D01*
X31484Y77436D01*
X31404Y77575D01*
X31371Y77634D01*
X31292Y77773D01*
X31259Y77833D01*
X31179Y77972D01*
X31146Y78032D01*
X31067Y78170D01*
X31034Y78230D01*
X30954Y78369D01*
X30921Y78429D01*
X30842Y78568D01*
X30808Y78627D01*
X30742Y78753D01*
X30736Y78813D01*
X30742Y78839D01*
X30762Y78885D01*
X30769Y78899D01*
X30782Y78912D01*
X30865Y78968D01*
X30878Y78975D01*
X30931Y79008D01*
X30944Y79015D01*
X30984Y79041D01*
X30997Y79048D01*
X31070Y79094D01*
X31083Y79101D01*
X31130Y79134D01*
X31143Y79140D01*
X31189Y79174D01*
X31202Y79180D01*
X31342Y79279D01*
X31355Y79286D01*
X31368Y79299D01*
X31381Y79306D01*
X31395Y79319D01*
X31408Y79326D01*
X31421Y79339D01*
X31434Y79346D01*
X31447Y79359D01*
X31461Y79366D01*
X31474Y79379D01*
X31487Y79385D01*
X31500Y79399D01*
X31514Y79405D01*
X31534Y79425D01*
X31547Y79432D01*
X31567Y79452D01*
X31580Y79458D01*
X31600Y79478D01*
X31613Y79485D01*
X31639Y79511D01*
X31653Y79518D01*
X31686Y79551D01*
X31699Y79557D01*
X31732Y79591D01*
X31745Y79597D01*
X31792Y79644D01*
X31805Y79650D01*
X31891Y79736D01*
X31904Y79743D01*
X32067Y79905D01*
X32073Y79918D01*
X32139Y79985D01*
X32146Y79998D01*
X32186Y80038D01*
X32192Y80051D01*
X32232Y80091D01*
X32239Y80104D01*
X32265Y80130D01*
X32272Y80143D01*
X32292Y80163D01*
X32298Y80177D01*
X32311Y80190D01*
X32358Y80249D01*
X32503Y80448D01*
X32510Y80461D01*
X32543Y80508D01*
X32550Y80521D01*
X32583Y80567D01*
X32589Y80581D01*
X32623Y80633D01*
X32629Y80647D01*
X32662Y80700D01*
X32695Y80759D01*
X32821Y81004D01*
X32861Y81090D01*
X32881Y81137D01*
X32904Y81193D01*
X32917Y81226D01*
X32957Y81332D01*
X33020Y81514D01*
X33046Y81607D01*
X33056Y81643D01*
X33103Y81828D01*
X33136Y81994D01*
X33149Y82073D01*
X33162Y82160D01*
X33172Y82249D01*
X33179Y82269D01*
X33185Y82388D01*
X33192Y82408D01*
X33199Y82587D01*
X33205Y82606D01*
X33202Y82994D01*
X33195Y83126D01*
X33189Y83212D01*
X33182Y83285D01*
X33172Y83381D01*
X33166Y83407D01*
X33156Y83497D01*
X33136Y83616D01*
X33129Y83649D01*
X33122Y83689D01*
X33116Y83722D01*
X33109Y83749D01*
X33103Y83782D01*
X33093Y83825D01*
X33066Y83931D01*
X33053Y83977D01*
X33046Y84003D01*
X33026Y84070D01*
X32957Y84285D01*
X32940Y84328D01*
X32887Y84460D01*
X32868Y84507D01*
X32742Y84765D01*
X32689Y84864D01*
X32656Y84917D01*
X32649Y84930D01*
X32603Y85003D01*
X32576Y85049D01*
X32444Y85235D01*
X32437Y85248D01*
X32417Y85268D01*
X32411Y85281D01*
X32391Y85301D01*
X32384Y85314D01*
X32371Y85328D01*
X32364Y85341D01*
X32345Y85361D01*
X32338Y85374D01*
X32318Y85394D01*
X32311Y85407D01*
X32265Y85453D01*
X32259Y85467D01*
X32212Y85513D01*
X32206Y85526D01*
X31977Y85755D01*
X31964Y85761D01*
X31898Y85827D01*
X31884Y85834D01*
X31858Y85861D01*
X31845Y85867D01*
X31818Y85894D01*
X31805Y85900D01*
X31785Y85920D01*
X31772Y85927D01*
X31759Y85940D01*
X31699Y85986D01*
X31676Y86003D01*
X31593Y86066D01*
X31580Y86072D01*
X31570Y86082D01*
X31490Y86135D01*
X31355Y86225D01*
X31342Y86231D01*
X31288Y86264D01*
X31275Y86271D01*
X31222Y86304D01*
X31149Y86344D01*
X30958Y86443D01*
X30832Y86503D01*
X30693Y86562D01*
X30636Y86586D01*
X30477Y86645D01*
X30256Y86721D01*
X30170Y86748D01*
X30143Y86754D01*
X30097Y86768D01*
X30070Y86774D01*
X30024Y86787D01*
X29987Y86797D01*
X29954Y86804D01*
X29901Y86817D01*
X29868Y86824D01*
X29789Y86844D01*
X29623Y86877D01*
X29584Y86883D01*
X29551Y86890D01*
X29511Y86897D01*
X29378Y86917D01*
X29292Y86930D01*
X29054Y86956D01*
X28892Y86966D01*
X28872Y86973D01*
X28607Y86979D01*
X28581Y86986D01*
X28574Y76797D01*
X26982Y76800D01*
X26816Y76807D01*
X26697Y76813D01*
X26591Y76820D01*
X26498Y76827D01*
X26353Y76840D01*
X26286Y76846D01*
X26078Y76870D01*
X26051Y76876D01*
X25869Y76899D01*
X25790Y76912D01*
X25704Y76926D01*
X25671Y76932D01*
X25631Y76939D01*
X25598Y76946D01*
X25558Y76952D01*
X25360Y76992D01*
X25333Y76999D01*
X25300Y77005D01*
X25274Y77012D01*
X25240Y77018D01*
X25134Y77045D01*
X25092Y77055D01*
X25045Y77068D01*
X24966Y77088D01*
X24780Y77141D01*
X24694Y77168D01*
X24400Y77263D01*
X24327Y77290D01*
X24274Y77310D01*
X24231Y77326D01*
X24098Y77379D01*
X23913Y77459D01*
X23827Y77498D01*
X23635Y77591D01*
X23496Y77664D01*
X23423Y77704D01*
X23337Y77750D01*
X23284Y77783D01*
X23271Y77790D01*
X23218Y77823D01*
X23205Y77829D01*
X23165Y77856D01*
X23152Y77863D01*
X23112Y77889D01*
X23066Y77916D01*
X23019Y77949D01*
X23006Y77955D01*
X22821Y78088D01*
X22807Y78094D01*
X22794Y78108D01*
X22781Y78114D01*
X22768Y78127D01*
X22754Y78134D01*
X22741Y78147D01*
X22728Y78154D01*
X22715Y78167D01*
X22701Y78174D01*
X22682Y78194D01*
X22668Y78200D01*
X22655Y78214D01*
X22642Y78220D01*
X22615Y78247D01*
X22602Y78253D01*
X22582Y78273D01*
X22569Y78280D01*
X22549Y78300D01*
X22536Y78306D01*
X22503Y78339D01*
X22490Y78346D01*
X22450Y78386D01*
X22437Y78392D01*
X22390Y78439D01*
X22377Y78445D01*
X22311Y78512D01*
X22297Y78518D01*
X22096Y78720D01*
X22089Y78733D01*
X22009Y78813D01*
X22003Y78826D01*
X21963Y78866D01*
X21957Y78879D01*
X21917Y78919D01*
X21910Y78932D01*
X21884Y78958D01*
X21877Y78972D01*
X21857Y78991D01*
X21851Y79005D01*
X21831Y79025D01*
X21814Y79048D01*
X21721Y79167D01*
X21625Y79296D01*
X21619Y79309D01*
X21553Y79402D01*
X21526Y79448D01*
X21493Y79495D01*
X21486Y79508D01*
X21460Y79548D01*
X21453Y79561D01*
X21420Y79614D01*
X21414Y79627D01*
X21381Y79680D01*
X21354Y79726D01*
X21321Y79786D01*
X21215Y79991D01*
X21155Y80117D01*
X21122Y80190D01*
X21096Y80249D01*
X21069Y80316D01*
X21046Y80372D01*
X20987Y80531D01*
X20940Y80663D01*
X20924Y80706D01*
X20891Y80812D01*
X20871Y80878D01*
X20844Y80971D01*
X20834Y81007D01*
X20788Y81193D01*
X20781Y81226D01*
X20775Y81252D01*
X20768Y81286D01*
X20761Y81312D01*
X20755Y81345D01*
X20748Y81372D01*
X20742Y81405D01*
X20735Y81445D01*
X20715Y81544D01*
X20702Y81630D01*
X20695Y81670D01*
X20662Y81895D01*
X20642Y82073D01*
X20632Y82216D01*
X20626Y82236D01*
X20619Y82414D01*
X20612Y82434D01*
X20606Y82871D01*
X20612Y83176D01*
X20636Y83570D01*
X20649Y83689D01*
X20656Y83742D01*
X20666Y83844D01*
X20672Y83871D01*
X20682Y83960D01*
X20695Y84040D01*
X20708Y84126D01*
X20735Y84285D01*
X20742Y84311D01*
X20755Y84377D01*
X20761Y84404D01*
X20775Y84470D01*
X20781Y84497D01*
X20795Y84563D01*
X20805Y84606D01*
X20818Y84652D01*
X20831Y84705D01*
X20844Y84752D01*
X20858Y84804D01*
X20871Y84851D01*
X20884Y84904D01*
X20937Y85069D01*
X21007Y85285D01*
X21020Y85318D01*
X21079Y85477D01*
X21096Y85520D01*
X21116Y85566D01*
X21142Y85625D01*
X21162Y85672D01*
X21188Y85731D01*
X21407Y86175D01*
X21440Y86228D01*
X21520Y86367D01*
X21553Y86427D01*
X21586Y86473D01*
X21592Y86486D01*
X21625Y86532D01*
X21632Y86546D01*
X21659Y86586D01*
X21665Y86599D01*
X21698Y86645D01*
X21705Y86658D01*
X21755Y86728D01*
X21851Y86857D01*
X21857Y86870D01*
X21871Y86883D01*
X21877Y86897D01*
X21890Y86910D01*
X21897Y86923D01*
X21917Y86943D01*
X21923Y86956D01*
X21943Y86976D01*
X21950Y86989D01*
X21976Y87016D01*
X21983Y87029D01*
X22003Y87049D01*
X22009Y87062D01*
X22029Y87082D01*
X22036Y87095D01*
X22062Y87122D01*
X22069Y87135D01*
X22096Y87162D01*
X22102Y87175D01*
X22162Y87234D01*
X22168Y87248D01*
X22228Y87307D01*
X22235Y87320D01*
X22294Y87380D01*
X22301Y87393D01*
X22350Y87443D01*
X22364Y87450D01*
X22556Y87641D01*
X22569Y87648D01*
X22615Y87695D01*
X22629Y87701D01*
X22668Y87741D01*
X22682Y87747D01*
X22728Y87794D01*
X22741Y87800D01*
X22774Y87833D01*
X22787Y87840D01*
X22807Y87860D01*
X22821Y87867D01*
X22840Y87886D01*
X22854Y87893D01*
X22873Y87913D01*
X22887Y87920D01*
X22900Y87933D01*
X22913Y87939D01*
X22926Y87953D01*
X22950Y87969D01*
X22986Y87999D01*
X23277Y88211D01*
X23324Y88237D01*
X23370Y88271D01*
X23383Y88277D01*
X23423Y88304D01*
X23469Y88330D01*
X23516Y88363D01*
X23529Y88370D01*
X23582Y88403D01*
X23628Y88429D01*
X23688Y88462D01*
X23781Y88515D01*
X24145Y88701D01*
X24204Y88727D01*
X24251Y88747D01*
X24370Y88800D01*
X24406Y88817D01*
X24472Y88843D01*
X24525Y88863D01*
X24558Y88876D01*
X24611Y88896D01*
X24645Y88909D01*
X24697Y88929D01*
X24731Y88942D01*
X25092Y89065D01*
X25231Y89105D01*
X25257Y89111D01*
X25350Y89138D01*
X25386Y89148D01*
X25492Y89174D01*
X25525Y89181D01*
X25578Y89194D01*
X25611Y89201D01*
X25664Y89214D01*
X25697Y89221D01*
X25750Y89234D01*
X25850Y89254D01*
X25889Y89260D01*
X25922Y89267D01*
X25962Y89274D01*
X26028Y89287D01*
X26068Y89293D01*
X26101Y89300D01*
X26505Y89360D01*
X26565Y89366D01*
X26637Y89373D01*
X26836Y89393D01*
X26909Y89399D01*
X27117Y89409D01*
X27137Y89416D01*
X27495Y89423D01*
X27515Y89429D01*
X27889Y89426D01*
D02*
G37*
%LPC*%
G36*
X26177Y149340D02*
X24280Y149337D01*
X23857Y149331D01*
X23658Y149324D01*
X23486Y149317D01*
X23148Y149297D01*
X23062Y149291D01*
X22903Y149277D01*
X22831Y149271D01*
X22751Y149264D01*
X22685Y149258D01*
X22625Y149251D01*
X22572Y149244D01*
X22513Y149238D01*
X22410Y149228D01*
X22384Y149221D01*
X22201Y149198D01*
X22125Y149188D01*
X22099Y149181D01*
X22009Y149172D01*
X21930Y149158D01*
X21897Y149152D01*
X21778Y149132D01*
X21745Y149125D01*
X21625Y149105D01*
X21599Y149099D01*
X21467Y149072D01*
X21440Y149066D01*
X21308Y149039D01*
X21202Y149013D01*
X21159Y149003D01*
X20947Y148950D01*
X20669Y148870D01*
X20444Y148798D01*
X20348Y148768D01*
X20275Y148741D01*
X20116Y148682D01*
X20073Y148665D01*
X20040Y148652D01*
X19947Y148612D01*
X19914Y148599D01*
X19821Y148559D01*
X19749Y148526D01*
X19490Y148400D01*
X19404Y148354D01*
X19278Y148288D01*
X19239Y148261D01*
X19225Y148255D01*
X19173Y148222D01*
X19159Y148215D01*
X19106Y148182D01*
X19060Y148155D01*
X19014Y148122D01*
X19000Y148116D01*
X18908Y148049D01*
X18894Y148043D01*
X18848Y148010D01*
X18835Y148003D01*
X18822Y147990D01*
X18808Y147983D01*
X18788Y147963D01*
X18775Y147957D01*
X18762Y147943D01*
X18749Y147937D01*
X18736Y147924D01*
X18722Y147917D01*
X18702Y147897D01*
X18689Y147890D01*
X18676Y147877D01*
X18663Y147871D01*
X18649Y147857D01*
X18636Y147851D01*
X18610Y147824D01*
X18597Y147818D01*
X18557Y147778D01*
X18543Y147771D01*
X18510Y147738D01*
X18497Y147732D01*
X18457Y147692D01*
X18444Y147685D01*
X18203Y147444D01*
X18196Y147430D01*
X18143Y147377D01*
X18136Y147364D01*
X18090Y147318D01*
X18083Y147304D01*
X18063Y147285D01*
X18057Y147271D01*
X18037Y147252D01*
X18030Y147238D01*
X18011Y147218D01*
X18004Y147205D01*
X17991Y147192D01*
X17984Y147179D01*
X17974Y147169D01*
X17911Y147086D01*
X17905Y147073D01*
X17891Y147059D01*
X17885Y147046D01*
X17852Y147000D01*
X17845Y146987D01*
X17812Y146940D01*
X17805Y146927D01*
X17772Y146881D01*
X17746Y146834D01*
X17739Y146821D01*
X17706Y146768D01*
X17534Y146431D01*
X17514Y146384D01*
X17501Y146351D01*
X17481Y146305D01*
X17458Y146249D01*
X17362Y145967D01*
X17355Y145941D01*
X17342Y145894D01*
X17335Y145868D01*
X17322Y145822D01*
X17315Y145795D01*
X17306Y145759D01*
X17286Y145659D01*
X17279Y145633D01*
X17259Y145533D01*
X17219Y145269D01*
X17213Y145216D01*
X17203Y145073D01*
X17196Y145054D01*
X17190Y144895D01*
X17183Y144689D01*
X17190Y144484D01*
X17199Y144289D01*
X17206Y144209D01*
X17213Y144143D01*
X17223Y144054D01*
X17229Y144027D01*
X17236Y143961D01*
X17243Y143934D01*
X17249Y143888D01*
X17289Y143676D01*
X17329Y143517D01*
X17342Y143471D01*
X17349Y143445D01*
X17362Y143398D01*
X17431Y143183D01*
X17451Y143130D01*
X17468Y143087D01*
X17487Y143041D01*
X17514Y142975D01*
X17666Y142663D01*
X17706Y142591D01*
X17739Y142538D01*
X17746Y142524D01*
X17792Y142451D01*
X17799Y142438D01*
X17832Y142392D01*
X17838Y142379D01*
X17905Y142286D01*
X17911Y142273D01*
X17924Y142260D01*
X17931Y142246D01*
X17944Y142233D01*
X17951Y142220D01*
X17964Y142206D01*
X17971Y142193D01*
X17984Y142180D01*
X17991Y142167D01*
X18011Y142147D01*
X18017Y142134D01*
X18044Y142107D01*
X18050Y142094D01*
X18070Y142074D01*
X18077Y142061D01*
X18117Y142021D01*
X18123Y142008D01*
X18163Y141968D01*
X18169Y141955D01*
X18431Y141693D01*
X18444Y141687D01*
X18504Y141627D01*
X18517Y141621D01*
X18543Y141594D01*
X18557Y141587D01*
X18583Y141561D01*
X18597Y141554D01*
X18623Y141528D01*
X18636Y141521D01*
X18656Y141501D01*
X18669Y141495D01*
X18683Y141482D01*
X18696Y141475D01*
X18709Y141462D01*
X18732Y141445D01*
X18815Y141382D01*
X18828Y141376D01*
X18842Y141362D01*
X18855Y141356D01*
X18868Y141342D01*
X18881Y141336D01*
X18928Y141303D01*
X18941Y141296D01*
X18987Y141263D01*
X19000Y141256D01*
X19047Y141223D01*
X19060Y141217D01*
X19100Y141190D01*
X19113Y141184D01*
X19153Y141157D01*
X19212Y141124D01*
X19265Y141091D01*
X19311Y141064D01*
X19384Y141025D01*
X19616Y140906D01*
X19729Y140853D01*
X19801Y140820D01*
X19848Y140800D01*
X19934Y140760D01*
X19954Y140766D01*
X20040Y140853D01*
X20053Y140859D01*
X20139Y140945D01*
X20152Y140952D01*
X20238Y141038D01*
X20252Y141045D01*
X20338Y141131D01*
X20351Y141137D01*
X20431Y141217D01*
X20444Y141223D01*
X20530Y141309D01*
X20543Y141316D01*
X20629Y141402D01*
X20642Y141409D01*
X20728Y141495D01*
X20742Y141501D01*
X20828Y141587D01*
X20841Y141594D01*
X20920Y141674D01*
X20934Y141680D01*
X21020Y141766D01*
X21033Y141773D01*
X21119Y141859D01*
X21132Y141866D01*
X21218Y141952D01*
X21232Y141958D01*
X21318Y142044D01*
X21331Y142051D01*
X21417Y142137D01*
X21430Y142144D01*
X21510Y142223D01*
X21523Y142230D01*
X21609Y142316D01*
X21622Y142322D01*
X21708Y142409D01*
X21721Y142415D01*
X21808Y142501D01*
X21821Y142508D01*
X21907Y142594D01*
X21920Y142600D01*
X22006Y142687D01*
X22019Y142693D01*
X22099Y142773D01*
X22112Y142779D01*
X22198Y142865D01*
X22211Y142872D01*
X22297Y142958D01*
X22311Y142965D01*
X22397Y143051D01*
X22410Y143057D01*
X22496Y143143D01*
X22509Y143150D01*
X22589Y143229D01*
X22602Y143236D01*
X22688Y143322D01*
X22701Y143329D01*
X22787Y143415D01*
X22801Y143421D01*
X22887Y143507D01*
X22900Y143514D01*
X22986Y143600D01*
X22999Y143607D01*
X23085Y143693D01*
X23099Y143700D01*
X23178Y143779D01*
X23191Y143786D01*
X23277Y143872D01*
X23291Y143878D01*
X23377Y143964D01*
X23390Y143971D01*
X23476Y144057D01*
X23489Y144064D01*
X23575Y144150D01*
X23589Y144156D01*
X23668Y144236D01*
X23681Y144242D01*
X23767Y144328D01*
X23781Y144335D01*
X23867Y144421D01*
X23880Y144428D01*
X23966Y144514D01*
X23979Y144521D01*
X24065Y144607D01*
X24079Y144613D01*
X24165Y144699D01*
X24178Y144706D01*
X24257Y144785D01*
X24271Y144792D01*
X24357Y144878D01*
X24370Y144885D01*
X24456Y144971D01*
X24469Y144977D01*
X24555Y145063D01*
X24568Y145070D01*
X24655Y145156D01*
X24668Y145163D01*
X24747Y145242D01*
X24760Y145249D01*
X24846Y145335D01*
X24860Y145341D01*
X24946Y145428D01*
X24959Y145434D01*
X25045Y145520D01*
X25058Y145527D01*
X25145Y145613D01*
X25158Y145619D01*
X25244Y145706D01*
X25257Y145712D01*
X25336Y145792D01*
X25350Y145798D01*
X25436Y145884D01*
X25449Y145891D01*
X25535Y145977D01*
X25548Y145984D01*
X25634Y146070D01*
X25648Y146076D01*
X25734Y146162D01*
X25747Y146169D01*
X25833Y146255D01*
X25846Y146262D01*
X25926Y146341D01*
X25939Y146348D01*
X26025Y146434D01*
X26038Y146440D01*
X26124Y146527D01*
X26138Y146533D01*
X26224Y146619D01*
X26237Y146626D01*
X26323Y146712D01*
X26336Y146719D01*
X26416Y146798D01*
X26429Y146805D01*
X26515Y146891D01*
X26528Y146897D01*
X26614Y146983D01*
X26628Y146990D01*
X26664Y147026D01*
X26667Y147030D01*
X26714Y147076D01*
X26727Y147083D01*
X26813Y147169D01*
X26826Y147175D01*
X26912Y147261D01*
X26925Y147268D01*
X27005Y147347D01*
X27018Y147354D01*
X27104Y147440D01*
X27117Y147447D01*
X27204Y147533D01*
X27217Y147540D01*
X27303Y147626D01*
X27316Y147632D01*
X27402Y147718D01*
X27415Y147725D01*
X27495Y147804D01*
X27508Y147811D01*
X27594Y147897D01*
X27607Y147904D01*
X27693Y147990D01*
X27707Y147996D01*
X27793Y148082D01*
X27806Y148089D01*
X27892Y148175D01*
X27905Y148182D01*
X27991Y148268D01*
X28005Y148274D01*
X28084Y148354D01*
X28097Y148361D01*
X28183Y148447D01*
X28197Y148453D01*
X28283Y148539D01*
X28296Y148546D01*
X28382Y148632D01*
X28395Y148639D01*
X28481Y148725D01*
X28495Y148731D01*
X28574Y148811D01*
X28587Y148817D01*
X28673Y148903D01*
X28687Y148910D01*
X28773Y148996D01*
X28786Y149003D01*
X28875Y149092D01*
X28849Y149099D01*
X28749Y149119D01*
X28670Y149132D01*
X28637Y149138D01*
X28478Y149165D01*
X28160Y149211D01*
X28001Y149231D01*
X27882Y149244D01*
X27750Y149258D01*
X27690Y149264D01*
X27624Y149271D01*
X27551Y149277D01*
X27293Y149297D01*
X27200Y149304D01*
X27074Y149311D01*
X26826Y149320D01*
X26806Y149327D01*
X26197Y149334D01*
X26177Y149340D01*
D02*
G37*
G36*
X30732Y148506D02*
X30719Y148493D01*
X30706Y148486D01*
X30626Y148407D01*
X30613Y148400D01*
X30527Y148314D01*
X30514Y148308D01*
X30428Y148222D01*
X30415Y148215D01*
X30329Y148129D01*
X30315Y148122D01*
X30229Y148036D01*
X30216Y148029D01*
X30136Y147950D01*
X30123Y147943D01*
X30037Y147857D01*
X30024Y147851D01*
X29938Y147765D01*
X29925Y147758D01*
X29839Y147672D01*
X29825Y147665D01*
X29739Y147579D01*
X29726Y147573D01*
X29640Y147487D01*
X29627Y147480D01*
X29547Y147401D01*
X29534Y147394D01*
X29448Y147308D01*
X29435Y147301D01*
X29349Y147215D01*
X29335Y147208D01*
X29249Y147122D01*
X29236Y147116D01*
X29150Y147030D01*
X29137Y147023D01*
X29051Y146937D01*
X29037Y146930D01*
X28958Y146851D01*
X28945Y146844D01*
X28859Y146758D01*
X28846Y146752D01*
X28759Y146666D01*
X28746Y146659D01*
X28660Y146573D01*
X28647Y146566D01*
X28561Y146480D01*
X28547Y146474D01*
X28468Y146394D01*
X28455Y146388D01*
X28369Y146301D01*
X28356Y146295D01*
X28269Y146209D01*
X28256Y146202D01*
X28170Y146116D01*
X28157Y146110D01*
X28071Y146023D01*
X28058Y146017D01*
X27971Y145931D01*
X27958Y145924D01*
X27879Y145845D01*
X27866Y145838D01*
X27780Y145752D01*
X27766Y145745D01*
X27680Y145659D01*
X27667Y145653D01*
X27581Y145567D01*
X27568Y145560D01*
X27482Y145474D01*
X27468Y145467D01*
X27389Y145388D01*
X27376Y145381D01*
X27290Y145295D01*
X27276Y145288D01*
X27190Y145202D01*
X27177Y145196D01*
X27091Y145110D01*
X27078Y145103D01*
X26992Y145017D01*
X26978Y145010D01*
X26892Y144924D01*
X26879Y144918D01*
X26800Y144838D01*
X26786Y144832D01*
X26700Y144746D01*
X26687Y144739D01*
X26601Y144653D01*
X26588Y144646D01*
X26502Y144560D01*
X26488Y144554D01*
X26402Y144467D01*
X26389Y144461D01*
X26310Y144381D01*
X26297Y144375D01*
X26210Y144289D01*
X26197Y144282D01*
X26111Y144196D01*
X26098Y144189D01*
X26012Y144103D01*
X25998Y144097D01*
X25912Y144011D01*
X25899Y144004D01*
X25813Y143918D01*
X25800Y143911D01*
X25720Y143832D01*
X25707Y143825D01*
X25621Y143739D01*
X25608Y143733D01*
X25522Y143646D01*
X25509Y143640D01*
X25422Y143554D01*
X25409Y143547D01*
X25323Y143461D01*
X25310Y143455D01*
X25231Y143375D01*
X25217Y143369D01*
X25131Y143282D01*
X25118Y143276D01*
X25032Y143190D01*
X25019Y143183D01*
X24933Y143097D01*
X24919Y143090D01*
X24833Y143004D01*
X24820Y142998D01*
X24734Y142912D01*
X24721Y142905D01*
X24641Y142825D01*
X24628Y142819D01*
X24542Y142733D01*
X24529Y142726D01*
X24443Y142640D01*
X24429Y142633D01*
X24343Y142548D01*
X24330Y142541D01*
X24244Y142455D01*
X24231Y142448D01*
X24151Y142369D01*
X24138Y142362D01*
X24052Y142276D01*
X24039Y142269D01*
X23953Y142183D01*
X23939Y142177D01*
X23853Y142091D01*
X23840Y142084D01*
X23754Y141998D01*
X23741Y141991D01*
X23655Y141905D01*
X23642Y141899D01*
X23562Y141819D01*
X23549Y141813D01*
X23463Y141727D01*
X23449Y141720D01*
X23363Y141634D01*
X23350Y141627D01*
X23264Y141541D01*
X23251Y141535D01*
X23165Y141448D01*
X23152Y141442D01*
X23072Y141362D01*
X23059Y141356D01*
X22973Y141270D01*
X22960Y141263D01*
X22873Y141177D01*
X22860Y141170D01*
X22774Y141084D01*
X22761Y141078D01*
X22675Y140992D01*
X22662Y140985D01*
X22576Y140899D01*
X22562Y140892D01*
X22483Y140813D01*
X22470Y140806D01*
X22384Y140720D01*
X22370Y140714D01*
X22284Y140627D01*
X22271Y140621D01*
X22185Y140535D01*
X22172Y140528D01*
X22086Y140442D01*
X22072Y140435D01*
X21993Y140356D01*
X21980Y140349D01*
X21894Y140263D01*
X21880Y140257D01*
X21864Y140240D01*
X21857Y140227D01*
X21904Y140220D01*
X21943Y140214D01*
X22029Y140200D01*
X22208Y140174D01*
X22291Y140164D01*
X22317Y140157D01*
X22585Y140128D01*
X22652Y140121D01*
X22711Y140114D01*
X22857Y140101D01*
X22936Y140094D01*
X23009Y140088D01*
X23102Y140081D01*
X23284Y140071D01*
X23304Y140065D01*
X23549Y140058D01*
X23569Y140051D01*
X23953Y140045D01*
X23973Y140038D01*
X26479Y140042D01*
X26697Y140048D01*
X26882Y140055D01*
X27015Y140061D01*
X27134Y140068D01*
X27246Y140075D01*
X27352Y140081D01*
X27432Y140088D01*
X27505Y140094D01*
X27664Y140108D01*
X27736Y140114D01*
X27915Y140134D01*
X27968Y140141D01*
X28071Y140151D01*
X28097Y140157D01*
X28465Y140207D01*
X28544Y140220D01*
X28577Y140227D01*
X28736Y140253D01*
X28769Y140260D01*
X28809Y140267D01*
X28908Y140287D01*
X28935Y140293D01*
X29133Y140333D01*
X29239Y140359D01*
X29272Y140366D01*
X29405Y140399D01*
X29448Y140409D01*
X29541Y140435D01*
X29567Y140442D01*
X29706Y140482D01*
X29733Y140488D01*
X29779Y140502D01*
X29984Y140568D01*
X30120Y140611D01*
X30173Y140631D01*
X30246Y140657D01*
X30299Y140677D01*
X30342Y140694D01*
X30441Y140733D01*
X30534Y140773D01*
X30567Y140786D01*
X30613Y140806D01*
X30646Y140820D01*
X31010Y140998D01*
X31096Y141045D01*
X31169Y141084D01*
X31183Y141091D01*
X31235Y141124D01*
X31249Y141131D01*
X31302Y141164D01*
X31315Y141170D01*
X31368Y141203D01*
X31381Y141210D01*
X31447Y141256D01*
X31461Y141263D01*
X31507Y141296D01*
X31520Y141303D01*
X31613Y141369D01*
X31626Y141376D01*
X31639Y141389D01*
X31653Y141396D01*
X31666Y141409D01*
X31679Y141415D01*
X31699Y141435D01*
X31712Y141442D01*
X31725Y141455D01*
X31739Y141462D01*
X31752Y141475D01*
X31765Y141482D01*
X31785Y141501D01*
X31798Y141508D01*
X31811Y141521D01*
X31825Y141528D01*
X31858Y141561D01*
X31871Y141568D01*
X31904Y141601D01*
X31918Y141607D01*
X31957Y141647D01*
X31970Y141654D01*
X32004Y141687D01*
X32017Y141693D01*
X32232Y141909D01*
X32239Y141922D01*
X32292Y141975D01*
X32298Y141988D01*
X32345Y142034D01*
X32351Y142048D01*
X32368Y142064D01*
X32397Y142101D01*
X32414Y142124D01*
X32444Y142160D01*
X32536Y142279D01*
X32543Y142293D01*
X32593Y142362D01*
X32682Y142498D01*
X32689Y142511D01*
X32722Y142564D01*
X32748Y142610D01*
X32914Y142935D01*
X32934Y142981D01*
X32957Y143037D01*
X32983Y143104D01*
X33003Y143157D01*
X33086Y143398D01*
X33093Y143425D01*
X33106Y143471D01*
X33112Y143498D01*
X33122Y143534D01*
X33149Y143640D01*
X33175Y143772D01*
X33182Y143799D01*
X33195Y143865D01*
X33205Y143941D01*
X33212Y143968D01*
X33228Y144103D01*
X33235Y144163D01*
X33245Y144305D01*
X33252Y144325D01*
X33258Y144630D01*
X33265Y144650D01*
X33261Y144726D01*
X33255Y144944D01*
X33248Y145057D01*
X33242Y145136D01*
X33232Y145246D01*
X33225Y145272D01*
X33202Y145454D01*
X33195Y145494D01*
X33182Y145560D01*
X33175Y145600D01*
X33169Y145633D01*
X33162Y145659D01*
X33156Y145692D01*
X33146Y145735D01*
X33119Y145841D01*
X33106Y145888D01*
X33099Y145914D01*
X33073Y146000D01*
X33010Y146195D01*
X32997Y146229D01*
X32980Y146272D01*
X32954Y146338D01*
X32934Y146384D01*
X32907Y146444D01*
X32821Y146623D01*
X32755Y146748D01*
X32722Y146801D01*
X32715Y146815D01*
X32649Y146920D01*
X32643Y146934D01*
X32609Y146980D01*
X32603Y146993D01*
X32536Y147086D01*
X32530Y147099D01*
X32517Y147113D01*
X32510Y147126D01*
X32497Y147139D01*
X32490Y147152D01*
X32477Y147165D01*
X32470Y147179D01*
X32457Y147192D01*
X32450Y147205D01*
X32424Y147232D01*
X32417Y147245D01*
X32397Y147265D01*
X32391Y147278D01*
X32378Y147291D01*
X32361Y147314D01*
X32358Y147318D01*
X32325Y147351D01*
X32318Y147364D01*
X32272Y147410D01*
X32265Y147424D01*
X32017Y147672D01*
X32004Y147679D01*
X31951Y147732D01*
X31937Y147738D01*
X31904Y147771D01*
X31891Y147778D01*
X31858Y147811D01*
X31845Y147818D01*
X31818Y147844D01*
X31805Y147851D01*
X31792Y147864D01*
X31778Y147871D01*
X31759Y147890D01*
X31745Y147897D01*
X31735Y147907D01*
X31560Y148036D01*
X31547Y148043D01*
X31537Y148053D01*
X31497Y148079D01*
X31288Y148215D01*
X31229Y148248D01*
X31176Y148281D01*
X31116Y148314D01*
X31070Y148341D01*
X30759Y148500D01*
X30732Y148506D01*
D02*
G37*
G36*
X28230Y103697D02*
X27591Y103694D01*
X27452Y103687D01*
X27326Y103680D01*
X27240Y103674D01*
X27160Y103667D01*
X27074Y103660D01*
X27008Y103654D01*
X26949Y103647D01*
X26846Y103637D01*
X26820Y103631D01*
X26684Y103614D01*
X26551Y103594D01*
X26472Y103581D01*
X26439Y103574D01*
X26399Y103568D01*
X26333Y103554D01*
X26293Y103548D01*
X26227Y103535D01*
X26200Y103528D01*
X26167Y103521D01*
X26114Y103508D01*
X26081Y103502D01*
X26038Y103492D01*
X25959Y103472D01*
X25912Y103458D01*
X25886Y103452D01*
X25840Y103439D01*
X25813Y103432D01*
X25720Y103406D01*
X25615Y103372D01*
X25459Y103323D01*
X25303Y103266D01*
X25237Y103240D01*
X25191Y103220D01*
X25158Y103207D01*
X25111Y103187D01*
X25078Y103174D01*
X25005Y103141D01*
X24813Y103048D01*
X24648Y102962D01*
X24595Y102929D01*
X24582Y102922D01*
X24529Y102889D01*
X24516Y102882D01*
X24462Y102849D01*
X24449Y102843D01*
X24403Y102810D01*
X24390Y102803D01*
X24343Y102770D01*
X24330Y102763D01*
X24284Y102730D01*
X24271Y102724D01*
X24257Y102710D01*
X24244Y102704D01*
X24231Y102690D01*
X24218Y102684D01*
X24204Y102671D01*
X24191Y102664D01*
X24178Y102651D01*
X24165Y102644D01*
X24151Y102631D01*
X24138Y102624D01*
X24125Y102611D01*
X24112Y102604D01*
X24092Y102585D01*
X24079Y102578D01*
X24045Y102545D01*
X24032Y102538D01*
X24006Y102512D01*
X23992Y102505D01*
X23966Y102479D01*
X23953Y102472D01*
X23880Y102399D01*
X23867Y102393D01*
X23691Y102217D01*
X23685Y102204D01*
X23618Y102138D01*
X23612Y102124D01*
X23579Y102091D01*
X23572Y102078D01*
X23545Y102052D01*
X23539Y102038D01*
X23526Y102025D01*
X23479Y101966D01*
X23463Y101942D01*
X23367Y101813D01*
X23360Y101800D01*
X23327Y101754D01*
X23320Y101740D01*
X23287Y101694D01*
X23281Y101681D01*
X23248Y101628D01*
X23241Y101615D01*
X23208Y101562D01*
X23072Y101300D01*
X23059Y101267D01*
X23026Y101194D01*
X22986Y101095D01*
X22966Y101042D01*
X22940Y100969D01*
X22903Y100866D01*
X22883Y100800D01*
X22857Y100708D01*
X22837Y100628D01*
X22827Y100592D01*
X22821Y100559D01*
X22814Y100532D01*
X22781Y100367D01*
X22774Y100327D01*
X22748Y100148D01*
X22741Y100089D01*
X22731Y99966D01*
X22725Y99946D01*
X22718Y99714D01*
X22711Y99695D01*
X22715Y99460D01*
X22721Y99307D01*
X22728Y99215D01*
X22734Y99142D01*
X22744Y99039D01*
X22751Y99013D01*
X22761Y98923D01*
X22781Y98804D01*
X22801Y98705D01*
X22811Y98662D01*
X22857Y98476D01*
X22870Y98430D01*
X22890Y98364D01*
X22940Y98208D01*
X22960Y98155D01*
X22976Y98112D01*
X22989Y98079D01*
X23009Y98033D01*
X23022Y98000D01*
X23049Y97940D01*
X23135Y97761D01*
X23181Y97675D01*
X23211Y97619D01*
X23251Y97553D01*
X23284Y97500D01*
X23390Y97341D01*
X23453Y97258D01*
X23459Y97245D01*
X23473Y97232D01*
X23479Y97218D01*
X23499Y97199D01*
X23506Y97185D01*
X23532Y97159D01*
X23539Y97146D01*
X23565Y97119D01*
X23572Y97106D01*
X23592Y97086D01*
X23598Y97073D01*
X23651Y97020D01*
X23658Y97007D01*
X23724Y96940D01*
X23731Y96927D01*
X23807Y96851D01*
X23820Y96844D01*
X23926Y96738D01*
X23939Y96732D01*
X23973Y96699D01*
X23986Y96692D01*
X24025Y96652D01*
X24039Y96646D01*
X24065Y96619D01*
X24079Y96613D01*
X24098Y96593D01*
X24112Y96586D01*
X24125Y96573D01*
X24138Y96566D01*
X24151Y96553D01*
X24174Y96537D01*
X24396Y96374D01*
X24409Y96368D01*
X24449Y96341D01*
X24462Y96335D01*
X24502Y96308D01*
X24516Y96301D01*
X24588Y96255D01*
X24635Y96229D01*
X24694Y96195D01*
X25005Y96037D01*
X25052Y96017D01*
X25111Y95990D01*
X25148Y95974D01*
X25247Y95934D01*
X25300Y95914D01*
X25366Y95888D01*
X25668Y95785D01*
X25714Y95772D01*
X25780Y95752D01*
X25826Y95739D01*
X25863Y95729D01*
X25889Y95722D01*
X25922Y95716D01*
X26108Y95669D01*
X26339Y95623D01*
X26498Y95596D01*
X26631Y95576D01*
X26843Y95550D01*
X26909Y95543D01*
X26988Y95537D01*
X27137Y95527D01*
X27157Y95520D01*
X27409Y95514D01*
X27429Y95507D01*
X28398Y95510D01*
X28577Y95517D01*
X28703Y95524D01*
X28796Y95530D01*
X28869Y95537D01*
X28948Y95543D01*
X29021Y95550D01*
X29286Y95583D01*
X29524Y95623D01*
X29657Y95649D01*
X29660Y95653D01*
X29690Y95656D01*
X29756Y95669D01*
X29862Y95696D01*
X29905Y95706D01*
X30011Y95732D01*
X30057Y95745D01*
X30123Y95765D01*
X30170Y95778D01*
X30236Y95798D01*
X30431Y95861D01*
X30504Y95888D01*
X30557Y95907D01*
X30656Y95947D01*
X30699Y95964D01*
X30818Y96017D01*
X31143Y96176D01*
X31235Y96229D01*
X31295Y96262D01*
X31308Y96268D01*
X31381Y96315D01*
X31428Y96341D01*
X31474Y96374D01*
X31487Y96381D01*
X31646Y96494D01*
X31659Y96500D01*
X31672Y96513D01*
X31686Y96520D01*
X31706Y96540D01*
X31719Y96546D01*
X31732Y96560D01*
X31745Y96566D01*
X31765Y96586D01*
X31778Y96593D01*
X31798Y96613D01*
X31811Y96619D01*
X31825Y96632D01*
X31838Y96639D01*
X31878Y96679D01*
X31891Y96685D01*
X31931Y96725D01*
X31944Y96732D01*
X31990Y96778D01*
X32004Y96785D01*
X32186Y96967D01*
X32192Y96980D01*
X32259Y97046D01*
X32265Y97059D01*
X32305Y97099D01*
X32311Y97113D01*
X32331Y97132D01*
X32338Y97146D01*
X32364Y97172D01*
X32371Y97185D01*
X32391Y97205D01*
X32397Y97218D01*
X32407Y97228D01*
X32470Y97311D01*
X32477Y97324D01*
X32490Y97338D01*
X32497Y97351D01*
X32507Y97361D01*
X32533Y97401D01*
X32576Y97463D01*
X32583Y97477D01*
X32616Y97523D01*
X32623Y97536D01*
X32669Y97609D01*
X32676Y97622D01*
X32709Y97675D01*
X32841Y97934D01*
X32874Y98006D01*
X32894Y98053D01*
X32917Y98109D01*
X32957Y98215D01*
X32990Y98308D01*
X33007Y98351D01*
X33040Y98456D01*
X33053Y98503D01*
X33060Y98529D01*
X33070Y98566D01*
X33096Y98672D01*
X33103Y98705D01*
X33109Y98731D01*
X33136Y98864D01*
X33149Y98943D01*
X33169Y99075D01*
X33175Y99129D01*
X33182Y99188D01*
X33192Y99331D01*
X33199Y99350D01*
X33205Y99648D01*
X33199Y99933D01*
X33192Y99979D01*
X33179Y100158D01*
X33172Y100184D01*
X33156Y100320D01*
X33136Y100439D01*
X33116Y100539D01*
X33103Y100592D01*
X33093Y100635D01*
X33086Y100661D01*
X33073Y100708D01*
X33066Y100734D01*
X33040Y100827D01*
X32983Y101002D01*
X32960Y101065D01*
X32920Y101164D01*
X32901Y101211D01*
X32768Y101482D01*
X32702Y101601D01*
X32656Y101674D01*
X32649Y101687D01*
X32623Y101727D01*
X32616Y101740D01*
X32550Y101833D01*
X32543Y101846D01*
X32530Y101860D01*
X32523Y101873D01*
X32510Y101886D01*
X32503Y101899D01*
X32490Y101912D01*
X32484Y101926D01*
X32470Y101939D01*
X32464Y101952D01*
X32444Y101972D01*
X32437Y101985D01*
X32417Y102005D01*
X32411Y102018D01*
X32384Y102045D01*
X32378Y102058D01*
X32351Y102085D01*
X32345Y102098D01*
X32292Y102151D01*
X32285Y102164D01*
X32070Y102379D01*
X32057Y102386D01*
X31997Y102445D01*
X31984Y102452D01*
X31944Y102492D01*
X31931Y102499D01*
X31911Y102518D01*
X31898Y102525D01*
X31878Y102545D01*
X31865Y102551D01*
X31845Y102571D01*
X31831Y102578D01*
X31818Y102591D01*
X31712Y102671D01*
X31699Y102677D01*
X31686Y102690D01*
X31672Y102697D01*
X31663Y102707D01*
X31623Y102733D01*
X31487Y102823D01*
X31474Y102830D01*
X31428Y102863D01*
X31381Y102889D01*
X31308Y102929D01*
X31255Y102962D01*
X31010Y103088D01*
X30828Y103170D01*
X30597Y103263D01*
X30484Y103303D01*
X30282Y103372D01*
X30216Y103392D01*
X30130Y103419D01*
X30077Y103432D01*
X30031Y103445D01*
X29925Y103472D01*
X29888Y103482D01*
X29855Y103488D01*
X29829Y103495D01*
X29795Y103502D01*
X29769Y103508D01*
X29736Y103515D01*
X29709Y103521D01*
X29676Y103528D01*
X29650Y103535D01*
X29584Y103548D01*
X29544Y103554D01*
X29511Y103561D01*
X29471Y103568D01*
X29438Y103574D01*
X29398Y103581D01*
X29133Y103621D01*
X29094Y103627D01*
X28855Y103654D01*
X28782Y103660D01*
X28610Y103674D01*
X28531Y103680D01*
X28250Y103690D01*
X28230Y103697D01*
D02*
G37*
G36*
X26611Y86983D02*
X26469Y86979D01*
X26442Y86973D01*
X26316Y86966D01*
X26270Y86960D01*
X26184Y86953D01*
X26157Y86946D01*
X26022Y86930D01*
X25863Y86903D01*
X25797Y86890D01*
X25770Y86883D01*
X25704Y86870D01*
X25661Y86860D01*
X25634Y86854D01*
X25588Y86840D01*
X25482Y86814D01*
X25436Y86801D01*
X25303Y86761D01*
X25247Y86744D01*
X25095Y86691D01*
X24996Y86652D01*
X24952Y86635D01*
X24919Y86622D01*
X24800Y86569D01*
X24568Y86456D01*
X24496Y86417D01*
X24409Y86370D01*
X24357Y86337D01*
X24343Y86331D01*
X24304Y86304D01*
X24290Y86298D01*
X24237Y86264D01*
X24224Y86258D01*
X24178Y86225D01*
X24165Y86218D01*
X24072Y86152D01*
X24059Y86145D01*
X24045Y86132D01*
X24032Y86125D01*
X24019Y86112D01*
X24006Y86105D01*
X23992Y86092D01*
X23979Y86086D01*
X23966Y86072D01*
X23953Y86066D01*
X23939Y86053D01*
X23926Y86046D01*
X23906Y86026D01*
X23893Y86019D01*
X23873Y85999D01*
X23860Y85993D01*
X23833Y85967D01*
X23820Y85960D01*
X23794Y85933D01*
X23781Y85927D01*
X23734Y85880D01*
X23721Y85874D01*
X23661Y85814D01*
X23648Y85808D01*
X23473Y85632D01*
X23466Y85619D01*
X23420Y85573D01*
X23413Y85559D01*
X23360Y85506D01*
X23354Y85493D01*
X23334Y85473D01*
X23327Y85460D01*
X23307Y85440D01*
X23301Y85427D01*
X23274Y85400D01*
X23268Y85387D01*
X23248Y85367D01*
X23241Y85354D01*
X23228Y85341D01*
X23221Y85328D01*
X23211Y85318D01*
X23185Y85278D01*
X23181Y85275D01*
X23132Y85205D01*
X22996Y84997D01*
X22917Y84858D01*
X22840Y84708D01*
X22748Y84497D01*
X22721Y84430D01*
X22695Y84358D01*
X22632Y84176D01*
X22605Y84083D01*
X22599Y84056D01*
X22589Y84020D01*
X22576Y83967D01*
X22569Y83934D01*
X22556Y83881D01*
X22529Y83749D01*
X22516Y83669D01*
X22503Y83583D01*
X22490Y83477D01*
X22480Y83361D01*
X22473Y83341D01*
X22466Y83130D01*
X22460Y83110D01*
X22463Y82815D01*
X22470Y82676D01*
X22476Y82583D01*
X22486Y82461D01*
X22493Y82434D01*
X22503Y82345D01*
X22509Y82292D01*
X22529Y82173D01*
X22549Y82073D01*
X22566Y81997D01*
X22592Y81891D01*
X22605Y81845D01*
X22625Y81779D01*
X22638Y81733D01*
X22675Y81617D01*
X22711Y81514D01*
X22725Y81481D01*
X22764Y81388D01*
X22778Y81355D01*
X22890Y81123D01*
X22917Y81077D01*
X22956Y81004D01*
X22989Y80951D01*
X22996Y80938D01*
X23029Y80892D01*
X23036Y80878D01*
X23161Y80700D01*
X23168Y80686D01*
X23188Y80667D01*
X23195Y80653D01*
X23221Y80627D01*
X23228Y80614D01*
X23248Y80594D01*
X23254Y80581D01*
X23281Y80554D01*
X23287Y80541D01*
X23334Y80494D01*
X23340Y80481D01*
X23413Y80408D01*
X23420Y80395D01*
X23430Y80385D01*
X23443Y80379D01*
X23575Y80246D01*
X23589Y80239D01*
X23622Y80206D01*
X23635Y80200D01*
X23675Y80160D01*
X23688Y80153D01*
X23708Y80133D01*
X23721Y80127D01*
X23741Y80107D01*
X23754Y80100D01*
X23767Y80087D01*
X23781Y80081D01*
X23800Y80061D01*
X23814Y80054D01*
X23827Y80041D01*
X23840Y80034D01*
X23853Y80021D01*
X23867Y80014D01*
X23959Y79948D01*
X23973Y79942D01*
X23986Y79928D01*
X23999Y79922D01*
X24039Y79895D01*
X24052Y79889D01*
X24092Y79862D01*
X24105Y79855D01*
X24145Y79829D01*
X24204Y79796D01*
X24516Y79637D01*
X24575Y79611D01*
X24611Y79594D01*
X24744Y79541D01*
X24797Y79521D01*
X25012Y79445D01*
X25078Y79425D01*
X25171Y79399D01*
X25207Y79389D01*
X25366Y79349D01*
X25399Y79342D01*
X25426Y79336D01*
X25591Y79303D01*
X25790Y79269D01*
X25949Y79250D01*
X26065Y79240D01*
X26085Y79233D01*
X26244Y79226D01*
X26263Y79220D01*
X26608Y79213D01*
X26611Y86983D01*
D02*
G37*
%LPD*%
D11*
X281023Y75766D02*
Y84234D01*
X278201Y81411D01*
X275378Y84234D01*
Y75766D01*
X268322Y84234D02*
X271145D01*
X272556Y82822D01*
Y77178D01*
X271145Y75766D01*
X268322D01*
X266911Y77178D01*
Y82822D01*
X268322Y84234D01*
X264089D02*
Y77178D01*
X262677Y75766D01*
X259855D01*
X258444Y77178D01*
Y84234D01*
X255621Y75766D02*
Y84234D01*
X249977Y75766D01*
Y84234D01*
X247154D02*
X241509D01*
X244332D01*
Y75766D01*
X230219Y84234D02*
Y75766D01*
X225986D01*
X224575Y77178D01*
Y78589D01*
X225986Y80000D01*
X230219D01*
X225986D01*
X224575Y81411D01*
Y82822D01*
X225986Y84234D01*
X230219D01*
X217519D02*
X220341D01*
X221752Y82822D01*
Y77178D01*
X220341Y75766D01*
X217519D01*
X216107Y77178D01*
Y82822D01*
X217519Y84234D01*
X213285Y75766D02*
Y81411D01*
X210463Y84234D01*
X207640Y81411D01*
Y75766D01*
Y80000D01*
X213285D01*
X204818Y75766D02*
Y84234D01*
X200584D01*
X199173Y82822D01*
Y80000D01*
X200584Y78589D01*
X204818D01*
X201995D02*
X199173Y75766D01*
X196350Y84234D02*
Y75766D01*
X192117D01*
X190706Y77178D01*
Y82822D01*
X192117Y84234D01*
X196350D01*
X175182D02*
X178005D01*
X179416Y82822D01*
Y77178D01*
X178005Y75766D01*
X175182D01*
X173771Y77178D01*
Y82822D01*
X175182Y84234D01*
X170949D02*
X165304D01*
X168126D01*
Y75766D01*
X162481Y84234D02*
Y75766D01*
Y80000D01*
X156837D01*
Y84234D01*
Y75766D01*
X148369Y84234D02*
X154014D01*
Y75766D01*
X148369D01*
X154014Y80000D02*
X151192D01*
X145547Y75766D02*
Y84234D01*
X141313D01*
X139902Y82822D01*
Y80000D01*
X141313Y78589D01*
X145547D01*
X142724D02*
X139902Y75766D01*
X122968Y82822D02*
X124379Y84234D01*
X127201D01*
X128612Y82822D01*
Y81411D01*
X127201Y80000D01*
X124379D01*
X122968Y78589D01*
Y77178D01*
X124379Y75766D01*
X127201D01*
X128612Y77178D01*
X120145Y84234D02*
X117323D01*
X118734D01*
Y75766D01*
X120145D01*
X117323D01*
X113089Y84234D02*
Y75766D01*
X108855D01*
X107444Y77178D01*
Y82822D01*
X108855Y84234D01*
X113089D01*
X98977D02*
X104622D01*
Y75766D01*
X98977D01*
X104622Y80000D02*
X101799D01*
X266911Y184234D02*
X272556D01*
Y180000D01*
X269733D01*
X272556D01*
Y175766D01*
X259855Y184234D02*
X262677D01*
X264089Y182822D01*
Y177178D01*
X262677Y175766D01*
X259855D01*
X258444Y177178D01*
Y182822D01*
X259855Y184234D01*
X255621Y175766D02*
Y184234D01*
X251388D01*
X249977Y182822D01*
Y180000D01*
X251388Y178589D01*
X255621D01*
X252799D02*
X249977Y175766D01*
X238687D02*
Y181411D01*
X235864Y184234D01*
X233042Y181411D01*
Y175766D01*
Y180000D01*
X238687D01*
X230219Y184234D02*
Y175766D01*
X225986D01*
X224575Y177178D01*
Y182822D01*
X225986Y184234D01*
X230219D01*
X221752Y175766D02*
Y181411D01*
X218930Y184234D01*
X216107Y181411D01*
Y175766D01*
Y180000D01*
X221752D01*
X207640Y184234D02*
X213285D01*
Y180000D01*
X210463D01*
X213285D01*
Y175766D01*
X204818D02*
Y184234D01*
X200584D01*
X199173Y182822D01*
Y180000D01*
X200584Y178589D01*
X204818D01*
X201995D02*
X199173Y175766D01*
X196350Y184234D02*
Y177178D01*
X194939Y175766D01*
X192117D01*
X190706Y177178D01*
Y184234D01*
X187883D02*
X185061D01*
X186472D01*
Y175766D01*
X187883D01*
X185061D01*
X180827Y184234D02*
X175182D01*
X178005D01*
Y175766D01*
X163893D02*
Y184234D01*
X159659D01*
X158248Y182822D01*
Y180000D01*
X159659Y178589D01*
X163893D01*
X155425Y175766D02*
Y184234D01*
X149781Y175766D01*
Y184234D01*
X132846Y175766D02*
X138491D01*
X132846Y181411D01*
Y182822D01*
X134257Y184234D01*
X137080D01*
X138491Y182822D01*
X124379Y175766D02*
X130023D01*
X124379Y181411D01*
Y182822D01*
X125790Y184234D01*
X128612D01*
X130023Y182822D01*
X115911Y184234D02*
X118734Y182822D01*
X121556Y180000D01*
Y177178D01*
X120145Y175766D01*
X117323D01*
X115911Y177178D01*
Y178589D01*
X117323Y180000D01*
X121556D01*
X108855Y175766D02*
Y184234D01*
X113089Y180000D01*
X107444D01*
X275378Y199234D02*
X272556D01*
X273967D01*
Y190766D01*
X275378D01*
X272556D01*
X262677Y197822D02*
X264089Y199234D01*
X266911D01*
X268322Y197822D01*
Y192178D01*
X266911Y190766D01*
X264089D01*
X262677Y192178D01*
Y195000D01*
X265500D01*
X259855Y190766D02*
Y199234D01*
X254210Y190766D01*
Y199234D01*
X251388D02*
X248565D01*
X249977D01*
Y190766D01*
X251388D01*
X248565D01*
X244332Y199234D02*
X238687D01*
X241509D01*
Y190766D01*
X235864Y199234D02*
X233042D01*
X234453D01*
Y190766D01*
X235864D01*
X233042D01*
X224575Y199234D02*
X227397D01*
X228808Y197822D01*
Y192178D01*
X227397Y190766D01*
X224575D01*
X223163Y192178D01*
Y197822D01*
X224575Y199234D01*
X220341Y190766D02*
Y199234D01*
X214696Y190766D01*
Y199234D01*
X203407Y190766D02*
Y196411D01*
X200584Y199234D01*
X197762Y196411D01*
Y190766D01*
Y195000D01*
X203407D01*
X194939Y199234D02*
Y190766D01*
X190706D01*
X189294Y192178D01*
Y197822D01*
X190706Y199234D01*
X194939D01*
X186472Y190766D02*
Y196411D01*
X183650Y199234D01*
X180827Y196411D01*
Y190766D01*
Y195000D01*
X186472D01*
X178005Y190766D02*
Y199234D01*
X173771D01*
X172360Y197822D01*
Y195000D01*
X173771Y193589D01*
X178005D01*
X169537Y199234D02*
X163893D01*
X166715D01*
Y190766D01*
X155425Y199234D02*
X161070D01*
Y190766D01*
X155425D01*
X161070Y195000D02*
X158248D01*
X152603Y190766D02*
Y199234D01*
X148369D01*
X146958Y197822D01*
Y195000D01*
X148369Y193589D01*
X152603D01*
X149780D02*
X146958Y190766D01*
X130023D02*
X135668D01*
X130023Y196411D01*
Y197822D01*
X131435Y199234D01*
X134257D01*
X135668Y197822D01*
X127201D02*
X125790Y199234D01*
X122967D01*
X121556Y197822D01*
Y192178D01*
X122967Y190766D01*
X125790D01*
X127201Y192178D01*
Y197822D01*
X113089Y190766D02*
X118734D01*
X113089Y196411D01*
Y197822D01*
X114500Y199234D01*
X117323D01*
X118734Y197822D01*
X104622Y199234D02*
X110267D01*
Y195000D01*
X107444Y196411D01*
X106033D01*
X104622Y195000D01*
Y192178D01*
X106033Y190766D01*
X108855D01*
X110267Y192178D01*
X320322Y32575D02*
X321734Y31164D01*
Y28341D01*
X320322Y26930D01*
X314678D01*
X313266Y28341D01*
Y31164D01*
X314678Y32575D01*
X313266Y35397D02*
X321734D01*
Y39631D01*
X320322Y41042D01*
X317500D01*
X316089Y39631D01*
Y35397D01*
Y38220D02*
X313266Y41042D01*
X321734Y49509D02*
Y43864D01*
X313266D01*
Y49509D01*
X317500Y43864D02*
Y46687D01*
X320322Y57977D02*
X321734Y56565D01*
Y53743D01*
X320322Y52332D01*
X318911D01*
X317500Y53743D01*
Y56565D01*
X316089Y57977D01*
X314678D01*
X313266Y56565D01*
Y53743D01*
X314678Y52332D01*
X321734Y66444D02*
Y60799D01*
X313266D01*
Y66444D01*
X317500Y60799D02*
Y63622D01*
X321734Y69266D02*
Y74911D01*
Y72089D01*
X313266D01*
X294922Y32575D02*
X296334Y31164D01*
Y28341D01*
X294922Y26930D01*
X289278D01*
X287866Y28341D01*
Y31164D01*
X289278Y32575D01*
X296334Y35397D02*
X287866D01*
Y39631D01*
X289278Y41042D01*
X294922D01*
X296334Y39631D01*
Y35397D01*
Y48098D02*
Y45276D01*
X294922Y43864D01*
X289278D01*
X287866Y45276D01*
Y48098D01*
X289278Y49509D01*
X294922D01*
X296334Y48098D01*
X287866Y52332D02*
X296334D01*
X287866Y57977D01*
X296334D01*
Y66444D02*
Y60799D01*
X287866D01*
Y66444D01*
X292100Y60799D02*
Y63622D01*
X244122Y32575D02*
X245534Y31164D01*
Y28341D01*
X244122Y26930D01*
X238478D01*
X237066Y28341D01*
Y31164D01*
X238478Y32575D01*
X244122Y41042D02*
X245534Y39631D01*
Y36809D01*
X244122Y35397D01*
X242711D01*
X241300Y36809D01*
Y39631D01*
X239889Y41042D01*
X238478D01*
X237066Y39631D01*
Y36809D01*
X238478Y35397D01*
X186266Y26930D02*
X194734D01*
X191911Y29752D01*
X194734Y32575D01*
X186266D01*
X194734Y35397D02*
Y38220D01*
Y36809D01*
X186266D01*
Y35397D01*
Y38220D01*
X193322Y48098D02*
X194734Y46687D01*
Y43864D01*
X193322Y42453D01*
X191911D01*
X190500Y43864D01*
Y46687D01*
X189089Y48098D01*
X187678D01*
X186266Y46687D01*
Y43864D01*
X187678Y42453D01*
X194734Y55154D02*
Y52332D01*
X193322Y50921D01*
X187678D01*
X186266Y52332D01*
Y55154D01*
X187678Y56565D01*
X193322D01*
X194734Y55154D01*
X160866Y26930D02*
X169334D01*
X166511Y29752D01*
X169334Y32575D01*
X160866D01*
X169334Y39631D02*
Y36809D01*
X167922Y35397D01*
X162278D01*
X160866Y36809D01*
Y39631D01*
X162278Y41042D01*
X167922D01*
X169334Y39631D01*
X167922Y49509D02*
X169334Y48098D01*
Y45276D01*
X167922Y43864D01*
X166511D01*
X165100Y45276D01*
Y48098D01*
X163689Y49509D01*
X162278D01*
X160866Y48098D01*
Y45276D01*
X162278Y43864D01*
X169334Y52332D02*
Y55154D01*
Y53743D01*
X160866D01*
Y52332D01*
Y55154D01*
X142522Y32575D02*
X143934Y31164D01*
Y28341D01*
X142522Y26930D01*
X141111D01*
X139700Y28341D01*
Y31164D01*
X138289Y32575D01*
X136878D01*
X135466Y31164D01*
Y28341D01*
X136878Y26930D01*
X142522Y41042D02*
X143934Y39631D01*
Y36809D01*
X142522Y35397D01*
X136878D01*
X135466Y36809D01*
Y39631D01*
X136878Y41042D01*
X143934Y43864D02*
X135466D01*
X138289D01*
X143934Y49509D01*
X139700Y45276D01*
X135466Y49509D01*
X117122Y32575D02*
X118534Y31164D01*
Y28341D01*
X117122Y26930D01*
X111478D01*
X110066Y28341D01*
Y31164D01*
X111478Y32575D01*
X114300D01*
Y29752D01*
X110066Y35397D02*
X118534D01*
X110066Y41042D01*
X118534D01*
Y43864D02*
X110066D01*
Y48098D01*
X111478Y49509D01*
X117122D01*
X118534Y48098D01*
Y43864D01*
X67734Y26930D02*
X62089D01*
X59266Y29752D01*
X62089Y32575D01*
X67734D01*
X66322Y35397D02*
X67734Y36809D01*
Y39631D01*
X66322Y41042D01*
X64911D01*
X63500Y39631D01*
Y38220D01*
Y39631D01*
X62089Y41042D01*
X60678D01*
X59266Y39631D01*
Y36809D01*
X60678Y35397D01*
X59266Y43864D02*
X67734D01*
Y48098D01*
X66322Y49509D01*
X63500D01*
X62089Y48098D01*
Y43864D01*
X66322Y52332D02*
X67734Y53743D01*
Y56565D01*
X66322Y57977D01*
X64911D01*
X63500Y56565D01*
Y55154D01*
Y56565D01*
X62089Y57977D01*
X60678D01*
X59266Y56565D01*
Y53743D01*
X60678Y52332D01*
M02*
